<?xml version="1.0" encoding="UTF-8"?><svg id="Capa_2" xmlns="http://www.w3.org/2000/svg" viewBox="0 0 1713.12 1348.67"><g id="Capa_1-2"><path d="M1712.83,1303.02c-3.33-36.13-7.09-72.23-10.87-108.32-1.31-12.5-5.35-23.51-18.69-28.05,6.47-12.78,7.8-20.21,5.88-33.05-.69-4.61-1.41-9.22-2.43-13.76-7.03-31.26-11.39-62.85-12.87-94.88-1.78-38.26-4.28-76.46-9.99-114.39-7.16-47.53-17.73-94.19-35.83-138.89-11.78-29.1-25.29-57.27-44.68-82.23-14.33-18.45-32.7-31.19-55.16-37.69-19.61-5.67-39.35-5.25-59.31-1.17-11.33,2.32-23,4.16-34.5,4.11-14.27-.07-28.59-1.86-42.77-3.77-12.83-1.73-25.49-4.63-38.24-6.97-6.85-1.26-10.79-5.67-11.26-12.22-.83-11.56-2.28-23.35-.91-34.73,2.19-18.13,6.37-36.02,9.92-53.97,1.73-8.73,3.92-17.38,6.49-28.61,8.59,13.18,16.18,3.65,24.87,1.52-1.95,15.34-2.78,29.71-5.77,43.62-4.89,22.75-11.19,45.2-16.86,67.78-.73,2.92-1.24,5.89-1.86,8.84.69.24,1.37.48,2.06.71.86-1.25,1.95-2.41,2.55-3.78,5.9-13.4,11.78-26.81,17.57-40.27,13.07-30.39,19.5-62.2,19.47-95.21,0-8.52,1.64-16.21,4.63-24.14,8.73-23.1,15.73-46.7,16.03-71.73.08-6.76-.04-13.92-5.24-18.69-3.82-3.51-9.28-5.24-14.27-7.9.96-4.18,2.55-9.29,3.28-14.52,4.48-31.94,2.94-63.83-2.3-95.5-8.59-51.92-33.04-94.43-76.2-125.49-1.32-.95-2.51-2.07-3.9-3.22.48-3.56.99-6.82,1.35-10.1,3.15-28.7-13-56.08-38.8-65.49-11.43-4.17-23.36-5.79-35.4-4.15-7.82,1.07-15.45,4.84-23.17,4.83-7.77,0-15.46-3.98-23.33-4.82-20.65-2.19-39.92,1.66-55.83,16.08-11.46,10.39-13.19,19.52-7.34,34.03.18.45-.35,1.2-.68,2.18-1.03.34-2.26.76-3.5,1.16-32.19,10.49-59.01,29.15-81.05,54.52-38.25,44.02-57.25,96.35-63.51,153.53-2.04,18.66-5.58,36.33-13.31,53.59-9.4,21.01-15.23,43.26-17.15,66.42-2.55,30.78,3,60.33,12.8,89.32,5.33,15.77,10.78,31.56,11.89,48.34,1.3,19.59,1.9,39.24,3.5,58.8,2.31,28.23,9.5,55.11,24.95,79.22,8.8,13.73,18.11,27.14,27.15,40.73,1.22,1.84,2.16,3.88,3.23,5.82.86-.71,1.73-1.41,2.59-2.11-.79-1.97-1.4-4.04-2.41-5.89-3.98-7.31-8.19-14.49-12.12-21.82-21.91-40.93-32.04-84.3-27.97-130.89,3.35-38.34.85-76.37-6.52-114.25-5.66-29.09-9.64-58.56-6.95-88.37.77-8.56,2.89-17.03,4.78-25.44,1.16-5.15,4.6-5.97,9.33-3.31-1.35,9.54-2.95,19.03-4,28.59-3.09,28.25-2.41,56.52-.3,84.81,4.12,55.41,21.93,105.22,59.59,147.04,2.19,2.44,4.48,5.09,5.7,8.06,8.71,21.33,15.75,43.17,18.12,66.22,1.53,14.94,2.16,29.93-1.29,44.74-1.21,5.2-3.21,9.78-7.91,13.35-27.18,20.61-59.08,29.67-91.56,38.25-1.04-1.37-2.12-2.61-3-3.97-15.92-24.69-36.52-44.79-60.1-62.13-29.38-21.6-61.14-39.04-94.07-54.45-7.19-3.37-12.45-7.76-16.62-14.75-4.71-7.89-11.03-14.95-17.34-21.72-3.53-3.78-8.34-6.72-14.55-4.15-2.99,7.86.84,14.1,5.78,18.82,5.93,5.67,12.8,10.66,20.02,14.57,6.52,3.53,10.74,8.07,14.07,14.59,10.94,21.42,23.65,41.71,40.45,59.18,1.96,2.03,3.46,4.51,5.17,6.78-.26.64-.53,1.27-.79,1.91-4.74-.59-9.74-.41-14.15-1.93-7.82-2.7-15.35-6.31-22.89-9.77-7.55-3.47-14.78-7.71-22.49-10.75-19.36-7.65-36.72-3.42-51.61,10.58-6.03,5.68-11.24,12.27-16.53,18.69-8.26,10.02-16.23,20.28-24.42,30.36-1.28,1.58-3.04,2.76-6.54,5.87,0-5.93-.47-9.52.1-12.95,1.14-6.87,2.35-13.8,4.4-20.44,5.96-19.32,18.62-34.39,32.25-48.68,7.12-7.47,14.67-14.53,21.89-21.91,10.98-11.21,14.61-24.66,13.48-40.24-.81-11.19-.7-22.68.86-33.77,3.26-23.16,10.65-45.32,19.36-66.98,1.96-4.86,4.65-9.59,7.81-13.77,10.72-14.2,19.43-29.45,25.37-46.22,2.77-7.84,4.87-15.92,7.71-23.73.91-2.49,2.84-5.9,4.95-6.46,13.02-3.5,17.66-12.94,19.47-25.01,4.01-26.76,11.56-52.61,20.31-78.16,1.94-5.66,3.87-11.44,4.7-17.32,1.25-8.84,2.7-17.92,1.95-26.72-1.35-15.97-8.19-20.03-23.49-15.4.16-2.44.13-4.74.48-6.97,3.55-22.69,7.99-45.28,10.57-68.07,4.13-36.48.82-71.28-28.16-97.68,0-6.11.59-11.81-.11-17.33-2.48-19.55-12.33-35.04-27.95-46.66-6.9-5.13-14.39-9.79-22.22-13.3-15.71-7.03-29.65-16.43-42.27-28-14.98-13.74-32.73-17.92-52.68-16.3-10.87.88-21.94.35-32.84-.51-10.26-.81-20.38-3.4-30.64-4.29-25.03-2.18-47,6.81-67.94,19.42-4.74,2.85-9.98,5.12-15.28,6.72-11.59,3.5-22.68,7.79-31.88,15.94-5.83,5.16-11.45,10.95-12.25,18.85-.59,5.78-3.69,8.89-7.33,12.31-19.94,18.77-32.92,41.54-39.61,68.1-4.96,19.72-4.99,39.68-2.9,59.57,2.47,23.5,6.22,46.86,9.42,70.27.36,2.64.78,5.27,1.32,8.89-1.95-1.42-2.77-1.96-3.53-2.58-1.03-.84-1.96-1.82-3.05-2.58-9.48-6.68-19.07-4.13-23.47,6.71-1.85,4.55-3.3,9.62-3.35,14.47-.12,11.6-.12,23.32,1.3,34.81,3.29,26.7,11.34,52.63,11.68,79.91.19,15.14,6.21,28.13,23.79,29.85,4.11,31.79,4.36,62.97,2.63,93.52-8.38-1.4-16.44-3.41-24.59-3.99-18.84-1.34-35,3.77-45.16,21.26-1,1.72-2.4,3.21-3.46,4.89-8.85,14.02-21.73,22.13-37.65,25.92-6.79,1.61-13.81,2.83-20.18,5.5-4.66,1.96-10.69,5.2-12.16,9.28-2.99,8.31-8.91,10.69-16.05,12.66-3.85,1.06-7.55,2.65-11.41,3.62-26.49,6.66-18.87,7.53-104.58,26.11-6.21,1.35-15.49,1.17-24.4,5.21-1.51.68-6.76,3.17-15.42,7.09-2.08.94-3.79,1.71-4.92,2.22-6.84,4.66-13.68,9.33-20.52,13.99-4.61,3.27-11.08,8.51-17.4,16.32-.29.36-1.79,2.21-3.25,4.28-7.25,10.24-10.08,20.65-13.49,32.76-1.62,5.75-4.4,15.55-8.37,29.11-11.82,48.38-16.69,71.45-18.78,83.34-.38,2.17-1.84,10.6-4.17,21.96-2.15,10.5-4.07,18.78-5.31,24.09-2.48,10.65-4.58,18.9-5.97,24.37-1.68,6.58-2.15,8.25-3.76,14.48,0,0-3.14,12.13-7.05,28.39-5.52,22.96-12.94,81.36-14.66,94.53-5.75,43.88-14.97,117.51-29.29,158.85-2.86,8.25-4.31,17.12-5.24,25.81-1.67,15.63.42,30.86,7.82,45,.61,1.17,2.14,1.88,3.24,2.8.47-2.47.09-4.23-.66-5.8-5.07-10.6-7.08-21.86-7.16-33.49-.1-14.42,3.31-28.34,7.98-41.86,15.02-43.45,22.44-88.18,25.44-133.75,1.84-27.96,11.58-92.59,17-115.08,3.35-13.9,6.24-24.99,6.24-24.99,1.31-5.01,1.71-6.44,4.11-15.6,2.85-10.86,4.27-16.29,5.21-20.11,2.29-9.34,3.75-16.36,5.64-25.44,2.45-11.79,3.98-20.08,4.59-23.22,2.19-11.43,6.07-28.3,13.46-51.37,9.69-38.95,16.98-67.33,18.63-74.01.39-1.59,1.43-5.82,4.34-10.54,1.3-2.11,2.59-3.68,3.42-4.63.68-1.4,1.74-3.41,3.3-5.65,3.1-4.44,6.25-7.09,8.72-9.2,3.7-3.17,5.36-4.97,7.46-6.7,4.27-3.52,9.74-7.28,34.72-19.54,2.4-1.18,4.36-2.13,5.59-2.72,20.55-4.93,41.4-10.13,62.56-15.66,30.17-7.88,59.5-16.02,87.98-24.34,1.84,8.45,2.59,15.85,5.09,22.62,8.29,22.45,17.14,44.71,25.93,66.97,2.28,5.76,7.02,8.8,13.12,9.38,3.63.35,7.33.41,10.97.22,17.8-.9,34.85-5.57,51.54-11.3,21.39-7.35,42.56-15.36,63.72-23.37,11.9-4.5,22.36-3.17,32.86,4.41,27.51,19.86,51.72,42.95,71.77,70.35,1.41,1.93,2.38,4.18,3.94,6.97-10.23-2.42-19.19-4.88-28.29-6.61-12.1-2.3-24.31-4.58-36.62-1.23-11.66,3.18-16.24,12.49-10.32,22.97,2.99,5.3,7.56,10.5,12.71,13.61,9.03,5.46,18.75,10.18,28.73,13.63,29.33,10.13,53.32,28.38,76.25,48.38,2.56,2.23,6.09,4.56,3.83,10.52-6.47-.51-13.5-.24-20.11-1.76-15.87-3.65-31.45-8.57-47.34-12.14-8.98-2.01-18.43-3.77-27.49-3.11-13.9,1.01-21.25,12.61-18.62,26.42,1.92,10.07,8.03,17.38,15.75,23.55,3.29,2.63,6.78,5.03,10.47,7.75-9.26,11.34-9.19,23.41-2.82,34.96,3.58,6.5,9.32,12,14.82,17.18,4.04,3.81,9.26,6.37,14.36,9.76-4.83,12.43,1.37,21.42,10.36,28.47,7.53,5.9,15.98,10.78,24.45,15.32,18.47,9.91,37.54,18.75,55.77,29.06,24.84,14.05,51.06,24.38,78.61,31.26,38.65,9.66,75.04,25.09,110.87,42.1,1.75.83,3.36,1.97,5.19,3.07-1.43,12.51-2.8,24.71-4.21,36.91-5.77,50.03-9.08,100.2-6.92,150.56.67,15.57,3.44,31.06,5.42,46.57.2,1.59,1.57,3.03,2.4,4.55-10.77-79.23-2.1-157.38,7.35-237.41,30.13,15.81,58.56,30.73,87.71,46.02-12.6,16.17-19.83,33.29-24.62,51.42-4.51,17.04-9.06,34.13-12.3,51.44-2.43,13.01-3.52,26.39-3.88,39.65-.31,11.33,1.98,22.56,7.7,32.7,6.57,11.64,16.32,16.43,29.29,13.67,6.13-1.3,12.46-3.05,17.85-6.1,10.67-6.05,21.53-12.2,30.93-19.98,29.47-24.37,54.06-53.22,74.88-85.28,1.74-2.67,3.53-5.31,5.05-7.6,1.5.35,1.86.36,2.14.51,2.96,1.51,5.94,3,8.86,4.58,68.11,36.71,139.31,64.82,215.95,77.97,32.22,5.53,64.43,10.53,97.29,8.95,20.48-.98,39.16-6.65,55.74-19.19,14.45-10.93,27.31-23.31,38.52-37.54,27.19-34.49,48.61-72.33,66.09-112.52,1.35-3.1,1.89-6.84,4.5-8.54,24.57,27.24,57.07,28.45,90.15,29.98,2.13,6.76,5.07,13.23,6.15,20,4.97,31.22,9.35,62.53,14.1,93.78,1.95,12.83,4.04,25.65,6.6,38.36.83,4.11,1.24,9.36,7.63,11.02.85-2.48,2.09-4.54,2.2-6.66.44-8.29,1.35-16.68.59-24.89ZM779.58,642.12c10.98,1.62,22.47,13.88,25.09,26.47-11-6.65-22.56-11.75-25.09-26.47ZM1346.98,646.69c34.96,9.26,70.32,11.83,106.3,12.24-.56.64-1.13,1.76-2.04,2.24-25.06,13.1-42.9,33.52-57.15,57.26-21.46,35.74-34.27,74.57-35.69,116.22-1.25,36.81-7.37,72.78-13.52,108.88-4.08,23.94-7.87,47.96-10.77,72.06-1.34,11.12-.23,22.53-.23,34.98-64.65-6.84-129.75-12.49-194.84-27.75,89.45-114.85,152.48-243.57,207.93-376.12ZM1374.81,514.41c-6.26,4.65-8.14,4.13-12.97-2.58-1.39-1.93-3.77-3.14-6.16-5.05,2.9-13.67,5.69-27.62,8.87-41.49,2.29-9.98,5.09-19.85,8.07-31.31,1.43,2.55,2.58,3.69,2.71,4.95,2.26,20.41,4.28,40.84,6.61,61.24.74,6.52-2.36,10.71-7.13,14.24ZM1355.86,365.2c-14.65-39.23-32.52-77.26-42.63-118.17-2.54-10.26-6.65-20.25-11.05-29.9-14.32-31.41-39.42-48.41-73.23-53.21-5.6-.79-11.4-.76-16.79-2.27-3.48-.98-7.48-3.42-9.26-6.39-2.49-4.15,1.57-7.38,4.48-9.99,12.09-10.84,26.43-11.65,41.32-8.32,23.26,5.2,41.96,18.14,57.75,35.49,19.69,21.65,32.55,47.17,39.08,75.43,4.55,19.7,7.41,39.88,9.66,60,2.26,20.24,5.52,40.17,11.15,59.73.35,1.22.56,2.49.95,4.25-6.72,1.05-9.49-1.45-11.44-6.66ZM1356.98,379.46c-10.18-.65-19.03.95-26.09-6.05,11.92-1.31,19.93.55,26.09,6.05ZM1362.14,376.66c2.03.42,4.07.84,6.1,1.26-.03.37-.06.75-.09,1.12h-6.24c.08-.79.15-1.59.23-2.38ZM1372.78,388.42c1.06,4.13,2.25,8.28,3.91,12.2,2.02,4.77.92,8.64-2.9,13.63-3.48-10.23-6.6-19.4-9.97-29.3,4.91-1.93,7.73-1.3,8.96,3.47ZM1376.02,384.24c5.67-.94,9.89-1.63,15.76-2.6-3.93,6.22-7.11,11.23-11.07,17.5-1.76-5.6-3.11-9.89-4.68-14.9ZM1377.21,429.39c-1.47-5.75-.12-10.2,3.77-16.36,6.96,22.93,11.62,44.26,13.55,66.2.65,7.36-2.93,12.61-7.4,19.36-.63-2.11-1.17-3.11-1.2-4.13-.62-22-3.26-43.75-8.72-65.07ZM1375.96,589.44c.34-3.47.28-5.64.79-7.67,5.49-21.96,8.61-44.28,8.92-66.88.1-7.5,4.34-12.06,8.12-17.78,5.15,15.58-5.45,71.14-17.83,92.33ZM1414.17,389.02c1.73,4.47,2.17,9.71,2.07,14.58-.36,17.74-4.52,34.83-9.96,51.62-1.88,5.8-4.06,11.49-6.29,17.78-5.47-21.75-10.71-42.21-15.67-62.73-.66-2.71-.87-6.32.4-8.56,3.4-5.99,6.98-12.21,11.85-16.94,6.28-6.1,14.43-3.97,17.61,4.26ZM1224.42,69.81c1.67-1.15,4.9-2.18,6.2-1.35,6.62,4.25,13.15,8.77,19.07,13.92,3.11,2.71,3.95,7.49,1.2,10.95-2.03,2.56-5.66,3.84-6.83,4.58-10.74.25-19.95-5.52-23.27-13-2.52-5.67-1.27-11.74,3.63-15.11ZM1142.94,83.63c2.09-3.32,4.75-6.56,7.84-8.94,21.68-16.62,45.53-17.33,70.32-10.03.2,1.34.42,1.82.28,1.98-6.21,6.9-8.25,14.33-2.94,22.69,5.48,8.63,17.23,14.13,26.61,12.53,9.16-1.56,14-10.32,9.78-18.84-1.85-3.72-5.05-6.99-8.24-9.78-3.44-3.02-7.58-5.25-13.36-9.12,25.82-6.94,48.51-5.34,67.44,11.74,16.55,14.93,20.59,34.74,17.39,58.02-4.64-2.8-7.96-4.79-11.26-6.8-14.9-9.04-30.21-18.04-48.19-17.14-15.49.77-30.37-1.54-45.4-4.06-22.57-3.77-45.08-2.51-67.28,1.41-7.15-8.19-8.18-15.4-2.99-23.66ZM1313.96,136.65c-4.42,2.67-7.47,1.65-10.35.35-16.24-7.34-32.44-14.78-48.65-22.19,22.74-2.05,40.2,9.79,59,21.84ZM1227.15,112.59c-23.06,10.83-63.67,10.16-76.72-1.83,26.35-4.87,51.21-3.84,76.72,1.83ZM998.49,293.05c8.02-45.9,26.64-87.03,56.51-122.84,21.13-25.32,47.26-43.72,78.44-54.86,5.9-2.11,10.83-2.88,16.53,1.5,6.67,5.11,15.08,6.61,23.51,7.38,19.58,1.79,38.52-1.84,57.2-6.93,6.48-1.76,12.38-1.84,18.45.74,15.61,6.62,31.26,13.13,46.83,19.86,6.73,2.91,13,6.37,20.97,3.51,2.13-.76,6,1.91,8.48,3.79,35.48,26.93,59.62,61.37,69.21,105.33,7.8,35.74,10.49,71.78,5.52,108.13-2.71,19.83-4.12,20.51-23.28,15.78-1.27-.31-2.5-.77-4.05-1.25-7.15-19.5-10.45-39.73-12.97-60.26-2.68-21.77-5.34-43.66-10.15-65.02-7.38-32.78-22.88-61.63-47.28-85.28-15.15-14.68-32.63-25.25-53.42-29.64-10.52-2.22-21.35-3.13-31.44,1.36-5.63,2.5-11.16,6.13-15.49,10.49-6.83,6.88-4.63,15.32,4.34,19.19,2.68,1.16,5.76,1.44,8.68,2,9.79,1.88,19.75,3.1,29.36,5.67,23.88,6.38,41.51,21.05,52.05,43.26,5.82,12.26,10.6,25.18,14.3,38.23,8.18,28.88,18.37,56.98,30,84.61,4.25,10.09,8.1,20.34,12.49,31.39-7.5,1.59-13.72-1.16-20.02-1.98-1.46-.19-3.16-2.42-3.84-4.09-11.03-26.9-33.52-38.49-59.9-44.49-16.08-3.66-32.43-3.64-48.63-.4-4.16.83-8.35,2.43-12.01,4.57-4.73,2.76-7.1,8.75-5.85,12.79,1.72,5.53,6.22,6.36,11.16,6.29,1.65-.02,3.29,0,5.27,0-7.55,7.28-14.77,14.25-22.63,21.83-14.61-10.96-31.51-14.33-49.56-7.93-4.31-3.17-4.98-7.21-5.13-11.73-.14-4.28-.75-8.61-1.69-12.79-1.9-8.44-7.23-14.23-15.31-17.09-23.43-8.3-46.92-9.07-70.25.38-7.49,3.04-13.98,7.58-19.01,14.15-1.75,2.29-4.33,3.96-6.6,5.83-4.85,3.99-9.91,7.74-14.54,11.96-2.3,2.1-3.95,4.66-7.74,2.28.07-.78-.11-1.83.28-2.55,13.24-23.97,23.09-49.41,32.88-74.9,7.79-20.28,17.29-39.68,30.67-56.95,20-25.82,44.97-44.34,77.4-51.28,8.09-1.73,16.52-1.87,24.77-2.9,3.93-.49,7.96-.95,11.69-2.19,5.37-1.79,9.17-5.45,9.64-11.51.48-6.1-1.45-11.56-6.79-14.57-3.92-2.22-8.6-3.71-13.08-4.19-12.8-1.39-25.19,1.18-37.22,5.51-25.71,9.25-47.01,24.69-64.15,45.92-12.79,15.85-24.52,32.5-33.34,50.86-13.68,28.48-26.58,57.34-39.8,86.04-1.48,3.21-2.93,6.43-4.4,9.64-.62-.17-1.24-.33-1.85-.5,1.57-10.71,2.9-21.47,4.76-32.13ZM1206.48,450.35c.83,2.15,2.32,4.03,3.3,6.13,2.91,6.22,1.59,12.14-3.44,15.92-4.34,3.25-7.95,2.86-13.89-1.5-6.67-4.9-16.52-3.64-22.43,2.87-6.66,7.35-12.62,7.49-18.66-.53-5.35-7.12-11.56-9.08-19.99-6.78-6.42,1.75-10.35-1.35-10.33-8,.01-3.17,1.13-6.53,2.49-9.46,1.67-3.59,3.86-7,6.27-10.15,17.71-23.17,24.11-49.05,18.72-77.65,15-8,33.5-4.88,47.08,8.14-6.71,24.72-1.26,47.5,13.71,68.66-1.6,1.58-4.29,3.02-4.65,4.9-.44,2.3.86,5.05,1.8,7.45ZM1223.35,549.24c-10.32,2.48-20.8,4.7-31.34,5.74-22.03,2.18-43.92.45-65.31-5.46-14.88-4.11-28.44-10.78-40.47-23.59,4.16-.32,6.93-.89,9.65-.7,32.85,2.36,65.7,4.79,98.54,7.31,10.61.82,21.23,1.8,31.79,3.09,4.05.5,7.98,2.07,12.79,3.39-4.26,6.81-10.07,8.87-15.66,10.21ZM1231.97,551.7c-39.65,44.32-116.89,27.8-142.12-15.24,42.42,26.88,86.55,27.32,131.98,17.57,3.09-.66,6.16-1.41,10.14-2.33ZM1217.33,530.36c-36.48-3.22-72.95-6.43-111.12-9.8,12.24-3.45,22.96-6.84,34.25-6.94,4.16-.04,8.59,1.23,12.45,2.92,5.2,2.29,10,2.1,15.46,1.12,5.38-.96,11.35-1.25,16.56.09,11.1,2.86,21.88,6.97,32.79,10.57-.13.68-.26,1.35-.39,2.03ZM1197.63,382.17c1.48-15.52,9.73-26.53,22.95-34.1,12.82-7.34,26.84-9.35,41.6-10.05,11.06,2.03,22.44,3.01,33.1,6.32,22.98,7.14,33.95,23.72,32.33,47.64-1.07,15.87-6.09,30.47-15.84,43.36-22.19,29.33-61.3,30.1-86.44,11.5-21.37-15.81-30.23-38.07-27.7-64.67ZM1214.38,337.66c-2.19.16-6.23-1.52-6.47-2.87-.43-2.44.64-6,2.41-7.77,2.2-2.2,5.6-3.8,8.72-4.36,28.28-5.11,55.59-3.12,80.75,12.26,4.29,2.62,8.04,6.11,12.04,9.19-.27.39-.53.79-.8,1.18-.87-.21-1.86-.22-2.59-.65-21.77-12.79-45.11-14.36-69.39-10.04-8.15,1.45-16.41,2.44-24.67,3.06ZM1099.04,334.8c28.64,7.84,41.57,27.73,36.98,57.11-2.64,16.92-10.08,31.67-22.79,43.38-11.6,10.68-25.65,14.99-44.83,14.82-26.74-.08-52.59-22.19-58.02-53.74-1.55-9.02-1.69-18.62-.54-27.7,2.29-18.13,13.82-29.28,30.95-34,19.29-5.3,38.92-5.16,58.25.14ZM1050.02,323.51c9.38-7.84,20.27-10.19,31.44-11.27,13.02-1.26,25.86.46,38.33,4.34,13.14,4.1,18,11.41,17.78,27.59-27.8-14.96-55.25-27.84-87.55-20.66ZM1128.65,345.82c10.61,4.08,12.98,7.26,10.53,15.31-3.69-5.37-6.84-9.95-10.53-15.31ZM999.32,349.28c-7.2,13.97-11.75,28.75-13.25,44.5-2.65,27.79.71,55.17,5.05,82.52,3.08,19.39,7.18,38.75,8.41,58.27,1.4,22.2,1.07,44.62-.21,66.85-2.01,34.79,2.11,68.42,14.7,100.95.6,1.54,1.11,3.12,1.6,4.71.08.25-.15.6-.68,2.52-9.81-15.88-15.9-32.1-18.56-49.24-2.8-18.05-5.05-36.33-5.44-54.56-.58-26.93-4.77-52.83-13.94-78.21-10.04-27.78-15.24-56.51-13.06-86.28,1.57-21.45,6.28-42.2,14.61-61.93,18.11-42.89,36.37-85.73,55.31-128.26,11-24.7,24.97-47.83,42.23-68.77,18.41-22.32,40.61-39.46,68.99-47.07,8.25-2.21,17.03-2.54,25.59-3.51,2.28-.26,4.68.06,6.96.48,8.32,1.53,13.03,6.36,12.8,12.89-.2,5.48-4.43,9.27-12.65,10.5-6.58.98-13.26,1.25-19.88,1.97-24.9,2.69-46.87,12.3-65.89,28.46-19.84,16.86-35.41,37.12-45.83,61-9.58,21.96-18.01,44.42-27.77,66.29-5.52,12.35-12.89,23.87-19.1,35.93ZM1000.01,361.62c.71-4.87,1.93-8.74,9.55-7.75-2,5.13-1.79,11.02-9.55,7.75ZM1068.3,634.36c-14.61-18.93-30.44-36.83-40.55-59.07-17.7-38.97-25.07-79.82-25.22-122.24-.06-18.53.57-37.06.89-55.59.68-.06,1.35-.12,2.03-.18,1.42,3.97,2.7,8,4.29,11.9,8.5,20.78,22.28,36.32,44.46,42.59,35.02,9.9,68.54-7.8,81.67-42.86,4.61-12.3,6.6-25.05,4.79-38.24-.28-2.08.14-4.26.3-7.8,4.95,3.45,4.71,7.45,4.98,11.11,1.57,21.45-4.59,40.75-16.42,58.45-3.33,4.98-6.93,9.79-9.98,14.93-2.78,4.68-4.11,9.76-2.04,15.28,2.51,6.69,6.85,9.62,13.88,7.79,7.35-1.91,12.97-1,17.06,6.03,3.72,6.38,10.39,6.34,16.43,6.6.91,7.72,1.76,15.22,2.68,22.71.84,6.87-3.32,11.19-9.18,8.11-13.74-7.22-27.15-3.99-40.85-.84-12.91,2.97-25.89,5.66-40.14,8.75,1.24,3.08,2.27,7.13,4.33,10.58,17.18,28.79,42.5,45.15,75.83,49.07,1.65.19,3.31.32,4.95.52.31.04.59.29,2.14,1.09-6.52,1.13-12.05,1.72-17.36,3.12-5.3,1.39-12.23,1.92-12.73,9.12-.46,6.51,5.77,8.19,10.44,10.58,1.05.53,2.16.93,3.26,1.37-11.17-.02-21.92,2.35-32.09,6.97-17.82,8.1-22.41,21.29-13.95,38.93.68,1.42.93,3.06,1.38,4.59,9.3,9.28,21.14,13.66,33.52,16.44,17.3,3.88,34.4,3.09,50.76-4.52,7.35-3.42,13.84-7.97,18.3-14.96,6.32-9.91,5.53-19.72-2.62-28.25-8.29-8.68-18.87-13.49-30.18-16.79-7.66-2.23-15.51-3.83-23.1-6.26-4.24-1.36-8.11-3.85-12.16-5.83,1.85-6.64,6.59-6.91,10.6-7.73,7.49-1.54,15.09-2.55,22.62-3.88,30.6-5.4,56.14-20.04,77.35-42.5,1.59-1.69,3-3.56,4.32-5.47.52-.75.56-1.84,1.18-4.05-13.68-3.84-27.2-7.74-40.79-11.42-13.74-3.71-26.6-10.76-42.18-10.61-.97-7.2-2.48-14.29-2.75-21.43-.32-8.64,3.35-12.25,11.97-12.46,4.96-.12,9.94.74,14.91,1.12,6.71.51,12.53-1.16,16.75-6.81,3.91-5.22,5.17-10.7,1.93-16.76-1.53-2.86-2.91-5.81-4.77-9.53,5.18-.58,8.2,2.33,11.37,4.18,9.27,5.42,18.9,9.68,29.5,11.78,27.7,5.48,52.74-4.95,68.26-28.6,8.24-12.55,12.37-26.43,13.38-41.31.22-3.25.32-6.5.48-9.79,8.97.68,17.21,1.31,26.92,2.05,3.92,12.06,8.1,24.59,11.99,37.2.52,1.7-.24,3.87-.68,5.77-6.86,29.81-13.79,59.6-20.66,89.41-7.39,32.07-18.15,62.62-39.31,88.6-10.57,12.98-22.36,24.71-35.9,34.53-22.68,16.45-46.08,31.76-73.21,40.08-36.72,11.26-70.38,5.43-100.45-18.84-1.49-1.2-2-3.61-2.96-5.46-7.67-2.11-12.69-7.82-17.78-13.33-2.51-2.72-3.19-7.77-8.88-5.8-.69.24-2.28-1.17-3.03-2.14ZM1148.74,607.44c11.74,3.4,23.64,6.33,35.13,10.42,5.47,1.95,10.7,5.5,15.07,9.4,9.76,8.71,9.89,20.45.53,29.69-3.47,3.43-7.69,6.54-12.15,8.47-22.93,9.96-45.88,9.86-68.06-2.13-5.07-2.74-9.84-7.04-13.21-11.73-7.97-11.11-5.1-23.63,6.44-30.95,8.27-5.24,17.52-8.14,27.23-8.73,4.01-.24,6.64-1.78,9.03-4.45ZM1242.01,535.92h7.2c-1.83,2.16-3.02,3.56-4.72,5.56-.98-2.2-1.6-3.59-2.48-5.56ZM1086.12,746.48c5.06-25.34,1.5-50.37-5.05-75.03-2.37-8.92-5.5-17.63-8.81-28.08,3.51,2.68,5.73,4.38,7.95,6.08,9.77,7.49,19.2,15.49,29.39,22.37,27.79,18.77,58.22,21.51,89.87,12.61,30.63-8.61,56.91-25.55,81.79-44.8,24.96-19.31,44.24-43.13,56.8-72.21.76-1.76,1.66-3.46,4.07-4.86-.41,3.03-.89,6.05-1.21,9.09-1.63,15.53-3.8,31.03-4.56,46.6-.33,6.75,1.41,13.98,3.84,20.36,1.83,4.8,2.1,8.58.1,13.13-10.59,24.05-20.74,48.3-31.54,72.25-33.85,75.02-71.7,147.95-116.67,216.97-16.33,25.07-34.51,48.94-52.13,73.15-6.5,8.92-6.87,8.65-18.29,4.26-5.17-22.62-10.11-45.35-15.59-67.96-9.81-40.47-18.08-81.23-21.06-122.82-1.38-19.23-1.09-38.58-1.5-57.87-.17-7.86,1.05-15.47,2.6-23.24ZM1130.11,1025.74c-2.19,2.42-3.57,3.95-5.6,6.19-.82-2.63-1.37-4.4-2.24-7.18,2.78.35,4.75.6,7.84.99ZM1030.23,790.21c16.94-6.71,34.68-11.6,49-25.91,0,10.28-.1,18.81.02,27.32.74,55.26,10.63,109.2,23.61,162.7,4.31,17.78,8.25,35.65,12.27,53.5.64,2.83.81,5.76,1.32,9.6-2.67-.3-4.56-.3-6.33-.75-55.13-14.25-109.47-30.99-162.37-52.15-3.07-1.23-8.08-.69-8.42-5.92,29.79,10.74,54.88-6.32,64.93-30.38,6.9-16.53,7.37-33.73,4.92-51.07-3.05-21.54-9.21-42.23-18.55-61.93-.82-1.74-1.49-3.55-2.52-6.01,14.37-6.54,28-13.4,42.14-19ZM983.98,811.08c10.44,19.18,16.58,39.01,20.23,59.68,2.62,14.84,3.51,29.72-.13,44.53-1.03,4.18-2.34,8.33-4.02,12.29-12.97,30.49-46.95,39.76-73.69,20.19-9.64-7.06-15.69-16.44-16.43-28.4-1.89-30.43,7.42-56.99,28.87-78.92,12.49-12.77,27.5-21.84,45.17-29.36ZM938.67,958.37c-1.4.4-2.9,1.1-4.03.72-5.02-1.7-9.96-3.7-14.8-5.89-6.62-2.98-13.11-6.24-20.48-9.76,1.7-15.25,3.33-29.94,4.97-44.63-1.11,27.44,5.94,49.51,34.35,59.57ZM979.91,807.1c-14.27,9.13-28.53,18.25-42.8,27.38,11.41-13.57,26.31-21.7,42.8-27.38ZM734.43,714.92c-7.63,10.06-15.81,19.74-22.8,30.22-7.28,10.93-11.09,23.42-12.54,36.52-.33,2.96-.51,6.01-.22,8.96.35,3.6.63,8.32,4.98,8.67,2.52.2,5.96-2.4,7.88-4.68,9.43-11.22,18.42-22.79,27.69-34.15,3.79-4.64,7.6-9.31,11.87-13.48,16.17-15.81,33.34-18.91,53.92-9.66,7.58,3.4,14.74,7.75,22.31,11.17,6.95,3.14,14.04,6.2,21.37,8.21,5.89,1.61,12.32,2.75,19.44-1.98-2.46-3.65-4.34-7.39-7.08-10.34-15.97-17.25-28.73-36.66-39.48-57.47-.71-1.36-1.23-2.83-2.58-5.98,3.6,1.42,5.65,2.07,7.57,3,31.49,15.28,62.36,31.64,90.53,52.64,19.06,14.21,36.59,29.98,50.66,49.29,3.5,4.81,6.72,9.82,10.48,15.33-2.14,1.29-3.66,2.44-5.36,3.2-47.28,21.31-69.93,59.41-74.83,109.62-.83,8.54-1.61,17.08-2.55,27.04-3.98-2.33-7.35-3.73-10.02-5.96-10.46-8.75-20.93-17.52-30.96-26.76-9.05-8.35-17.19-17.71-26.36-25.92-8.9-7.98-18.22-15.63-28.07-22.39-9.7-6.65-18.51-13.97-26.43-22.67-4.86-5.34-10.7-10.06-16.81-13.92-8.12-5.13-16.76-6.78-24.34,2.32-17.61-11.93-34.92-23.67-52.11-35.31,6.38-26.97,33.16-65.33,57.08-80.27-1.07,1.58-2.08,3.22-3.23,4.74ZM736.41,832.88c2.33,1.58,4.65,3.16,6.98,4.75-.29.45-.58.9-.87,1.36-2.38-1.49-4.76-2.98-7.15-4.47.35-.54.69-1.09,1.04-1.63ZM731.88,829.87c-12.89,5.06-23.42-2.37-24.46-16.35,8.19,5.47,15.94,10.65,24.46,16.35ZM861.87,152.34c10.52,22.38,12.82,46.08,9.55,70.22-3.21,23.71-7.39,47.3-11.49,70.88-1.23,7.06-3.61,13.91-5.46,20.86-.84-.25-1.67-.5-2.51-.75-1.65-7.76-2.82-15.66-5.05-23.25-4.04-13.7-8.51-27.28-13.23-40.76-1.96-5.62-2.74-10.93-.33-16.45,8.68-19.87,6.3-39.59-.63-59.31-2.53-7.2-5.16-14.4-7.05-21.78-1.02-3.99-.55-8.35-.72-11.69,7.64-2.65,13.97-4.86,21.61-7.51,6.86,3.67,11.47,11.35,15.31,19.52ZM830.25,131.98c2.69-.78,5.38-1.56,8.07-2.34.25.83.5,1.67.75,2.5-2.68.82-5.36,1.65-8.03,2.47-.26-.87-.52-1.75-.78-2.62ZM579.28,18.71c23.99-14.4,49.66-17.96,76.92-12.22,15.71,3.31,31.52,4.3,47.63,2.25,17.32-2.2,33.28,2.28,46.21,14.29,14.08,13.07,29.89,23.19,47.33,31.07,11,4.98,20.86,11.75,29.07,20.75,9.23,10.12,15.3,21.81,16.77,35.49.52,4.82-.26,9.77-.39,13.36-7.07,2.58-12.8,4.67-20.5,7.48-1.18-.72-4.26-2.52-7.27-4.43-5.33-3.39-10.55-6.98-15.95-10.26-15.07-9.18-31.54-13.15-48.84-9.83-19.57,3.76-34.44-4.33-47.5-16.99-6.87-6.66-12.69-14.57-18.17-22.47-16.74-24.13-40.12-37.7-68.5-42.45-13.33-2.23-27.09-1.88-40.83-2.71.98-.82,2.34-2.33,4.02-3.34ZM571.55,27.92c23.56-3.37,46.37-1.07,68.5,8,14.84,6.08,27.1,15.4,36.89,28.02,3.06,3.94,6.05,7.93,8.97,11.98,8.84,12.24,18.58,23.5,32.31,31.19-26.98,2.09-53.29,1.88-75.77-16.19-10.88-8.75-22.11-17.09-32.86-26-16.29-13.51-33.26-24.76-56.29-19.3,2.89-11.19,8.68-16.33,18.25-17.7ZM559.25,64.61c-3-3.81-5.01-8.39-8.03-13.59,11.32-4.46,21.2-3.21,30.92.45,3.69,1.39,7.34,3.34,10.46,5.74,17.88,13.76,35.59,27.74,53.36,41.65-25.67-5.6-50.16-4.05-75.97,6.24,5.9-17.16-1.68-28.98-10.74-40.49ZM568.1,96.19c-.98,8.51-5.6,12.28-14.1,11.76-16.54-1.01-34.34-15.58-38.78-31.47-1.21-4.32-.89-7.57,3.13-10.35,8.76-6.05,17.74-11.59,28.04-14.51,5.5,8.31,10.31,15.8,15.37,23.12,4.49,6.5,7.26,13.44,6.33,21.45ZM553.35,31.23c-4.54,14.45-4.64,14.25-15.87,19.44-7.39,3.42-14.47,7.53-23.48,12.28,7.64-19.34,22.51-26.01,39.35-31.72ZM468.83,232.15c-3.22-22.02-6.3-44.15-4.59-66.55,2.7-35.4,17.01-65.25,42.83-89.6.66-.63,1.63-.92,2.87-1.6,6.84,21.29,21.78,33.44,43.94,38.25-1.78,1.48-2.69,2.42-3.76,3.11-28.97,18.67-37.93,45.91-32.86,78.58,1.84,11.88,0,22.38-6.21,32.42-12.72,20.54-22.08,42.42-26.41,66.3-.29,1.58-.88,3.11-1.85,6.47-1.49-2.84-2.61-4.15-2.88-5.61-3.81-20.57-8.06-41.09-11.08-61.78ZM475.52,434.68c-5.4,2.35-9.77.3-12.4-3.6-3.07-4.55-6.09-9.8-6.9-15.09-1.76-11.47-1.41-23.27-3.19-34.74-2.7-17.42-7.17-34.57-9.55-52.02-1.56-11.44-1.02-23.21-.84-34.82.06-3.86,1.45-7.9,3.05-11.49,3.65-8.16,11.23-9.9,17.82-3.83,3.33,3.07,5.75,7.27,8.09,11.24,1.84,3.13,2.79,6.77,4.41,10.04,2.01,4.06,4.83,6.6,10.02,6.02,8.89-.99,17.83-1.6,26.76-2.06,8.31-.44,16.69-.05,24.96-.84,6.52-.62,12.92-2.47,21.07-4.11,23.99,12.37,49.42,3.67,75.42-1.92-.96-9.27-10.54-9.31-15.93-16.69,7.39,2.98,12.79,5.28,18.28,7.33,6.39,2.38,9.05,1.59,10.22-4.9,1.39-7.76,1.91-15.87,1.39-23.73-.43-6.43-5.37-10.82-11.48-12.58-23.4-6.74-47.11-9.19-70.9-2.32-13.45,3.88-24.58,11.79-33.27,22.81-2.1,2.66-3.33,5.99-4.97,9.01.53.57,1.05,1.14,1.58,1.72,2.26-.8,4.58-1.44,6.75-2.43,8.77-3.98,17.26-8.67,26.28-11.97,12.55-4.58,25.49-3.64,38.41-.74,14.2,3.19,28.5,5.97,44.02,9.19-.5,3.37-1.19,8.03-2.03,13.74-4.62-1.85-7.95-3.05-11.18-4.5-16.92-7.57-34.37-7.96-51.68-2.37-7.09,2.29-13.87,6.49-19.88,11.04-11.96,9.06-19.52,9.83-32.54,1.66-.46-.29-1.2-.12-3.18-.27,1.85,2.87,3.27,5.07,5.58,8.65h-42.47c3.83-18,8.28-36.82,17.79-54.06,3.7-6.7,7.3-13.46,11.13-20.09,5.76-9.96,7-20.48,5.42-31.81-1.1-7.86-1.52-15.96-1.02-23.87,1.19-19,9.81-34.3,24.86-45.97,28.01-21.73,59.34-29.04,94.06-21.71,3.58.76,7.18,1.47,10.69,2.5,31.96,9.31,64.53,9.08,97.12,5.46,19.71-2.19,37.76.74,54.29,11.89,6.61,4.46,13.28,8.81,20.33,13.48-3.39,10.55-.28,20.26,3.26,30.04,3.05,8.43,6.11,16.95,7.96,25.69,2.66,12.53,2.64,25.18-2.87,37.22-3.53,7.71-3.56,15.18-.14,23.11,9.41,21.83,15.38,44.64,18.1,68.28.15,1.3.46,2.62.91,3.85.19.53.94.86,2.21,1.93,4.01-5.58,7.94-11.13,11.96-16.62,2.94-4,5.65-9.17,11.49-8.25,6.42,1.01,8.21,7.18,8.33,12.26.24,9.55-.23,19.28-1.88,28.67-1.54,8.78-4.59,17.37-7.65,25.8-8.35,22.95-13.13,46.73-17.49,70.65-1.62,8.87-4.74,16.76-16.28,18.76,3.52-20.71,7.65-40.82,10.23-61.14,4.89-38.43,4.76-51.21.74-61.62-1.25,2.84-2.48,4.58-2.79,6.47-3.35,20.36-6.21,40.81-9.93,61.1-2.04,11.09-4.9,22.11-8.43,32.82-4.69,14.22-13.31,25.17-28.5,29.76-9.27,2.8-16.13,8.95-21.73,16.79-4.01,5.61-8.59,10.82-14.41,18.08-.89-4.42-1.83-6.47-1.58-8.35,1.08-8.25,2.57-16.44,3.77-24.68,2.23-15.29-2.11-27.29-16.31-35.38-12.72-7.24-24.81-15.58-37.23-23.35-12.04-7.53-24.61-11.13-39-6.9-3.99,1.17-9.67.4-13.28-1.7-9.18-5.34-18.47-5.62-27.92-2.49-16.73,5.55-33.35,11.47-49.86,17.64-16.4,6.13-24.78,18.3-25.55,35.8-.28,6.32-.81,12.63-1.42,18.93-.27,2.84-1,5.64-1.73,9.6-2.92-1.68-5.21-2.38-6.57-3.9-3.31-3.71-6.45-7.64-9.2-11.79-6.15-9.27-13.39-17.55-22.61-23.73-12.34-8.29-19.95-19.82-22.69-34-3.21-16.62-5.5-33.46-7.33-50.29-1.43-13.18-1.56-26.49-3.69-40.23-.84,1.77-2.18,3.46-2.44,5.31-4.99,35.37-7.34,70.87-4.86,106.58.18,2.6.02,5.22.02,8.01ZM561.8,295.34c5.69-3.57,10.33-6.49,15.22-9.56,1.33,5.22,2.43,9.55,3.69,14.54-6.38.19-12.31-.76-18.92-4.98ZM582.44,290.1c0-5.68,3.88-8.21,12.39-8.09,7.44.11,10.79,2.82,10.77,8.72-.02,5.56-5.09,9.66-11.8,9.53-6.39-.13-11.36-4.58-11.36-10.17ZM609.63,298.61v-15.24c6.46,3.59,12.01,6.67,17.56,9.75-.15.69-.29,1.39-.44,2.08-5.56,1.11-11.12,2.21-17.12,3.41ZM644.15,266.05c-6.62-.41-12.56-.21-18.28-1.26-8.82-1.62-17.45-4.24-26.22-6.16-17.09-3.75-33.73-2.57-49.7,5.04-3.24,1.55-6.59,2.86-10.84,3.22,1.22-1.46,2.3-3.08,3.7-4.36,12.85-11.81,28.4-17.87,45.49-17.6,14.52.23,29.11,2.46,43.47,4.98,9.26,1.63,11.64,5.52,12.38,16.13ZM481.32,352.98c1.81,13.85,2.96,25.51,4.98,37.02,1.48,8.48,3.66,16.91,6.33,25.1,3.38,10.35,9.42,19.08,18.59,25.3,11.2,7.6,20.17,17.26,27.32,28.73,2.1,3.36,4.47,6.82,7.51,9.25,2.58,2.06,6.55,4.05,9.43,3.51,1.99-.37,3.97-4.95,4.53-7.91,1.05-5.53,1.61-11.27,1.43-16.89-.7-22.22,10.1-35.44,30.95-41.86,13.97-4.3,27.58-9.75,41.47-14.33,8.79-2.9,17.48-3.53,25.74,2.42,5.22,3.76,11.43,3.3,17.33,1.51,9.46-2.87,18.64-2.15,27.01,2.84,17.14,10.21,34.19,20.6,50.9,31.48,8.51,5.55,9.63,14.76,8.58,24.09-.97,8.59-2.59,17.11-3.63,25.69-.51,4.2-1.82,9.53,2.83,11.75,5.23,2.49,8.49-2.4,11.49-5.75,3.77-4.2,7.12-8.79,10.49-13.34,4.49-6.07,10.13-10.61,17.32-12.91,19.08-6.12,29.34-20.21,33.92-38.67,4.45-17.95,7.78-36.17,11.59-54.27l1.04.12c-2.18,15.42-3.8,30.94-6.68,46.23-3.23,17.16-6.96,34.28-11.6,51.11-17.08,61.96-58.03,102.96-116.08,127.2-32.17,13.43-65.55,9.83-97.69-1.65-34.27-12.24-64.27-32.25-91.05-56.53-21.38-19.38-32.42-45.17-39.01-72.86-8.46-35.54-10.24-75.16-5.04-116.38ZM472.86,558.55c-7.07,12.58-25.31,12.68-32.76.25-5.22-8.71-2.17-15.09,7.79-15.49,9.2-.37,18.42-.08,28.69-.08.78,5.1-.94,10.37-3.72,15.32ZM369.6,586.83c-9.92,6.98-20.61,12.35-32.57,15.08,6.93-13.25,20.85-11.86,32.57-15.08ZM607.51,747.05c-19.31-27.51-43.71-49.98-70.6-70.03-11.85-8.83-23.77-10.6-37.44-5.51-23.37,8.7-46.77,17.31-70.38,25.32-14.8,5.02-30,8.81-45.8,9.42-14.06.54-16.67-1.76-21.5-15.27-4.93-13.76-10.93-27.13-16.43-40.68-5.25-12.96-9.7-26.13-10.51-40.84,2.76-1.3,5.44-2.48,8.05-3.8,11.56-5.86,23.26-11.46,34.6-17.71,13.62-7.52,24.47-18.27,33.66-30.76,3.15-4.29,6.39-8.52,9.72-12.67,3.93-4.92,9.24-8.07,15.37-8.39,10.23-.53,20.51-.14,31.11,1.45-1.83.49-3.64,1.31-5.48,1.4-5.97.28-12.02-.22-17.93.52-8.05,1.01-11.4,6.01-10.19,14.09,1.39,9.28,7.28,14.91,15.82,17.46,8.8,2.63,17.75,2.17,23.54-5.91,3.53-4.94,6.61-11.19,7.15-17.1,1.65-17.86,2.02-35.85,2.77-53.79.21-4.97.03-9.96.03-16.89,1.62,3.63,2.81,5.71,3.51,7.94,10.24,32.65,29.52,58.53,57.79,77.82,19.53,13.33,38.98,26.86,61.04,35.74,37.35,15.04,75.41,19.28,113.8,4.25,22.87-8.95,42.55-23.26,60.65-39.74,2.34-2.13,4.79-4.13,7.18-6.18l1.16.78c-1.59,4.97-3.41,9.88-4.71,14.93-4.14,16.08-8.77,32.09-11.85,48.38-2.02,10.67-2.32,21.8-2.26,32.71.09,15.48-6.01,27.69-17.3,37.69-3.48,3.09-7.12,6.03-10.9,8.74-27.86,19.93-47.45,46.32-60.84,77.58-1.29,3.01-2.71,5.96-4.34,9.52-3.37-1.67-6.25-3.1-9.14-4.52-11.65-5.69-22.98-12.26-35.07-16.78-10.5-3.92-17.92-10.13-24.26-19.17ZM674.11,791.61c-4.17,14.74-8.28,29.25-12.39,43.77-.68.04-1.36.08-2.04.12-11.84-22.29-23.69-44.58-36.05-67.85,18.09,6.3,34.1,14.72,50.48,23.97ZM880.24,1105.28c-5.05-2.27-9.28-4.05-13.39-6.05-33.62-16.34-68.44-29.42-104.66-38.74-26.89-6.92-52.33-17.27-76.57-30.97-18.82-10.63-38.52-19.69-57.57-29.91-7.56-4.06-14.88-8.87-21.48-14.34-3.92-3.25-6.51-8.28-9.13-12.83-1.71-2.98-1.86-6.42,2.11-9.1,14.78,4.91,28.84,14.35,48.49,11.59-3.48-3.08-4.98-5.19-7.02-6.08-11.29-4.95-22.75-9.29-35.34-9.88-18.19-.84-39.38-21.43-40.72-39.51-.5-6.8.72-13.26,7.06-18.14,2.32,1.08,4.71,2.11,7.03,3.29,16.49,8.39,33.9,13.74,52.34,15.48,3.41.32,6.91-.33,10.37-.53.3-.75.59-1.5.89-2.25-2-1.85-3.72-4.23-6.05-5.46-18.22-9.6-37.65-15.29-58.27-15.71-16.97-.35-34.97-20.63-32.25-37.33,1.25-7.67,5.71-13.28,13.57-13.75,7.81-.47,15.93.39,23.58,2.14,17.18,3.93,34.08,9.05,51.23,13.08,6.07,1.42,12.57,1.66,18.84,1.4,7.55-.31,9.66-5.31,5.33-11.63-1.48-2.17-3.46-4.05-5.41-5.85-23.95-22.17-50.51-40.04-81.7-50.71-8.71-2.98-17.11-7.38-24.91-12.31-4.23-2.67-7.74-7.4-10.05-11.97-3.39-6.7-.69-12.59,6.33-15.31,3.65-1.41,7.73-2.19,11.65-2.35,20.01-.78,38.89,4.62,57.35,11.55,2.76,1.04,5.32,4,6.84,6.71,10.91,19.43,21.53,39.02,32.21,58.58,1.43,2.63,2.44,5.52,4.09,7.99,3.45,5.16,7.97,4.89,10.54-.69,1.38-2.99,2.03-6.32,2.97-9.51,2.99-10.15,5.96-20.31,9.28-31.62,8.47,3.9,15.1,8.7,21.35,13.9,1.75,1.46,2.14,4.72,2.85,7.24,3.79,13.41,10.96,19.36,24.57,21.13,3.73.49,7.33,2.4,10.84,4,4.63,2.12,8.69,6.3,16.05,3.11-2.82-3.51-4.98-6.62-7.57-9.29-2.47-2.55-5.4-4.64-8.48-7.23,3.67-5.57,8.6-5,12.54-2.92,6.1,3.22,12.47,6.78,17.11,11.71,11.5,12.21,24.36,22.45,37.94,32.24,12.08,8.71,23,19.19,33.64,29.68,17.56,17.32,34.48,35.28,56.86,47.45-2.57,53.33-7.78,106.16-15.28,159.69ZM582.16,900.72c18.06,1.32,35.34,5.34,51.06,14.78-18.2-.85-35.22-5.77-51.06-14.78ZM885.13,1107.55c5.2-53,10.35-105.5,15.56-158.59,69.88,31.86,142.73,54.47,216.15,73.76,4.82,9.82,2.74,16.01-3.88,22.66-23.35,23.47-48.42,44.58-77.23,61.12-22.55,12.95-44.1,27.28-61.96,47.48-29.8-15.61-59.42-31.13-88.64-46.44ZM1076.5,1248.98c-18.97,26.32-40.65,50.19-65.86,70.67-12.49,10.14-26.14,18.41-42.14,21.9-14.02,3.06-23.25-1.8-28.56-15.07-5.31-13.26-6.72-27.18-5.12-41.22,3.54-31.18,11.02-61.53,20.96-91.25,4.72-14.1,11.67-25.23,20.14-34.06,38.37,21.29,76.98,42.71,116.87,64.84-5.91,8.81-10.86,16.67-16.28,24.2ZM1094.29,1221.17c-39.36-21.86-77.62-43.11-116.88-64.92,5.12-5.19,9.07-10.24,14-14,11.88-9.06,23.65-18.49,36.48-26.04,32.9-19.38,63.31-41.72,89.21-69.93.85-.93,1.98-1.61,4.06-3.26,11.77,62.68,5.27,121.44-26.87,178.15ZM1590.72,1138.2c17.43-6.94,65.86,9.72,79.56,28.01-34.44,2.81-71.4-10.41-79.56-28.01ZM1677.05,1165.35c-23.83-24.48-53.9-31.99-86.13-33.5-.39-.76-1.07-1.46-.92-1.86,7.87-21.48,12.69-43.91,23.11-64.67,16.9-33.67,25.39-69.97,28.16-107.5.65-8.76,1.49-17.82-3.09-26.12-5.84-.35-7.36,3.84-8.48,7.4-2.89,9.18-5.81,18.43-7.61,27.86-6.3,33.01-11.75,66.18-18.36,99.12-2.27,11.3-7.14,22.07-10.59,33.16-2.85,9.16-5.39,18.41-8.05,27.63-.83,2.87-1.33,5.87-2.46,8.61-17.95,43.6-40.03,84.88-69.05,122.22-11.92,15.33-25.5,28.9-41.33,40.31-15.41,11.11-32.51,16.31-51.27,17.16-35.89,1.64-71.01-3.97-106.1-10.47-75.46-13.97-145.29-42.83-212.26-79.4-1.13-.62-2.15-1.45-3.98-2.71,13.09-24.68,22.51-49.8,27.92-76.43,5.09-25.09,4.75-50.3,2.5-75.59-.8-8.95-2.29-17.83-3.33-26.75-1.18-10.11,7.02-17.67,16.95-15.9,26.54,4.71,53,9.95,79.65,13.84,26.67,3.9,53.54,6.44,80.32,9.53,7.28.84,14.58,1.48,21.86,2.28,7.32.8,13.98,1.97,18.54,9.37,2.39,3.88,7.55,6.51,11.98,8.59,20.51,9.61,41.49,18.11,63.7,23,6,1.32,12.3,3.18,18.37.11,1.71-5.19-1.79-7.98-4.81-10.21-5.6-4.12-11.49-7.98-17.66-11.17-20.63-10.67-42.96-15.95-65.65-19.91-9.66-1.69-9.95-1.91-11.16-11.96-2.01-16.75.48-33.26,3.09-49.69,5.75-36.15,12.21-72.19,17.67-108.38,2.08-13.78,2.66-27.83,3.2-41.79,1.75-45.28,14.75-87.05,38.62-125.47,11.38-18.32,25.72-33.86,43.71-46.01,40.58-27.41,100-21.79,132.23,17.22,15.42,18.67,27.24,39.36,37.4,61.16,22.26,47.73,35.6,98.07,44.14,149.86,7,42.46,10.2,85.26,12.08,128.19,1.39,31.7,6.1,62.89,12.75,93.87,1.87,8.71,2.55,17.78,2.72,26.71.13,7-1.88,13.78-8.38,18.3ZM1610.8,1059.16c7.78-40.32,10.26-81.7,24.78-120.61,3.18,42.62-7.75,82.25-24.78,120.61ZM1345.41,1058.69c21.17-3.11,75.03,17.06,86.02,32.22-16.83,2.49-75.61-19.53-86.02-32.22ZM1708.72,1323.66c-.89.05-1.79.1-2.68.15-2.03-12.93-4.2-25.83-6.07-38.78-4.04-27.92-7.68-55.9-12.03-83.77-1.53-9.77-4.68-19.29-7.23-29.49,5.34-1.5,9.23,1.8,11.43,6.1,2.66,5.22,4.87,11.01,5.65,16.78,1.63,12.16,1.97,24.48,3.25,36.69,2.51,23.77,5.38,47.5,7.95,71.26.76,7.03,1.18,14.14-.26,21.06Z"/><path d="M369.6,1039.33c-.89,46.93-5.97,93.17-17.87,138.48-3.7,14.08-8.86,27.93-14.85,41.22-4.33,9.6-7.31,18.85-7.34,29.5-.02,7.16-1.86,14.52-4.05,21.43-3.26,10.29-9.89,18.14-20.52,21.61-4.26,1.39-6.27,4.26-8.24,7.94-3.45,6.44-7.27,12.7-11.32,18.79-6.65,10-16.17,14.97-28.15,13.49-11.19-1.38-22.38-3.23-33.35-5.81-29.78-7-59.39-14.76-89.19-21.69-12.94-3.01-26.24-4.48-39.28-7.08-14.2-2.83-27.33-8.41-39-17.11-10.25-7.64-17.21-17.43-19.52-30.28-2.65-14.75,4.84-24.87,19.79-26.27,9.19-.86,17.83,1.64,26.28,4.86,18.95,7.23,37.69,15.08,56.85,21.71,33.94,11.76,68.02,23.12,102.24,33.99,14.25,4.53,29,7.3,44.18,7.28,7.18,0,11.38-2.35,14.53-9.2,6.82-14.8,14.9-29,22.01-43.68,1.94-4.01,3.35-8.87,3.11-13.23-1.29-22.92-2.91-45.83-4.92-68.7-6.02-68.42-9.23-136.89-2.83-205.44,1.35-14.5,4.75-28.85,7.81-43.14.94-4.4,3.34-8.76,6.02-12.45,3.73-5.15,8.83-5.45,12.39-.25,3.88,5.67,7.43,12.06,9.1,18.65,4.01,15.77,8,31.71,9.87,47.82,2.99,25.75,4.25,51.71,6.24,77.58ZM337.22,894.91c-2.18,3.56-4.81,6.58-6.01,10.08-2.25,6.58-4.05,13.37-5.36,20.2-5.77,29.86-6.57,60.13-7.12,90.41-1.1,60.65,4.47,120.95,9.93,181.25.68,7.46,1.18,14.93,1.78,22.54,1.26-.42,2.16-.45,2.37-.84,1.11-2.04,2.07-4.16,3.03-6.27,11.97-26.32,17.36-54.43,21.81-82.67,8.75-55.55,9.14-111.29,2.02-167.07-2.28-17.83-5.3-35.53-11.79-52.41-2.1-5.45-3.82-11.31-10.65-15.2ZM294.5,1294.84c-30.46,1.78-57.23-7.44-84.06-16.27-17.99-5.92-35.96-11.9-53.75-18.36-24.66-8.96-49.05-18.66-73.75-27.49-7.71-2.75-16.02-4.84-24.15-5.19-13.65-.59-19.98,7.78-17.77,21.18,1.7,10.29,6.48,18.71,14.4,25.46,11.96,10.2,26,15.9,41.17,19.07,29.26,6.13,58.62,11.76,87.79,18.27,19.44,4.34,38.4,11.06,57.96,14.54,28.33,5.05,33.08,2.29,47.25-21.44,1.5-2.52,2.64-5.25,4.89-9.79ZM323.69,1245.43c-6.8,13.52-13.59,27.04-21.1,41.97,15.78-5.79,23.04-19.95,21.1-41.97Z"/><path d="M703.34,386.57c8.59-4.49,10.89-9.43,8.13-16.99-.79-2.16-1.97-4.25-3.32-6.12-14.6-20.14-17.1-42.78-13.84-66.6.45-3.27,1.01-6.69,2.36-9.65,3.25-7.15,7.1-13.75,6.32-22.39-.28-3.04,4.23-7.15,7.42-9.67,2.41-1.9,6.15-2.65,9.38-2.88,18.32-1.35,36.59-1.39,54.46,3.83,16.66,4.86,29.98,13.99,38.38,29.63,4.9,9.13,3.16,18.53,1.32,27.82-.94,4.75-4.74,7.04-9.67,6.95-1.66-.03-3.67.27-4.9-.54-9.01-5.9-18.54-2.59-27.92-1.92-20.14,1.45-38.82-4.14-57.02-11.94-1.46-.63-2.71-1.73-5.69-3.67,6.58-3.59,12.05-6.57,18.96-10.34-9.84-.9-20.13,3.51-24.81-10.26-1.88,5.38-3.63,8.65-4.14,12.11-3.47,23.68-1.98,46.51,12.47,66.88.96,1.35,1.84,2.77,2.62,4.24,3.52,6.66,4.19,13.5-.37,19.8-4.6,6.34-11.33,7.28-19.22,6.34.49-2.79.85-4.86,1.22-6.94-5.64-1.58-8.94,1.66-12.27,5.04-8.68,8.83-14.46,8.95-25.22,2.39-4-2.44-9.31-2.86-14.1-3.79-4.22-.82-8.59-.86-12.82-1.63-3.26-.6-6.38-1.84-7.29-6.51,3.16.93,5.8,1.71,8.35,2.46,1.87-2.85,3.16-7.11,5.29-7.58,3.53-.78,8.21-.12,11.3,1.75,4.42,2.66,8.13,6.72,11.63,10.63,5.88,6.56,12.37,7.06,18.66.94,1.9-1.85,3.62-3.97,5.77-5.48,6.98-4.91,13.28-3.56,18.56,4.1ZM708.05,277.42c.9,10.34,1.84,11.19,11.9,10.39,1.99-.16,3.96-.49,5.94-.71,23.96-2.72,44.62,4.05,61.64,21.37,1.63,1.66,3.14,3.49,5.01,4.83,5.08,3.64,12.9,4.26,15.85,1.5,3.06-2.87,4.09-10.85,1.51-16.02-1.45-2.9-3.36-6.08-5.95-7.82-7.1-4.75-14.31-9.7-22.15-12.92-10.24-4.2-21.39-4.53-32.43-3.73-13.5.98-27,2.03-41.31,3.11ZM807.12,286.32c-7.11-14.19-19.2-21.81-33.63-26.19-17.17-5.2-34.81-5.05-52.44-3.73-3.8.28-7.91,1.85-11,4.06-1.92,1.37-3.13,5.19-2.82,7.67.2,1.57,3.77,3.83,5.86,3.86,9.28.16,18.69.47,27.84-.8,24.05-3.34,46.34-.39,66.17,15.12ZM746.6,293.31c-5.7.08-8.71,3-8.69,8.4.03,6.29,5.36,10.41,13.3,10.26,6.07-.11,10.14-4.15,10.01-9.95-.11-5.04-6.49-8.84-14.63-8.72ZM762.35,314.2c7.11-.41,13.14-.77,19.17-1.12.23-.77.47-1.54.7-2.31-4.95-3.73-9.89-7.46-15.39-11.61-1.61,5.4-2.81,9.43-4.49,15.04ZM718.72,301.26l-.33,2.32c4.86,1.62,9.71,3.25,14.77,4.94v-12.87c-5.39,2.1-9.92,3.85-14.44,5.61ZM650.02,384.11c.25-.84.5-1.69.75-2.53-3.67-1.3-7.34-2.61-12.08-4.29,2.11,8.5,7.38,6.04,11.33,6.82Z"/><path d="M443.63,573.88c1.06,2.6,2.08,5.22,3.19,7.8,12.57,29.15,32.04,52.76,57.65,71.34,8.44,6.12,17.5,10.91,28.51,10.38,3.8-.18,7.32.82,8.8,5.1-1.38,4.18-4.42,3.17-7.32,2.27-45.36-14.17-72.78-46.92-91.52-88.57-1.06-2.35-1.1-5.15-1.61-7.73.77-.2,1.54-.39,2.31-.59Z"/><path d="M742.74,453.43c-3.28,3.11-5.85,6.07-8.91,8.36-28.93,21.63-60.95,24.89-94.81,15.08-18.43-5.34-35.19-14.05-49.41-27.23-2.12-1.96-4.51-3.62-7.06-5.64-4.78,5.14-5.81,11.13-6.04,16.99-.63,15.6,2.63,30.5,10.48,44.08,5.7,9.87,14.17,16.68,25.35,19.74,6,1.64,11.89,1.28,17.51-1.48,11.22-5.52,13.81-16.03,6.58-26.37-1.1-1.57-1.94-3.33-3.72-6.43,11-2.11,21.12-.97,31.06-.26,10.02.72,20.36-.11,31.05,3.16-2.06,3.81-3.59,6.32-4.83,8.97-3.42,7.33-2.37,14.43,2.26,20.73,4.49,6.12,11.03,6.73,18.02,5.26,11.47-2.41,20-9.12,25.96-18.78,10.49-16.99,15.34-35.13,8.3-55.63,4.18,1.01,4.92,3.88,5.79,6.54,7.52,23.07-9.1,59.81-31.38,69.43-.31.13-.61.27-.92.39-9.9,3.65-19.93,4.96-27.85-3.5-7.56-8.07-8.24-17.79-3.33-27.8.41-.83.43-1.84.78-3.48-15.53-.76-30.77-1.51-45.92-2.25-.25,1.36-.68,2.19-.43,2.53,10.2,13.71-1.91,34.08-22.34,33.68-10.85-.21-20.47-4.34-27.44-12.43-16.39-19.02-22.59-41.15-17.22-65.92,2.04-9.43,3.58-9.48,13.37-10.6,10.21-1.17,20.29-3.51,30.37-5.64,6.17-1.31,12.2-3.29,18.34-4.78,8.59-2.07,16.87-2.07,25.35,1.66,3.88,1.71,9.06,1.37,13.48.76,5.75-.79,11.14-1.14,16.58,1.33,15.13,6.88,30.08,14.25,46.77,16.88,1.13.18,2.11,1.29,4.22,2.64ZM727.59,460.37c-43.58-3.2-85.89-6.3-128.64-9.44,31.86,30.97,95.33,35.9,128.64,9.44ZM599.49,443.46c42.82,8.33,85.65,10.24,128.59,11.3-13.81-6.62-27.61-12.85-41.69-18.38-3.07-1.2-7.25-.41-10.7.4-6.08,1.43-11.63.99-17.44-1.43-3.84-1.59-8.54-2.99-12.43-2.25-15.53,2.98-30.9,6.83-46.33,10.36Z"/></g></svg>
