<?xml version="1.0" encoding="UTF-8"?><svg id="Capa_2" xmlns="http://www.w3.org/2000/svg" viewBox="0 0 1880.99 1348.67"><g id="Capa_1-2"><path d="M1525.47,514.43c-2.57,11.24-4.76,19.88-6.49,28.61-3.55,17.95-7.73,35.85-9.92,53.97-1.37,11.38.08,23.17.91,34.73.47,6.55,4.41,10.96,11.26,12.22,12.74,2.34,25.41,5.24,38.24,6.97,14.18,1.91,28.5,3.7,42.77,3.77,11.51.05,23.18-1.79,34.5-4.11,19.96-4.08,39.7-4.5,59.31,1.17,22.46,6.5,40.83,19.24,55.16,37.69,19.39,24.96,32.9,53.14,44.68,82.23,18.1,44.71,28.67,91.36,35.83,138.89,5.71,37.92,8.22,76.13,9.99,114.39,1.49,32.02,5.84,63.62,12.87,94.88,1.02,4.54,1.75,9.16,2.43,13.76,1.91,12.84.58,20.27-5.88,33.05,13.35,4.54,17.38,15.54,18.69,28.05,3.78,36.09,7.55,72.18,10.87,108.32.76,8.21-.16,16.6-.59,24.89-.11,2.12-1.35,4.18-2.2,6.66-6.39-1.66-6.8-6.91-7.63-11.02-2.56-12.72-4.65-25.53-6.6-38.36-4.75-31.25-9.13-62.56-14.1-93.78-1.08-6.77-4.02-13.24-6.15-20-33.08-1.54-65.58-2.74-90.15-29.98-2.61,1.7-3.15,5.44-4.5,8.54-17.48,40.18-38.89,78.03-66.09,112.52-11.21,14.22-24.07,26.61-38.52,37.54-16.58,12.54-35.25,18.21-55.74,19.19-32.86,1.58-65.07-3.42-97.29-8.95-76.64-13.16-147.84-41.26-215.95-77.97-2.93-1.58-5.9-3.07-8.86-4.58-.29-.15-.64-.16-2.14-.51-1.53,2.29-3.32,4.93-5.05,7.6-20.82,32.06-45.41,60.91-74.88,85.28-9.4,7.78-20.26,13.93-30.93,19.98-5.39,3.05-11.72,4.8-17.85,6.1-12.97,2.76-22.73-2.03-29.29-13.67-5.72-10.14-8.01-21.37-7.7-32.7.36-13.25,1.45-26.63,3.88-39.65,3.24-17.31,7.79-34.4,12.3-51.44,4.8-18.12,12.02-35.24,24.62-51.42-29.15-15.29-57.58-30.21-87.71-46.02-9.45,80.03-18.12,158.18-7.35,237.41-.83-1.51-2.2-2.95-2.4-4.55-1.98-15.51-4.75-31-5.42-46.57-2.16-50.36,1.14-100.53,6.92-150.56,1.41-12.2,2.78-24.4,4.21-36.91-1.83-1.09-3.44-2.23-5.19-3.07-35.82-17.01-72.21-32.44-110.87-42.1-27.55-6.89-53.77-17.22-78.61-31.26-18.23-10.31-37.3-19.15-55.77-29.06-8.47-4.54-16.92-9.41-24.45-15.32-8.99-7.05-15.19-16.04-10.36-28.47-5.1-3.39-10.32-5.95-14.36-9.76-5.49-5.18-11.23-10.69-14.82-17.18-6.38-11.55-6.44-23.63,2.82-34.96-3.69-2.72-7.18-5.11-10.47-7.75-7.73-6.17-13.83-13.47-15.75-23.55-2.64-13.81,4.72-25.41,18.62-26.42,9.06-.66,18.51,1.1,27.49,3.11,15.89,3.56,31.47,8.48,47.34,12.13,6.61,1.52,13.63,1.24,20.11,1.76,2.26-5.97-1.28-8.29-3.83-10.52-22.94-20-46.93-38.26-76.25-48.38-9.98-3.45-19.7-8.17-28.73-13.63-5.15-3.11-9.71-8.31-12.71-13.61-5.93-10.48-1.34-19.8,10.32-22.97,12.31-3.35,24.52-1.07,36.62,1.23,9.1,1.73,18.06,4.19,28.29,6.61-1.56-2.79-2.53-5.04-3.94-6.97-20.05-27.39-44.26-50.49-71.77-70.35-10.51-7.58-20.97-8.91-32.86-4.41-21.16,8-42.33,16.02-63.72,23.37-16.69,5.73-33.74,10.4-51.54,11.3-3.65.18-7.34.12-10.97-.22-6.1-.59-10.84-3.62-13.12-9.38-8.8-22.26-17.64-44.52-25.93-66.97-2.5-6.76-3.25-14.17-5.09-22.62-57.97,19.5-117.79,30.4-176.58,45.06-.58,1.21-1.35,2.07-1.37,2.94-.29,16.13-20.01,27.93-37.24,24.1-2.59-.58-5.12-1.45-7.67-2.2-8.09-2.38-13.46.33-16.17,8.31-.64,1.88-.92,3.88-1.31,5.84-2.34,11.8-5.58,22.97-21.59,26.49,5.02,4.03,8.11,6.82,11.5,9.17,10.11,7.04,20.51,13.68,30.47,20.91,9.49,6.89,18.01,14.87,23.56,25.45,4.53,8.64,7.25,17.63.33,26.21-7.07,8.76-16.77,7.92-25.64,4.24-10.69-4.44-20.96-10.07-30.99-15.9-11-6.4-22.04-12.43-34.67-14.88-1.89-.37-3.86-.37-7.2-.66,1.66,2.86,2.44,4.93,3.82,6.45,9.86,10.83,22.38,17.62,35.66,23.32,9.16,3.93,18.37,7.87,27.15,12.56,4.89,2.62,9.53,6.27,13.27,10.38,8,8.8,8.24,21.66,1.46,31.43-3.78,5.46-9.05,7.9-15.49,7.08-4.59-.59-9.17-1.71-13.57-3.17-19.88-6.6-39.69-13.4-59.52-20.15-5.01-1.7-10-3.46-17.25-5.97,2.77,2.84,3.95,4.53,5.54,5.61,12.68,8.6,25.55,16.91,38.11,25.68,4.58,3.2,9.08,6.93,12.49,11.29,5.83,7.45,6.51,15.92,1.55,24.28-4.63,7.8-12.07,10.47-20.55,9.21-5.14-.76-10.24-2.75-15-4.97-13.2-6.17-26.21-12.75-40.42-17.92,3.01,3.55,6.08,7.05,9,10.67,5.68,7.03,8.76,14.87,7.22,24.08-2.46,14.73-15.83,21-28.39,13.03-4.44-2.82-8.3-6.54-13.18-10.47-1.8,3.38-3.55,6.41-5.07,9.55-18.58,38.45-33.75,78.21-45.86,119.14-14.23,48.09-32.91,94.2-59.3,137.06-8.21,13.33-15.19,27.42-18.58,42.89-2.74,12.48-3.35,25.05-.58,37.66.41,1.88.38,3.85-.71,6.38-.94-1.26-2.38-2.39-2.74-3.8-4.37-16.98-2.87-33.81,2.68-50.16,3.09-9.09,6.78-18.23,11.79-26.37,31.36-50.88,52.61-105.95,69.44-163.02,11.51-39.03,27.57-76.34,45.97-113.13-3.39-4.82-6.85-9.66-10.23-14.55-7.85-11.37-10.45-24.16-6.67-37.15,4.47-15.37,3.16-30.29-.05-45.38-2.61-12.26-2.11-23.59,6.08-34.1,2.66-3.42,3.94-8.49,4.36-12.95.78-8.21,4.11-14.77,10.43-19.69,8.52-6.63,13.92-15.12,16.45-25.5,3.62-14.84,12.96-23.72,27.13-29.41,10.99-4.41,21.09-11.14,31.32-17.3,8.26-4.97,15.86-11.07,24.22-15.85,8.64-4.94,15.29-11.56,20.9-19.62,4.36-6.27,8.68-12.74,14.01-18.13,11.64-11.76,29.42-13.09,40.59-2.6,5.06,4.76,8.01,11.77,12.55,18.72,14.65-3.47,30.81-7.16,46.9-11.13,34.88-8.61,69.73-17.35,104.58-26.11,3.86-.97,7.57-2.56,11.41-3.62,7.14-1.97,13.07-4.35,16.05-12.66,1.47-4.09,7.49-7.33,12.16-9.28,6.38-2.67,13.39-3.89,20.18-5.5,15.92-3.78,28.8-11.89,37.65-25.92,1.06-1.69,2.46-3.17,3.46-4.89,10.16-17.49,26.32-22.59,45.16-21.26,8.15.58,16.21,2.58,24.59,3.99,1.72-30.55,1.48-61.73-2.63-93.52-17.57-1.73-23.6-14.71-23.79-29.85-.34-27.28-8.38-53.21-11.68-79.91-1.42-11.49-1.42-23.2-1.3-34.81.05-4.85,1.51-9.92,3.35-14.47,4.4-10.83,13.99-13.38,23.47-6.71,1.08.76,2.01,1.74,3.05,2.58.76.62,1.58,1.16,3.53,2.58-.54-3.62-.96-6.25-1.32-8.89-3.2-23.42-6.95-46.78-9.42-70.27-2.09-19.89-2.07-39.86,2.9-59.57,6.69-26.56,19.66-49.33,39.61-68.1,3.64-3.43,6.74-6.54,7.33-12.31.8-7.9,6.42-13.69,12.25-18.85,9.21-8.15,20.29-12.44,31.88-15.94,5.3-1.6,10.54-3.87,15.28-6.72,20.94-12.61,42.91-21.6,67.94-19.42,10.26.89,20.38,3.49,30.64,4.29,10.9.86,21.97,1.39,32.84.51,19.95-1.62,37.7,2.56,52.68,16.3,12.61,11.57,26.56,20.96,42.27,28,7.83,3.51,15.32,8.17,22.22,13.3,15.63,11.61,25.47,27.11,27.95,46.66.7,5.53.11,11.22.11,17.33,28.98,26.4,32.28,61.2,28.16,97.68-2.58,22.8-7.02,45.38-10.57,68.07-.35,2.24-.32,4.53-.48,6.97,15.3-4.64,22.14-.57,23.49,15.4.75,8.8-.71,17.88-1.95,26.72-.83,5.88-2.76,11.66-4.7,17.32-8.75,25.55-16.3,51.4-20.31,78.16-1.81,12.07-6.45,21.51-19.47,25.01-2.11.57-4.04,3.97-4.95,6.46-2.84,7.81-4.93,15.89-7.71,23.73-5.94,16.77-14.65,32.02-25.37,46.22-3.16,4.18-5.85,8.91-7.81,13.77-8.71,21.66-16.1,43.82-19.36,66.98-1.56,11.09-1.67,22.58-.86,33.77,1.13,15.58-2.5,29.03-13.48,40.24-7.22,7.38-14.77,14.44-21.89,21.91-13.63,14.29-26.29,29.36-32.25,48.68-2.05,6.64-3.26,13.56-4.4,20.44-.57,3.43-.1,7.02-.1,12.95,3.49-3.1,5.26-4.29,6.54-5.87,8.19-10.08,16.16-20.34,24.42-30.36,5.29-6.42,10.49-13.01,16.53-18.69,14.89-14,32.25-18.23,51.61-10.58,7.71,3.05,14.94,7.29,22.49,10.75,7.54,3.46,15.06,7.07,22.89,9.77,4.41,1.52,9.42,1.34,14.15,1.93.26-.64.53-1.27.79-1.91-1.71-2.27-3.21-4.74-5.17-6.78-16.8-17.47-29.51-37.76-40.45-59.18-3.33-6.52-7.56-11.07-14.07-14.59-7.21-3.9-14.09-8.9-20.02-14.57-4.94-4.72-8.77-10.97-5.78-18.82,6.21-2.58,11.02.36,14.55,4.15,6.31,6.77,12.63,13.82,17.34,21.72,4.18,7,9.43,11.39,16.62,14.75,32.93,15.41,64.69,32.85,94.07,54.45,23.58,17.34,44.18,37.44,60.1,62.13.88,1.36,1.96,2.6,3,3.97,32.49-8.57,64.38-17.64,91.56-38.25,4.7-3.56,6.7-8.15,7.91-13.35,3.45-14.8,2.82-29.8,1.29-44.74-2.37-23.05-9.41-44.89-18.12-66.22-1.21-2.97-3.5-5.62-5.7-8.06-37.67-41.81-55.47-91.63-59.6-147.04-2.11-28.29-2.79-56.56.3-84.81,1.05-9.56,2.65-19.05,4-28.59-4.73-2.65-8.17-1.83-9.33,3.31-1.9,8.42-4.01,16.89-4.78,25.44-2.69,29.8,1.29,59.27,6.95,88.37,7.37,37.88,9.87,75.91,6.52,114.25-4.07,46.59,6.06,89.96,27.97,130.89,3.93,7.33,8.14,14.51,12.12,21.82,1.01,1.85,1.62,3.92,2.41,5.89-.86.7-1.73,1.41-2.59,2.12-1.07-1.95-2-3.98-3.23-5.82-9.03-13.59-18.35-26.99-27.15-40.73-15.45-24.11-22.64-51-24.95-79.22-1.6-19.57-2.2-39.21-3.5-58.8-1.11-16.78-6.56-32.57-11.89-48.34-9.79-28.99-15.34-58.53-12.8-89.32,1.92-23.16,7.74-45.4,17.15-66.42,7.73-17.26,11.26-34.93,13.31-53.59,6.26-57.18,25.25-109.51,63.51-153.53,22.04-25.37,48.86-44.03,81.05-54.52,1.24-.4,2.47-.82,3.5-1.16.33-.98.86-1.73.68-2.18-5.85-14.51-4.12-23.65,7.34-34.03,15.9-14.42,35.18-18.27,55.83-16.08,7.87.84,15.56,4.81,23.33,4.82,7.72,0,15.35-3.76,23.17-4.83,12.05-1.65,23.97-.02,35.4,4.15,25.81,9.41,41.96,36.79,38.8,65.49-.36,3.28-.87,6.54-1.35,10.1,1.39,1.16,2.58,2.28,3.9,3.22,43.16,31.05,67.61,73.57,76.2,125.49,5.24,31.67,6.78,63.55,2.3,95.5-.73,5.23-2.32,10.34-3.28,14.52,5,2.67,10.45,4.39,14.27,7.9,5.2,4.77,5.32,11.93,5.24,18.69-.3,25.03-7.3,48.62-16.03,71.73-2.99,7.92-4.64,15.61-4.63,24.14.03,33.01-6.4,64.82-19.47,95.21-5.79,13.45-11.66,26.87-17.57,40.27-.6,1.37-1.69,2.52-2.55,3.78-.69-.24-1.37-.48-2.06-.71.61-2.95,1.12-5.92,1.86-8.84,5.67-22.59,11.98-45.03,16.86-67.78,2.99-13.91,3.82-28.28,5.77-43.62-8.69,2.13-16.28,11.66-24.87-1.52ZM1106.89,958.5c-28.7-9.99-35.81-32.14-34.69-59.69-1.63,14.69-3.27,29.38-4.97,44.63,7.37,3.53,13.86,6.78,20.48,9.76,4.84,2.18,9.78,4.18,14.8,5.89,1.3.44,3.08-.54,4.64-.87.12,5.66,5.31,5.04,8.45,6.3,52.9,21.16,107.24,37.91,162.37,52.15,1.77.46,3.66.45,6.33.75-.51-3.84-.68-6.78-1.32-9.6-4.02-17.85-7.96-35.72-12.27-53.5-12.98-53.5-22.87-107.43-23.61-162.7-.11-8.52-.02-17.04-.02-27.32-14.31,14.31-32.05,19.19-49,25.91-14.14,5.6-27.77,12.46-42.14,19,1.02,2.46,1.69,4.27,2.52,6.01,9.34,19.7,15.5,40.39,18.55,61.93,2.45,17.34,1.99,34.54-4.92,51.07-10.09,24.14-35.3,41.24-65.22,30.28ZM1316.79,607.25c-2.44,2.8-5.09,4.39-9.2,4.64-9.71.59-18.96,3.48-27.23,8.73-11.54,7.31-14.41,19.84-6.44,30.95,3.37,4.69,8.14,8.99,13.21,11.73,22.19,11.99,45.13,12.09,68.06,2.13,4.45-1.93,8.67-5.04,12.15-8.47,9.36-9.24,9.23-20.98-.53-29.69-4.37-3.9-9.6-7.46-15.07-9.4-11.52-4.1-23.45-7.03-35.21-10.44-1.23-.51-2.49-.93-3.67-1.53-4.67-2.39-10.9-4.08-10.44-10.58.51-7.2,7.44-7.73,12.73-9.12,5.32-1.4,10.84-1.99,17.36-3.12-1.55-.8-1.83-1.06-2.14-1.09-1.65-.2-3.3-.33-4.95-.52-33.33-3.92-58.65-20.28-75.83-49.07-2.05-3.44-3.09-7.49-4.33-10.58,14.26-3.09,27.23-5.78,40.14-8.75,13.7-3.15,27.11-6.38,40.85.84,5.85,3.07,10.02-1.24,9.18-8.11-.92-7.49-1.77-14.99-2.68-22.71-6.04-.26-12.71-.22-16.43-6.6-4.09-7.02-9.71-7.94-17.06-6.03-7.03,1.83-11.37-1.1-13.88-7.79-2.07-5.52-.74-10.6,2.04-15.28,3.05-5.14,6.65-9.95,9.98-14.93,11.83-17.7,17.99-37,16.42-58.45-.27-3.66-.03-7.66-4.98-11.11-.16,3.55-.58,5.72-.3,7.8,1.81,13.19-.18,25.94-4.79,38.24-13.13,35.07-46.65,52.76-81.67,42.86-22.18-6.27-35.97-21.82-44.46-42.59-1.6-3.9-2.87-7.93-4.29-11.9l-2.03.18c-.32,18.53-.95,37.06-.89,55.59.14,42.41,7.51,83.27,25.22,122.24,10.11,22.24,25.94,40.14,40.55,59.07.75.97,2.33,2.38,3.03,2.14,5.69-1.97,6.37,3.08,8.88,5.8,5.08,5.51,10.11,11.22,17.78,13.33.96,1.85,1.47,4.26,2.96,5.46,30.07,24.27,63.73,30.1,100.45,18.84,27.12-8.32,50.53-23.63,73.21-40.08,13.54-9.82,25.32-21.55,35.9-34.53,21.17-25.98,31.92-56.53,39.31-88.6,6.87-29.81,13.8-59.6,20.66-89.41.44-1.89,1.2-4.07.68-5.77-3.89-12.61-8.06-25.14-11.99-37.2-9.71-.74-17.95-1.37-26.92-2.05-.16,3.29-.26,6.54-.48,9.79-1.01,14.88-5.14,28.76-13.38,41.31-15.52,23.65-40.56,34.08-68.26,28.6-10.6-2.1-20.23-6.36-29.5-11.78-3.16-1.85-6.19-4.76-11.37-4.18,1.85,3.72,3.24,6.66,4.77,9.53,3.23,6.06,1.97,11.54-1.93,16.76-4.22,5.65-10.04,7.33-16.75,6.81-4.97-.38-9.95-1.24-14.91-1.12-8.62.21-12.29,3.82-11.97,12.46.27,7.14,1.78,14.24,2.75,21.43,15.58-.15,28.44,6.9,42.18,10.61,13.59,3.67,27.11,7.58,40.79,11.42-.62,2.21-.66,3.29-1.18,4.05-1.32,1.91-2.73,3.79-4.32,5.47-21.22,22.46-46.75,37.11-77.35,42.5-7.54,1.33-15.13,2.34-22.62,3.88-4,.82-8.74,1.1-10.6,7.73,4.05,1.98,7.92,4.47,12.16,5.83,7.59,2.43,15.44,4.02,23.1,6.26,11.31,3.3,21.89,8.11,30.18,16.79,8.14,8.53,8.94,18.33,2.62,28.25-4.46,6.99-10.95,11.54-18.3,14.96-16.36,7.61-33.47,8.41-50.76,4.52-12.38-2.78-24.21-7.16-33.52-16.44-.45-1.54-.7-3.17-1.38-4.59-8.46-17.64-3.87-30.82,13.95-38.93,10.37-4.72,21.35-7.09,32.76-6.98ZM1266.5,1222.58c1.83,1.25,2.85,2.09,3.98,2.71,66.97,36.57,136.8,65.43,212.26,79.4,35.1,6.5,70.22,12.11,106.1,10.47,18.76-.86,35.86-6.06,51.27-17.16,15.84-11.41,29.42-24.98,41.33-40.31,29.03-37.34,51.11-78.62,69.05-122.22,1.13-2.74,1.63-5.74,2.46-8.61,2.66-9.22,5.19-18.47,8.05-27.63,3.46-11.08,8.32-21.85,10.59-33.16,6.61-32.94,12.06-66.11,18.36-99.12,1.8-9.43,4.72-18.68,7.61-27.86,1.12-3.56,2.65-7.75,8.48-7.4,4.58,8.3,3.74,17.37,3.09,26.12-2.77,37.54-11.26,73.83-28.16,107.5-10.42,20.76-15.24,43.18-23.12,64.67-.15.4.53,1.1.92,1.86,32.22,1.51,62.3,9.02,86.13,33.5,6.5-4.51,8.51-11.3,8.38-18.3-.17-8.93-.85-18-2.72-26.71-6.65-30.99-11.36-62.18-12.75-93.87-1.88-42.92-5.08-85.73-12.08-128.19-8.54-51.79-21.88-102.13-44.14-149.86-10.16-21.79-21.98-42.49-37.4-61.16-32.23-39.02-91.65-44.63-132.23-17.22-17.99,12.15-32.33,27.69-43.71,46.01-23.87,38.42-36.87,80.18-38.62,125.47-.54,13.96-1.12,28.01-3.2,41.79-5.47,36.19-11.92,72.23-17.67,108.38-2.61,16.43-5.1,32.94-3.09,49.69,1.21,10.05,1.5,10.27,11.16,11.96,22.69,3.96,45.03,9.24,65.65,19.91,6.17,3.19,12.06,7.05,17.66,11.17,3.03,2.23,6.52,5.02,4.81,10.21-6.07,3.07-12.37,1.21-18.37-.11-22.21-4.89-43.18-13.39-63.7-23-4.43-2.08-9.59-4.71-11.98-8.59-4.56-7.4-11.22-8.57-18.54-9.37-7.28-.79-14.58-1.44-21.86-2.28-26.79-3.09-53.65-5.64-80.32-9.53-26.66-3.89-53.12-9.13-79.65-13.84-9.93-1.76-18.13,5.8-16.95,15.9,1.04,8.93,2.53,17.81,3.33,26.75,2.25,25.28,2.6,50.49-2.5,75.59-5.41,26.64-14.83,51.75-27.92,76.43ZM726.69,299.39c-8.15,1.65-14.55,3.49-21.07,4.11-8.27.79-16.65.4-24.96.84-8.93.47-17.88,1.07-26.76,2.06-5.19.58-8.01-1.96-10.02-6.02-1.62-3.28-2.57-6.92-4.41-10.04-2.34-3.97-4.76-8.17-8.09-11.24-6.59-6.07-14.17-4.33-17.82,3.83-1.61,3.59-2.99,7.63-3.05,11.49-.18,11.61-.71,23.38.84,34.82,2.38,17.45,6.85,34.6,9.55,52.02,1.78,11.47,1.43,23.27,3.19,34.74.81,5.29,3.83,10.53,6.9,15.09,2.63,3.9,7,5.95,12.4,3.6,0-2.79.16-5.41-.02-8.01-2.48-35.72-.13-71.22,4.86-106.58.26-1.85,1.6-3.54,2.44-5.31,2.13,13.74,2.25,27.06,3.69,40.23,1.83,16.84,4.12,33.67,7.33,50.29,2.74,14.18,10.34,25.71,22.69,34,9.22,6.19,16.46,14.46,22.61,23.73,2.75,4.15,5.89,8.07,9.2,11.79,1.36,1.52,3.64,2.22,6.57,3.9.73-3.96,1.45-6.76,1.73-9.6.6-6.3,1.14-12.61,1.42-18.93.78-17.5,9.15-29.67,25.55-35.8,16.51-6.17,33.13-12.09,49.86-17.64,9.45-3.13,18.74-2.85,27.92,2.49,3.61,2.1,9.3,2.88,13.28,1.7,14.39-4.23,26.96-.63,39,6.9,12.42,7.77,24.51,16.11,37.23,23.35,14.2,8.09,18.54,20.08,16.31,35.38-1.2,8.23-2.7,16.43-3.77,24.68-.25,1.89.7,3.93,1.58,8.35,5.82-7.26,10.4-12.47,14.41-18.08,5.6-7.83,12.46-13.98,21.73-16.79,15.19-4.59,23.81-15.55,28.5-29.76,3.53-10.71,6.4-21.73,8.43-32.82,3.73-20.29,6.59-40.74,9.93-61.1.31-1.89,1.53-3.63,2.79-6.47,4.03,10.41,4.15,23.19-.74,61.62-2.58,20.31-6.71,40.43-10.23,61.14,11.54-2.01,14.66-9.9,16.28-18.76,4.36-23.92,9.14-47.7,17.49-70.65,3.07-8.43,6.12-17.02,7.65-25.8,1.64-9.4,2.11-19.12,1.88-28.67-.13-5.08-1.91-11.25-8.33-12.26-5.83-.92-8.55,4.25-11.49,8.25-4.02,5.49-7.95,11.04-11.96,16.62-1.27-1.08-2.02-1.4-2.21-1.93-.45-1.23-.76-2.54-.91-3.85-2.72-23.64-8.69-46.44-18.1-68.28-3.42-7.93-3.39-15.4.14-23.11,5.51-12.04,5.53-24.69,2.87-37.22-1.85-8.74-4.92-17.26-7.96-25.69-3.54-9.79-6.65-19.5-3.26-30.04-7.05-4.67-13.72-9.03-20.33-13.48-16.54-11.15-34.58-14.08-54.29-11.89-32.59,3.61-65.17,3.85-97.12-5.46-3.51-1.02-7.11-1.74-10.69-2.5-34.71-7.33-66.05-.02-94.06,21.71-15.05,11.67-23.67,26.97-24.86,45.97-.5,7.91-.08,16.01,1.02,23.87,1.58,11.32.34,21.84-5.42,31.81-3.83,6.63-7.43,13.39-11.13,20.09-9.51,17.24-13.96,36.06-17.79,54.06h42.47c-2.31-3.58-3.73-5.78-5.58-8.65,1.98.15,2.72-.02,3.18.27,13.02,8.17,20.58,7.4,32.54-1.66,6-4.55,12.78-8.74,19.88-11.04,17.31-5.59,34.75-5.2,51.68,2.37,3.23,1.44,6.56,2.65,11.18,4.5.85-5.72,1.53-10.37,2.03-13.74-15.52-3.22-29.82-6.01-44.02-9.19-12.92-2.9-25.86-3.84-38.41.74-9.01,3.29-17.51,7.99-26.28,11.96-2.17.99-4.5,1.63-6.75,2.43l-1.58-1.72c1.63-3.02,2.87-6.36,4.97-9.01,8.7-11.02,19.82-18.93,33.27-22.81,23.79-6.87,47.5-4.43,70.9,2.32,6.11,1.76,11.06,6.15,11.48,12.58.52,7.86,0,15.96-1.39,23.73-1.16,6.49-3.82,7.28-10.22,4.9-5.49-2.04-10.89-4.35-18.28-7.33,5.39,7.38,14.97,7.43,15.93,16.69-26,5.6-51.43,14.29-75.42,1.92ZM767.43,963.34c-3.97,2.67-3.83,6.12-2.11,9.1,2.62,4.55,5.21,9.58,9.13,12.83,6.6,5.47,13.91,10.28,21.48,14.34,19.05,10.23,38.75,19.28,57.57,29.91,24.24,13.69,49.68,24.05,76.57,30.97,36.22,9.32,71.04,22.4,104.66,38.74,4.12,2,8.34,3.77,13.39,6.05,7.5-53.54,12.71-106.37,15.28-159.69-22.37-12.18-39.3-30.13-56.86-47.45-10.64-10.5-21.56-20.98-33.64-29.68-13.58-9.79-26.44-20.03-37.94-32.24-4.64-4.93-11.02-8.5-17.11-11.71-3.94-2.08-8.87-2.65-12.54,2.92,3.08,2.59,6.01,4.69,8.48,7.23,2.6,2.68,4.75,5.78,7.57,9.29-7.37,3.19-11.43-1-16.05-3.11-3.5-1.6-7.11-3.51-10.84-4-13.61-1.78-20.78-7.73-24.57-21.13-.71-2.52-1.1-5.78-2.85-7.24-6.24-5.2-12.87-10-21.35-13.9-3.32,11.31-6.29,21.47-9.28,31.62-.94,3.19-1.59,6.52-2.97,9.51-2.56,5.57-7.09,5.85-10.54.69-1.65-2.47-2.65-5.36-4.09-7.99-10.68-19.56-21.31-39.15-32.21-58.58-1.52-2.71-4.08-5.67-6.84-6.71-18.46-6.93-37.34-12.33-57.35-11.55-3.92.15-8,.93-11.65,2.35-7.02,2.72-9.72,8.61-6.33,15.31,2.31,4.57,5.82,9.3,10.05,11.97,7.8,4.93,16.2,9.33,24.91,12.31,31.19,10.67,57.74,28.54,81.7,50.71,1.95,1.8,3.92,3.68,5.41,5.85,4.33,6.33,2.22,11.33-5.33,11.63-6.26.26-12.77.02-18.84-1.4-17.16-4.03-34.06-9.15-51.23-13.08-7.65-1.75-15.77-2.6-23.58-2.14-7.86.47-12.32,6.08-13.57,13.75-2.72,16.69,15.28,36.98,32.25,37.33,20.62.42,40.05,6.11,58.27,15.71,2.33,1.23,4.05,3.61,6.05,5.46-.3.75-.59,1.5-.89,2.25-3.46.2-6.96.85-10.37.53-18.43-1.75-35.84-7.09-52.34-15.48-2.31-1.18-4.7-2.21-7.03-3.29-6.34,4.87-7.56,11.34-7.06,18.14,1.34,18.08,22.53,38.67,40.72,39.51,12.59.58,24.05,4.93,35.34,9.88,2.04.89,3.54,3,7.02,6.08-19.65,2.76-33.7-6.68-48.49-11.59ZM1161.6,325.18c.62.17,1.24.33,1.86.5,1.47-3.22,2.92-6.44,4.4-9.64,13.22-28.7,26.12-57.56,39.8-86.04,8.82-18.36,20.55-35.01,33.34-50.86,17.13-21.23,38.43-36.67,64.15-45.92,12.03-4.33,24.42-6.9,37.22-5.51,4.48.49,9.16,1.98,13.08,4.19,5.34,3.02,7.27,8.47,6.79,14.57-.47,6.06-4.27,9.72-9.64,11.51-3.73,1.24-7.76,1.7-11.69,2.19-8.25,1.04-16.68,1.17-24.77,2.9-32.43,6.95-57.4,25.46-77.4,51.28-13.38,17.27-22.88,36.66-30.67,56.95-9.78,25.48-19.64,50.93-32.88,74.9-.4.72-.21,1.77-.28,2.55,3.79,2.38,5.44-.18,7.74-2.28,4.63-4.23,9.69-7.97,14.54-11.96,2.27-1.87,4.85-3.54,6.6-5.83,5.03-6.57,11.52-11.11,19.01-14.15,23.33-9.45,46.82-8.68,70.25-.38,8.07,2.86,13.4,8.65,15.31,17.09.94,4.18,1.55,8.51,1.69,12.79.15,4.52.82,8.56,5.13,11.73,18.05-6.4,34.95-3.03,49.56,7.93,7.86-7.58,15.09-14.55,22.63-21.83-1.98,0-3.63-.02-5.27,0-4.95.06-9.45-.76-11.16-6.29-1.25-4.04,1.12-10.03,5.85-12.79,3.66-2.14,7.85-3.74,12.01-4.57,16.2-3.24,32.55-3.26,48.63.4,26.37,6,48.87,17.59,59.9,44.49.68,1.66,2.38,3.9,3.84,4.09,6.3.82,12.52,3.57,20.02,1.98-4.38-11.05-8.24-21.3-12.49-31.39-11.63-27.63-21.82-55.73-30-84.61-3.7-13.06-8.48-25.98-14.3-38.23-10.55-22.21-28.17-36.88-52.05-43.26-9.61-2.56-19.57-3.79-29.36-5.67-2.92-.56-6-.85-8.68-2-8.97-3.87-11.17-12.31-4.34-19.19,4.33-4.36,9.86-7.98,15.49-10.49,10.09-4.49,20.92-3.58,31.44-1.36,20.79,4.39,38.27,14.96,53.42,29.64,24.4,23.65,39.9,52.5,47.28,85.28,4.81,21.36,7.46,43.25,10.15,65.02,2.53,20.52,5.83,40.76,12.97,60.26,1.55.49,2.79.94,4.05,1.25,19.16,4.73,20.57,4.06,23.28-15.78,4.96-36.35,2.28-72.39-5.52-108.13-9.59-43.96-33.73-78.4-69.21-105.33-2.48-1.88-6.35-4.55-8.48-3.79-7.97,2.86-14.24-.6-20.97-3.51-15.56-6.73-31.22-13.24-46.83-19.86-6.07-2.58-11.97-2.51-18.45-.74-18.68,5.09-37.62,8.72-57.2,6.93-8.43-.77-16.84-2.27-23.51-7.38-5.71-4.37-10.63-3.6-16.53-1.5-31.18,11.13-57.31,29.53-78.44,54.86-29.87,35.81-48.49,76.94-56.51,122.84-1.86,10.66-3.19,21.42-4.76,32.13ZM956.06,557.97c-.39-.26-.78-.52-1.16-.78-2.4,2.06-4.85,4.06-7.18,6.18-18.1,16.48-37.78,30.78-60.65,39.74-38.38,15.03-76.45,10.79-113.8-4.25-22.06-8.88-41.51-22.42-61.04-35.74-28.27-19.29-47.55-45.17-57.79-77.82-.7-2.23-1.88-4.31-3.51-7.94,0,6.93.18,11.92-.03,16.89-.76,17.94-1.12,35.92-2.77,53.79-.55,5.91-3.62,12.16-7.15,17.1-5.78,8.08-14.74,8.54-23.54,5.91-8.54-2.55-14.44-8.18-15.82-17.46-1.21-8.09,2.14-13.09,10.19-14.09,5.9-.74,11.95-.24,17.93-.52,1.84-.09,3.65-.91,5.48-1.4-10.59-1.59-20.87-1.98-31.11-1.45-6.13.32-11.44,3.47-15.37,8.39-3.33,4.16-6.57,8.38-9.72,12.67-9.19,12.49-20.04,23.24-33.66,30.76-11.34,6.26-23.04,11.86-34.6,17.71-2.61,1.32-5.28,2.5-8.05,3.8.81,14.71,5.26,27.88,10.51,40.84,5.5,13.56,11.5,26.93,16.43,40.68,4.84,13.51,7.45,15.81,21.5,15.27,15.8-.61,31-4.4,45.8-9.42,23.61-8.01,47.02-16.62,70.38-25.32,13.67-5.09,25.59-3.32,37.44,5.51,26.88,20.05,51.29,42.51,70.6,70.03,6.34,9.04,13.77,15.24,24.26,19.17,12.09,4.52,23.42,11.09,35.07,16.78,2.89,1.41,5.77,2.85,9.14,4.52,1.63-3.56,3.05-6.51,4.34-9.52,13.39-31.26,32.98-57.65,60.84-77.58,3.78-2.71,7.42-5.66,10.9-8.74,11.29-10,17.39-22.21,17.3-37.69-.06-10.92.24-22.04,2.26-32.71,3.08-16.29,7.71-32.3,11.85-48.38,1.3-5.05,3.13-9.96,4.71-14.93ZM1289.54,1018.38c11.41,4.39,11.79,4.66,18.29-4.26,17.62-24.21,35.8-48.09,52.13-73.15,44.97-69.01,82.82-141.94,116.67-216.97,10.81-23.95,20.96-48.2,31.54-72.25,2-4.55,1.73-8.32-.1-13.13-2.44-6.39-4.17-13.61-3.84-20.36.76-15.57,2.93-31.07,4.56-46.6.32-3.04.8-6.06,1.21-9.09-2.41,1.4-3.31,3.1-4.07,4.86-12.57,29.08-31.84,52.9-56.8,72.21-24.89,19.26-51.16,36.19-81.79,44.8-31.65,8.9-62.08,6.15-89.87-12.61-10.19-6.88-19.62-14.88-29.39-22.37-2.22-1.7-4.44-3.4-7.95-6.08,3.31,10.45,6.44,19.16,8.81,28.08,6.55,24.66,10.12,49.68,5.05,75.03-1.55,7.77-2.77,15.38-2.6,23.24.42,19.3.12,38.64,1.5,57.87,2.98,41.59,11.25,82.35,21.06,122.82,5.48,22.61,10.42,45.34,15.59,67.96ZM1514.85,646.69c-55.45,132.56-118.48,261.28-207.93,376.12,65.09,15.26,130.2,20.91,194.84,27.75,0-12.45-1.11-23.86.23-34.98,2.9-24.1,6.69-48.12,10.77-72.06,6.15-36.1,12.27-72.07,13.52-108.88,1.41-41.65,14.23-80.48,35.69-116.22,14.25-23.74,32.09-44.16,57.15-57.26.91-.48,1.48-1.6,2.04-2.24-35.98-.4-71.34-2.98-106.3-12.24ZM1016.35,375.87l-1.04-.12c-3.82,18.1-7.14,36.33-11.59,54.27-4.58,18.45-14.84,32.55-33.92,38.67-7.19,2.31-12.83,6.84-17.32,12.91-3.36,4.55-6.72,9.14-10.49,13.34-3,3.34-6.26,8.24-11.49,5.75-4.65-2.22-3.34-7.55-2.83-11.75,1.04-8.58,2.67-17.1,3.63-25.69,1.05-9.33-.07-18.54-8.58-24.09-16.71-10.89-33.76-21.28-50.9-31.48-8.37-4.98-17.55-5.71-27.01-2.84-5.9,1.79-12.1,2.25-17.33-1.51-8.26-5.95-16.95-5.32-25.74-2.42-13.89,4.58-27.5,10.03-41.47,14.33-20.85,6.42-31.64,19.64-30.95,41.86.18,5.62-.38,11.36-1.43,16.89-.57,2.97-2.54,7.54-4.53,7.91-2.87.54-6.84-1.45-9.43-3.51-3.04-2.43-5.41-5.88-7.51-9.25-7.15-11.47-16.12-21.13-27.32-28.73-9.17-6.23-15.22-14.96-18.59-25.3-2.67-8.19-4.84-16.62-6.33-25.1-2.01-11.51-3.16-23.17-4.98-37.02-5.19,41.22-3.42,80.84,5.04,116.38,6.6,27.7,17.63,53.48,39.01,72.86,26.79,24.28,56.79,44.28,91.05,56.53,32.14,11.48,65.52,15.08,97.69,1.65,58.04-24.23,98.99-65.23,116.08-127.2,4.64-16.83,8.36-33.95,11.6-51.11,2.88-15.29,4.5-30.81,6.68-46.23ZM1063.54,941.07c.94-9.96,1.72-18.5,2.55-27.04,4.9-50.21,27.55-88.31,74.83-109.62,1.7-.77,3.23-1.92,5.36-3.2-3.75-5.51-6.97-10.52-10.48-15.33-14.07-19.31-31.59-35.09-50.66-49.29-28.17-21-59.04-37.36-90.53-52.64-1.92-.93-3.97-1.59-7.57-3,1.35,3.16,1.87,4.62,2.58,5.98,10.76,20.81,23.51,40.22,39.48,57.47,2.73,2.95,4.62,6.69,7.08,10.34-7.12,4.73-13.55,3.59-19.44,1.98-7.33-2.01-14.42-5.07-21.37-8.21-7.57-3.42-14.73-7.77-22.31-11.17-20.58-9.24-37.75-6.15-53.92,9.66-4.27,4.18-8.08,8.85-11.87,13.48-9.27,11.35-18.26,22.93-27.69,34.15-1.91,2.28-5.35,4.89-7.88,4.68-4.35-.35-4.64-5.08-4.98-8.67-.28-2.95-.1-6,.22-8.96,1.45-13.1,5.26-25.59,12.54-36.52,6.99-10.48,15.17-20.17,22.8-30.22,1.15-1.52,2.16-3.16,3.23-4.74-23.92,14.94-50.71,53.3-57.08,80.27,17.19,11.65,34.5,23.38,52.11,35.31,7.58-9.1,16.22-7.45,24.34-2.32,6.12,3.86,11.95,8.58,16.81,13.92,7.92,8.7,16.73,16.02,26.43,22.67,9.85,6.75,19.16,14.41,28.07,22.39,9.17,8.21,17.3,17.57,26.36,25.92,10.02,9.24,20.5,18.01,30.96,26.76,2.67,2.23,6.04,3.63,10.02,5.96ZM1284.71,1022.73c-73.42-19.29-146.27-41.9-216.15-73.76-5.21,53.09-10.36,105.59-15.56,158.59,29.22,15.31,58.84,30.82,88.64,46.44,17.86-20.2,39.42-34.53,61.96-47.48,28.8-16.54,53.87-37.65,77.23-61.12,6.62-6.65,8.7-12.84,3.88-22.66ZM1260.65,1224.79c-39.89-22.13-78.5-43.55-116.87-64.84-8.47,8.83-15.42,19.96-20.14,34.06-9.95,29.72-17.42,60.07-20.96,91.25-1.6,14.04-.19,27.96,5.12,41.22,5.31,13.27,14.55,18.13,28.56,15.07,15.99-3.49,29.65-11.76,42.14-21.9,25.22-20.48,46.9-44.35,65.86-70.67,5.42-7.52,10.37-15.38,16.28-24.2ZM1010.7,123.71c.14-3.59.91-8.55.39-13.36-1.47-13.68-7.54-25.37-16.77-35.49-8.21-9-18.06-15.78-29.07-20.75-17.44-7.88-33.24-18-47.33-31.07-12.93-12.01-28.89-16.49-46.21-14.29-16.11,2.05-31.92,1.06-47.63-2.25-27.26-5.74-52.93-2.18-76.92,12.22-1.67,1-3.04,2.51-4.02,3.34,13.74.83,27.5.49,40.83,2.71,28.38,4.74,51.76,18.31,68.5,42.45,5.48,7.9,11.3,15.81,18.17,22.47,13.06,12.66,27.93,20.75,47.5,16.99,17.3-3.32,33.77.64,48.84,9.83,5.4,3.29,10.61,6.87,15.95,10.26,3.01,1.91,6.09,3.71,7.27,4.43,7.7-2.81,13.43-4.9,20.5-7.48ZM1262.16,1221.17c32.14-56.71,38.64-115.47,26.87-178.15-2.08,1.65-3.21,2.33-4.06,3.26-25.9,28.21-56.31,50.55-89.21,69.93-12.83,7.56-24.6,16.98-36.48,26.04-4.93,3.76-8.88,8.81-14,14,39.26,21.81,77.52,43.06,116.88,64.92ZM1430.05,338.02c-14.76.7-28.78,2.71-41.6,10.05-13.22,7.57-21.47,18.58-22.95,34.1-2.53,26.6,6.33,48.86,27.7,64.67,25.14,18.6,64.25,17.83,86.44-11.5,9.75-12.89,14.77-27.49,15.84-43.36,1.61-23.91-9.35-40.5-32.33-47.64-10.66-3.31-22.05-4.29-33.1-6.32ZM1236.27,450.1c19.18.17,33.23-4.14,44.83-14.82,12.72-11.7,20.15-26.46,22.79-43.38,4.58-29.38-8.34-49.27-36.98-57.11-19.34-5.29-38.96-5.44-58.25-.14-17.13,4.71-28.66,15.86-30.95,34-1.15,9.09-1.01,18.68.54,27.7,5.43,31.54,31.28,53.66,58.02,53.74ZM1151.85,811.08c-17.67,7.52-32.68,16.6-45.17,29.36-21.45,21.93-30.76,48.49-28.87,78.92.74,11.96,6.79,21.34,16.43,28.4,26.74,19.58,60.72,10.31,73.69-20.19,1.68-3.95,2.99-8.11,4.02-12.29,3.64-14.81,2.75-29.69.13-44.53-3.65-20.68-9.8-40.5-20.23-59.68ZM1182.81,709.59c.53-1.91.76-2.26.68-2.52-.49-1.58-1-3.16-1.6-4.71-12.59-32.53-16.7-66.16-14.7-100.95,1.28-22.23,1.61-44.65.21-66.85-1.23-19.52-5.33-38.88-8.41-58.27-4.34-27.35-7.7-54.72-5.05-82.52,1.5-15.75,6.05-30.53,13.25-44.5,6.21-12.06,13.58-23.57,19.1-35.93,9.77-21.87,18.19-44.33,27.77-66.29,10.42-23.88,25.98-44.14,45.83-61,19.03-16.16,41-25.77,65.89-28.46,6.62-.71,13.3-.98,19.88-1.97,8.23-1.23,12.45-5.02,12.65-10.5.23-6.53-4.48-11.36-12.8-12.89-2.28-.42-4.68-.74-6.96-.48-8.56.98-17.34,1.3-25.59,3.51-28.38,7.61-50.58,24.75-68.99,47.07-17.26,20.93-31.24,44.07-42.23,68.77-18.94,42.53-37.2,85.37-55.31,128.26-8.33,19.73-13.05,40.48-14.61,61.93-2.18,29.77,3.02,58.5,13.06,86.28,9.17,25.38,13.36,51.28,13.94,78.21.39,18.23,2.64,36.51,5.44,54.56,2.66,17.14,8.75,33.36,18.56,49.24ZM677.82,74.39c-1.24.68-2.21.97-2.87,1.6-25.81,24.35-40.13,54.2-42.83,89.6-1.71,22.41,1.37,44.53,4.59,66.55,3.02,20.69,7.27,41.2,11.08,61.78.27,1.46,1.39,2.77,2.88,5.61.97-3.36,1.56-4.89,1.85-6.47,4.33-23.89,13.69-45.77,26.41-66.3,6.22-10.04,8.06-20.54,6.21-32.42-5.07-32.67,3.89-59.91,32.86-78.58,1.07-.69,1.98-1.63,3.76-3.11-22.16-4.81-37.1-16.96-43.94-38.25ZM316.24,650.5c-.35-2.88-.23-4.22-.69-5.33-6.95-17.13-28.32-21.05-42.1-7.34-4.89,4.87-8.67,10.92-12.65,16.64-6.17,8.88-13.57,16.19-23.12,21.57-7.51,4.23-14.54,9.36-21.55,14.42-11.12,8.02-22.71,15.14-35.7,19.67-11.89,4.14-19.58,11.83-22.88,24.21-3.15,11.81-9.27,21.79-18.83,29.9-3.78,3.2-7.36,8.42-8,13.14-1.17,8.53-3.59,16-8.6,22.97-5.07,7.07-4.97,14.96-2.53,24.06,10.59-19.11,18.1-20.54,33.99-7.51.77.63,1.48,1.35,2.31,1.91,6.53,4.37,13.09,8.7,20.59,13.68,7.7-18.88,14.81-36.32,22.45-55.03-3.51-1.45-6.64-2.79-9.8-4.05-7.06-2.81-14.27-5.26-21.11-8.52-2.46-1.17-4.55-3.95-5.85-6.49-2.12-4.14.13-7.43,4.71-7.19,2.58.14,5.47.65,7.61,1.99,6.44,4.03,12.62,8.49,18.82,12.9,2.31,1.64,4.39,3.61,6.61,5.46,9.44-16.59,18.38-32.31,27.53-48.39-4.85-1.6-10.3-2.94-15.35-5.17-5.42-2.39-11.04-5.2-9.69-13.36,12.96-4.4,20.77,5.81,30.37,10.91,1.29-1.77,2.28-3.08,3.21-4.43,7.38-10.6,14.69-21.25,22.17-31.78,1.1-1.55,2.8-2.81,4.46-3.78,9.07-5.3,18.22-10.47,27.93-16.02-1.24-.8-1.88-1.43-2.65-1.67-3.36-1.06-7.07-2.73-5.97-6.57.76-2.65,3.96-4.92,6.57-6.6,1.81-1.17,4.44-1.21,6.73-1.46,7.49-.81,14.26,1.16,21.01,7.27ZM1535.17,371.86c-.39-1.76-.6-3.02-.95-4.25-5.63-19.56-8.89-39.49-11.15-59.73-2.25-20.12-5.11-40.3-9.66-60-6.53-28.26-19.38-53.79-39.08-75.43-15.79-17.36-34.49-30.3-57.75-35.49-14.89-3.33-29.23-2.53-41.32,8.32-2.91,2.61-6.98,5.84-4.48,9.99,1.78,2.97,5.78,5.41,9.26,6.39,5.38,1.51,11.19,1.48,16.79,2.27,33.8,4.8,58.91,21.8,73.23,53.21,4.4,9.65,8.51,19.64,11.05,29.9,10.11,40.9,27.98,78.94,42.63,118.17,1.95,5.21,4.72,7.71,11.44,6.66ZM1316.4,361.19c5.39,28.59-1.01,54.48-18.72,77.65-2.41,3.15-4.6,6.57-6.27,10.15-1.36,2.93-2.48,6.29-2.49,9.46-.02,6.65,3.9,9.75,10.33,8,8.42-2.3,14.64-.34,19.99,6.78,6.03,8.02,11.99,7.88,18.66.53,5.9-6.51,15.76-7.77,22.43-2.87,5.93,4.36,9.55,4.75,13.89,1.5,5.03-3.77,6.35-9.7,3.44-15.92-.98-2.1-2.47-3.99-3.3-6.13-.93-2.4-2.24-5.15-1.8-7.45.36-1.88,3.04-3.32,4.65-4.9-14.98-21.17-20.42-43.94-13.71-68.66-13.58-13.02-32.09-16.14-47.08-8.14ZM1401.1,64.12c5.78,3.88,9.92,6.1,13.36,9.12,3.18,2.79,6.39,6.06,8.24,9.78,4.23,8.52-.62,17.28-9.78,18.84-9.38,1.59-21.13-3.9-26.61-12.53-5.31-8.35-3.27-15.79,2.94-22.69.14-.16-.07-.64-.28-1.98-24.79-7.3-48.64-6.6-70.32,10.03-3.09,2.37-5.75,5.61-7.84,8.94-5.19,8.25-4.16,15.47,2.99,23.66,22.2-3.92,44.71-5.18,67.28-1.41,15.03,2.51,29.92,4.83,45.4,4.06,17.97-.89,33.29,8.11,48.19,17.14,3.31,2.01,6.63,4,11.26,6.8,3.2-23.28-.84-43.09-17.39-58.02-18.93-17.08-41.62-18.68-67.44-11.74ZM886.1,107.1c-13.73-7.69-23.47-18.95-32.31-31.19-2.92-4.04-5.92-8.04-8.97-11.98-9.79-12.62-22.05-21.94-36.89-28.02-22.12-9.07-44.94-11.37-68.5-8-9.56,1.37-15.35,6.5-18.25,17.7,23.03-5.47,40,5.78,56.29,19.3,10.75,8.91,21.97,17.25,32.86,26,22.48,18.07,48.8,18.28,75.77,16.19ZM1019.82,313.55l2.51.75c1.85-6.95,4.23-13.81,5.46-20.86,4.1-23.58,8.28-47.17,11.49-70.88,3.27-24.14.97-47.84-9.55-70.22-3.84-8.16-8.45-15.85-15.31-19.52-7.63,2.65-13.97,4.85-21.61,7.51.16,3.34-.3,7.7.72,11.69,1.88,7.38,4.51,14.58,7.05,21.78,6.93,19.72,9.31,39.44.63,59.31-2.41,5.52-1.64,10.83.33,16.45,4.72,13.48,9.19,27.06,13.23,40.76,2.24,7.59,3.4,15.49,5.05,23.25ZM201.01,782.4c-7.03,17.67-13.51,33.94-20.21,50.8,3.44,1.54,6.02,2.94,8.76,3.89,22.62,7.77,45.26,15.48,67.91,23.15,2.83.96,5.73,1.76,8.65,2.34,9.22,1.82,14.74-1.33,17.89-10.02,3.85-10.64.83-20.91-10.01-27.53-9.87-6.02-20.85-10.18-31.15-15.53-9.98-5.19-19.88-10.59-29.49-16.43-4.15-2.52-7.48-6.39-12.35-10.66ZM206.07,771.46c18.91,2.55,33.35,12.3,48.35,20.9,6.63,3.8,13.39,7.46,20.39,10.5,3.86,1.68,8.33,2.66,12.53,2.68,10.4.06,16.66-7.99,14.05-18.1-1.14-4.41-3.07-8.99-5.85-12.54-4.9-6.25-10.06-12.64-16.3-17.43-14.97-11.49-30.62-22.08-46.62-33.48-11.02,14.5-19.46,29.79-26.55,47.46ZM1406.88,539.03c-4.81-1.31-8.73-2.89-12.79-3.39-10.57-1.29-21.18-2.27-31.79-3.09-32.84-2.53-65.69-4.95-98.54-7.31-2.72-.2-5.49.37-9.65.7,12.03,12.81,25.59,19.48,40.47,23.59,21.39,5.91,43.28,7.64,65.31,5.46,10.54-1.04,21.02-3.26,31.34-5.74,5.58-1.34,11.39-3.4,15.66-10.21ZM176.69,843.39c-6.28,13.66-12.19,26.51-18.09,39.34,1.11,1,1.72,1.87,2.56,2.28,15.8,7.7,31.6,15.41,47.47,22.96,2.35,1.12,5.03,1.79,7.62,2.08,6.64.74,12.56-.79,16.66-6.62,4.06-5.78,4.33-12.23.79-17.84-3.1-4.9-7.32-9.59-12.07-12.88-14.44-9.98-29.38-19.24-44.93-29.31ZM813.84,98.86c-17.77-13.9-35.48-27.88-53.36-41.65-3.12-2.4-6.76-4.35-10.46-5.74-9.72-3.66-19.6-4.91-30.92-.45,3.02,5.19,5.03,9.78,8.03,13.59,9.06,11.51,16.64,23.33,10.74,40.49,25.81-10.29,50.3-11.85,75.97-6.24ZM153.96,882.55c6.88-14.85,13.06-28.2,19.3-41.67-8.4-7.92-16.26-15.44-24.25-22.83-4.27-3.95-9.03-7.03-15.22-4.79-6.11,2.21-8.1,7.7-8.99,13.31-.72,4.51-.97,9.38-.08,13.82,3.54,17.51,15,29.62,29.23,42.17ZM714.27,51.62c-10.31,2.92-19.28,8.45-28.04,14.51-4.02,2.78-4.34,6.03-3.13,10.35,4.44,15.89,22.24,30.46,38.78,31.47,8.5.52,13.11-3.25,14.1-11.76.93-8.01-1.84-14.95-6.33-21.45-5.06-7.32-9.87-14.82-15.37-23.12ZM1257.72,536.46c25.23,43.04,102.47,59.56,142.12,15.24-3.98.92-7.05,1.67-10.14,2.33-45.43,9.75-89.56,9.31-131.98-17.57ZM1567.85,472.99c2.24-6.29,4.42-11.98,6.3-17.78,5.44-16.79,9.6-33.88,9.96-51.62.1-4.87-.34-10.1-2.07-14.58-3.18-8.23-11.33-10.36-17.61-4.26-4.87,4.73-8.45,10.95-11.85,16.94-1.27,2.24-1.06,5.85-.4,8.56,4.96,20.53,10.2,40.99,15.67,62.73ZM827.55,835.49c.68-.04,1.36-.08,2.04-.12,4.11-14.51,8.22-29.02,12.39-43.77-16.38-9.25-32.39-17.67-50.48-23.97,12.36,23.27,24.21,45.56,36.05,67.85ZM1523.55,506.79c2.39,1.91,4.77,3.12,6.16,5.05,4.84,6.71,6.71,7.22,12.97,2.58,4.77-3.54,7.88-7.72,7.13-14.24-2.33-20.4-4.35-40.83-6.61-61.24-.14-1.26-1.28-2.41-2.71-4.95-2.98,11.47-5.78,21.33-8.07,31.31-3.18,13.87-5.96,27.82-8.87,41.49ZM1838.16,1166.21c-13.7-18.29-62.13-34.95-79.56-28.01,8.16,17.6,45.12,30.81,79.56,28.01ZM812.02,266.05c-.74-10.61-3.11-14.5-12.38-16.13-14.35-2.52-28.94-4.75-43.47-4.98-17.1-.27-32.64,5.79-45.49,17.6-1.39,1.28-2.47,2.9-3.7,4.36,4.24-.36,7.59-1.68,10.84-3.22,15.98-7.61,32.61-8.8,49.7-5.04,8.77,1.93,17.4,4.55,26.22,6.16,5.72,1.05,11.66.85,18.28,1.26ZM1873.91,1323.82c.89-.05,1.79-.1,2.68-.15,1.43-6.92,1.02-14.02.26-21.06-2.57-23.76-5.44-47.5-7.95-71.26-1.29-12.21-1.62-24.54-3.25-36.69-.77-5.77-2.98-11.56-5.65-16.78-2.2-4.3-6.09-7.61-11.43-6.1,2.55,10.21,5.71,19.72,7.23,29.49,4.36,27.87,7.99,55.85,12.03,83.77,1.88,12.95,4.04,25.86,6.07,38.78ZM1478.91,345.29c.27-.39.53-.79.8-1.18-4-3.09-7.76-6.57-12.04-9.19-25.16-15.38-52.47-17.37-80.75-12.26-3.12.56-6.53,2.17-8.72,4.36-1.77,1.77-2.84,5.33-2.41,7.77.24,1.35,4.27,3.04,6.47,2.87,8.26-.62,16.52-1.61,24.67-3.06,24.28-4.32,47.62-2.75,69.39,10.04.74.43,1.72.44,2.59.65ZM1305.44,344.17c.23-16.18-4.64-23.49-17.78-27.59-12.47-3.89-25.31-5.61-38.33-4.34-11.17,1.08-22.07,3.44-31.44,11.28,32.3-7.18,59.75,5.7,87.55,20.66ZM124.8,853.22c-9.22,24.81-10.31,46.76,10.27,65.93,5.62-10.9,10.88-21.09,16.39-31.78-4.02-2.95-7.26-5.18-10.32-7.63-4.39-3.52-8.78-7.06-12.85-10.92-1.19-1.13-2.33-4.43-1.8-4.93,4.52-4.25-.49-6.25-1.69-10.67ZM137.45,923.1c3.44,3.5,6.64,7.21,10.31,10.39,5.06,4.37,10.91,6.82,17.42,3.28,6.24-3.39,8.39-9.38,8.06-16.06-.17-3.56-1.06-7.34-2.64-10.52-3.7-7.42-9.59-13.06-16.49-19.17-5.79,11.15-10.98,21.13-16.66,32.07ZM1803.45,938.54c-14.52,38.91-17,80.3-24.78,120.61,17.03-38.36,27.96-77.99,24.78-120.61ZM1599.31,1090.9c-10.99-15.16-64.85-35.33-86.02-32.22,10.42,12.69,69.19,34.7,86.02,32.22ZM1274.08,520.57c38.17,3.37,74.65,6.58,111.12,9.8l.39-2.03c-10.91-3.6-21.69-7.71-32.79-10.57-5.21-1.34-11.19-1.05-16.56-.09-5.45.98-10.26,1.16-15.46-1.12-3.86-1.7-8.29-2.96-12.45-2.92-11.29.1-22.01,3.48-34.25,6.94ZM644.45,543.23c-10.27,0-19.5-.29-28.69.08-9.96.4-13.01,6.78-7.79,15.49,7.45,12.43,25.69,12.33,32.76-.25,2.78-4.95,4.5-10.22,3.72-15.32ZM1318.3,110.76c13.04,11.98,53.65,12.66,76.71,1.83-25.5-5.67-50.36-6.7-76.71-1.83ZM1411.93,97.91c1.17-.74,4.81-2.02,6.83-4.58,2.74-3.46,1.91-8.24-1.2-10.95-5.93-5.15-12.45-9.67-19.07-13.92-1.29-.83-4.52.2-6.2,1.35-4.9,3.36-6.15,9.44-3.63,15.11,3.32,7.48,12.54,13.25,23.27,13ZM1548.85,413.02c-3.89,6.17-5.24,10.62-3.77,16.36,5.46,21.32,8.09,43.07,8.72,65.07.03,1.02.57,2.02,1.2,4.13,4.47-6.74,8.05-11.99,7.4-19.36-1.93-21.94-6.59-43.27-13.55-66.2ZM1543.83,589.44c12.38-21.2,22.98-76.76,17.83-92.33-3.79,5.72-8.02,10.28-8.12,17.78-.31,22.6-3.42,44.92-8.92,66.88-.51,2.03-.45,4.2-.79,7.67ZM314.45,658.25c-17.79,2.57-33.24,9.27-40.12,17.17,19.32,9.53,38.78,1.57,40.12-17.17ZM681.87,62.94c9.02-4.75,16.09-8.86,23.48-12.28,11.23-5.19,11.33-4.99,15.87-19.44-16.85,5.7-31.71,12.38-39.35,31.72ZM1422.83,114.81c16.21,7.41,32.41,14.84,48.65,22.19,2.88,1.3,5.94,2.32,10.35-.35-18.81-12.04-36.27-23.89-59-21.84ZM762.7,282.02c-8.5-.13-12.38,2.41-12.39,8.09,0,5.59,4.97,10.04,11.36,10.17,6.7.13,11.78-3.97,11.8-9.53.02-5.9-3.33-8.62-10.77-8.72ZM801.1,915.5c-15.72-9.44-33-13.45-51.06-14.78,15.84,9.01,32.87,13.93,51.06,14.78ZM972.53,668.59c-2.62-12.59-14.1-24.85-25.09-26.47,2.52,14.72,14.08,19.82,25.09,26.47ZM1531.69,384.95c3.37,9.9,6.49,19.08,9.97,29.3,3.83-4.99,4.92-8.86,2.9-13.63-1.66-3.92-2.85-8.07-3.91-12.2-1.23-4.77-4.05-5.4-8.96-3.47ZM875.29,813.52c1.04,13.97,11.57,21.41,24.46,16.35-8.52-5.69-16.27-10.88-24.46-16.35ZM504.91,601.91c11.95-2.72,22.64-8.09,32.57-15.08-11.72,3.22-25.64,1.83-32.57,15.08ZM729.67,295.34c6.61,4.21,12.54,5.17,18.92,4.98-1.27-4.99-2.37-9.31-3.69-14.54-4.89,3.07-9.54,5.99-15.22,9.56ZM777.5,283.37v15.24c6-1.19,11.56-2.3,17.12-3.41.15-.69.29-1.39.44-2.08-5.55-3.08-11.09-6.16-17.56-9.75ZM1147.78,807.1c-16.48,5.68-31.39,13.81-42.8,27.38,14.27-9.13,28.53-18.25,42.8-27.38ZM287.02,651.46c8.02,4.26,12.84,4.32,22.43.27-8.08-6.16-14.47-6.24-22.43-.27ZM188.94,769.38c-7.48-9.78-14.88-13.77-23.46-12.86,5.68,8.14,13.99,10.37,23.46,12.86ZM1498.76,373.41c7.06,7,15.9,5.4,26.09,6.05-6.16-5.5-14.17-7.36-26.09-6.05ZM1543.89,384.24c1.57,5.01,2.92,9.3,4.68,14.9,3.97-6.27,7.14-11.28,11.07-17.5-5.87.97-10.08,1.66-15.76,2.6ZM238.35,715.43c10.57-3.63,14.09-9.57,12.95-21.55-4.52,7.52-8.42,14.02-12.95,21.55ZM206.24,707.89c4.74,7.56,11.64,8.6,20.28,9.74-6.33-5.97-11.71-10.21-20.28-9.74ZM1296.52,345.82c3.69,5.36,6.83,9.94,10.53,15.31,2.45-8.05.09-11.23-10.53-15.31ZM1177.43,353.87c-7.61-.98-8.83,2.88-9.55,7.75,7.76,3.27,7.54-2.62,9.55-7.75ZM1297.98,1025.74c-3.09-.39-5.05-.64-7.84-.99.87,2.78,1.42,4.55,2.24,7.18,2.03-2.24,3.42-3.78,5.6-6.19ZM998.12,131.98c.26.87.52,1.75.78,2.62,2.68-.82,5.36-1.65,8.03-2.47-.25-.83-.5-1.67-.75-2.5-2.69.78-5.38,1.56-8.07,2.34ZM910.39,838.98c.29-.45.58-.9.87-1.36-2.33-1.58-4.65-3.16-6.98-4.75-.35.54-.69,1.09-1.04,1.63,2.38,1.49,4.76,2.98,7.15,4.47ZM1412.36,541.48c1.7-2,2.89-3.4,4.72-5.56h-7.2c.88,1.97,1.5,3.36,2.48,5.56ZM1530.01,376.66c-.08.79-.15,1.59-.23,2.38h6.24c.03-.37.06-.75.09-1.12-2.04-.42-4.07-.84-6.1-1.26Z"/><path d="M342.09,1039.33c-.89,46.93-5.97,93.17-17.87,138.48-3.7,14.08-8.86,27.93-14.85,41.22-4.33,9.6-7.31,18.85-7.34,29.5-.02,7.16-1.86,14.52-4.05,21.43-3.26,10.29-9.89,18.14-20.52,21.61-4.26,1.39-6.27,4.26-8.24,7.94-3.45,6.44-7.27,12.7-11.32,18.79-6.65,10-16.17,14.97-28.15,13.49-11.19-1.38-22.38-3.23-33.35-5.81-29.78-7-59.39-14.76-89.19-21.69-12.94-3.01-26.24-4.48-39.28-7.08-14.2-2.83-27.33-8.41-39-17.11-10.25-7.64-17.21-17.43-19.52-30.28-2.65-14.75,4.84-24.87,19.79-26.27,9.19-.86,17.83,1.64,26.28,4.86,18.95,7.23,37.69,15.08,56.85,21.71,33.94,11.76,68.02,23.12,102.24,33.99,14.25,4.53,29,7.3,44.18,7.28,7.18,0,11.38-2.35,14.53-9.2,6.82-14.8,14.9-29,22.01-43.68,1.94-4.01,3.35-8.87,3.11-13.23-1.29-22.92-2.91-45.83-4.92-68.7-6.02-68.42-9.23-136.89-2.83-205.44,1.35-14.5,4.75-28.85,7.81-43.14.94-4.4,3.34-8.76,6.02-12.45,3.73-5.15,8.83-5.45,12.39-.25,3.88,5.67,7.43,12.06,9.1,18.65,4.01,15.77,8,31.71,9.87,47.82,2.99,25.75,4.25,51.71,6.24,77.58ZM309.71,894.91c-2.18,3.56-4.81,6.58-6.01,10.08-2.25,6.58-4.05,13.37-5.36,20.2-5.77,29.86-6.57,60.13-7.12,90.41-1.1,60.65,4.47,120.95,9.93,181.25.68,7.46,1.18,14.93,1.78,22.54,1.26-.42,2.16-.45,2.37-.84,1.11-2.04,2.07-4.16,3.03-6.27,11.97-26.32,17.36-54.43,21.81-82.67,8.75-55.55,9.14-111.29,2.02-167.07-2.28-17.83-5.3-35.53-11.79-52.41-2.1-5.45-3.82-11.31-10.65-15.2ZM266.98,1294.84c-30.46,1.78-57.23-7.44-84.06-16.27-17.99-5.92-35.96-11.9-53.75-18.36-24.66-8.96-49.05-18.66-73.75-27.49-7.71-2.75-16.02-4.84-24.15-5.19-13.65-.59-19.98,7.78-17.77,21.18,1.7,10.29,6.48,18.71,14.4,25.46,11.96,10.2,26,15.9,41.17,19.07,29.26,6.13,58.62,11.76,87.79,18.27,19.44,4.34,38.4,11.06,57.96,14.54,28.33,5.05,33.08,2.29,47.25-21.44,1.5-2.52,2.64-5.25,4.89-9.79ZM296.18,1245.43c-6.8,13.52-13.59,27.04-21.1,41.97,15.78-5.79,23.04-19.95,21.1-41.97Z"/><path d="M871.21,386.57c8.59-4.49,10.89-9.43,8.13-16.99-.79-2.16-1.97-4.25-3.32-6.12-14.6-20.14-17.1-42.78-13.84-66.6.45-3.27,1.01-6.69,2.36-9.65,3.25-7.15,7.1-13.75,6.32-22.39-.28-3.04,4.23-7.15,7.42-9.67,2.41-1.9,6.15-2.65,9.38-2.88,18.32-1.35,36.59-1.39,54.46,3.83,16.66,4.86,29.98,13.99,38.38,29.63,4.9,9.13,3.16,18.53,1.32,27.82-.94,4.75-4.74,7.04-9.67,6.95-1.66-.03-3.67.27-4.9-.54-9.01-5.9-18.54-2.59-27.92-1.92-20.14,1.45-38.82-4.14-57.02-11.94-1.46-.63-2.71-1.73-5.69-3.67,6.58-3.59,12.05-6.57,18.96-10.34-9.84-.9-20.13,3.51-24.81-10.26-1.88,5.38-3.63,8.65-4.14,12.11-3.47,23.68-1.98,46.51,12.47,66.88.96,1.35,1.84,2.77,2.62,4.24,3.52,6.66,4.19,13.5-.37,19.8-4.6,6.34-11.33,7.28-19.22,6.34.49-2.79.85-4.86,1.22-6.94-5.64-1.58-8.94,1.66-12.27,5.04-8.68,8.83-14.46,8.95-25.22,2.39-4-2.44-9.31-2.86-14.1-3.79-4.22-.82-8.59-.86-12.82-1.63-3.26-.6-6.38-1.84-7.29-6.51,3.16.93,5.8,1.71,8.35,2.46,1.87-2.85,3.16-7.11,5.29-7.58,3.53-.78,8.21-.12,11.3,1.75,4.42,2.66,8.13,6.72,11.63,10.63,5.88,6.56,12.37,7.06,18.66.94,1.9-1.85,3.62-3.97,5.77-5.48,6.98-4.91,13.28-3.56,18.56,4.1ZM875.93,277.42c.9,10.34,1.84,11.19,11.9,10.39,1.99-.16,3.96-.49,5.94-.71,23.96-2.72,44.62,4.05,61.64,21.37,1.63,1.66,3.14,3.49,5.01,4.83,5.08,3.64,12.9,4.26,15.85,1.5,3.06-2.87,4.09-10.85,1.51-16.02-1.45-2.9-3.36-6.08-5.95-7.82-7.1-4.75-14.31-9.7-22.15-12.92-10.24-4.2-21.39-4.53-32.43-3.73-13.5.98-27,2.03-41.31,3.11ZM974.99,286.32c-7.11-14.19-19.2-21.81-33.63-26.19-17.17-5.2-34.81-5.05-52.44-3.73-3.8.28-7.91,1.85-11,4.06-1.92,1.37-3.13,5.19-2.82,7.67.2,1.57,3.77,3.83,5.86,3.86,9.28.16,18.69.47,27.84-.8,24.05-3.34,46.34-.39,66.17,15.12ZM914.48,293.31c-5.7.08-8.71,3-8.69,8.4.03,6.29,5.36,10.41,13.3,10.26,6.07-.11,10.14-4.15,10.01-9.95-.11-5.04-6.49-8.84-14.63-8.72ZM930.22,314.2c7.11-.41,13.14-.77,19.17-1.12.23-.77.47-1.54.7-2.31-4.95-3.73-9.89-7.46-15.39-11.61-1.61,5.4-2.81,9.43-4.49,15.04ZM886.59,301.26l-.33,2.32c4.86,1.62,9.71,3.25,14.77,4.94v-12.87c-5.39,2.1-9.92,3.85-14.44,5.61ZM817.9,384.11c.25-.84.5-1.69.75-2.53-3.67-1.3-7.34-2.61-12.08-4.29,2.11,8.5,7.38,6.04,11.33,6.82Z"/><path d="M611.5,573.88c1.06,2.6,2.08,5.22,3.19,7.8,12.57,29.15,32.04,52.76,57.65,71.34,8.44,6.12,17.5,10.91,28.51,10.38,3.8-.18,7.32.82,8.8,5.1-1.38,4.18-4.42,3.17-7.32,2.27-45.36-14.17-72.78-46.92-91.52-88.57-1.06-2.35-1.1-5.15-1.61-7.73.77-.2,1.54-.39,2.31-.59Z"/><path d="M910.61,453.43c-3.28,3.11-5.85,6.07-8.91,8.36-28.93,21.63-60.95,24.89-94.81,15.08-18.43-5.34-35.19-14.05-49.41-27.23-2.12-1.96-4.51-3.62-7.06-5.64-4.78,5.14-5.81,11.13-6.04,16.99-.63,15.6,2.63,30.5,10.48,44.08,5.7,9.87,14.17,16.68,25.35,19.74,6,1.64,11.89,1.28,17.51-1.48,11.22-5.52,13.81-16.03,6.58-26.37-1.1-1.57-1.94-3.33-3.72-6.43,11-2.11,21.12-.97,31.06-.26,10.02.72,20.36-.11,31.05,3.16-2.06,3.81-3.59,6.32-4.83,8.97-3.42,7.33-2.37,14.43,2.26,20.73,4.49,6.12,11.03,6.73,18.02,5.26,11.47-2.41,20-9.12,25.96-18.78,10.49-16.99,15.34-35.13,8.3-55.63,4.18,1.01,4.92,3.88,5.79,6.54,7.52,23.07-9.1,59.81-31.38,69.43-.31.13-.61.27-.92.39-9.9,3.65-19.93,4.96-27.85-3.5-7.56-8.07-8.24-17.79-3.33-27.8.41-.83.43-1.84.78-3.48-15.53-.76-30.77-1.51-45.92-2.25-.25,1.36-.68,2.19-.43,2.53,10.2,13.71-1.91,34.08-22.34,33.68-10.85-.21-20.47-4.34-27.44-12.43-16.39-19.02-22.59-41.15-17.22-65.92,2.04-9.43,3.58-9.48,13.37-10.6,10.21-1.17,20.29-3.51,30.37-5.64,6.17-1.31,12.2-3.29,18.34-4.78,8.59-2.07,16.87-2.07,25.35,1.66,3.88,1.71,9.06,1.37,13.48.76,5.75-.79,11.14-1.14,16.58,1.33,15.13,6.88,30.08,14.25,46.77,16.88,1.13.18,2.11,1.29,4.22,2.64ZM895.46,460.37c-43.58-3.2-85.89-6.3-128.64-9.44,31.86,30.97,95.33,35.9,128.64,9.44ZM767.36,443.46c42.82,8.33,85.65,10.24,128.59,11.3-13.81-6.62-27.61-12.85-41.69-18.38-3.07-1.2-7.25-.41-10.7.4-6.08,1.43-11.63.99-17.44-1.43-3.84-1.59-8.54-2.99-12.43-2.25-15.53,2.98-30.9,6.83-46.33,10.36Z"/></g></svg>
