<?xml version="1.0" encoding="UTF-8"?><svg id="Capa_2" xmlns="http://www.w3.org/2000/svg" viewBox="0 0 675.8 184.69"><defs><style>.cls-1{fill:#4c2f08;}</style></defs><g id="Capa_1-2"><path class="cls-1" d="M254.91,156l-.33-.35s-.12-.06-.17-.02c-.47.34-.95.67-1.4,1.04-18.53,14.97-39.4,21.86-63.24,18-6.2-1-12.3-2.63-18.39-4.21-3.47-.9-5.17-3.59-4.74-6.63.43-3.07,2.83-4.98,6.4-5.09.88-.03,1.76-.02,2.64-.05,14.39-.49,26.86-5.42,36.86-16,1.63-1.73,3.08-3.63,4.6-5.47.09-.11-.03-.26-.16-.2-1.42.62-2.58,1.47-3.77,2.28-7.2,4.94-16.43,3.04-21.02-4.37-4.82-7.78-1.47-19.35,9.13-20.29,5.55-.49,11.07-1.21,16.6-1.9,0,0,0,0,0,0,4.82-.55,10.69-1.18,15.52-1.74,1.02-.12,2.04-.3,3.06-.44.15-.02.15-.24,0-.26-6.11-.71-12.23-1.43-18.34-2.14,0,0,0,.02,0,.03-6.34-.74-12.69-1.48-19.02-2.31-4.76-.62-7.72-3.82-8.54-8.49-.77-4.37,1.15-8.42,5.2-10.7,5.56-3.13,11.12-6.23,16.69-9.34.01.02.03.04.04.06,4.24-2.36,8.49-4.72,12.73-7.09.9-.5,1.77-1.06,2.66-1.58.13-.08.05-.28-.1-.24-.47.13-.95.27-1.42.4-.28.05-.54.12-.8.19-10.92,3.1-21.8,6.32-32.77,9.21-2.26.59-5.07.56-7.23-.24-6.43-2.39-8.47-10.14-4.27-15.64,5.11-6.69,10.4-13.24,15.61-19.85,2.19-2.78,4.38-5.57,6.57-8.35.1-.12-.06-.28-.19-.19-9.41,7-18.54,14.26-27.7,21.48-4.12,3.25-8.8,3.57-12.62.96-3.97-2.71-5.44-6.98-4.05-11.99,1.55-5.57,3.15-11.12,4.73-16.69.12-.4.23-.81.35-1.21,0,0,0,0,.01,0,1.34-4.67,2.99-10.31,4.33-14.97.28-.99.51-2,.77-3,.04-.15-.17-.23-.24-.1-3.01,5.37-5.81,10.6-8.82,15.98,0,0,0,0,0,0-3.08,5.53-6.17,11.05-9.25,16.58-2.41,4.32-6.53,6.48-10.9,5.74-4.51-.76-7.79-3.99-8.54-8.83-.72-4.7-1.16-9.44-1.71-14.16-.25-2.1-.49-4.19-.73-6.29,0,0,0,0,.01,0-.03-.24-.06-.48-.1-.72l-.13-1.11s0,0-.01,0c-.61-5.02-1.02-10.79-1.69-15.59-.02-.14-.24-.12-.25.02-.13.93-.3,1.85-.41,2.78-.4,3.47-1,8.77-1.48,12.99,0,0,0,0,0,0-.69,6.11-1.4,12.23-2.19,18.33-.38,2.91-.87,6.16-2.45,8.48-4.23,6.26-13.32,5.49-17.18-1.22-3.09-5.38-6.08-10.82-9.09-16.25,0,0,.02,0,.03,0-3.01-5.37-6.15-11.11-9.16-16.48-.08-.14-.28-.05-.24.1.26,1,.48,2.01.77,3,.94,3.28,2.04,7.05,3.07,10.61,2.09,7.39,4.18,14.77,6.25,22.16,1.39,4.96-.18,9.32-4.17,11.93-3.87,2.53-8.39,2.18-12.42-1-4.66-3.68-9.31-7.38-13.97-11.07,0,0,.02-.01.03-.02-4.84-3.81-9.94-7.91-14.77-11.72-.12-.1-.28.06-.19.18.62.81,1.2,1.65,1.84,2.45.08.1.16.21.24.31,1.39,1.76,2.77,3.52,4.16,5.28,1.6,2.04,3.2,4.08,4.77,6.06,0,0,0,0,0,0,4.19,5.3,8.36,10.61,12.49,15.96,2.59,3.36,2.39,8.01-.03,11.52-2.47,3.58-6.81,5.23-11,4.12-3.25-.87-6.48-1.82-9.72-2.74-8.67-2.46-17.34-4.92-26.01-7.38-.15-.04-.24.16-.1.24.89.52,1.76,1.08,2.66,1.58,9.66,5.38,19.32,10.75,28.97,16.15,4.58,2.57,6.5,6.69,5.5,11.58-.89,4.36-4.39,7.42-9.3,8.04-4.29.54-8.58.98-12.88,1.48-1.65.19-3.31.39-4.96.6,0,0,0,0,0,0-6.11.72-12.23,1.43-18.34,2.14-.15.02-.16.24,0,.26.28.04.56.08.84.12.11.02.24.04.37.06.62.09,1.23.19,1.85.26,3.91.45,8.52.95,12.7,1.42,6.66.78,13.32,1.56,19.98,2.39,4.51.56,7.59,3.2,9.45,7.3.65,1.43.49,2.33-1.19,3.04-7.01,2.94-13.35,6.98-19.14,11.92-.76.65-1.63,1.15-2.58,1.49-12.44,4.38-23.69,10.85-33.83,19.27-2.08,1.73-4.05,3.59-5.88,5.27-.11.1.01.29.15.22,7.25-3.65,14.58-7.55,22.11-11,7.61-3.48,15.56-6.08,24.06-6.36,14.85-.49,27.53,4.64,38.81,14.22,13.52,11.5,29.39,16.41,47.09,14.9,8.53-.73,16.79-.03,24.9,2.74,10.22,3.5,20.7,5.88,31.5,6.64,20.76,1.46,39.52-3.61,55.44-17.45,3.84-3.34,7.22-7.19,10.81-10.81.05-.05.05-.13,0-.18ZM88.53,146.28c12.56,3.33,22.77,10.23,33.76,16.28-7.57,1.9-28.82-8.3-33.76-16.28ZM145.25,159.91c-.59.23-1.55-.21-2.23-.56-9.04-4.67-18.13-9.24-27.05-14.13-11.05-6.05-22.67-10.2-35.21-11.66-1.96-.23-2.37-.84-2.79-4.02,3.27,0,6.53-.18,9.75.03,10.1.66,19.18,4.39,27.79,9.5,11.18,6.63,22.82,12.27,35.32,15.98.56.17,1.11.37,1.65.58.03.01.06.03.09.06.35.32.24.9-.19,1.1-2.49,1.13-4.78,2.22-7.14,3.12ZM162.64,146.92c-11.5-3.18-22.23-8.19-32.79-13.63-6.5-3.35-12.89-6.97-19.62-9.78-10.3-4.3-21.13-5.08-32.15-3.34-3.37.53-3.42.54-3.73-2.83-2.1-23.2,6.68-41.1,26.69-53.02,21.72-12.94,51.46-6.96,67,12.97,7.36,9.44,11.28,20.08,11.73,33.2-.07,12.79-4.47,25.1-13.87,35.55-.99,1.1-1.9,1.25-3.27.87Z"/><path class="cls-1" d="M329.63,124.12c2.45,0,4.81-.19,7.09-.57,2.28-.38,4.54-.95,6.78-1.71l1.33,3.15c-3.06.76-5.93,1.3-8.62,1.62-2.69.32-5.12.48-7.29.48-2.92,0-5.81-.22-8.67-.66s-5.64-.92-8.36-1.45c-2.72-.53-5.32-1.01-7.8-1.45-2.48-.44-4.84-.66-7.09-.66-3.2,0-5.98.41-8.36,1.23-2.38.82-4.86,1.9-7.44,3.24l-2.04-2.01c1.22-.64,2.72-1.37,4.49-2.19,1.77-.82,3.84-1.49,6.22-2.02v-49.24h9.28v48.36c2.04,0,4.28.21,6.73.61,2.45.41,5,.85,7.65,1.31,2.65.47,5.34.91,8.06,1.31,2.72.41,5.4.61,8.06.61ZM367.97,127.19h-10.81l-7.65-19.62c-.54-.12-1.19-.2-1.94-.26-1.22-.18-2.89-.26-5-.26-1.84,0-3.89.15-6.17.44-2.28.29-4.5.85-6.68,1.67-2.18.82-4.25,1.99-6.22,3.5-1.97,1.52-3.57,3.5-4.79,5.96l-1.22,2.63-3.47-.96,20.9-48.36h9.58l23.45,55.28ZM321.17,111.42c1.36-1.34,2.85-2.42,4.49-3.24,1.63-.82,3.31-1.45,5.05-1.88,1.73-.44,3.47-.74,5.2-.92,1.73-.17,3.35-.26,4.84-.26,1.16,0,2.23.03,3.21.09.98.06,1.85.12,2.6.17.82.12,1.56.23,2.24.35l-12.44-31.28-15.19,36.97Z"/><path class="cls-1" d="M453.01,113.61c1.16.23,2.07.58,2.75,1.05.61.41,1.05.95,1.33,1.62.27.67.03,1.53-.71,2.58-2.38,3.39-5.44,5.74-9.18,7.05-3.74,1.31-7.75,1.97-12.03,1.97-3.67,0-7.26-.67-10.76-2.01-3.5-1.34-6.61-3.25-9.33-5.74-2.72-2.48-4.91-5.46-6.58-8.94-1.67-3.47-2.5-7.34-2.5-11.61s.8-8.22,2.4-11.7c1.6-3.47,3.72-6.45,6.37-8.94,2.65-2.48,5.69-4.39,9.13-5.74,3.43-1.34,6.98-2.01,10.66-2.01,1.43,0,2.99.12,4.69.35,1.7.23,3.43.6,5.2,1.1,1.77.5,3.5,1.09,5.2,1.8,1.7.7,3.19,1.49,4.49,2.37l-4.08,5.08c-.68-.93-1.51-1.91-2.5-2.93-.99-1.02-2.14-1.97-3.47-2.85-1.33-.88-2.79-1.59-4.38-2.15-1.6-.55-3.35-.83-5.25-.83-2.45,0-4.73.69-6.83,2.06-2.11,1.37-3.96,3.27-5.56,5.7-1.6,2.42-2.85,5.24-3.77,8.45-.92,3.21-1.38,6.66-1.38,10.34s.49,7.13,1.48,10.34c.98,3.21,2.35,6.02,4.08,8.41,1.73,2.4,3.79,4.29,6.17,5.7,2.38,1.4,4.93,2.1,7.65,2.1,2.24,0,4.38-.41,6.42-1.23,2.04-.82,3.81-1.85,5.3-3.11,1.49-1.25,2.7-2.63,3.62-4.12.92-1.49,1.38-2.88,1.38-4.16Z"/><path class="cls-1" d="M515.1,127.37h-10.81l-7.65-19.62c-.54-.12-1.19-.2-1.94-.26-1.22-.17-2.89-.26-5-.26-1.84,0-3.89.15-6.17.44-2.28.29-4.5.85-6.68,1.66-2.18.82-4.25,1.99-6.22,3.5-1.97,1.52-3.57,3.5-4.79,5.96l-3.67,8.59h-3.87l23.76-55.28h9.58l23.45,55.28ZM468.3,111.51c1.36-1.28,2.84-2.33,4.44-3.15,1.6-.82,3.26-1.46,5-1.93,1.73-.47,3.47-.79,5.2-.96s3.35-.26,4.84-.26c1.16,0,2.21.03,3.16.09.95.06,1.8.15,2.55.26.88.12,1.66.23,2.35.35l-12.54-31.89-14.99,37.5Z"/><path class="cls-1" d="M559.05,124.12v3.24h-38.65v-55.28h9.28v53.35l29.37-1.31Z"/><path class="cls-1" d="M563.74,127.37v-55.28h9.28v55.28h-9.28Z"/><path class="cls-1" d="M628.28,72.08v3.15l-20.6-1.23v53.35h-9.38v-53.35l-20.6,1.23v-3.15h50.57Z"/><path class="cls-1" d="M675.8,127.37h-10.81l-7.65-19.62c-.54-.12-1.19-.2-1.94-.26-1.22-.17-2.89-.26-5-.26-1.84,0-3.89.15-6.17.44-2.28.29-4.5.85-6.68,1.66-2.18.82-4.25,1.99-6.22,3.5-1.97,1.52-3.57,3.5-4.79,5.96l-3.67,8.59h-3.87l23.76-55.28h9.58l23.45,55.28ZM628.99,111.51c1.36-1.28,2.84-2.33,4.44-3.15,1.6-.82,3.26-1.46,5-1.93,1.73-.47,3.47-.79,5.2-.96s3.35-.26,4.84-.26c1.16,0,2.21.03,3.16.09.95.06,1.8.15,2.55.26.88.12,1.66.23,2.35.35l-12.54-31.89-14.99,37.5Z"/></g></svg>