<?xml version="1.0" encoding="UTF-8"?><svg id="Capa_2" xmlns="http://www.w3.org/2000/svg" viewBox="0 0 372.7 270"><defs><style>.cls-1{fill:#4c2f08;}</style></defs><g id="Capa_1-2"><path class="cls-1" d="M372.65,228.06l-.48-.51c-.07-.07-.18-.08-.25-.02-.69.5-1.39.98-2.05,1.52-27.09,21.88-57.6,31.96-92.44,26.31-9.06-1.47-17.99-3.84-26.88-6.15-5.08-1.32-7.55-5.25-6.92-9.7.64-4.49,4.13-7.28,9.36-7.45,1.28-.04,2.57-.03,3.85-.08,21.03-.72,39.27-7.92,53.88-23.39,2.39-2.53,4.51-5.31,6.72-8,.13-.16-.04-.38-.23-.3-2.08.91-3.78,2.15-5.51,3.34-10.53,7.22-24.02,4.45-30.73-6.4-7.04-11.37-2.14-28.29,13.34-29.67,8.11-.72,16.18-1.77,24.26-2.78,0,0,0,0,0,0,7.05-.81,15.63-1.72,22.68-2.54,1.5-.17,2.98-.44,4.48-.65.22-.03.22-.35,0-.38-8.94-1.04-17.88-2.09-26.82-3.14,0,.01,0,.03,0,.04-9.27-1.08-18.54-2.17-27.8-3.38-6.96-.91-11.29-5.59-12.49-12.41-1.12-6.39,1.69-12.31,7.6-15.64,8.12-4.57,16.26-9.11,24.4-13.65.02.03.04.05.06.08,6.2-3.45,12.41-6.9,18.61-10.36,1.32-.73,2.59-1.55,3.89-2.31.2-.12.07-.41-.15-.35-.69.2-1.38.39-2.08.59-.4.07-.79.17-1.18.28-15.96,4.53-31.87,9.24-47.91,13.46-3.3.87-7.41.82-10.57-.36-9.4-3.5-12.38-14.82-6.24-22.86,7.47-9.78,15.21-19.35,22.83-29.02,3.21-4.07,6.41-8.14,9.61-12.21.14-.18-.09-.41-.27-.28-13.75,10.24-27.1,20.85-40.49,31.41-6.02,4.75-12.87,5.21-18.44,1.41-5.81-3.96-7.95-10.2-5.91-17.53,2.26-8.14,4.61-16.26,6.92-24.39.17-.59.34-1.18.51-1.78,0,0,.01,0,.02,0,1.96-6.82,4.38-15.07,6.33-21.89.41-1.45.74-2.92,1.12-4.38.06-.22-.24-.34-.35-.14-4.4,7.85-8.49,15.5-12.89,23.36,0,0,0,0,.01,0-4.51,8.08-9.02,16.16-13.53,24.24-3.53,6.31-9.55,9.47-15.94,8.39-6.59-1.11-11.39-5.84-12.48-12.91-1.06-6.87-1.7-13.8-2.51-20.7-.36-3.07-.72-6.13-1.07-9.2,0,0,.01,0,.02,0-.05-.35-.09-.7-.14-1.06-.06-.54-.13-1.08-.19-1.62,0,0-.01,0-.02,0-.89-7.33-1.49-15.78-2.47-22.79-.03-.2-.34-.17-.37.03-.19,1.36-.44,2.71-.59,4.07-.59,5.07-1.46,12.81-2.17,18.99,0,0,0,0,0,0-1.01,8.94-2.04,17.87-3.2,26.79-.55,4.25-1.27,9-3.57,12.4-6.19,9.15-19.48,8.02-25.12-1.79-4.52-7.86-8.89-15.82-13.29-23.75.01,0,.03,0,.04-.01-4.4-7.85-8.99-16.24-13.39-24.09-.11-.2-.41-.08-.35.14.38,1.46.71,2.93,1.12,4.38,1.37,4.8,2.98,10.3,4.49,15.52,3.05,10.8,6.11,21.59,9.13,32.4,2.03,7.25-.27,13.63-6.1,17.44-5.66,3.7-12.26,3.19-18.16-1.46-6.81-5.38-13.61-10.78-20.42-16.18.01,0,.02-.02.04-.03-7.07-5.57-14.53-11.56-21.6-17.13-.18-.14-.41.09-.27.27.9,1.19,1.76,2.41,2.69,3.58.12.15.23.3.35.45,2.03,2.57,4.06,5.14,6.09,7.71,2.34,2.98,4.67,5.96,6.98,8.85,0,0,0,0,.01,0,6.12,7.75,12.23,15.51,18.25,23.33,3.79,4.92,3.49,11.71-.05,16.84-3.62,5.23-9.96,7.65-16.08,6.02-4.76-1.27-9.48-2.66-14.22-4-12.67-3.6-25.34-7.2-38.02-10.79-.22-.06-.35.24-.15.35,1.3.76,2.57,1.58,3.89,2.31,14.12,7.87,28.25,15.71,42.35,23.61,6.69,3.75,9.5,9.77,8.04,16.92-1.3,6.37-6.42,10.85-13.6,11.76-6.27.79-12.55,1.44-18.82,2.17-2.42.28-4.84.58-7.26.88,0,0,0,0,0-.01-8.94,1.05-17.88,2.09-26.82,3.14-.23.03-.23.35,0,.38.41.06.82.12,1.24.18.16.03.34.06.54.08.9.14,1.8.28,2.7.38,5.72.66,12.46,1.39,18.56,2.07,9.74,1.14,19.47,2.29,29.2,3.5,6.6.82,11.09,4.67,13.81,10.68.94,2.08.72,3.41-1.73,4.44-10.25,4.29-19.52,10.21-27.98,17.42-1.11.95-2.39,1.69-3.77,2.17-18.19,6.41-34.64,15.87-49.46,28.17-3.04,2.52-5.92,5.25-8.59,7.7-.17.15.02.42.22.32,10.6-5.34,21.31-11.04,32.32-16.07,11.13-5.09,22.74-8.89,35.18-9.29,21.71-.71,40.25,6.78,56.73,20.79,19.77,16.81,42.97,23.98,68.84,21.78,12.47-1.06,24.55-.05,36.4,4.01,14.95,5.12,30.26,8.59,46.05,9.71,30.36,2.14,57.78-5.27,81.04-25.51,5.61-4.88,10.56-10.51,15.8-15.81.07-.07.07-.19,0-.27ZM129.43,213.85c18.36,4.87,33.29,14.95,49.36,23.8-11.07,2.78-42.13-12.13-49.36-23.8ZM212.34,233.77c-.86.33-2.27-.31-3.26-.82-13.21-6.83-26.5-13.51-39.55-20.65-16.15-8.84-33.14-14.92-51.47-17.05-2.86-.33-3.46-1.22-4.08-5.88,4.78,0,9.54-.26,14.26.05,14.77.97,28.04,6.42,40.63,13.89,16.34,9.7,33.36,17.94,51.64,23.36.82.24,1.62.54,2.41.85.04.02.08.04.13.09.51.47.35,1.32-.28,1.61-3.64,1.65-6.98,3.24-10.43,4.57ZM237.76,214.78c-16.81-4.65-32.5-11.98-47.94-19.93-9.5-4.89-18.85-10.2-28.69-14.3-15.05-6.28-30.9-7.43-47-4.88-4.92.78-5.01.78-5.45-4.13-3.07-33.92,9.77-60.08,39.03-77.51,31.76-18.92,75.22-10.17,97.95,18.97,10.77,13.8,16.49,29.35,17.15,48.54-.1,18.7-6.53,36.7-20.28,51.97-1.45,1.61-2.77,1.83-4.78,1.28Z"/></g></svg>