<?xml version="1.0" encoding="UTF-8"?><svg id="Capa_2" xmlns="http://www.w3.org/2000/svg" viewBox="0 0 589.7 399.67"><defs><style>.cls-1{fill:#4c2f08;}</style></defs><g id="Capa_1-2"><path class="cls-1" d="M484.47,231.94l-.49-.51c-.07-.07-.18-.08-.26-.02-.7.51-1.41,1-2.09,1.54-27.55,22.25-58.58,32.51-94.02,26.76-9.21-1.49-18.29-3.91-27.34-6.26-5.16-1.34-7.68-5.34-7.04-9.86.65-4.57,4.2-7.4,9.52-7.57,1.31-.04,2.61-.03,3.92-.08,21.39-.73,39.94-8.05,54.8-23.79,2.43-2.57,4.58-5.4,6.84-8.13.13-.16-.04-.39-.23-.3-2.11.92-3.84,2.19-5.6,3.4-10.71,7.35-24.43,4.52-31.26-6.5-7.16-11.57-2.18-28.77,13.57-30.17,8.24-.73,16.46-1.8,24.68-2.83,0,0,0,0,0,0,7.17-.82,15.9-1.75,23.07-2.58,1.52-.18,3.03-.45,4.55-.66.23-.03.22-.36,0-.39-9.09-1.06-18.18-2.13-27.27-3.19,0,.01,0,.03,0,.04-9.43-1.09-18.86-2.21-28.27-3.44-7.08-.93-11.48-5.68-12.7-12.62-1.14-6.5,1.71-12.52,7.73-15.9,8.26-4.65,16.54-9.27,24.81-13.88.02.03.04.05.06.08,6.31-3.51,12.62-7.02,18.92-10.54,1.34-.75,2.63-1.58,3.95-2.35.2-.12.07-.42-.15-.36-.7.2-1.41.4-2.11.6-.41.07-.8.17-1.2.28-16.23,4.61-32.41,9.4-48.72,13.69-3.36.88-7.54.83-10.75-.36-9.56-3.55-12.59-15.08-6.35-23.25,7.6-9.95,15.47-19.68,23.21-29.51,3.26-4.14,6.52-8.28,9.77-12.42.14-.18-.09-.42-.28-.28-13.98,10.41-27.56,21.2-41.18,31.94-6.12,4.83-13.08,5.3-18.76,1.43-5.91-4.03-8.09-10.38-6.02-17.83,2.3-8.28,4.69-16.54,7.04-24.81.17-.6.34-1.2.51-1.81,0,0,.01,0,.02,0,1.99-6.94,4.45-15.32,6.44-22.26.42-1.47.75-2.97,1.14-4.45.06-.22-.25-.35-.36-.14-4.47,7.99-8.64,15.77-13.11,23.75,0,0,0,0,.01,0-4.58,8.22-9.17,16.43-13.76,24.65-3.59,6.42-9.72,9.63-16.21,8.53-6.71-1.13-11.59-5.94-12.7-13.13-1.08-6.98-1.72-14.03-2.55-21.06-.37-3.12-.73-6.24-1.09-9.35,0,0,.01,0,.02,0-.05-.35-.1-.71-.14-1.07l-.19-1.65s-.01,0-.02,0c-.91-7.46-1.52-16.05-2.51-23.18-.03-.2-.35-.17-.38.04-.19,1.38-.44,2.76-.6,4.14-.6,5.15-1.49,13.03-2.2,19.31,0,0,0,0,0,0-1.03,9.09-2.07,18.18-3.25,27.25-.56,4.32-1.3,9.16-3.64,12.61-6.3,9.31-19.81,8.16-25.55-1.82-4.6-8-9.04-16.08-13.51-24.16.01,0,.03,0,.04-.01-4.47-7.99-9.15-16.52-13.62-24.5-.11-.2-.42-.08-.36.14.39,1.48.72,2.98,1.14,4.45,1.4,4.88,3.03,10.47,4.56,15.78,3.11,10.98,6.21,21.96,9.28,32.95,2.06,7.37-.27,13.86-6.2,17.74-5.75,3.76-12.47,3.25-18.47-1.49-6.93-5.47-13.84-10.97-20.76-16.45.01,0,.03-.02.04-.03-7.19-5.67-14.78-11.76-21.96-17.42-.18-.14-.42.09-.28.27.92,1.21,1.79,2.45,2.73,3.64.12.15.24.31.36.46,2.06,2.62,4.12,5.23,6.19,7.85,2.38,3.03,4.75,6.06,7.1,9,0,0,0,0,.01,0,6.22,7.88,12.44,15.77,18.56,23.73,3.85,5,3.55,11.91-.05,17.13-3.68,5.32-10.13,7.78-16.35,6.12-4.84-1.29-9.64-2.7-14.46-4.07-12.89-3.66-25.78-7.32-38.66-10.98-.22-.06-.35.24-.15.36,1.32.78,2.62,1.61,3.95,2.35,14.36,8.01,28.73,15.98,43.07,24.01,6.81,3.81,9.66,9.94,8.18,17.21-1.32,6.48-6.53,11.04-13.83,11.96-6.37.8-12.76,1.46-19.14,2.21-2.46.29-4.92.59-7.38.89,0,0,0,0,0-.01-9.09,1.06-18.18,2.13-27.27,3.19-.23.03-.23.36,0,.39.42.06.84.12,1.26.18.16.03.35.06.55.08.91.14,1.83.28,2.75.39,5.82.67,12.67,1.41,18.88,2.11,9.9,1.16,19.81,2.33,29.7,3.56,6.71.84,11.28,4.75,14.05,10.86.96,2.12.73,3.47-1.76,4.51-10.43,4.37-19.85,10.38-28.46,17.72-1.13.96-2.43,1.72-3.83,2.21-18.5,6.51-35.23,16.14-50.3,28.65-3.09,2.57-6.02,5.34-8.74,7.83-.17.15.02.43.22.32,10.78-5.43,21.67-11.23,32.87-16.35,11.32-5.18,23.13-9.04,35.77-9.45,22.08-.72,40.94,6.9,57.7,21.15,20.11,17.09,43.7,24.39,70.01,22.15,12.68-1.08,24.97-.05,37.02,4.08,15.2,5.21,30.78,8.74,46.84,9.87,30.87,2.17,58.76-5.36,82.42-25.94,5.7-4.96,10.74-10.69,16.07-16.08.07-.08.08-.2,0-.27ZM237.11,217.48c18.67,4.95,33.85,15.21,50.2,24.2-11.26,2.83-42.84-12.34-50.2-24.2ZM321.44,237.75c-.88.34-2.31-.31-3.32-.83-13.43-6.95-26.95-13.74-40.22-21.01-16.43-8.99-33.7-15.17-52.35-17.34-2.91-.34-3.52-1.24-4.15-5.98,4.87,0,9.7-.27,14.5.05,15.02.99,28.52,6.53,41.32,14.12,16.62,9.86,33.92,18.25,52.52,23.76.83.25,1.65.55,2.45.86.04.02.09.04.13.09.52.48.36,1.34-.29,1.63-3.7,1.68-7.1,3.3-10.61,4.64ZM347.29,218.43c-17.1-4.73-33.05-12.18-48.75-20.27-9.66-4.98-19.17-10.37-29.17-14.54-15.31-6.39-31.42-7.55-47.8-4.96-5,.79-5.09.8-5.54-4.2-3.12-34.5,9.94-61.1,39.69-78.83,32.3-19.24,76.5-10.34,99.62,19.29,10.95,14.03,16.77,29.85,17.44,49.36-.1,19.02-6.64,37.32-20.62,52.85-1.47,1.64-2.82,1.86-4.86,1.3Z"/><path class="cls-1" d="M75.04,394.07c3.64,0,7.15-.28,10.54-.85,3.39-.56,6.75-1.41,10.08-2.54l1.97,4.69c-4.55,1.13-8.82,1.93-12.81,2.41-3.99.48-7.61.72-10.84.72-4.35,0-8.64-.33-12.89-.98-4.24-.65-8.39-1.37-12.43-2.15-4.04-.78-7.91-1.5-11.6-2.15-3.69-.65-7.2-.98-10.54-.98-4.75,0-8.89.61-12.43,1.82-3.54,1.22-7.23,2.82-11.07,4.82l-3.03-3c1.82-.95,4.04-2.04,6.67-3.26,2.63-1.22,5.71-2.21,9.25-3v-73.2h13.8v71.9c3.03,0,6.37.31,10.01.91,3.64.61,7.43,1.26,11.37,1.95,3.94.7,7.93,1.35,11.98,1.95,4.04.61,8.03.91,11.98.91ZM132.04,398.63h-16.07l-11.37-29.18c-.81-.17-1.77-.3-2.88-.39-1.82-.26-4.3-.39-7.43-.39-2.73,0-5.79.22-9.17.65-3.39.44-6.7,1.26-9.93,2.47-3.24,1.22-6.32,2.95-9.25,5.21-2.93,2.26-5.31,5.21-7.12,8.86l-1.82,3.91-5.15-1.43,31.08-71.9h14.25l34.87,82.19ZM62.46,375.18c2.02-2,4.24-3.6,6.67-4.82,2.43-1.22,4.93-2.15,7.5-2.8,2.58-.65,5.15-1.11,7.73-1.37,2.58-.26,4.98-.39,7.2-.39,1.72,0,3.31.04,4.78.13,1.46.09,2.75.18,3.87.26,1.21.17,2.32.35,3.34.52l-18.49-46.5-22.59,54.97Z"/><path class="cls-1" d="M258.47,378.44c1.72.35,3.08.87,4.09,1.56.91.61,1.57,1.41,1.97,2.41.4,1,.05,2.28-1.06,3.84-3.54,5.04-8.09,8.53-13.64,10.49-5.56,1.95-11.52,2.93-17.89,2.93-5.46,0-10.79-1-15.99-3-5.21-2-9.83-4.84-13.87-8.53-4.04-3.69-7.3-8.12-9.78-13.29-2.48-5.17-3.71-10.92-3.71-17.26s1.19-12.22,3.56-17.39c2.37-5.17,5.53-9.59,9.47-13.29,3.94-3.69,8.46-6.53,13.57-8.53,5.1-2,10.38-3,15.84-3,2.12,0,4.45.17,6.97.52,2.52.35,5.1.89,7.73,1.63,2.63.74,5.2,1.63,7.73,2.67,2.52,1.04,4.75,2.21,6.67,3.52l-6.06,7.55c-1.01-1.39-2.25-2.84-3.71-4.36-1.47-1.52-3.18-2.93-5.15-4.23-1.97-1.3-4.15-2.36-6.52-3.19-2.38-.82-4.98-1.24-7.81-1.24-3.64,0-7.03,1.02-10.16,3.06-3.13,2.04-5.89,4.86-8.26,8.47-2.38,3.6-4.24,7.79-5.61,12.57-1.36,4.78-2.05,9.9-2.05,15.37s.73,10.6,2.2,15.37c1.46,4.78,3.49,8.94,6.06,12.5,2.58,3.56,5.63,6.38,9.17,8.47,3.54,2.08,7.33,3.13,11.37,3.13,3.33,0,6.52-.61,9.55-1.82,3.03-1.22,5.66-2.76,7.88-4.62,2.22-1.87,4.02-3.91,5.38-6.12,1.36-2.21,2.05-4.28,2.05-6.19Z"/><path class="cls-1" d="M350.79,398.89h-16.07l-11.37-29.18c-.81-.17-1.77-.3-2.88-.39-1.82-.26-4.3-.39-7.43-.39-2.73,0-5.79.22-9.17.65-3.39.44-6.7,1.26-9.93,2.48-3.24,1.22-6.32,2.95-9.25,5.21-2.93,2.26-5.31,5.21-7.12,8.86l-5.46,12.76h-5.76l35.32-82.19h14.25l34.87,82.19ZM281.21,375.32c2.02-1.91,4.22-3.47,6.59-4.69,2.37-1.21,4.85-2.17,7.43-2.87,2.58-.69,5.15-1.17,7.73-1.43,2.58-.26,4.98-.39,7.2-.39,1.72,0,3.28.04,4.7.13,1.41.09,2.68.22,3.79.39,1.31.18,2.48.35,3.49.52l-18.65-47.41-22.28,55.75Z"/><path class="cls-1" d="M416.13,394.07v4.82h-57.46v-82.19h13.8v79.32l43.66-1.95Z"/><path class="cls-1" d="M423.1,398.89v-82.19h13.8v82.19h-13.8Z"/><path class="cls-1" d="M519.06,316.7v4.69l-30.62-1.82v79.32h-13.95v-79.32l-30.62,1.82v-4.69h75.19Z"/><path class="cls-1" d="M589.7,398.89h-16.07l-11.37-29.18c-.81-.17-1.77-.3-2.88-.39-1.82-.26-4.3-.39-7.43-.39-2.73,0-5.79.22-9.17.65-3.39.44-6.7,1.26-9.93,2.48-3.24,1.22-6.32,2.95-9.25,5.21-2.93,2.26-5.31,5.21-7.12,8.86l-5.46,12.76h-5.76l35.32-82.19h14.25l34.87,82.19ZM520.12,375.32c2.02-1.91,4.22-3.47,6.59-4.69,2.37-1.21,4.85-2.17,7.43-2.87,2.58-.69,5.15-1.17,7.73-1.43,2.58-.26,4.98-.39,7.2-.39,1.72,0,3.28.04,4.7.13,1.41.09,2.68.22,3.79.39,1.31.18,2.48.35,3.49.52l-18.65-47.41-22.28,55.75Z"/></g></svg>