<?xml version="1.0" encoding="UTF-8"?><svg id="Capa_2" xmlns="http://www.w3.org/2000/svg" viewBox="0 0 281.53 312.4"><defs><style>.cls-1{fill:none;}</style></defs><g id="Capa_1-2"><path d="M251.97,253.34l-5.61-.07c3.68-4.03,5.14-8.71,4.72-13.95,3.72-2.7,4.98-7.37,3.37-11.5-1.48-4.08-5.24-6.35-9.92-6.35h-73.48c-4.89,0-8.62,2.46-10.13,6.31-1.88,4.8.54,8.34,3,11.72.77,3.92.39,8.58,3.74,12.23-11.73-1.89-18.8-11.68-18.81-23.07l-.02-33.74,9.74-2.95c.74-.22,1.43-1.66,1.28-2.36-.17-.79-1.65-1.81-2.39-1.59l-8.67,2.61.17-13.7c12.59-4.98,24.93-9.95,37.31-15.63l14.08-7.2c.66-.34.72-2.4.2-2.9-.64-.62-1.83-.72-2.88-.17-15.54,8.12-31.39,14.75-48.25,21.19,1.45-12.56,9.4-23.39,21.13-28.61,10.04-4.47,19.25-9.73,27.04-17.58,10.16-10.24,16.84-22.94,18.37-37.37.12-1.18-.77-2.53-2.01-2.54H68.65c-.54,0-1.69.45-1.98.84-.3.39-.46,1.46-.39,2.11,1.16,11.73,6.14,22.21,13.46,31.4-6,2.42-10.83,5.79-15.19,10.32,1.27-9.52.08-19.11-4.66-27.61-6.57-11.8-19.46-18.19-32.9-17.43-1.01.06-2.19,1-2.39,1.88-.16.73.51,1.95,1.31,2.65,11.23,9.79,20.69,21.23,27.11,34.31-4.09-3.31-7.42-5.74-11.6-7.77-14.05-6.82-30.48-3.31-40.52,8.66-.73.87-1.15,2.2-.73,3.09.3.66,1.86,1.23,2.81,1.15,14.97-1.32,29.73.27,43.71,5.25-8.3.41-15.93,2.2-22.71,6.84-10.61,7.25-16.02,19.69-14.69,32.47.08.72,1.02,1.8,1.62,1.89.51.07,1.71-.36,2.16-.83l11.62-12.2c8.12-7.81,17.17-14.01,27.79-18.83-5.42,7.43-10.42,14.51-14.39,22.75-14.66,30.42-13.36,65.2,5.72,93.1,10.83,15.83,29.91,23.25,48.23,16.95,9.11-3.13,18.53-3.05,27.51.53l12.65,6.48c5.97,3.06,11.46,6.53,17.91,8.53,12.43,3.86,20.63,2.5,32.23-2.45,6.12-2.61,12.43-2.55,18.55.06,6.53,2.79,13.57,2.6,19.5-1.41.95-.64,1.31-2.09.76-3.07-.34-.61-1.84-1.17-2.47-.72-4.89,3.47-10.64,3.79-16.15,1.45-7.67-3.26-15.61-3.02-23.22.5-16.4,7.6-28.42,2.77-42.98-5.2l-12.37-6.77c-10.81-5.11-22.39-5.6-33.61-1.72-8.58,2.97-17.72,2.64-25.95-1.09-5.51-2.49-10.53-5.78-14.32-10.58-19.88-25.2-22.87-59.64-10.03-88.95,3.33-7.6,7.4-14.4,12.23-21.14-13,31.11-13.02,63.75,6.18,92.1,3.1,4.57,6.42,8.49,10.86,11.76,7.18,5.3,16.06,6.88,24.61,3.89,9.43-3.29,19.1-3.21,28.4.71l12.99,6.85c6.29,3.32,12.05,6.58,18.71,8.42,9.78,2.7,19.42,1.72,28.5-2.65,6.88-3.31,14.36-3.36,21.26-.15,13.55,6.3,27.41,4.16,39.43-4.42,1.17-.84,1.62-2.12.64-3.37-.51-.65-2.04-.67-2.98.01-7.25,5.24-15.81,8.05-24.79,7.23-4.13-.38-7.86-1.97-11.66-3.58-7.46-3.17-15.46-3.22-22.88.35-9.37,4.51-19.26,5.21-29.29,1.82-11.93-4.03-20.53-11.83-32.2-15.91,10.09-3.95,17.16-12.75,17.2-23.62l.21-54.53c-.62-11.25-4.82-21.26-12.68-29.15,10.9,2.24,21.68,2.08,32.67.06-8.13,8.2-12.61,18.21-12.65,29.56l-.15,50.77c-.03,10.86,4.82,20.48,14.62,25.64l-18.29.03c-.92,0-1.94,1.56-1.73,2.38.2.81,1.13,1.74,2.36,1.74h110.09c1.25,0,2.18-1.34,2.12-2.2-.04-.67-1.19-1.92-1.87-1.93ZM70.65,90.31h140.91c-.69,6.24-2.91,12.21-5.77,17.8-21.15-9.96-43.4-6.29-64.7,3.6l-10.59-3.98c-9.28-3.49-18.76-5.46-28.76-5.21-8.83.25-17.03,2.3-25.01,6.14-3.1-5.61-5.2-11.55-6.08-18.35ZM202.04,110.91c-17.82,10.84-36.89,9.85-55.67,2.92,18.04-7.69,37.14-10.74,55.67-2.92ZM116.85,131.67c-17.14-2.87-33.62-2.07-50.15,2.78,14.02-14.99,35.47-18.79,50.15-2.78ZM64.33,144.88c13.72,15.7,16.61,37.36-.47,51.61,3.84-17.03,4.01-34,.47-51.61ZM42.56,101.33l-10.67-11.27c12.51.77,22.71,8.69,26.69,20.08,2.4,6.74,2.86,13.67,1.65,20.76-4.35-11.06-10.12-20.69-17.68-29.57ZM6.75,125.39c9.21-8.89,22.99-10.24,34.24-4.22,6,3.21,11.06,7.69,15.05,13.11-16.01-7.08-32.26-9.9-49.29-8.9ZM13.39,168.91c1.05-21.27,19.61-31.87,39.91-29.46-15.49,6.51-28.39,16.33-39.91,29.46ZM133.17,178.83c-24.82,10.39-45.79,25.26-55.38,50.9-.04,1.13.8,2.41,1.66,2.52,1.22.16,2.09-.71,2.53-1.89,8.67-23.28,29.36-37.98,51.41-47.14l-.06,12.7c-5.65,2.26-10.59,4.67-15.62,7.99-.67.44-1.17,1.71-1.02,2.35.21.91,1.82,1.85,2.64,1.34,4.62-2.85,8.91-5.25,14.03-7.31l-.13,29.79c-.03,6.6-3,12.77-7.95,16.8-4.8,3.91-10.65,5.48-17.04,5.74-6.03.25-11.28,1.35-16.71,3.05-11.31,3.54-20.95-2.37-27.72-11.63-22.01-30.09-20.68-66.29-3.88-99.1,4.16,18.55,3.62,37.11-1.29,55.04-.23.83.03,2.16.49,2.59,3.25,3,25.33-13.56,19.74-38.66-1.28-5.77-3.86-10.61-6.8-15.84,12.76,9,22.6,20.54,30.36,33.78.29.5,1.49,1.15,2.03,1.25,2.64.5,3.29-7.38,3.09-12.51-.45-11.22-6.16-21.14-15.49-27.25-5.33-3.49-10.91-5.32-17.25-6.77,6.66-1.53,12.98-2.22,19.74-2.42,5.33,3.83,10.78,6.61,16.75,9.22,14.18,6.21,22.53,20.24,21.87,35.42ZM67.69,140.19c20.82.7,37.71,13.95,35.52,35.32-9.11-14.82-21.05-26.25-35.52-35.32ZM102.6,134.45c6.86-.74,17.74,2.92,20.18,1.75.55-.26.88-1.7.84-2.51-4.77-7.28-11.52-12.57-19.79-15.1-6.64-2.01-13.09-1.95-19.82.28l-5.19-6.63c14.57-7.32,33.14-7.16,48.24-1.37l15.6,5.98c19.48,7.47,38.1,9.36,57.41-.04-6.26,8.2-13.94,14.27-22.83,18.96-23.38,12.34-51.48,12.13-74.64-1.32ZM233.85,225.69l-8.96,5.28-11.72-5.26h20.68ZM164.57,232.2c-.36-2.89,1.46-6.52,5.03-6.53l33.16-.09,22.28,9.8,17.07-9.5,2.88-.32c3.4-.37,5.67,2.36,5.93,5.31.27,3.01-1.72,6.34-5.38,6.34l-74.68.04c-3.49,0-5.89-1.92-6.29-5.06ZM235.29,253.37l-57.07-.19c-6.07-.02-9.69-5.96-10-11.77l78.78-.03c-.06,6.94-4.68,12.01-11.71,11.99Z"/><path d="M249.06,204.23h-82.96c-.88,0-2.03-1.22-2.01-1.95.19-7.64,2.99-14.52,8.29-19.99,12.66-13.09,33.59-16.22,50.87-11.47,15.11,4.16,27.7,15.15,28.07,31.36.02.89-.94,2.06-2.26,2.06ZM247,200.13c-.62-7.41-4.02-12.52-8.78-16.9-6.27-5.42-13.95-8.44-22.25-9.71-12.01-1.84-24.03.16-34.33,6.49-7.22,4.44-12.4,11.35-13.32,20.12h78.68Z"/><path d="M182.56,306.91c-11.63,6.29-24.37,7.06-36.72,2.87-6.66-2.26-12.44-5.61-18.42-9.41-12.15-7.73-26.96-9.74-40.36-4.3-1.1.45-2.52.16-2.98-.64-.66-1.15-.05-2.59,1.32-3.15,14.66-5.96,31.03-3.8,44.37,4.71,5.42,3.45,10.64,6.51,16.65,8.68,11.61,4.18,23.87,3.38,34.65-2.54.69-.38,2.3.26,2.65.84.5.82.06,2.29-1.17,2.96Z"/><path d="M252.88,216.8c-5.82-.78-9.13-7.45-14.18-2.68-4.36,4.11-10.65,4.2-15.12.13-2.59-2.36-6.1-2.33-8.64.05-4.3,4.02-10.53,3.89-14.81-.09-2.57-2.38-6.13-2.23-8.67.1-4.36,4.02-10.51,3.87-14.8-.1-2.42-2.24-5.6-2.27-8.12-.22-2.79,2.27-6.51,3.79-7.82,1.76-1.79-2.76,2.27-2.65,5.78-5.28,4.11-3.07,9.29-2.59,13.03.81,2.84,2.58,6.5,2.53,9.34-.05,4.2-3.82,9.96-3.73,14.14.05,2.87,2.59,6.58,2.51,9.29-.09,4.22-4.04,10.31-3.47,14.48.27,2.8,2.52,6.43,2.17,9.02-.29,3.7-3.5,9.06-3.69,13.13-.66,3.65,2.72,6.35,1.9,6.17,4.46-.05.73-1.4,1.93-2.2,1.82Z"/><path d="M216.5,133.79l-.28,4.71c-.25,4.23.59,8.71-.41,12.84-.89,3.7-6.19,4.76-8.87,3.01-2.25-1.47-2.21-4.01-.69-5.81,1.74-2.06,4.43-2.64,7.09-2.01l.05-19.17,18.83-5.45,1.55.27c.33.06.54,1.07.54,1.44l-.04,22.53c-1.59,3.39-5.07,4.86-8.63,3.79-.89-.71-1.81-1.55-2.17-2.27-.48-.98-.06-3,.54-3.77,1.89-2.43,4.66-2.97,7.43-2.19l.02-12.15-14.95,4.24Z"/><path d="M228.96,166.29c-1.35.6-2.74-.18-3.02-1.23-.23-.87.47-2.06,1.51-2.54,19.22-8.76,37.39-22.9,45.14-42.97.34-.89,1.57-1.66,2.34-1.6.72.06,2.07,1.43,1.79,2.19-7.85,21.26-27.17,37.08-47.76,46.15Z"/><path d="M243.23,65.77c.78,2.53,2.99,4.98,5.26,6.47,6.25,4.1,5.3,12.06,2.66,11.63-2.36-.39-.42-5.59-3.35-7.47l-4.28-2.75c-.22,6.19.33,12.11-.36,18.3-.42,3.78-5.53,5.37-8.64,4.65-1.86-.43-3.17-1.7-3.53-2.97-.51-1.78.17-3.53,1.41-4.71,2.16-2.05,4.98-2.52,7.94-1.67l-.03-21.06"/><path d="M271.8,162.48l-.23,17.8c-.05,4.27-5.7,6.42-9.26,5-1.39-.55-2.55-1.63-2.89-2.57-.52-1.43-.06-3.46.88-4.48,2.27-2.45,5.39-3.1,8.46-1.97l-.05-21.05,1.12-1.49c.32-.43,1.67.49,1.86,1.06.78,2.35,2.56,4.69,4.82,6.02,3.8,2.25,5.76,6.71,4.77,10.72-.15.61-1.33,1.34-1.82,1.22-2.2-.56-.07-5.48-3.99-7.95l-3.68-2.31Z"/><path d="M248.54,136.23c-.84.18-2.36-.69-2.59-1.36-.28-.82.4-2.48,1.19-2.84,5.08-2.31.13-5.95,5.13-10.93,2.26-2.25.27-7.37,1.74-10.49,3-6.37,4.95-12.49,5.27-19.63.04-.79,1.21-1.9,1.89-1.95,1.06-.07,1.92,1.51,2.23,2.07,2.3,4.15-3.52,17.63-5.27,21.54-.41,2.17-.82,4.33-1.23,6.5,1.11,2.5.6,5.03-1.93,6.26-4.68,2.26.34,9.38-6.44,10.83Z"/><path d="M247.64,103.37c-1.45,6.29-6.12,18.47-9.26,16.35-.57-.39-1.24-1.97-.83-2.66,2.76-4.69,5.09-9.43,6.18-14.91.16-.79,1.9-1.5,2.58-1.26s1.52,1.62,1.33,2.47Z"/><path d="M108.04,214.4c-.3,6.58.4,12.44-.49,18.59-.6,4.11-6.31,5.61-9.54,3.89-1.26-.68-2.25-1.86-2.45-2.9-.22-1.08.2-2.91.92-3.75,2.2-2.55,5.38-3.11,8.41-2.17l-.04-21.03c.25-.6.93-1.51,1.43-1.59,1.68-.29,1.6,3.89,6.61,7.26,5.99,4.03,5.72,11.94,2.97,11.93-2.35-.01-1.21-3.61-2.16-5.48-1.19-2.34-3.28-3.78-5.67-4.75Z"/><path class="cls-1" d="M169,55.64c-11.19-14.35-32.59-18.65-48.23-9.34-14.4,8.58-20.73,21.46-19.22,38.16.05.5.08.9.14,1.21h75.24c.33-2.02.51-4.07.52-6.14-.32-9.45-3.14-17.11-8.44-23.9Z"/><path d="M101.55,84.46c-1.51-16.7,4.81-29.58,19.22-38.16,15.64-9.31,37.04-5.01,48.23,9.34,5.3,6.79,8.12,14.45,8.44,23.9-.01,2.07-.19,4.11-.52,6.14h9.92c1.36-1.7,3.4-2.92,6.1-3.16,3.99-.35,7.97-.87,11.95-1.37h0c3.47-.4,7.7-.85,11.17-1.25.74-.09,1.47-.22,2.2-.32.11-.02.11-.17,0-.19-4.4-.51-8.8-1.03-13.21-1.54,0,0,0,.01,0,.02-4.57-.53-9.13-1.07-13.69-1.67-3.43-.45-5.56-2.75-6.15-6.11-.55-3.15.83-6.06,3.74-7.7,4-2.25,8.01-4.49,12.01-6.72,0,.01.02.03.03.04,3.05-1.7,6.11-3.4,9.16-5.1.65-.36,1.27-.76,1.92-1.14.1-.06.03-.2-.07-.17l-1.02.29c-.2.03-.39.08-.58.14-7.86,2.23-15.69,4.55-23.59,6.63-1.62.43-3.65.4-5.21-.17-4.63-1.72-6.09-7.3-3.07-11.25,3.68-4.82,7.49-9.53,11.24-14.29,1.58-2,3.15-4.01,4.73-6.01.07-.09-.04-.2-.13-.14-6.77,5.04-13.34,10.27-19.94,15.46-2.96,2.34-6.33,2.57-9.08.69-2.86-1.95-3.92-5.02-2.91-8.63,1.11-4.01,2.27-8.01,3.41-12.01.08-.29.17-.58.25-.87,0,0,0,0,0,0,.96-3.36,2.16-7.42,3.12-10.78.2-.71.36-1.44.55-2.16.03-.11-.12-.17-.17-.07-2.16,3.87-4.18,7.63-6.35,11.5,0,0,0,0,0,0-2.22,3.98-4.44,7.96-6.66,11.93-1.74,3.11-4.7,4.66-7.85,4.13-3.25-.55-5.61-2.87-6.15-6.36-.52-3.38-.83-6.79-1.23-10.19-.18-1.51-.35-3.02-.53-4.53,0,0,0,0,0,0-.02-.17-.05-.35-.07-.52-.03-.27-.06-.53-.09-.8,0,0,0,0,0,0-.44-3.61-.74-7.77-1.22-11.22-.01-.1-.17-.08-.18.02-.09.67-.21,1.33-.29,2-.29,2.5-.72,6.31-1.07,9.35,0,0,0,0,0,0-.5,4.4-1,8.8-1.57,13.19-.27,2.09-.63,4.43-1.76,6.11-3.05,4.51-9.59,3.95-12.37-.88-2.23-3.87-4.38-7.79-6.54-11.7,0,0,.01,0,.02,0-2.16-3.87-4.43-8-6.59-11.86-.05-.1-.2-.04-.17.07.19.72.35,1.44.55,2.16.68,2.36,1.47,5.07,2.21,7.64,1.5,5.32,3.01,10.63,4.5,15.95,1,3.57-.13,6.71-3,8.59-2.78,1.82-6.04,1.57-8.94-.72-3.36-2.65-6.7-5.31-10.05-7.97,0,0,.01,0,.02-.01-3.48-2.74-7.15-5.69-10.63-8.43-.09-.07-.2.04-.13.13.44.59.87,1.19,1.32,1.76.06.07.11.15.17.22,1,1.27,2,2.53,3,3.8,1.15,1.47,2.3,2.93,3.44,4.36,0,0,0,0,0,0,3.01,3.82,6.02,7.64,8.99,11.49,1.86,2.42,1.72,5.77-.02,8.29-1.78,2.58-4.91,3.77-7.92,2.96-2.34-.63-4.67-1.31-7-1.97-6.24-1.77-12.48-3.54-18.72-5.31-.11-.03-.17.12-.07.17.64.38,1.27.78,1.91,1.14,6.95,3.88,13.91,7.73,20.85,11.62,3.3,1.85,4.68,4.81,3.96,8.33-.64,3.14-3.16,5.34-6.69,5.79-3.09.39-6.18.71-9.27,1.07-1.19.14-2.38.28-3.57.43,0,0,0,0,0,0-4.4.51-8.8,1.03-13.2,1.54-.11.01-.11.17,0,.19.2.03.41.06.61.09.08.02.17.03.27.04.44.07.89.14,1.33.19,2.82.33,6.13.68,9.14,1.02,4.79.56,9.59,1.13,14.38,1.72,2.33.29,4.13,1.36,5.45,3.03h9.9c-.05-.31-.09-.71-.14-1.21Z"/></g></svg>