<?xml version="1.0" encoding="UTF-8"?><svg id="Capa_2" xmlns="http://www.w3.org/2000/svg" viewBox="0 0 1265.45 92.48"><defs><style>.cls-1{fill:#f1e7ce;}.cls-2{fill:#d1806a;}</style></defs><g id="Capa_1-2"><path class="cls-1" d="M301.1,63.57h0s0-.02.01-.02c0,0,0,.02-.01.02Z"/><path class="cls-2" d="M745,40.7c2.39-1.19,3.69-1.84,5-2.49,6.83-3.4,10.9-8.8,10.94-16.51.04-7.94-4.16-13.41-11.21-16.82-4.89-2.36-10.07-3.35-15.47-3.36-11.32-.01-22.63-.05-33.95-.06-6.63,0-6.72,0-6.61,6.42.46,26.22.43,52.43-.02,78.64-.06,3.27.99,4.42,4.27,4.34,7.82-.17,15.64.04,23.46-.08,8.47-.13,16.97.63,25.4-.91,19.67-3.6,28.39-25.03,16.16-39.93-4.31-5.25-10.22-7.8-17.97-9.24ZM709.45,21.92h-.03c0-4.16.15-8.32-.05-12.47-.15-3.08.58-4.61,4.08-4.41,5.15.29,10.33-.07,15.47.24,10.42.63,16.42,7.24,16.3,17.58-.11,9.62-6.26,15.7-16.58,16.12-5.15.21-10.32-.04-15.48.12-2.79.09-3.88-.87-3.77-3.72.18-4.48.05-8.98.05-13.46ZM752.06,66.06c-.5,12.12-8.47,20.18-21.02,20.87-5.97.33-11.97.04-17.94.22-2.89.09-3.72-1.11-3.66-3.84.14-6.3.04-12.61.04-18.92h-.03c0-6.14.05-12.28-.03-18.42-.03-2.3.33-3.89,3.19-3.74,6.95.37,13.93-.51,20.88.76,12.31,2.26,19.08,10.56,18.57,23.06Z"/><path class="cls-2" d="M913.83,60.57c13.74-6.05,20.91-18.14,19.05-32.13-1.85-13.93-12.59-24.44-27.35-26.3-13.09-1.65-26.27-.15-39.39-.72-3.91-.17-5.09.93-5.06,4.96.19,24.43.09,48.87.09,73.3,0,11.4.01,11.28,11.25,11.28,3.42,0,4.74-.91,4.6-4.49-.26-6.47.02-12.97-.16-19.44-.08-3.02.93-4.17,4-4.03,4.32.2,8.66.18,12.98,0,2.69-.11,4.21,1.01,5.62,3.2,4.58,7.12,9.35,14.13,14.13,21.13.98,1.44,1.6,3.47,3.87,3.48,5.21.03,10.43,0,16.7,0-7.77-10.37-14.79-19.75-21.85-29.16.71-.51,1.07-.89,1.51-1.08ZM898.16,58.88c-6.08.64-12.27.35-18.41.45-3.02.05-2.83-2.12-2.83-4.14,0-7.79,0-15.59,0-23.38h-.03c0-7.3.16-14.6-.07-21.89-.11-3.54.68-5.22,4.64-4.91,4.29.34,8.63.08,12.95.11,8.45.05,14.88,4.03,18.6,11.27,5.49,10.66,5.5,21.68-.29,32.41-3.12,5.78-8.11,9.4-14.57,10.08Z"/><path class="cls-2" d="M1255.25,77.29c-3.18-4.26-6.24-8.62-9.51-12.81-1.7-2.18-1.9-3.19,1.05-4.62,13.58-6.58,19.46-18.26,17.06-33.09-2.02-12.53-12.51-22.62-26.19-24.55-13.23-1.86-26.59-.3-39.88-.92-4-.19-5.06,1.14-5.04,5.05.17,24.43.1,48.86.1,73.3,0,11.74-.02,11.64,11.73,11.23,3.07-.11,4.11-1.22,4.06-4.15-.11-6.65.07-13.3-.08-19.94-.07-2.83.98-3.87,3.77-3.79,4.16.13,8.33.18,12.48-.03,2.66-.13,4.26.85,5.68,3.06,4.68,7.26,9.56,14.39,14.35,21.58,1.01,1.51,1.77,3.24,4.04,3.23,5.1-.03,10.19-.01,16.59-.01-4.02-5.32-7.13-9.4-10.2-13.52ZM1227.36,59.19c-5.15.23-10.32,0-15.47.16-2.8.09-3.83-.97-3.79-3.77.03-1.95.05-3.9.06-5.86.03-5.86-.02-11.72-.02-17.57,0-5.61.11-11.22.05-16.83-.02-1.87-.06-3.74-.13-5.6-.14-3.83,1.21-5,4.89-4.68,3.3.29,6.65.02,9.98.04,13.32.06,21.3,5.97,24.28,18.97,2.08,9.09,1.73,18.17-3.89,26.31-3.86,5.6-9.24,8.54-15.96,8.83Z"/><path class="cls-2" d="M1020.24,47.98c-5.82.18-11.65.05-17.48.05v-.04c-6.16,0-12.32-.03-18.48.02-1.55.01-3.68-.56-3.64,2.09.05,2.7,2.22,1.93,3.72,1.93,6.83,0,13.65-.01,20.47-.2,2.82-.08,4.29.55,4.21,3.81-.2,8.14-.14,16.29-.1,24.44.01,2-.5,3.3-2.41,4.41-14.74,8.55-34.92,3.7-43.39-11.01-9.76-16.96-10.16-34.79-1.5-52.04,10.9-21.72,36.44-23.3,48.23-5.47.56.85,1.29,2.57,2.59,1.63,2.41-1.73,4.77-3.72,6.12-6.4.61-1.22-1.07-1.91-1.96-2.52-12.59-8.57-26.59-10.36-41.09-7.28-17.84,3.78-30.58,14.32-35.3,32.15-4.53,17.1-1.57,33.25,11.98,45.79,14.02,12.97,30.99,14.81,49.05,11.34,6.73-1.29,12.61-5.43,19.49-5.92,3.15-.22,3.93-1.42,3.9-4.27-.1-9.47-.17-18.95.03-28.43.07-3.48-1.39-4.18-4.47-4.08Z"/><path class="cls-2" d="M1181.09,84.23c-5.8.49-11.6.97-17.41,1.37-7.97.55-15.94,1.02-23.91,1.51-1.9.12-3.72.25-3.57-2.65.58-11.63.63-23.26-.17-34.87-.24-3.43,1-4.77,4.54-4.66,9.15.3,18.31-.16,27.44.82,2.04.22,4.18.31,3.98-2.84-.19-2.97-2.21-2.16-4-2.12-9.32.21-18.64.29-27.96.58-3.04.09-4.07-1-4.02-4.04.15-9.13.23-18.27-.03-27.39-.12-4.17,1.6-5.13,5.33-4.81,12.43,1.05,24.87,1.98,37.31,2.82,1.99.13,4.91,1.51,5.04-2.62.12-3.69-2-3.87-4.81-3.86-17.82.06-35.64.14-53.45-.06-3.97-.05-5.19,1.11-5.12,5.06.21,13.12.08,26.24.08,39.37,0,0-.02,0-.02,0,0,13.47.04,26.94-.03,40.41-.01,2.9.47,4.66,4.06,4.63,18.98-.12,37.96-.08,56.95,0,2.69.01,3.38-1.15,3.5-3.57.15-2.97-1.45-3.26-3.74-3.07Z"/><path class="cls-2" d="M341.81,12.84c-4.5-10.91-4.48-10.81-16.17-10.79-2.8,0-4.19.92-5.19,3.43-2.1,5.24-4.5,10.36-6.7,15.55-9.21,21.71-18.42,43.43-27.52,65.19-.56,1.33-2.76,3.42.01,4.47,2.26.85,4.63.33,5.41-2.75.36-1.43,1.19-2.74,1.75-4.12,4.69-11.82,12.49-20.23,25.25-23.42,7.53-1.88,15.13-2.01,22.8-1.39,2.5.2,3.8,1.36,4.65,3.7,2.5,6.87,5.19,13.67,7.84,20.48q2.99,7.7,11.18,7.69c8.91-.18,9.84,1.95,5.47-8.5-9.68-23.14-19.2-46.35-28.77-69.53ZM323.56,55.43c-7.9.9-14.91,4.3-21.87,7.81-.2.11-.39.22-.59.33h0s0,0,0,0c0,0,0-.02.01-.02.11-.18.22-.37.33-.55h0c4.9-14.59,11.06-28.69,16.77-42.97.82-2.04,1.62-4.08,2.42-6.13.82-2.12,1.77-4.2,3.19-7.53,6.7,17.09,12.94,33.01,19.38,49.46-6.86-.76-13.25-1.12-19.64-.39Z"/><path class="cls-2" d="M595.11,12.1c-4.2-10.07-4.31-9.84-15.21-10.08-3.68-.08-5.3,1.31-6.57,4.5-3.37,8.49-7.02,16.87-10.58,25.29-7.77,18.36-15.57,36.7-23.27,55.09-.47,1.12-2.21,2.91.08,3.75,1.79.66,3.98.85,4.96-1.79.75-2.02,1.71-3.96,2.6-5.93,2.98-6.57,6.38-12.9,12.71-16.87,11.18-7.02,23.42-8.94,36.39-7.03,2.06.3,2.55,1.72,3.17,3.33,2.74,7.13,6.02,14.1,8.22,21.39,1.74,5.76,4.4,8.66,9.71,7.09,2.05,0,3.22,0,4.38,0,5.96-.03,5.98-.04,3.71-5.52-10.09-24.41-20.15-48.83-30.31-73.2ZM593.29,55.52c-16.24-1.54-24.81.42-39.39,8.93,7.9-19.77,15.31-38.32,23.27-58.26,2.51,6.38,4.51,11.5,6.55,16.61,3.92,9.85,7.84,19.71,11.81,29.54.94,2.34,1.29,3.51-2.24,3.18Z"/><path class="cls-2" d="M107.93,12.78c-4.51-10.84-4.42-10.78-16.17-10.76-2.92,0-4.46.88-5.63,3.61-10.43,24.45-20.99,48.84-31.69,73.66,3.68,2.14,6.12,1.89,7.8-2.38,1.66-4.24,4.78-7.67,8.46-10.31,10.4-7.47,22.31-8.86,34.72-8.34,4.49.19,6.67,2.13,7.93,6.42,1.49,5.08,3.84,9.9,5.84,14.83,4.61,11.41,4.62,11.26,16.78,11.33,4.14.02,4.31-1.04,2.83-4.51-10.39-24.47-20.64-49.01-30.86-73.56ZM67.2,63.61c.92-4.63,19.99-51.84,23.02-56.98l19.65,49.04c-15.58-1.43-29.87-1.29-42.67,7.94Z"/><path class="cls-2" d="M1108.87,4.29c.01-1.44-.21-2.73-2.04-2.78-2-.05-2.53,1.21-2.5,2.93.02,1.16.02,2.33.02,3.49,0,17.61-.02,35.23.03,52.84.01,4.56-.67,8.93-2.71,13.04-5.41,10.85-17.75,15.95-31.59,13.09-11.46-2.37-18.89-11.12-19.3-23.41-.31-9.46-.06-18.94-.06-28.41-.02,0-.04,0-.05,0,0-.66,0-1.33,0-1.99,0-6.81-.01-13.63-.02-20.44-.01-11.4-.01-11.25-11.35-11.22-3.62,0-4.43,1.3-4.4,4.64.14,18.61.03,37.22.12,55.83.04,8.37,3.19,15.51,9.21,21.36,11.63,11.31,36.76,10.68,47.27,5.54,11.91-5.82,17.07-16.02,17.31-28.67.35-18.1.08-36.22.08-54.33,0-.5,0-1,0-1.5Z"/><path class="cls-2" d="M847.48,1.71c-1.73-.02-2.25,1.09-2.24,2.62,0,1.16,0,2.33,0,3.49,0,17.79.04,35.58-.02,53.37-.02,6.31-1.59,12.19-5.7,17.15-7.4,8.93-20.06,11.85-32.36,7.53-9.25-3.24-15.68-12.85-15.8-24.38-.18-16.46-.05-32.92-.07-49.38-.01-10.95-.02-10.82-11.23-10.7-3.5.04-4.61,1.2-4.58,4.64.13,17.79-.13,35.58.13,53.37.22,15.08,7.73,25.75,20.8,30.36,9.2,3.24,18.8,3.3,28.12,1.53,15.79-3.01,24.58-14.28,24.76-30.38.1-8.64.02-17.29.02-25.94h.04c0-3.99,0-7.98,0-11.97,0-6.15,0-12.3,0-18.46,0-1.33.13-2.84-1.84-2.86Z"/><path class="cls-2" d="M278.78,69.7c-1.77-1.26-2.45-.29-3.17,1.45-3.99,9.71-11.38,15.44-21.66,16.97-11.18,1.66-19.78-3.11-26.2-12.03-6.47-8.99-8.82-19.21-8.5-29.9-.31-11.19,2.19-21.41,8.42-30.47,9.06-13.18,22.55-15.39,35.46-5.94,2.26,1.66,4.19,3.78,6.28,5.68.8.73,1.6,2.31,2.8,1.15,1.89-1.83,3.69-3.87,5.01-6.13.65-1.12-1.14-1.78-2.12-2.31-9.55-5.18-19.78-8.1-30.64-7.53-18.22.95-35.13,14.17-40.34,30.97-5.95,19.2-.44,37.93,14.65,49.74,15.32,11.99,36.78,13.89,52.54,4.61,4.37-2.58,8.04-5.91,10.45-10.45,1.75-3.29-1.02-4.41-2.98-5.8Z"/><path class="cls-2" d="M99.13,82.68c-8.65,2.9-17.63,2.95-26.66,2.51-13-.63-25.5-4.67-38.47-5.42-3.32-.19-3.32-2.47-3.31-4.96.05-11.47.02-22.94.02-34.4h-.05c0-9.97-.01-19.94,0-29.92.01-9.1.01-8.83-9.28-9.17-4.67-.17-5.83,1.3-5.79,5.84.2,22.93-.02,45.87.12,68.8.02,3.6-1,5.32-4.59,6.21-3.18.79-6.14,2.49-9.14,3.93-.89.43-2.62.69-1.73,2.37.62,1.18,1.65,2.27,3.21,1.75,1.41-.47,2.73-1.2,4.07-1.87,4.96-2.46,10.1-4.14,15.71-4.45,7.91-.44,15.58.98,23.22,2.63,17.85,3.86,35.73,6.11,53.81,1.41,1.56-.41,3.57-.29,2.64-2.98-.65-1.89-1.08-3.18-3.77-2.28Z"/><path class="cls-2" d="M438.88,85.29c-12.13.6-24.27,1.18-36.38,2.04-4.24.3-5.34-1.19-5.31-5.3.17-23.11.06-46.23.04-69.35,0-10.67-.02-10.44-10.48-10.7-4.4-.11-5.21,1.54-5.15,5.47.21,12.97.08,25.94.08,38.91h-.04c0,13.14.11,26.28-.07,39.41-.05,3.7.66,5.28,4.89,5.21,17.48-.27,34.97-.14,52.46-.21,2.01,0,4.6.72,4.58-2.84-.02-3.66-2.66-2.75-4.62-2.65Z"/><path class="cls-2" d="M552.46,4.6c.03-2.93-2.09-2.49-3.84-2.49-24.14-.03-48.28-.04-72.42-.05-1.85,0-3.79-.2-3.76,2.63.04,2.88,2.08,2.58,3.86,2.47,7.47-.44,14.99-.59,22.38-1.6,4.36-.59,5.91-.05,5.79,4.74-.31,12.46-.1,24.93-.1,37.4h.02c0,10.97,0,21.94,0,32.92-.01,10.29-.02,10.09,10.2,10.24,4.04.06,5.03-1.3,5.01-5.14-.14-25.09.06-50.18-.15-75.26-.04-4.76,1.74-5.57,5.91-5.12,7.6.83,15.24,1.29,22.87,1.83,1.93.14,4.21.62,4.24-2.58Z"/><path class="cls-2" d="M465.58,12.06c0-10.14,0-9.97-10.37-10.07-3.8-.04-4.82,1.18-4.76,4.84.19,13.13.07,26.27.07,39.4h.04c0,11.64,0,23.27,0,34.91,0,9.9,0,9.71,10.13,9.87,4.04.06,4.99-1.29,4.97-5.15-.16-24.6-.08-49.21-.08-73.81Z"/><path class="cls-1" d="M301.45,63h0c-.11.18-.22.37-.33.55,0,0,0,.02-.01.02h0c.2-.11.39-.22.59-.33,0,0-.24-.24-.24-.24Z"/></g></svg>