<?xml version="1.0" encoding="UTF-8"?><svg id="Capa_2" xmlns="http://www.w3.org/2000/svg" viewBox="0 0 256 228.74"><defs><style>.cls-1{fill:#4c2f08;}</style></defs><g id="Capa_1-2"><path class="cls-1" d="M144.87,149.87c7.02,0,13.8-.54,20.34-1.63,6.53-1.09,13.02-2.72,19.46-4.9l3.81,9.05c-8.78,2.18-17.03,3.73-24.73,4.65-7.71.92-14.68,1.38-20.93,1.38-8.39,0-16.68-.63-24.88-1.89-8.2-1.26-16.2-2.64-24-4.15-7.81-1.51-15.27-2.89-22.39-4.15-7.12-1.26-13.9-1.89-20.34-1.89-9.17,0-17.17,1.18-24,3.52-6.83,2.35-13.95,5.45-21.36,9.3l-5.85-5.78c3.51-1.84,7.8-3.94,12.88-6.29,5.07-2.35,11.02-4.27,17.85-5.78V0h26.63v138.8c5.85,0,12.29.59,19.32,1.76,7.02,1.18,14.34,2.43,21.95,3.77,7.61,1.34,15.32,2.6,23.12,3.77,7.8,1.17,15.51,1.76,23.12,1.76ZM254.91,158.67h-31.02l-21.95-56.33c-1.56-.33-3.41-.59-5.56-.75-3.51-.5-8.3-.75-14.34-.75-5.27,0-11.17.42-17.71,1.26-6.54.84-12.93,2.43-19.17,4.78-6.25,2.35-12.2,5.7-17.85,10.06-5.66,4.36-10.24,10.06-13.76,17.1l-3.51,7.54-9.95-2.77L160.09,0h27.51l67.32,158.67ZM120.58,113.41c3.9-3.85,8.2-6.95,12.88-9.3,4.68-2.35,9.51-4.15,14.49-5.41,4.97-1.26,9.95-2.14,14.92-2.64,4.98-.5,9.61-.75,13.9-.75,3.31,0,6.39.09,9.22.25,2.83.17,5.31.34,7.46.5,2.34.34,4.49.67,6.44,1.01L164.18,7.29l-43.61,106.12Z"/><path class="cls-1" d="M44.79,215.2c1.09.22,1.96.55,2.61,1,.58.39,1,.9,1.26,1.54.26.64.03,1.45-.68,2.45-2.26,3.21-5.16,5.44-8.7,6.69-3.54,1.25-7.35,1.87-11.41,1.87-3.48,0-6.88-.64-10.2-1.91-3.32-1.27-6.27-3.09-8.84-5.44-2.58-2.35-4.66-5.18-6.24-8.47-1.58-3.29-2.37-6.96-2.37-11s.76-7.79,2.27-11.09c1.51-3.29,3.53-6.12,6.04-8.47,2.51-2.35,5.4-4.17,8.65-5.44,3.25-1.27,6.62-1.91,10.1-1.91,1.35,0,2.83.11,4.45.33,1.61.22,3.25.57,4.93,1.04,1.68.47,3.32,1.04,4.93,1.7,1.61.66,3.03,1.41,4.25,2.24l-3.87,4.82c-.64-.88-1.44-1.81-2.37-2.78-.93-.97-2.03-1.87-3.29-2.7-1.26-.83-2.64-1.51-4.16-2.03-1.51-.53-3.18-.79-4.98-.79-2.32,0-4.48.65-6.48,1.95-2,1.3-3.76,3.1-5.27,5.4-1.52,2.3-2.71,4.97-3.58,8.01-.87,3.05-1.31,6.31-1.31,9.8s.47,6.76,1.4,9.8c.93,3.05,2.22,5.7,3.87,7.97,1.64,2.27,3.59,4.07,5.85,5.4,2.26,1.33,4.67,1.99,7.25,1.99,2.13,0,4.16-.39,6.09-1.16,1.93-.77,3.61-1.76,5.03-2.95,1.42-1.19,2.56-2.49,3.43-3.9s1.3-2.73,1.3-3.95Z"/><path class="cls-1" d="M103.66,228.24h-10.25l-7.25-18.6c-.52-.11-1.13-.19-1.84-.25-1.16-.17-2.74-.25-4.74-.25-1.74,0-3.69.14-5.85.42-2.16.28-4.27.8-6.33,1.58-2.06.78-4.03,1.88-5.9,3.32-1.87,1.44-3.38,3.32-4.54,5.65l-3.48,8.14h-3.67l22.52-52.41h9.09l22.23,52.41ZM59.29,213.21c1.29-1.22,2.69-2.21,4.21-2.99,1.51-.77,3.09-1.38,4.74-1.83,1.64-.44,3.29-.75,4.93-.91,1.64-.17,3.17-.25,4.59-.25,1.09,0,2.09.03,3,.08.9.06,1.71.14,2.42.25.84.11,1.58.22,2.22.33l-11.89-30.23-14.21,35.55Z"/><path class="cls-1" d="M145.32,225.17v3.07h-36.64v-52.41h8.8v50.58l27.84-1.25Z"/><path class="cls-1" d="M149.77,228.24v-52.41h8.8v52.41h-8.8Z"/><path class="cls-1" d="M210.95,175.83v2.99l-19.53-1.16v50.58h-8.89v-50.58l-19.53,1.16v-2.99h47.95Z"/><path class="cls-1" d="M256,228.24h-10.25l-7.25-18.6c-.52-.11-1.13-.19-1.84-.25-1.16-.17-2.74-.25-4.74-.25-1.74,0-3.69.14-5.85.42-2.16.28-4.27.8-6.33,1.58-2.06.78-4.03,1.88-5.9,3.32-1.87,1.44-3.38,3.32-4.54,5.65l-3.48,8.14h-3.67l22.52-52.41h9.09l22.23,52.41ZM211.63,213.21c1.29-1.22,2.69-2.21,4.2-2.99,1.51-.77,3.09-1.38,4.74-1.83,1.64-.44,3.29-.75,4.93-.91,1.64-.17,3.17-.25,4.59-.25,1.09,0,2.09.03,3,.08.9.06,1.71.14,2.42.25.84.11,1.58.22,2.22.33l-11.89-30.23-14.21,35.55Z"/></g></svg>