<?xml version="1.0" encoding="UTF-8"?><svg id="Capa_2" xmlns="http://www.w3.org/2000/svg" viewBox="0 0 433.78 61.99"><defs><style>.cls-1{fill:#4c2f08;}</style></defs><g id="Capa_1-2"><path class="cls-1" d="M55.2,57.87c2.68,0,5.26-.21,7.75-.62,2.49-.42,4.96-1.04,7.42-1.87l1.45,3.45c-3.35.83-6.49,1.42-9.42,1.77-2.94.35-5.59.53-7.97.53-3.2,0-6.36-.24-9.48-.72-3.12-.48-6.17-1.01-9.14-1.58-2.97-.58-5.82-1.1-8.53-1.58-2.71-.48-5.3-.72-7.75-.72-3.5,0-6.54.45-9.14,1.34-2.6.9-5.32,2.08-8.14,3.54l-2.23-2.2c1.34-.7,2.97-1.5,4.91-2.39,1.93-.89,4.2-1.63,6.8-2.2V.77h10.15v52.89c2.23,0,4.68.22,7.36.67,2.68.45,5.46.93,8.36,1.44,2.9.51,5.84.99,8.81,1.44,2.97.45,5.91.67,8.81.67ZM97.13,61.22h-11.82l-8.36-21.46c-.6-.13-1.3-.22-2.12-.29-1.34-.19-3.16-.29-5.46-.29-2.01,0-4.26.16-6.75.48-2.49.32-4.93.93-7.3,1.82-2.38.89-4.65,2.17-6.8,3.83-2.16,1.66-3.9,3.83-5.24,6.52l-1.34,2.87-3.79-1.05L61,.77h10.48l25.65,60.46ZM45.94,43.98c1.49-1.47,3.12-2.65,4.91-3.55,1.78-.89,3.62-1.58,5.52-2.06,1.9-.48,3.79-.81,5.69-1.01,1.9-.19,3.66-.29,5.3-.29,1.26,0,2.43.03,3.51.1,1.08.06,2.02.13,2.84.19.89.13,1.71.26,2.45.38L62.56,3.54l-16.62,40.43Z"/><path class="cls-1" d="M190.13,46.37c1.26.26,2.27.64,3.01,1.15.67.45,1.15,1.04,1.45,1.77.3.73.04,1.68-.78,2.83-2.6,3.71-5.95,6.28-10.04,7.71-4.09,1.44-8.48,2.16-13.16,2.16-4.01,0-7.94-.73-11.76-2.2-3.83-1.47-7.23-3.56-10.2-6.28-2.97-2.71-5.37-5.97-7.19-9.77-1.82-3.8-2.73-8.03-2.73-12.7s.87-8.99,2.62-12.79c1.75-3.8,4.07-7.06,6.97-9.77,2.9-2.71,6.23-4.81,9.98-6.28,3.75-1.47,7.64-2.2,11.65-2.2,1.56,0,3.27.13,5.13.38,1.86.26,3.75.66,5.69,1.2,1.93.54,3.83,1.2,5.69,1.96,1.86.77,3.49,1.63,4.91,2.59l-4.46,5.56c-.74-1.02-1.66-2.09-2.73-3.21-1.08-1.12-2.34-2.16-3.79-3.11s-3.05-1.74-4.8-2.35c-1.75-.61-3.66-.91-5.74-.91-2.68,0-5.17.75-7.47,2.25-2.31,1.5-4.33,3.58-6.08,6.23-1.75,2.65-3.12,5.73-4.13,9.25-1,3.51-1.51,7.28-1.51,11.31s.54,7.79,1.62,11.31c1.08,3.51,2.56,6.58,4.46,9.2,1.9,2.62,4.14,4.69,6.75,6.23,2.6,1.53,5.39,2.3,8.36,2.3,2.45,0,4.8-.45,7.03-1.34,2.23-.89,4.16-2.03,5.8-3.4,1.63-1.37,2.96-2.87,3.96-4.5,1-1.63,1.51-3.15,1.51-4.55Z"/><path class="cls-1" d="M258.04,61.42h-11.82l-8.36-21.46c-.6-.13-1.3-.22-2.12-.29-1.34-.19-3.16-.29-5.46-.29-2.01,0-4.26.16-6.75.48-2.49.32-4.93.93-7.3,1.82-2.38.9-4.65,2.17-6.8,3.83-2.16,1.66-3.9,3.83-5.24,6.52l-4.01,9.39h-4.24L221.91.96h10.48l25.65,60.46ZM206.85,44.07c1.49-1.4,3.1-2.55,4.85-3.45,1.75-.89,3.57-1.6,5.46-2.11,1.9-.51,3.79-.86,5.69-1.05s3.66-.29,5.3-.29c1.26,0,2.41.03,3.46.1,1.04.06,1.97.16,2.79.29.97.13,1.82.26,2.56.38l-13.72-34.88-16.39,41.01Z"/><path class="cls-1" d="M306.1,57.87v3.54h-42.26V.96h10.15v58.35l32.12-1.44Z"/><path class="cls-1" d="M311.23,61.42V.96h10.15v60.46h-10.15Z"/><path class="cls-1" d="M381.81.96v3.45l-22.53-1.34v58.35h-10.26V3.07l-22.53,1.34V.96h55.31Z"/><path class="cls-1" d="M433.78,61.42h-11.82l-8.36-21.46c-.6-.13-1.3-.22-2.12-.29-1.34-.19-3.16-.29-5.46-.29-2.01,0-4.26.16-6.75.48-2.49.32-4.93.93-7.3,1.82-2.38.9-4.65,2.17-6.8,3.83-2.16,1.66-3.9,3.83-5.24,6.52l-4.01,9.39h-4.24L397.65.96h10.48l25.65,60.46ZM382.59,44.07c1.49-1.4,3.1-2.55,4.85-3.45,1.75-.89,3.57-1.6,5.46-2.11,1.9-.51,3.79-.86,5.69-1.05s3.66-.29,5.3-.29c1.26,0,2.41.03,3.46.1,1.04.06,1.97.16,2.79.29.97.13,1.82.26,2.56.38l-13.72-34.88-16.39,41.01Z"/></g></svg>