<?xml version="1.0" encoding="UTF-8"?><svg id="Capa_2" xmlns="http://www.w3.org/2000/svg" viewBox="0 0 478.73 368.16"><defs><style>.cls-1{font-family:Muli, Muli;font-size:60.86px;}.cls-1,.cls-2{fill:#414141;}</style></defs><g id="Capa_1-2"><path class="cls-2" d="M324.67,123.14h117.89c.33.43.7.69.7.95.29,19.94,2.47,40.05-2.35,59.69-9.99,40.7-37.06,65.92-75.65,78.78-44.92,14.97-88.05,7.96-129.21-14.25-28.95-15.61-51.92-37.99-72.68-63.1-27.58-33.36-55.59-66.36-83.41-99.52-.63-.76-1.27-1.51-2.92-3.47-.14,3.09-.27,4.75-.27,6.41-.07,52.27-.13,104.55-.19,156.82q0,6.4-6.57,6.42c-9.99.03-19.99-.13-29.97.19-4.15.13-5.33-1.08-5.32-5.26.16-68.92.16-137.84.19-206.76,0-9.49-.04-18.98-.03-28.47,0-1.62.15-3.23.25-5.35,19.28.51,35.87,6.52,49.54,19.74,4.42,4.27,8.51,8.92,12.46,13.63,38,45.26,76.01,90.52,113.89,135.88,21.46,25.7,48.37,42.49,81,49.83,19.47,4.38,39.17,4.73,58.29-1.38,23.11-7.38,41.29-20.74,48.54-45.38.79-2.7,1.2-5.53,1.61-8.32.21-1.45.04-2.95.04-5.21-2.14,0-4.06,0-5.99,0-21.65.03-43.29-.04-64.94.19-4.06.04-5.06-1.26-4.99-5.12.22-12.11.08-24.23.08-36.92Z"/><path class="cls-2" d="M425.54,44.73c-10.47,8.52-20.39,16.59-30.57,24.88-2.22-1.78-4.29-3.41-6.33-5.07-23.81-19.33-50.76-26.8-80.83-19.95-39.25,8.94-64.01,40.16-64.79,80.99-.37,19.47,1.32,39.26,14.6,62-2.07-1.18-3.27-1.76-4.37-2.5-21.14-14.13-37.48-32.77-50.8-54.21-.97-1.57-1.39-3.72-1.39-5.61C200.92,55.91,256.5.36,325.88,0c37.74-.2,69.37,13.47,95.6,40.28,1.27,1.29,2.44,2.67,4.06,4.45Z"/><text class="cls-1" transform="translate(0 350.13)"><tspan x="0" y="0">NEGAX GROUPS</tspan></text></g></svg>