<?xml version="1.0" encoding="UTF-8"?><svg id="Capa_2" xmlns="http://www.w3.org/2000/svg" viewBox="0 0 183.88 171.34"><g id="Capa_1-2"><path d="M179.19,108.31c-1.28.18-.79,1.2-.83,1.89-.16,2.95-.17,5.92-.39,8.86-.67,8.82-2.54,17.42-5.52,25.71-1.2,3.33-1.4,6.08,1.1,8.74.42.45.7,1.03,1.1,1.63,1.01-6.45,1.82-12.8,3.03-19.08,1.22-6.33,3.58-12.35,5.94-18.41.04.67.12,1.34.12,2.01,0,5.84.08,11.68-.04,17.52-.04,1.89-.31,3.85-.93,5.62-1.39,3.99-2.89,7.97-4.7,11.79-1.22,2.58-1.51,4.79.41,7.06.55.65.95,1.44,1.78,2.72.58-5.48,1.25-10.37,3.31-15.02.05.58.15,1.16.15,1.74.02,2.72-.04,5.44.02,8.16.05,2.27-.04,4.48-1.21,6.5-.5.87-.29,1.61.12,2.47.46.97.65,2.07.95,3.11h-2.88c-.19-.44-.4-.86-.57-1.31-.89-2.38-2.48-3.22-5.1-3.22-7.41.01-14.8-.56-22.14-1.71-1.53-.24-3.07-.41-4.68-.63v2.5c.81.04,1.51.07,2.21.12,4.77.29,9.55.42,14.29.94,4.34.47,8.65,1.32,12.63,3.31h-44.14c-.05-.62.04-1.43-.89-1.29-.24.04-.37.84-.55,1.29h-7.2c.11-3.48.22-6.96.33-10.43-.21-.02-.41-.03-.62-.05-.05.81-.1,1.62-.15,2.42-.17,2.69-.35,5.37-.52,8.06h-5.76c-.37-3.15-.75-6.3-1.15-9.68-.9.13-1.78.26-2.64.38.15,3.28.29,6.29.43,9.3h-4.8c-1.19-3.79-2.37-7.57-3.56-11.36-.18.81-.05,1.57.01,2.34.24,3.01.45,6.01.67,9.02h-3.36c-.31-.81-.61-1.63-.92-2.44-1.31-3.35-2.81-6.63-3.89-10.05-1.33-4.18-2.32-8.47-3.42-12.72-.27-1.05-.43-2.1-1.37-2.19.08-1.12.31-2.02.17-2.85-.35-2.04-.86-4.06-1.34-6.08-.2-.82-.49-1.62-.74-2.42-1.42.09-2.59.17-3.76.25-.02-.13-.04-.26-.05-.4,1.02-.51,2.04-1.02,3.05-1.53-.05-.12-.1-.24-.15-.36-1.56.51-3.12,1.02-4.66,1.52.05.33.04.5.1.63.24.51.49,1.01.75,1.5,5.07,9.54,8.61,19.61,10.17,30.31.44,3.01,1.31,5.35,4.3,6.5.14.05.23.22.34.33h-15.35c.67-.18,1.33-.44,2.01-.53,2.08-.26,4.18-.45,6.26-.67-1.26-1.19-2.59-2.02-3.99-2.69-.43-.21-1.13-.16-1.6.03-2.99,1.25-5.95,2.57-8.92,3.86h-19.19c.32-.21.62-.51.97-.61,4.89-1.42,9.75-2.98,14.7-4.14,3.13-.73,6.4-.86,9.6-1.27-1.02-.9-2.24-1.4-3.35-2.07-1.37-.82-2.62-.74-4.05-.12-7.79,3.38-16,5.35-24.33,6.85-2.17.39-4.33.9-6.49,1.36h-14.87c3.43-1.49,6.86-2.98,10.3-4.47-.02-.11-.03-.22-.05-.33-7.48,1.26-14.96,2.51-22.44,3.77,6.69-4.88,14.38-7.44,22.16-9.78,7.84-2.35,15.88-3.45,24.09-3.69-1.73-1.1-3.34-1.98-5.62-1.31-7.7,2.26-15.66,3.11-23.63,3.81-8.68.75-17.35,1.57-26.02,2.35-.15.01-.31-.04-.6-.08.32-1,1.23-1.17,1.97-1.4,4.65-1.44,9.27-3.04,13.99-4.16,7.94-1.88,16.01-3.09,24.19-3.23,1.99-.03,3.97,0,5.99,0-.74-.83-1.78-.9-2.77-.79-12.67,1.43-25.42-.21-38.09,1.07-3.34.34-6.66.82-9.99,1.24-.78.1-1.56.2-2.34.3-.06-.15-.13-.3-.19-.44.64-.32,1.25-.7,1.91-.95,5.27-1.93,10.67-3.35,16.25-4,3.01-.35,6.03-.65,9.08-1.35-3.46-.53-6.91-1.11-10.38-1.59-3.48-.48-6.97-.92-10.47-1.25-3.57-.33-7.16-.51-10.77-.75,1.79-1.33,8.18-2.14,16.57-2.28,5.61-.09,11.15.42,16.7,1.32-8.01-3.99-16.52-6.54-25.28-8.99,2.61-.96,11.08-.02,18.39,1.91,6.03,1.6,11.8,3.86,17.4,6.67-9.04-6.81-18.46-12.96-28.62-18.01,11.85,1.89,22.56,6.54,32.47,13.22-6.84-7.59-14.22-14.53-22.39-20.63.1-.16.2-.32.3-.48,1.15.48,2.32.92,3.44,1.45,15.37,7.28,27.96,17.84,37.65,31.84.68.99,1.35,1.98,2.04,2.97,1.91,2.76,3.52,3.75,7.47,4.48-6.77-7.08-12.74-14.55-18.47-22.23-5.67-7.58-11.62-14.96-17.26-22.68.37.21.78.38,1.12.63,12.27,9.13,23.45,19.34,31.61,32.46,2.14,3.45,3.94,7.14,5.63,10.84.96,2.1,2.17,3.66,4.38,4.38.59.19,1.15.47,2.22.92-.61-.9-.95-1.38-1.26-1.86-3.73-5.87-7.66-11.62-11.15-17.63-5.11-8.82-10.61-17.31-17.76-24.64-.64-.66-1.18-1.43-1.48-2.49.32.14.67.23.97.42,11,6.82,20.04,15.58,26.48,26.89,3.14,5.52,5.37,11.42,7.06,17.53,1.06,3.84,1.08,3.83,4.68,5.7.35.18.7.33,1.2.57,0-.34.07-.58-.01-.73-5.89-10.32-9.77-21.53-14.25-32.47-1.24-3.03-2.6-6.01-3.99-8.98-.82-1.74-1.8-3.41-2.82-5.33-1.42.81-2.81,1.6-4.21,2.39-.1-.12-.19-.24-.29-.36,1.15-1.25,2.29-2.49,3.54-3.85-1.11-1.76-2.19-3.48-3.27-5.2.11-.11.21-.22.32-.32,1.56,1.28,3.13,2.56,4.78,3.92,1.18-.99,2.32-1.96,3.47-2.93,5.42-4.56,11.32-8.37,17.94-10.94,8.16-3.17,16.53-4.27,25.14-1.98.37.1.76.15,1.67.34-2.96-2.43-5.45-3.88-9.14-3.46-16.93,1.93-32.65,7.45-47.64,15.34-1.13.59-2.29,1.13-3.45,1.67-.11.05-.29-.04-.45-.07.02-.13,0-.32.07-.38,8.22-6.82,16.84-13,27.02-16.63,7.25-2.59,14.67-3.87,22.38-2.59.35.06.72,0,1.4,0-2.09-1.81-4.25-2.04-6.51-1.72-4.51.64-9.02,1.25-13.51,2.03-11.2,1.95-22.19,4.7-32.81,8.84-.86.34-1.78.55-2.75.58,10.5-7.8,22.05-12.98,35.18-14.33-13.69-.39-27.27.56-40.82,3.63,1.76-1.83,10.41-5.07,17.2-6.7,6.11-1.46,12.29-1.74,18.54-1.59-5.75-1.72-11.63-2.82-17.59-3.04-5.93-.21-11.89.16-17.92-.09,2.65-.74,5.29-1.54,7.97-2.2,7.2-1.79,14.48-2.63,21.85-1.24,6.54,1.23,12.55,3.7,17.83,7.83.63.49,1.31.92,2,1.32.39.22.84.33,1.38.3-5.85-5.42-12.37-9.86-19.35-13.68-7-3.83-14.33-6.63-22.32-7.57v-.51c.95-.07,1.89-.14,2.84-.2,1.12-.08,2.23-.19,3.35-.23,1.04-.04,2.08-.05,3.12.03,14.68,1.14,26.25,7.91,35.14,19.5.39.51.81,1,1.12,1.56,1.63,2.91,3.97,4.94,7.29,5.85-.03-.14,0-.39-.12-.52-5.7-6.8-11.44-13.57-17.13-20.38-6.32-7.56-13.01-14.72-21.05-20.72.38.05.8.01,1.14.16,2.21.91,4.51,1.68,6.6,2.83,10.24,5.65,18.84,13.19,25.41,22.91,3.32,4.91,6.26,10.08,8.3,15.65,1.08,2.96,3.38,4.14,5.83,5.44-9.83-16.96-16.4-35.48-25.54-52.83.44.38.92.73,1.31,1.16,12.96,14.3,22.53,30.44,26.37,49.55.78,3.9,2.61,6.52,6,8.38.04-.18.16-.41.1-.56-3.94-9.21-6.7-18.81-9.66-28.35-2.6-8.4-5.32-16.76-9.03-24.76-.29-.63-.5-1.3-.59-2.05,3.17,2.95,5.6,6.45,7.83,10.08,2.25,3.66,4.31,7.44,6.5,11.25,1.2-.91,2.38-1.82,3.67-2.81-1.22-5.58-3.04-10.96-4.75-16.49.88,1.13,1.78.93,2.84.54,11.01-4.12,22.4-5.12,34-3.81,3.06.35,6.12,1.21,9.04,2.24,2.18.76,4,.39,6.33-.61-1.72-.38-3.04-.6-4.32-.97-8.67-2.53-17.32-5.11-25.99-7.65-5.6-1.64-11.2-3.28-17.08-3.67-.11,0-.21-.14-.77-.53,2.59-.28,4.77-.66,6.95-.73,10.84-.36,21.39,1.06,31.35,5.61,3.63,1.66,7.16,3.55,10.69,5.41,1.82.95,3.45,2.41,5.94,1.7-.2.32-.35.87-.61.94-1.64.41-2.44,1.65-3.32,2.93-1.76,2.56-3.61,5.05-5.29,7.72,2.9-2.65,5.8-5.29,8.69-7.94l.52.23c-.12,3.11.93,6.3-1.4,9.21-3.74,4.68-7.38,9.45-11.08,14.17-1.28,1.64-2.59,3.25-3.91,4.86-.54.66-.94,1.3-.14,2.3,5.06-6.81,10.26-13.43,16.13-19.62.2.27.44.44.44.62.03,3.28,0,6.56.06,9.84.02,1.15-.68,1.7-1.43,2.31-2.8,2.26-5.63,4.48-8.36,6.82-1.7,1.45-3.28,3.05-4.82,4.66-.44.46-.84,1.27-.76,1.85.62,4.88,1.35,9.75,2.2,14.67,1.43-4.54,4.67-8.5,4.12-13.71-.16-1.48.19-3.02.34-4.88,1.3,1.56.81,3.39,1.78,4.94,2.14-3.27,4.22-6.44,6.42-9.8.8,1.05.39,2.02.52,2.89.53,3.48-.31,6.45-3.23,8.64-.13.09-.2.25-.32.36-2.1,2.06-3.27,4.3-2.47,7.46.54,2.14.36,4.45.63,6.68.1.81.56,1.58.86,2.37h-.01ZM137.44,61.71c-.33-1.03-.59-1.78-.81-2.55-.22-.74-.41-1.49-.62-2.24.14-.07.28-.13.42-.2.85,1.36,1.71,2.72,2.48,3.95,3.66-1.69,7.07-3.45,10.62-4.85,3.55-1.41,7.23-2.46,10.86-3.66-11.31-.24-22.55-.78-34.09.07,2.22,4.35,4.26,8.36,6.37,12.5,1.68-1.06,3.15-1.99,4.77-3.01ZM164.72,91.55c-2.19,2.69-4.1,4.98-5.76,7.47-.23.34-.19.93-.12,1.38,1.49,9.93,1.78,19.9.61,29.86-.37,3.18,1.22,5.01,3.34,7.2,0-1.28,0-2.2,0-3.12.02-4.79-.16-9.59.11-14.36.45-7.73,1.21-15.45,1.79-23.17.12-1.55.02-3.12.02-5.26ZM125.83,70.14c.37.9.67,1.55.91,2.22,1.52,4.37,3.24,8.68,4.49,13.12,1.68,5.94,2.26,12.07,2.23,18.25,0,1.13.11,2.6.8,3.35,1.97,2.17,4.25,4.04,6.41,6.04.07-.9-.16-1.64-.37-2.38-1.25-4.29-2.67-8.54-3.7-12.88-2.04-8.62-3.87-17.29-5.8-25.93-.22-.98-.52-1.93-.81-2.99-.9.22-1.51.34-2.11.52-.6.17-1.19.4-2.05.69ZM90.88,119.75c13.54-9.11,28.12-12.11,44.01-8.92-.35-.57-.78-.9-1.13-1.3-1.6-1.85-3.54-2.4-5.98-2.11-6.5.78-13.04,1.21-19.53,2.1-6.01.83-11.98,2-17.65,4.3-.85.35-1.68.75-2.61,1.17.78,1.35,1.41,2.46,2.06,3.55.2.34.44.65.83,1.21ZM168.77,146.23c.19-.05.39-.1.58-.15-.86-15.18,2.61-29.93,4.34-44.88-1.79,1.9-3.6,3.58-3.44,6.63.31,5.83-.18,11.66-1.4,17.38-.98,4.59-2.28,9.12-3.43,13.68-.21.82-.71,1.6-.04,2.49,1.18,1.59,2.27,3.24,3.4,4.86ZM170.49,64.34c-.13-.08-.27-.17-.4-.25-5.44,5.82-10.88,11.64-16.26,17.39,1,3.05,1.9,5.8,2.97,9.05,3.6-9.66,8.1-18.22,13.7-26.19ZM148.94,121.46c-3.67-14.01-5.07-28.48-7.78-42.75q-2.45,1.24-1.79,3.45c1.85,6.29,3.58,12.61,4.13,19.16.37,4.45.45,8.93.62,13.4.04.97.04,1.86.84,2.62,1.38,1.32,2.66,2.74,3.98,4.12ZM141.51,117.2c-1.8-2.47-3.47-4-6.4-3.52-3.85.62-7.78.83-11.62,1.53-7.29,1.34-14.54,2.9-21.8,4.4-.89.18-1.73.56-2.79.9.73,1.07,1.25,1.83,1.73,2.54,13.16-5.13,26.29-8.74,40.87-5.86ZM152.37,77.37c6.99-10.69,15.04-19.77,25.5-27.28-3.04.34-4.95,1.45-6.53,3.31-1.19,1.39-2.51,2.69-3.93,3.86-5.24,4.31-10.54,8.54-15.81,12.81-.66.54-1.31,1.09-1.98,1.65.91,1.89,1.74,3.59,2.74,5.66ZM107.51,137.92c3.55-.95,6.9-1.84,10.24-2.74v-4.32c-4.47-.34-11.3.12-12.87.9.84,1.95,1.67,3.91,2.63,6.16ZM128.78,132.56c8.63-1.73,16.97-2.72,25.84-.91-.65-.92-1.03-1.4-1.34-1.92-1.44-2.41-3.49-2.88-6.13-2.27-2.48.57-5.03.81-7.56,1.16-3.7.52-7.4,1.01-11.25,1.53.15.8.27,1.47.44,2.41ZM150.24,86.46c-1.71.89-1.33,2.01-1.05,3.1,2.84,11.06,3.95,22.28,3.02,33.69-.06.69-.08,1.57.29,2.06,1.2,1.59,2.58,3.05,3.89,4.55-3.1-14.35-3.92-28.87-6.15-43.4ZM82.41,126.12c2.2-1.78,4.22-3.42,6.31-5.11-.54-1.88-1.06-3.68-1.66-5.78-3.18,1.69-6.15,3.27-9.27,4.92,1.63,2.11,3.03,3.93,4.62,5.97ZM147.22,67.31c3.48-2.96,6.76-5.76,10.04-8.55-.04-.07-.08-.14-.12-.21-5.34,2.15-10.69,4.31-16.17,6.52.91,2.14,1.73,4.05,2.65,6.21.99-1.06,1.74-1.86,2.45-2.61-.32-1.32-.59-2.48-.87-3.64.13-.05.26-.09.4-.14.52.77,1.03,1.54,1.62,2.42ZM161.43,139.92c-1.15-1.5-2.35-2.97-3.45-4.5-.79-1.1-1.66-1.48-3.05-1.12-3.53.93-7.11,1.7-10.67,2.55-.7.17-1.39.42-2.08.63,6.52-.02,12.82,1.11,19.24,2.44ZM127.72,122.46c.01.15.03.29.04.44,3.49,0,7-.21,10.47.06,3.39.27,6.75,1.04,10.4,1.63-.79-.91-1.47-1.58-2.01-2.35-1.46-2.07-3.44-2.67-5.84-2.23-4.36.81-8.71,1.63-13.07,2.44ZM176.29,164.04c.11-.12.23-.23.34-.35-1.29-2.22-2.59-4.44-3.86-6.62-4.16.53-8.12,1.03-12.07,1.53,5.4,1.31,10.73,2.65,15.59,5.44ZM138.53,65.83c-1.77.69-3.2,1.25-4.67,1.82,1.42,3.46,2.73,6.63,4.13,10.03.8-.96,1.42-1.58,1.89-2.31.28-.43.53-1.05.44-1.51-.5-2.56-1.12-5.1-1.78-8.04ZM148.45,152.19c.02.16.04.31.06.47,3.74,0,7.49-.22,11.21.06,3.72.28,7.41,1.07,11.39,1.68-.82-1.23-1.49-2.21-2.12-3.22-.67-1.09-1.52-1.37-2.82-1.16-3.7.6-7.42,1.07-11.13,1.53-2.19.27-4.39.43-6.58.64ZM116.9,157.51c-.79-.37-1.63-.75-2.94-1.36,1.42-.17,2.3-.27,3.25-.38v-4.46c-1.88-.08-3.59-.16-5.45-.24.68,3.42,1.31,6.59,1.94,9.76,3.29-.79,3.4-.9,3.2-3.33ZM148.46,144.81c6.26.84,11.92,1.6,17.82,2.39-.63-.97-1.21-1.72-1.64-2.56-.73-1.43-1.81-1.78-3.35-1.55-4.09.61-8.19,1.11-12.83,1.72ZM83.23,127.27c.88,1.43,1.61,2.63,2.45,3.99,1.8-1.1,3.4-2.09,5.11-3.14-.33-1.3-.64-2.49-1.02-3.95-2.26,1.07-4.25,2.01-6.55,3.1ZM127.95,130.08c-2.83.19-5.34.37-8.06.55.39,1.36.72,2.53,1.09,3.81,2.42-.61,4.54-1.14,6.66-1.67.11-.93.19-1.63.31-2.69ZM147.48,73.4c-1.03.79-1.71,1.31-2.32,1.78.44,2.84,2.34,8.33,3.4,9.54.3-1.22.89-2.32.74-3.3-.4-2.57-1.13-5.1-1.82-8.01ZM164.12,83.92c-1.81,2.7-3.55,5.45-5.45,8.09-1.22,1.69-1.27,3.3-.32,5.09,2.48-3.7,6.09-11.3,5.76-13.17ZM100.53,140.38c.96-.11,1.81-.25,1.62-1.35-.42-2.47-.94-4.92-1.45-7.51-1.38.18-2.42.31-3.64.47,1.24,3,2.35,5.69,3.46,8.39ZM117.68,145.58c-2.73-.23-5.15-.43-7.82-.65.45,1.52.81,2.77,1.21,4.14,2.24-.37,4.24-.69,6.33-1.04.09-.81.16-1.49.27-2.45ZM98.89,123.96c-.34-1.16-.61-2.09-.92-3.15-1.96.67-3.73,1.04-5.28,2.25.57,1.1,1.09,2.11,1.63,3.15,1.63-.8,2.97-1.46,4.58-2.25ZM76.82,119.04c3.08-2.43,5.95-4.7,8.82-6.96-3.6,1.34-6.87,3.2-10.1,5.42.51.62.86,1.04,1.28,1.54ZM134.73,161.91c-1.04-.27-1.85-.48-2.73-.7v5.96c1.14.32,1.67-.02,1.85-1.02.24-1.32.54-2.62.88-4.24ZM143.82,163.63c-1.33-.25-2.38-.44-3.61-.67v4.05h2.7c.29-1.08.55-2.06.91-3.38ZM131.64,155.07c1.68-.21,3-.38,4.41-.56.13-.67.25-1.24.4-2.03-1.76-.09-3.31-.17-5.1-.26.1,1.02.17,1.78.28,2.85ZM117.69,102.57c0,.18-.02.36-.02.55,3.27.5,6.54,1.01,10.13,1.56-1.17-1.58-2.38-2.15-3.93-2.11-2.06.05-4.12.01-6.18.01ZM63.96,152.85c-2.68-2.36-5.16-4.55-7.65-6.74,2.58,4.78,3.88,5.91,7.65,6.74ZM77.05,160.65c-3.38-1.87-6.12-1.64-9.19.45,2.86-.14,5.79-.28,9.19-.45ZM146.35,152.9c-.02-.22-.04-.44-.06-.66-2.17.1-4.35.2-6.52.3-.07.18-.13.37-.2.55.34.29.71.85,1.01.81,1.93-.26,3.85-.65,5.77-1ZM101.59,143.72c.78,2.5,1.42,4.52,2.05,6.54.2-.05.39-.1.59-.15-.43-1.97-.84-3.95-1.32-5.91-.04-.15-.52-.2-1.32-.48ZM102.74,89.77c-2.27-1.13-4.57-1.24-8.03-.57,2.86.2,5.45.38,8.03.57ZM125.97,152.13c-.71-.06-1.29-.11-1.94-.17-.27,1.47.13,2.13,1.66,1.94.09-.55.17-1.08.29-1.77ZM50.19,146.84c-.1.15-.2.31-.3.46,1.39.62,2.07,2.36,4.44,2.38-1.66-1.13-2.9-1.99-4.14-2.84ZM126.38,146.5c-1.36-.57-2.22-.73-3.4-.02,1.2.76,2.06.4,3.4.02ZM125.36,156.49l.02-.64h-1.17c0,.16-.03.44.01.45.37.09.76.14,1.13.19Z"/><path d="M183.45,45.94c-2.39-1.05-4.72-1.88-6.88-3.05-6.24-3.39-12.46-6.83-18.59-10.41-6.34-3.71-12.57-7.6-18.85-11.42-.71-.43-1.4-.9-1.9-1.75.68.14,1.37.25,2.05.42,15.33,3.82,29.25,10.53,41.64,20.37.25.2.47.44.74.61,1.88,1.14,2.52,2.75,1.78,5.25Z"/><path d="M148.12,8.92c1.23.47,2.48.87,3.67,1.42,8.89,4.14,17.07,9.41,24.76,15.47,2.07,1.63,4,3.44,6.02,5.14.87.73,1.22,1.59,1.18,2.72-.06,1.8-.02,3.6-.02,5.91-12.88-9.56-23.01-21.49-35.61-30.66Z"/><path d="M159.92,5.13c.72.26,1.47.46,2.14.8,7.2,3.66,14,7.94,20.37,12.91.89.69,1.35,1.45,1.31,2.61-.07,2.19-.02,4.39-.26,6.66-7.89-7.65-15.3-15.62-23.57-22.98Z"/><path d="M170.84,0c.58.19,1.22.27,1.73.57,3.42,2.05,6.82,4.1,10.17,6.25.5.32.87,1.13.94,1.75.14,1.34.04,2.7.04,3.99-.21.09-.28.13-.35.14-.07.01-.17.03-.21,0-4.09-4.21-8.18-8.42-12.33-12.7Z"/><path d="M179.2,108.31c-.11-.44-.43-.95-.31-1.32,1.21-3.77,2.47-7.53,4.37-11.22.88,2.82.61,4.76-.7,6.84-1.18,1.87-2.25,3.8-3.37,5.7,0,0,.02,0,.02,0Z"/><path d="M183.5,106.43c.09.22.16.31.14.36-.17.39-.35.78-.55,1.15-.01.02-.22-.06-.34-.09.16-.42.31-.84.47-1.26.02-.05.13-.07.29-.16Z"/></g></svg>