<?xml version="1.0" encoding="UTF-8"?><svg id="Capa_2" xmlns="http://www.w3.org/2000/svg" viewBox="0 0 193.75 167.11"><g id="Capa_1-2"><path d="M166.02,0c-.36.3-.69.65-1.09.9-4.41,2.74-8.83,5.48-13.26,8.19-1.77,1.08-3.55,2.18-5.42,3.08-5.1,2.46-9.48,5.92-13.73,9.58-.28.24-.51.55-.66,1.03,14.54-7.75,29.92-12.54,46.39-13.64-13.38,4.95-26.49,10.55-39.63,16.06.03.19.06.37.09.56.48.05.96.15,1.44.14,5.25-.06,10.26-1.49,15.31-2.73,7.17-1.77,14.42-2.91,21.84-2.6.72.03,1.44.06,2.16.11.21.02.42.13.68.4-8.33,1.66-16.47,3.88-24.12,7.76,1.72.44,3.4.54,5.13.19,5.27-1.06,10.58-1.74,15.96-1.59,2.3.06,4.59.33,6.89.5.01.19.02.38.04.56-1.74.24-3.47.46-5.21.72-1.82.27-3.63.58-5.45.89-1.79.3-3.58.63-5.41,1.23,8.42,2.11,16.39,5.05,23.18,10.75-2.2-.68-4.38-1.4-6.6-2.01-2.29-.63-4.62-1.15-7.42-1.84,3.44,2.75,6.67,4.93,9.39,7.62,2.68,2.65,4.84,5.82,7.24,8.77-.12.12-.23.25-.35.37-.38-.2-.79-.36-1.13-.61-5.87-4.22-12.29-7.43-18.93-10.22-.55-.23-1.17-.31-1.96-.14,1.3,1.57,2.64,3.11,3.89,4.73,1.25,1.62,2.31,3.36,3.08,5.25-.13.1-.26.2-.4.31-.62-.67-1.29-1.3-1.86-2.01-2.66-3.3-6.07-5.66-9.7-7.73-.69-.39-1.38-1.1-2.36-.26-.3.26-1.2-.06-1.78-.26-2.27-.77-4.51-1.63-6.78-2.4-.72-.25-1.5-.32-2.39-.25,2.8,2.95,5.89,5.54,7.86,9.21-.91-.71-1.84-1.4-2.72-2.15-4.17-3.54-8.76-6.42-13.65-8.87-1.8-.9-3.57-1.28-5.54-.75-3.63.97-7.28,1.87-10.91,2.82-.27.07-.52.23-1.18.54,11.6,5.11,21.55,11.7,28.18,22.42-4.97-4.29-10-8.46-16.07-11.07-.12.13-.25.25-.37.38,1.23,1.49,2.48,2.97,3.69,4.48,1.17,1.47,2.31,2.97,3.46,4.45-.12.13-.25.26-.37.4-.54-.38-1.12-.71-1.61-1.14-2.84-2.46-5.69-4.92-8.47-7.44-4.84-4.38-10.3-7.57-16.71-8.97-1.12-.25-2.46-.38-3.49,0-3.07,1.12-6.05,2.52-9.05,3.83-.19.08-.3.33-.59.67.69.36,1.29.7,1.92.99,7.35,3.43,14.37,7.35,20.38,12.91.67.62,1.62.98,2.5,1.3,1.56.56,3.16.99,4.69,1.89h-3.72c2.01,3.28,5.02,5.16,6.81,8.22-.42-.2-.9-.34-1.26-.62-2.96-2.31-5.94-4.6-8.83-7-.97-.8-1.91-1.35-3.19-1.43-13.25-.76-26.21.34-38.57,5.65-.42.18-.83.42-1.43.72,1.48,1.51,3.17,1.93,5.02,2.02,8.24.39,16.45,1.23,24.48,3.11,5.59,1.3,11.07,3.12,16.59,4.74.59.17,1.12.52,1.64.98-9.39-1.29-18.78-2.04-28.38-1.12.51.26,1,.56,1.53.77,6.09,2.42,12.26,4.66,18.26,7.28,6.39,2.79,12.41,6.28,17.93,10.58.59.46,1.12,1,1.67,1.51-.09.13-.18.26-.27.39-3.09-1.4-6.14-2.91-9.29-4.15-3.16-1.24-6.43-2.21-9.88-2.9,2.6,2.42,5.33,4.73,7.78,7.3,2.47,2.59,4.66,5.44,6.83,8.36-1.06.05-1.65-.71-2.28-1.27-6.71-5.88-14.05-10.84-21.92-15.03-6.28-3.34-13-5.33-20-6.42-2.66-.41-5.31-.86-8.14-.95,1.37.74,2.73,1.5,4.11,2.21,5.26,2.71,10.62,5.24,15.75,8.18,3.38,1.94,6.46,4.41,9.59,6.74,1.06.79,1.89,1.91,2.68,3.11-8.27-3.9-16.43-7.98-25.55-9.52,14.13,5.62,26.77,13.46,37.27,24.53-13.2-8.36-27.15-15.26-41.14-22.06-.11.14-.22.28-.33.43.36.45.68.95,1.1,1.34,2.01,1.84,4.09,3.58,6.06,5.46,7.8,7.48,14.27,15.96,19.23,25.58.32.62.55,1.29.65,2.06-3.34-3.86-6.28-8.05-10.39-11.22,3.78,6.57,6.99,13.36,8.75,20.8-5.36-10.96-12.66-20.33-21.85-28.22-.17.1-.33.2-.5.31,1.6,3.62,2.88,7.42,4.86,10.82,4.29,7.38,7.74,15.07,10.15,23.25.18.61.33,1.24.47,1.86.03.14-.02.31-.08.86-2.81-5.29-5.17-10.48-9.01-14.82,3.01,8.51,4.99,17.17,5.17,26.16-.16.04-.32.08-.48.12-.85-2.76-1.59-5.57-2.58-8.28-.98-2.68-2.22-5.27-3.63-7.88-.73,5.66-.92,11.35-2.74,17.25-.43-5.42-.55-10.39-1.27-15.27-.71-4.85-1.75-9.68-3.4-14.4-.59,3.66-1.17,7.33-1.76,10.99-.22,0-.44-.01-.65-.02-.07-1.35-.11-2.69-.21-4.04-.1-1.44-.24-2.87-.39-4.3-.15-1.35-.33-2.7-.53-4.04-.21-1.42-.46-2.84-.71-4.26-.25-1.42-.51-2.83-.77-4.25-.26-1.42-.53-2.83-.79-4.25-.25-1.34-.46-2.68-.73-4.01-.28-1.36-.62-2.7-.93-4.05-.17.02-.35.05-.52.07-.06.43-.17.85-.18,1.28-.13,5.39-1.18,10.64-2.38,15.87-.32,1.38-.5,2.85-.41,4.26.24,3.67.73,7.32,1,10.99.19,2.63.21,5.27.26,7.91.01.67-.16,1.35-.47,2.04-.85-5.21-1.79-10.37-2.86-15.51-.17-.01-.34-.02-.51-.03l-2.74,6.16c-.14-.05-.29-.1-.43-.15,0-.29-.04-.59,0-.88.09-.55.18-1.11.34-1.64,2.99-10.05,2.11-20.11,0-30.15-2.23-10.56-4.5-21.12-6.77-31.67-.29-1.33-.65-2.64-.95-3.97-.97-4.32-4.38-6.64-7.47-9.27.25,2.1,1.66,3.63,2.48,5.43.83,1.82,1.78,3.59,2.51,5.44.76,1.93,1.38,3.92,1.96,5.92.57,2,1.13,4.01,1.48,6.06.35,2.04.61,4.13.6,6.19-.01,1.98.7,3.87.25,5.92-.44,2.01-.35,4.14-.61,6.2-.27,2.06-.63,4.11-1.08,6.14-.43,1.95-.94,3.89-1.54,5.8-.61,1.96-1.37,3.88-2.06,5.82-.16-.02-.33-.04-.49-.06,0-.48-.04-.96,0-1.44.3-3.34.89-6.69.85-10.03-.05-4.78-.61-9.54-.85-14.32-.1-2.05-1.06-3.24-2.97-3.79-.67-.19-1.31-.45-2.27-.79-.34,3.02-1.44,5.74,1.16,8.22,1.41,1.35,2.42,3.12,3.61,4.7-.11.11-.23.23-.34.34-1.77-1.51-3.54-3.01-5.57-4.74-.71,2.39-1.31,4.42-1.91,6.44-.17-.01-.35-.02-.52-.03-.2-1.42-.04-2.88-.05-4.31-.03-4.74.57-3.69-3.22-6.45-4.07-2.96-8.31-5.67-13.07-8.01-.78,1.21-1.52,2.36-2.26,3.51-.16-.05-.33-.1-.49-.15.28-1.39.56-2.78.89-4.45-2.1-.88-4.11-1.81-6.19-2.58-1.57-.58-3.21-.99-4.83-1.4-3.23-.81-3.24-.79-5.29,2.47.63.39,1.25.82,1.91,1.18,3.02,1.64,6.18,3.06,9.06,4.93,3.21,2.08,6.18,4.52,9.21,6.87.78.61,1.36,1.49,1.88,2.45-7.87-3.73-15.52-7.82-24.24-9.2,6.97,2.79,13.47,6.4,19.74,10.49,6.25,4.07,12.28,8.34,16.93,14.3-13.16-8.96-27.46-15.74-41.7-22.65-.12.14-.24.27-.37.41.28.39.5.84.84,1.16,2.13,1.94,4.33,3.8,6.43,5.76,7.55,7.04,13.72,15.17,18.64,24.23.55,1.02.99,2.1,1.27,3.29-3.29-3.9-6.32-7.99-10.56-11.08,1.17,2.11,2.41,4.2,3.5,6.35,1.12,2.21,2.17,4.46,3.11,6.75.94,2.26,1.71,4.58,2.25,7.04-5.53-10.82-13.02-20.01-22.4-27.8.15.46.27.94.45,1.38.8,1.92,1.59,3.84,2.45,5.73.69,1.52,1.39,3.06,2.24,4.49,4.5,7.53,7.99,15.48,10.32,23.94.1.37.17.76.07,1.23-2.93-5.12-5.41-10.49-9.37-14.98,3.38,8.62,5.41,17.48,5.45,26.73-.17.05-.34.09-.51.14-.5-1.83-.94-3.67-1.52-5.47-.61-1.9-1.33-3.77-2.07-5.63-.73-1.84-1.54-3.65-2.37-5.61-.99.62-.62,1.4-.69,2.02-.49,4.2-.93,8.41-1.44,12.61-.09.75-.44,1.46-1.02,2.12-.09-3.22,0-6.46-.32-9.66-.32-3.25-.98-6.48-1.62-9.7-.63-3.18-1.41-6.33-2.43-9.48-.83,3.85-.96,7.78-2.47,11.43-.09-11.24-3.11-21.97-5.16-32.86-.05-.28-.25-.52-.64-1.31-.16,1.1-.24,1.68-.32,2.25-.44,3.24-.84,6.49-1.37,9.72-.12.71-.7,1.34-1.07,2,0-17.76,0-35.52,0-53.28.98.08,1.98.22,2.96-1.2-1.28.1-2.12.17-2.96.24,0-2.08,0-4.16,0-6.24,5.09.32,9.79-1.84,14.76-2.32.3-.03.55-.58.9-.97-.4-.21-.63-.43-.8-.39C9.91,65.05,4.95,66.13,0,67.2c0-7.84,0-15.68,0-23.52.78-.1,1.56-.19,2.35-.29,3.03-.4,4.27-2.85,4.68-6.03.03-.24-.25-.53-.37-.76-1.73-.04-2.71.86-3.6,2.09C2.14,39.95,1.03,41.06,0,42.24c0-8.8,0-17.6,0-26.4,1.42-.7,2.89-1.31,4.25-2.11,4.68-2.75,9.73-4.51,15.06-5.29,2.08-.3,3.73-.93,5.34-2.23,3.13-2.54,6.55-4.54,10.67-5.1C36.22.97,37.05.38,37.91,0c3.2,0,6.4,0,9.6,0-.51.61-.97,1.26-1.53,1.82-2.6,2.6-5.18,5.22-7.86,7.74-3.33,3.14-6.22,6.65-8.89,10.35-.69.96-1.22,1.88-.44,3.11,2.22-.12,4.11-.74,5.43-2.8.68-1.05,1.68-1.92,2.62-2.78,6.44-5.9,13.42-11.1,20.59-16.07C58,.98,58.49.46,59.02,0c1.44,0,2.88,0,4.32,0-.28.37-.51.78-.84,1.1-2.94,2.82-5.96,5.55-8.82,8.44-1.68,1.69-3.13,3.61-4.63,5.47-.3.37-.4.9-.64,1.49.42-.08.59-.08.72-.15.55-.33,1.09-.67,1.61-1.03,8.9-6.01,18.11-11.39,28.49-14.48.5-.15.93-.55,1.39-.83,1.12,0,2.24,0,3.36,0-.42.36-.8.78-1.26,1.07-6.7,4.2-13.37,8.43-20.12,12.54-3.84,2.34-7.03,5.39-10.1,8.65.92-.23,1.74-.65,2.56-1.04,3.89-1.85,7.8-3.66,11.66-5.56,1.34-.66,2.69-1.41,3.81-2.38,3.15-2.72,6.35-5.36,10.05-7.3,2.38-1.25,4.88-2.14,7.64-2.27-3.53,2.41-6.91,4.91-9.63,8.22.5.15.88.14,1.26.05,5.68-1.3,11.35-2.61,17.03-3.9.85-.19,1.74-.47,2.59-.43,1.49.08,2.55-.57,3.64-1.46,3.31-2.71,6.89-4.9,11.23-5.55.61-.09,1.19-.42,1.78-.65,3.68,0,7.36,0,11.04,0-1.3,1.38-2.53,2.85-3.92,4.12-5.2,4.75-10.23,9.64-14.39,15.36-.76,1.05-1.21,2-.45,3.28,2.26-.39,4.32-.98,5.7-3.06.61-.91,1.54-1.61,2.38-2.35,6.66-5.88,13.88-11.02,21.25-15.96.65-.44,1.27-.93,1.9-1.4,1.6,0,3.2,0,4.8,0-12.14,10.98-14.85,13.79-16.02,16.72.48-.2.84-.3,1.15-.49,1.83-1.14,3.65-2.29,5.47-3.44,6.7-4.23,13.64-7.96,21.16-10.54,1.87-.64,3.67-1.49,5.51-2.24,1.44,0,2.88,0,4.32,0ZM121.04,63.32c-.59-.72-.81-1.15-1.16-1.39-1.43-1.02-2.79-2.19-4.36-2.92-3.97-1.85-8.07-3.44-12.06-5.23-2.34-1.05-4.5-1.35-6.74.26-.89.64-2.03.92-3.02,1.42-.44.22-.79.61-1.62,1.27,2.33.31,4.14.45,5.92.8,3.9.77,7.79,1.65,11.68,2.5.2.04.36.25.57.41-.41.3-.76.56-1.23.91.48.38.82.87,1.21.92,3.44.38,6.89.68,10.82,1.05ZM50.91,92.84c-.61-3.26-1.08-6.07-1.7-8.84-.11-.48-.78-1.1-1.26-1.17-2.34-.36-4.71-.55-7.09-.8-.8,1.87-1.52,3.51-1.54,5.4,3.76,1.76,7.42,3.46,11.6,5.41ZM46.39,66.44c-1.38.07-2.36.12-3.26.16-.47,4.24-.91,8.18-1.37,12.3,2.2.72,4.3,1.49,6.94,1.83-.79-4.89-1.53-9.43-2.31-14.29ZM36.34,77.7v-11.16c-.54-.08-.92-.17-1.31-.18-2.26-.07-2.32.01-3.1,2.1-.7,1.87-1.48,3.7-2.22,5.56-.25.63-.48,1.28-.8,2.15,2.58.53,4.89,1.01,7.43,1.53ZM24.07,75.52c.62-2.9,1.35-5.46,1.46-8.32-2.66-.14-4.93.62-7.21,1.21-.33.08-.69.48-.81.81-.65,1.69-1.22,3.41-1.95,5.49,3.03.29,5.67.55,8.52.82ZM54.29,73.13c-.18.06-.35.11-.53.17.07.67.05,1.35.21,2,.69,2.83.9,5.74,1.6,8.6.79,3.24.34,6.77.5,10.17.03.75.11,1.73.58,2.18.86.83,2.02,1.34,3.2,2.08.09-.59.2-.83.16-1.04-1.59-7.47-3.19-14.95-4.83-22.41-.14-.62-.58-1.16-.88-1.74ZM79.25,67.29c.84,1.18,1.65.77,2.39.6,7.86-1.79,15.82-2.97,23.86-3.56.28-.02.55-.18,1.24-.42-1.69-.84-3.1-.76-4.48-.67-3.01.19-6.04.25-9,.75-4.16.69-8.26,1.72-12.38,2.63-.51.11-.98.4-1.63.67ZM64.63,74c4.42-1.81,8.49-3.47,12.62-5.16-.7-1.16-1.66-.86-2.58-.71-4,.67-8.01,1.34-12.01,2.02-.27.05-.52.26-1.06.54,1.19,1.29,2.23,2.43,3.04,3.31ZM149.25,36.73c0,.14,0,.28-.01.42,4.72,1.34,9.45,2.68,14.18,4.01.06.02.15-.05.2-.1.05-.04.06-.12.09-.19-1.49-1.98-5.7-4.86-7.74-5.28-.31-.06-.64-.12-.94-.06-1.93.38-3.85.79-5.77,1.19ZM94.45,38.39c2.01,0,3.99-.28,5.17-1.85,1.18-1.56,1.85-3.51,2.71-5.3.47-.98.15-1.64-.83-2-2.03,1.8-6.49,7.55-7.05,9.15ZM85.85,35.87c-1.29.51-2.61.64-3.21,1.36-1.55,1.85-2.78,3.96-4.21,6.08,5.1.51,7.15-1.81,7.42-7.44ZM36.53,82.19c-2.71-.69-8.2-.65-10.63.13,3.45,1.33,6.56,2.53,9.92,3.83.27-1.52.47-2.66.7-3.96ZM37.87,51.89c1.27-1.65,2.38-3.09,3.52-4.58-2.96-1.63-6.81-1-8.66,1.37,1.61,1,3.2,2,5.13,3.21ZM44.79,56.69c1.74-1.81,3.31-3.43,5.31-5.5-1.23-.23-1.93-.58-2.49-.43-2.41.68-4.77,1.52-7.56,2.43,1.66,1.23,3.04,2.24,4.74,3.49ZM55.15,64.08c1.23,2.21,2.8,3.21,4.33,4.44,1.69-1.32,3.28-2.56,5.23-4.09-1.08-.54-1.76-1.19-2.4-1.15-2.19.12-4.38.47-7.16.81ZM15.85,38.13c1.96-.39,4.02-.46,5.12-2.37.75-1.3,1.34-2.7,2.01-4.05.52-1.05.33-1.8-1.05-2.3-2.31,2.65-4.33,5.5-6.08,8.73ZM66.7,75.37c1.45,2.66,1.92,3.06,3.29,2.45,3.25-1.45,6.66-2.18,10.14-2.71.45-.07.86-.43,1.28-.65-.05-.18-.1-.36-.15-.54-4.8-.09-9.47,1.37-14.56,1.45ZM14.53,69.45c-2.91.99-5.41,1.61-7.84,3.04,2.11,1.89,4.21,2.44,6.88,1.86.29-1.47.58-2.97.96-4.9ZM18.38,89.16c-3.54-.64-6.75-1.22-10.41-1.88,2.2,1.83,7.22,4.27,9.38,4.65.29-.77.59-1.58,1.03-2.77ZM76.8,101.08c.13.01.26.03.4.04,0-.82.21-1.71-.03-2.45-1.65-5.07-3.5-10.07-6.77-14.85,2.24,6.03,4.32,11.65,6.41,17.27ZM80.15,92.53c-.09.08-.18.16-.28.23,1.02,1.31,2.03,2.64,3.09,3.92.24.29.6.62.94.67,2.32.32,4.65.58,7.21.88-3.81-1.99-7.39-3.85-10.96-5.71ZM1.12,91.99c1.86,3.13,3.55,5.69,7.32,5.24.23-.03.47.09.7.13,1.02.18,2.03.37,3.05.55,0-.1.01-.19.02-.29-3.57-1.81-7.14-3.63-11.08-5.63ZM27.85,55.08c-1.18-.44-2.17-.82-2.93-1.1-1.04.38-.79,1.39-1.78,1.7-1,.3-.8,1.75.25,2.11,1.09.37,2.24.53,3.54.82.34-1.27.61-2.31.93-3.52ZM140.38,34.88c2.25,1.16,6.1.54,8.56-1.21-3.08-1.33-5.71-.49-8.56,1.21ZM51.91,101.46c.09-1.85.55-3.39-.82-4.16-1.48-.84-3.21-1.23-4.83-1.81-.09.16-.18.32-.27.47,1.83,1.7,3.66,3.4,5.92,5.5ZM70.35,23.79c2.61-2.18,4.55-4.47,7.03-6.77-4.36.9-6.43,2.34-7.03,6.77ZM120.41,23.12c-2.93,1.17-4.79,3.5-7.17,5.85,4.29-.17,5.65-3.12,7.17-5.85ZM34.13,28.96c3.16-.35,5.95-2.89,6.2-5.65-2.29,1.17-4.27,2.97-6.2,5.65ZM47.3,58.13c1.55,1.55,2.74,2.72,4.51,3.09,1.09-1.16.91-2.35.54-3.79-1.6.22-3.12.43-5.06.71ZM137.43,33.24c-1.66-1.44-4.9-1.23-6.82.45,3.92,1.42,4.02,1.41,6.82-.45ZM56.79,40.16c-3.97.74-7.44,2.12-8.4,3.24.97.11,7.07-1.2,7.73-1.77.29-.25.36-.77.66-1.47ZM36.61,62.94c.99-3.27.77-3.73-1.88-4.02-.26,1.18-.52,2.37-.83,3.78,1.08.1,1.84.16,2.72.24ZM1.94,106.58c.94,4.34,4.08,9.88,6.1,11.41-2.08-3.9-4.09-7.65-6.1-11.41ZM121.03,35.82c2.5.87,4.99.54,7.48.02-2.49-.64-4.97-1.53-7.48-.02ZM85.81,118.11c.15-.08.31-.16.46-.24-1.88-3.61-3.77-7.22-5.65-10.83-.17.09-.34.18-.51.27,1.6,3.76,3.29,7.47,5.69,10.81ZM62.58,46.24c-2.55.18-3.1.95-2.66,3.47,2.03-.27,2.2-.49,2.66-3.47ZM47.2,36.03c-3.72-1.32-4.45-1.28-6.06.2,2.08.79,4.05.09,6.06-.2ZM71.03,46.48c3.02-.45,3.48-.75,3.64-2.32.04-.38-.17-1.03-.44-1.14-.31-.12-.95.1-1.18.38-.66.84-1.19,1.79-2.02,3.08ZM14.43,55.9c3.07,1.64,3.89,1.22,3.8-1.68-1.34.59-2.57,1.13-3.8,1.68ZM25.82,63.57c-3.12-.83-5.19-.44-5.89,1,2.71.3,4.48.04,5.89-1ZM101.46,11.24c-2.87,1.31-3.9,2.24-4.45,3.96,2.2-.5,3.02-2.27,4.45-3.96ZM100.94,38.14c1.54.11,3.14.34,4.69-.67-1.94-1.41-3.32-.44-4.69.67ZM93.05,17.44c-1.63,1.1-3.25,2.23-4.09,4.76,2.08-1.43,3.22-2.96,4.09-4.76ZM17.48,15.74c2.44-.52,3.28-2.09,4.12-3.66-1.61.7-3.04,1.61-4.12,3.66ZM21.76,38.31c1.79.07,3.17.34,4.49-.53-1.84-1.36-2-1.35-4.49.53ZM165.48,38.68c-.06.19-.11.38-.17.57,1.9.82,3.8,1.64,5.69,2.46.08-.18.15-.36.23-.54-1.92-.83-3.83-1.66-5.75-2.5ZM13.91,18.04c-1.55.97-2.8,2.22-3.49,3.95,1.73-.79,2.69-2.29,3.49-3.95ZM91.89,42.66c-1.21-1.63-1.61-1.57-3.76.55,1.42-.21,2.52-.37,3.76-.55ZM71.65,81.12c1.09,2.05,1.22,2.08,3.75.9-1.34-.32-2.43-.58-3.75-.9ZM10.58,30.19c1.88-.45,2.24-1.69,2.77-3.43-1.58.91-2.34,1.84-2.77,3.43ZM89.48,29.79c2.05-.56,2.57-1.69,2.81-3.71-1.42,1.11-2.18,2.06-2.81,3.71ZM9.71,43.3c1.04-.14,2.08-.29,3.28-.46q-1.31-1.77-3.28.46ZM61.4,24.04c-1.85.36-2.03.47-2.92,1.89,1.47.06,2.38-.58,2.92-1.89ZM64.89,63.57c1.26.48,2.24-.06,3.41-.95-1.52-.47-2.52-.02-3.41.95ZM124.54,26.76c-.8.47-1.6.93-2.41,1.4,1.34.47,2.13-.02,2.41-1.4ZM150.96,30.66c.03.22.07.45.1.67,1.08.63,1.87.11,2.52-1.09-.87.14-1.75.28-2.62.42ZM28.97,51.09c-.6-1.8-1.01-1.91-2.31-.58.72.46,1.36,1.06,2.31.58ZM44.96,27.18c-1.31.18-2.1.56-2.68,1.73,1.4.06,2.05-.53,2.68-1.73ZM101.09,44.97c.04.18.09.36.13.54l2.2-.54c-1-.92-1.69-.57-2.33,0ZM115.92,37.69c-.02-.17-.04-.34-.06-.51q-1.54-.22-2.55,1.07c1.05-.23,1.83-.4,2.61-.57ZM37.94,55.96q-.64-1.25-2.1-1.73c.16,1.36.88,1.74,2.1,1.73ZM74.29,41.71l.79.4c.29-.74.57-1.47.86-2.21l-.5-.23c-.38.68-.77,1.36-1.15,2.03ZM51.9,33.67c-.82-.81-1.38-.58-1.73.41.58-.14,1.15-.28,1.73-.41ZM42.47,58.97c.41.48.81.96,1.22,1.44.39-1.16-.06-1.6-1.22-1.44ZM34.1,37.72c.04.23.08.46.12.68.59-.17,1.18-.35,1.78-.52-.04-.18-.09-.36-.13-.53-.59.12-1.18.25-1.77.37ZM49.72,64.39c.14-.14.27-.28.41-.42-.35-.3-.7-.59-1.05-.89-.09.09-.17.18-.26.27.3.35.6.69.9,1.04Z"/><path d="M0,7.2c.8-.29,1.62-.55,2.4-.89,2.09-.91,4.12-2.02,6.82-1.94-2.08,1.56-3.91,2.91-5.72,4.3C2.32,9.59,1.17,10.57,0,11.52c0-1.44,0-2.88,0-4.32Z"/><path d="M0,141.6c.24.4.62.78.7,1.21.73,4.41.87,8.83.12,13.25-.08.49-.53.92-.81,1.38,0-5.28,0-10.56,0-15.84Z"/><path d="M4.8,0C3.56,1.63,1.96,2.75,0,3.36v-1.92C1.12.96,2.24.48,3.36,0h1.44Z"/></g></svg>