<?xml version="1.0" encoding="UTF-8"?><svg id="Capa_2" xmlns="http://www.w3.org/2000/svg" viewBox="0 0 630.64 613.99"><g id="Capa_1-2"><path d="M147.45,372.48c7.81-9.27,14.76-16.83,20.79-25.05,2.14-2.92,2.66-7.44,2.87-11.29.81-15.29.76-30.64,1.84-45.91,2.68-37.76,9.33-74.59,26.81-108.75,9.03-17.64,20.52-33.45,34.38-47.57.93-.95,1.89-1.89,2.92-2.71.48-.38,1.18-.47,1.79-.7.15.58.61,1.35.39,1.72-16.82,28.98-25.48,60.62-29.89,93.51-4.49,33.47-12.82,65.92-24.47,97.56-.77,2.09-1.35,4.25-.75,7.16,7.51-8.25,15.32-16.25,22.32-24.92,1.99-2.47,1.99-6.83,2.25-10.37,1.47-20.23,1.35-40.68,4.34-60.68,7.88-52.86,33.57-96.2,73.85-131.07.85-.73,1.93-1.18,3.93-.76-1.3,2.13-2.48,4.34-3.92,6.37-16.54,23.36-28.18,48.99-35.26,76.67-9.06,35.44-17.71,70.98-31.95,105.22,4.91-2.54,8.19-6.83,11.9-10.57,3.73-3.77,8.44-7.22,10.52-11.81,2.23-4.94,2.3-11.01,2.6-16.63,3.22-60.23,26.84-111.3,69.15-153.92,5.76-5.8,12.29-10.83,18.46-16.22l1.59,1.36c-1.4,2-2.77,4.02-4.21,5.99-17.47,23.86-30.04,50.21-39.47,78.12-9.8,29.02-19.95,57.88-33.95,85.22-.4.78-.49,1.72.37,3.55,8-7.7,16.4-15.05,23.8-23.29,2.61-2.9,3.21-7.89,4.04-12.07,2.28-11.42,3.75-23.01,6.32-34.35,10.17-44.86,33.54-82.19,66.12-114.12,1.27-1.24,2.92-2.08,4.57-3.23.35,1.02.61,1.4.51,1.57-19.12,31.93-30.23,67.25-43.43,101.71-4.38,11.45-10.43,22.27-15.86,33.3-2.02,4.11-4.47,8.02-6.13,12.53,9.57-5.83,17.95-12.93,25.4-21.07,1.64-1.79,2.05-4.83,2.72-7.38,3.39-12.86,6.22-25.89,10.08-38.61,11.67-38.44,32.26-71.37,62.16-98.36.99-.89,1.96-1.81,3-2.63.5-.4,1.15-.61,2.95-1.54-1.03,2.73-1.62,4.64-2.44,6.44-9.94,21.77-20.55,43.26-29.68,65.36-8.15,19.75-16.93,39.06-28.37,57.13-1.33,2.1-2.46,4.34-2.61,7.38,7-5.49,14.31-10.64,20.85-16.63,2.73-2.5,4.31-6.62,5.56-10.29,5.03-14.8,9.26-29.88,14.63-44.55,11.71-32.04,31.79-58.23,57.71-80.12,2.2-1.86,4.65-3.43,8.74-6.43-11.44,22.87-22.17,43.68-32.32,64.77-10.19,21.19-21.05,41.96-33.84,62.14,6.73-4.66,13.66-9.05,20.08-14.1,2.44-1.92,4.21-5.14,5.41-8.13,3.6-8.95,6.71-18.09,10.11-27.11,12.95-34.31,35.13-61.62,63.89-83.9,1.84-1.42,3.82-2.67,5.77-3.94,1.1-.72,2.28-1.31,3.35-1.92.42.32.74.46.88.7.14.25.24.67.13.89-.75,1.47-1.51,2.93-2.38,4.34-21.33,34.49-42.67,68.98-64.14,103.68,8.98-5.3,18.91-9.24,23.22-20.61,3.05-8.06,7.3-15.67,11.13-23.43,13.69-27.73,33.83-50.05,57.97-69.01,2.09-1.64,4.3-3.14,6.54-4.59.77-.5,1.78-.65,5.14-1.8-21.87,33.1-38.91,66.82-66.39,94.78,9.58-2.62,15.49-6.23,20.9-13.31,6.06-7.93,11.86-16.07,17.55-24.28,15.74-22.7,35.04-41.79,57.9-57.28,2.89-1.96,5.96-3.64,9.59-4.64-16.13,26.06-35.92,48.93-56.17,71.76,35.57-26.8,74.16-46.16,119.02-51.05-15.73,12.83-32.89,23.32-51.22,31.76-18.03,8.3-36.35,15.97-54.51,24.43,31.03-2.74,61.95-2,94.96,1.54-3.64,1.66-5.47,2.77-7.46,3.36-20.53,6.14-41.51,9.48-62.93,9.84-15.32.26-30.64.23-45.96.47-10.36.16-12.82,1.01-22.42,7.39,21.06-.96,40.06-1.03,58.83,2.81,18.78,3.84,37.69,7.1,56.54,11.44-11.53,4.08-23.47,4.98-35.4,5.53-23.84,1.1-47.02-3.81-70.25-8.2-3.59-.68-7.27-1.06-10.78-2.03-10.22-2.81-19-.4-27.49,7.6,1.78.27,2.85.63,3.89.56,23.87-1.59,47.12,1.78,70.06,8.27,16,4.53,32.15,8.5,48.22,12.76,1.87.49,3.68,1.18,5.47,3.29-5.43.72-10.85,1.77-16.3,2.09-32.66,1.95-64.31-3.54-95.43-13.1-6.96-2.14-14.14-3.61-21.26-5.17-9.21-2.02-15.53,3.05-23.59,10.11,48.69-2.89,91.62,13.32,135.67,26.14-3.82.64-7.61,1.64-11.45,1.88-37.01,2.31-73.07-2.55-108.15-14.62-2.83-.97-5.73-1.76-8.51-2.85-13.06-5.13-24.66-3.96-34.3,8.49,1.3.25,2.39.67,3.47.65,24.28-.46,47.53,4.77,70.47,12.25,21.17,6.91,42.54,13.22,63.82,19.8,1.52.47,3.01,1.02,4.57,3.09-2.32.43-4.62,1.09-6.96,1.26-34.45,2.47-67.61-3.86-100.05-14.9-10.7-3.64-21.41-7.31-31.98-11.32-10.13-3.85-19.32-4.5-26.82,5.13-1.6,2.05-3.89,3.55-6.87,6.2,2.81.38,4.58.95,6.29.8,28.76-2.55,56.24,3,83.31,12.3,18.86,6.47,38.05,11.96,57.08,17.93,1.07.34,2,1.14,5.01,2.92-5.4.44-8.54.78-11.69.94-39.07,1.88-76.93-4.34-113.89-16.87-9.12-3.09-18.45-5.6-27.75-8.12-7.18-1.94-13.69-.92-19.32,4.67-3.91,3.88-8.48,7.1-13.65,11.36,2.47.34,3.41.68,4.28.57,34.45-4.38,67.56,2.29,100.41,11.8,19.76,5.72,39.72,10.78,59.88,16.22-6.79,3.65-14.43,3.65-21.87,4.13-27.86,1.82-55.14-2.31-82.11-8.76-14.88-3.56-29.59-7.76-44.38-11.68-2.89-.77-5.78-1.56-8.66-2.38-10.6-3.04-20.29-2.95-27.93,6.78-2.58,3.28-6.17,5.78-9.98,9.26,2.03.59,2.9,1.14,3.66,1.02,34.19-5.53,67.52-1.57,100.7,7.62,23.06,6.38,46.61,10.98,69.93,16.41.86.2,1.66.69,3.57,1.5-7.95,3.55-15.54,3.85-22.98,4.31-32.49,2.03-64.47-1.62-96.13-8.84-18.48-4.21-37.07-7.95-55.59-11.99-9.23-2.01-16.97-.39-23.13,7.53-3.41,4.39-7.85,7.97-13.27,13.36,3.89-.58,5.75-.62,7.46-1.15,29.43-8.96,59.1-9.3,88.75-1.7,25.11,6.44,50.02,13.68,75.01,20.59,1.54.43,3.01,1.08,5.5,1.99-3.36,3.22-6.75,2.3-9.66,2.45-38.07,1.9-75.84-1.1-113.45-7-15.11-2.37-30.34-4.02-45.54-5.79-11.65-1.35-21.54,1.73-29.18,11.38-4.29,5.43-9.57,10.08-13.78,16.33,1.96-.55,3.99-.93,5.88-1.66,31.95-12.31,64.85-14.04,98.29-8.54,30.88,5.08,61.66,10.78,93.1,11.14.47,0,.94.58,2.09,1.33-8.9,4.82-18.26,6.68-27.52,8.67-31.62,6.82-63.51,6.03-95.46,3.04-16.91-1.58-33.81-3.25-50.73-4.6-6.29-.5-12.65-.26-18.98-.3-11.49-.07-21.49,2.85-28.77,12.73-4.11,5.57-9.2,10.43-15.11,17.01,3.59-.75,5.39-.93,7.05-1.51,36.07-12.54,72.91-14.43,110.34-7.98,31.2,5.37,62.25,5.69,93.12-2.33.81-.21,1.78.22,4.45.62-4.43,2.5-7.45,4.43-10.64,5.97-27.66,13.38-56.91,21.37-87.59,21.02-29.59-.33-59.14-3.24-88.73-4.59-10.92-.5-21.92-.06-32.85.56-2.99.17-6.6,1.87-8.65,4.05-6.79,7.25-13,15.04-18.57,24.11,3.32-.95,6.68-1.78,9.95-2.86,32.58-10.74,65.82-12.29,99.67-8,23.77,3.01,47.62,6.19,71.65,2.87,11.12-1.54,22.17-3.63,33.88-4.46-2.91,1.87-5.7,3.98-8.76,5.57-25.44,13.24-52.55,20.88-81.1,22.8-24.65,1.66-49.22-.44-73.79-2.78-16.88-1.6-33.88-2-50.82-3.01-7.6-.45-13.48,1.91-17.68,8.72-3.07,4.97-7.1,9.35-12.07,15.74,5-.77,7.65-.83,10.07-1.6,34.68-10.99,69.51-9.36,104.6-2.05,27.38,5.71,54.92,10.81,83.15,8.95,5.85-.38,11.67-1.04,18.17.22-5.88,2.72-11.61,5.87-17.68,8.08-26.67,9.75-54.33,13.67-82.5,10.64-29.09-3.12-58.01-7.87-87.03-11.69-9.88-1.3-19.84-1.95-29.77-2.91-4.38-.42-7.57,1.25-10.12,4.92-4.54,6.54-9.4,12.86-14.79,20.17,2.07.14,3.28.58,4.2.23,38.92-14.96,78.09-13.12,117.71-2.78,18.64,4.87,37.64,8.51,56.64,11.75,10.77,1.84,21.88,1.72,32.83,2.51,1.5.11,2.99.44,4.72,2.47-6.8,2.11-13.5,4.63-20.42,6.26-24.93,5.9-50.28,5.88-75.52,3.32-34.76-3.53-69.42-8.14-104.12-12.27-22.65-2.7-23.17-2.45-35.29,16.87-1.04,1.66-1.89,3.43-3.29,6,2.42-.23,4.06-.07,5.48-.56,34.08-11.72,68.45-11.85,103.32-3.65,29.45,6.92,59.11,12.94,88.67,19.41,1.52.33,2.95,1.06,5.53,2.02-17.02,4.79-33.27,5.95-49.54,6.72-26.05,1.23-51.88-1.59-77.7-4.57-24.13-2.78-48.33-5.03-72.47-7.81-7.87-.91-13.48.95-16.91,8.67-2.24,5.05-5.56,9.63-9.5,16.29,5.77-1.81,9.45-2.96,13.13-4.11,27.71-8.67,55.81-8.01,84.02-3.31,22.64,3.77,45.23,7.82,67.83,11.78,2.25.39,4.46,1.03,6.84,2.94-4.98,1.34-9.9,2.99-14.95,3.98-31.64,6.2-63.52,6.65-95.48,3.35-18.21-1.88-36.38-4.08-54.54-6.41-7.72-.99-12.92.71-16.82,8.43-13.36,26.41-27.46,52.44-41.3,78.6-.61,1.16-1.45,2.19-2.16,3.24-11.08-4.47-12.25-6.06-7.36-15.98,11.48-23.26,23-46.54,35.69-69.15,4.8-8.55,4.42-15.11.16-23.15-6.7-12.63-13.02-25.49-18.82-38.55-15.72-35.41-19.26-72.37-12.99-110.42.47-2.84,1.41-5.61,3.37-8.3,1.95,9.56,3.29,19.29,5.98,28.64,5.23,18.21,10.62,36.41,17.03,54.23,8.28,23.03,14.02,46.47,15.44,70.92.09,1.54.42,3.07.96,6.88,4.44-7.32,8.53-12.59,10.89-18.54,1.3-3.27.45-7.95-.76-11.55-3.61-10.71-7.81-21.22-11.91-31.76-9.58-24.64-16.53-49.92-17.93-76.45-1.49-28.22,1.28-55.85,12.41-82.18.65-1.53,1.34-3.04,2.08-4.53.44-.88,1-1.7,1.77-2.99.65.92,1.57,1.62,1.53,2.25-2.69,36.63,3.03,72.35,11.69,107.74,6.36,25.98,9.96,52.29,9.55,79.08-.02,1.52.23,3.05.56,7.2,5.46-8.24,9.8-14.36,13.6-20.8,1.01-1.72.89-4.54.38-6.63-1.67-6.77-3.44-13.54-5.75-20.11-12.29-34.99-18.29-70.84-14.8-107.95,2.03-21.6,5.6-42.94,14.17-63.05,3.07-7.2,7.28-13.92,10.97-20.86.66.27,1.32.53,1.98.8-1.01,6.56-2.11,13.12-3.03,19.7-3.72,26.58-2.76,53.21.46,79.69,4.1,33.73,8.43,67.39,4.86,101.88,12.07-7.08,18.47-20.42,15.91-33.31-2.53-12.72-5.86-25.29-8.33-38.02-9.32-48.04-5.79-94.73,15.4-139.44,7.16-15.11,16.49-28.72,28.67-40.7-.38.99-.67,2.03-1.15,2.97-16.8,32.83-23.29,67.8-21.11,104.41,2.1,35.3,2.77,70.52-2.91,105.6-.26,1.59-.27,3.22.98,5.62,5.15-6.71,10.61-13.21,15.27-20.25,1.65-2.49,2.01-6.34,1.79-9.48-.68-9.62-2.04-19.19-2.95-28.79-3.93-41.53-2.15-82.47,12.77-122.04,10.1-26.8,25.1-50.6,44.17-71.89,1.44-1.61,3.17-2.96,5.85-3.72-.48,1.07-.87,2.19-1.46,3.19-17.03,29.27-26.12,61.21-29.95,94.51-4.61,40.01-8.77,80.04-18.12,119.32-.14.61.08,1.3.34,4.47Z"/></g></svg>