<?xml version="1.0" encoding="UTF-8"?><svg id="Capa_2" xmlns="http://www.w3.org/2000/svg" viewBox="0 0 626.69 665.11"><g id="Capa_1-2"><path d="M35.4,175.1c25.88,9.57,48.01,25.44,70.79,40.05,22.95,14.71,45.29,30.36,68.37,45.91-.24-3.75-3.23-5.92-5.25-8.45-28.63-35.97-56.36-72.58-80.71-111.63-4.89-7.84-9.28-15.99-14.58-25.18,5.66-.3,8.23,2.52,10.71,4.66,13.37,11.51,26.7,23.08,39.77,34.93,27.17,24.65,52.09,51.49,76.23,79.07,1.51,1.73,3.03,3.46,5.39,4.69-13.29-28.94-26.83-57.77-39.78-86.86-12.89-28.96-24.93-58.27-32.42-89.39,39.46,42.98,69.53,92.2,98.94,142.44-.29-1.93-.43-3.9-.88-5.8-9.94-41.73-20.29-83.36-29.65-125.22-3.1-13.88-3.7-28.33-5.36-42.52-.25-2.18-.04-4.42-.04-7.35,8.31,7.62,17.37,24.96,39.91,79.28,11.28,27.17,21.12,54.93,32.38,84.42-5.33-61.47-9.25-120.88-3.65-180.45.07-.78.94-1.49,2.49-3.8,18.23,56.42,29.43,112.85,37.79,170.07,5.98-58.49,11.38-116.92,26.8-173.95,11.58,57.44,12.16,115.43,12.05,173.89.79-2.49,1.75-4.93,2.33-7.47,10.29-44.47,24.02-87.89,40.05-130.6,2.42-6.45,5.47-12.66,8.24-18.98.75.09,1.5.18,2.25.27.38,4.7,1.36,9.44,1.05,14.1-1.26,18.92-2.54,37.86-4.51,56.72-4.71,45.02-11.57,89.74-20.61,134.1-.25,1.21-.03,2.51-.03,6.14,2.45-4.87,4.05-7.66,5.3-10.6,20.22-47.55,43.61-93.47,70.92-137.35,4.74-7.62,9.86-15.02,14.96-22.41,1.41-2.04,3.42-3.66,6.13-4.96-14.01,66.94-37.95,130.48-62.9,193.77,19.45-24.91,38.18-50.42,58.56-74.55,20.33-24.07,41.37-47.65,65.17-68.44.64.37,1.29.73,1.93,1.1-1.15,3.25-1.97,6.68-3.51,9.73-7.19,14.26-14.35,28.54-21.94,42.59-22.51,41.65-48.53,81.09-75.92,119.66-1.72,2.42-3.22,4.99-4.78,7.53-.07.11.31.5,1.11,1.75,48.45-43.17,99.38-82.79,157.14-113.74-1.2,2.1-2.21,4.33-3.62,6.27-20.25,27.83-43.52,53.09-68.45,76.65-24.42,23.08-50.13,44.79-75.31,67.06-3.47,3.07-7.14,5.91-10.35,9.45,30.74-13.22,61.13-27.31,92.3-39.4,31.46-12.21,63.37-23.53,97.16-28.99-22.96,19.92-48.66,35.64-75.05,50.09-26.49,14.51-53.71,27.67-80.6,41.89,53.93-11.19,108.33-17.9,165-17.83-3.37,5.29-7.76,6.2-11.44,7.76-35.27,15-71.54,27.06-108.75,36.21-19.31,4.75-38.81,8.7-58.29,13.56,51.3,3,102.08,9.16,151.81,24.51-1.99.69-3.94,1.76-5.98,2.02-43.76,5.58-87.64,6.02-131.6,2.75-3.32-.25-6.64-.49-9.97-.65-1.98-.09-3.96-.02-6.23.86,21.09,7.88,42.44,15.12,63.18,23.82,20.69,8.68,40.92,18.53,60,30.83-9.69,2.79-19.13.9-28.37-.35-42.98-5.83-84.92-16.15-125.89-30.39-3.59-1.25-7.28-2.18-11.47-2.29,31.04,24.33,60.78,49.6,84.4,81.5-31.2-12.01-59.2-29.56-86.58-48.24-27.19-18.54-52.8-39.03-77.88-64.26,0,6.32-.07,10.15.01,13.99,1.54,69.5,10.84,137.92,28.51,205.18,1.52,5.79,3.05,11.58,4.41,17.41,2.07,8.87,1.14,10.42-7.51,12.83-1.53.43-3.2.34-6.08.61-20.68-81.66-30.55-164.43-31.37-250.23-48.09,43.55-100.15,76.98-157.33,102.43-5.06,2.25-10.39,3.88-16.12,4.92,27.22-32.97,61.34-57.55,96.15-81.84-54.97,18.18-111.09,29.78-169.54,32.51,2.92-1.77,5.76-3.7,8.78-5.27,32.56-16.99,66.82-29.71,101.93-40.27,7.5-2.26,15.03-4.44,22.44-7.41-58.58,1.19-117.09,3.42-174.93-9.78,26.25-8.51,53.36-12.22,80.6-14.96,27.32-2.75,54.71-4.85,82.77-7.29-64.22-16.13-127.05-35.1-186.37-63.96.06-.73.11-1.46.17-2.19,2.28-.19,4.61-.8,6.82-.51,27.36,3.66,54.9,6.42,82,11.49,29.7,5.57,59,13.31,88.48,20.09,1.25.29,2.55.39,5.08.76-30.88-16.82-60.85-32.61-90.28-49.33-29.46-16.74-57.95-35.05-83.55-57.78,29.06,5.48,56.11,16.84,83.27,27.61,27.41,10.87,54.4,22.82,81.92,34-49.92-40.39-97.62-83.11-138.49-133.01Z"/></g></svg>