<?xml version="1.0" encoding="UTF-8"?><svg id="Capa_2" xmlns="http://www.w3.org/2000/svg" viewBox="0 0 202.9 167.52"><g id="Capa_1-2"><path d="M184.96,0c.79.32,1.58.66,2.38.97,4.39,1.71,8.82,3.31,13.15,5.15,2.56,1.09,2.49,1.26,2.16,4.5-3.39-.04-6.69-1-10.17-1.14,2.3,1.49,4.6,2.97,6.96,4.5,1-.55,1.96-1.08,3.17-1.74.21,1.45.68,2.76-.29,3.89-.56.65-.25,1.13-.15,1.74.26,1.65.63,3.3.64,4.96.05,13.84.03,27.68.03,41.51,0,2.79,0,5.59,0,8.38,0,1.54.41,3.23-1.9,4.2.9.21,1.32.3,1.82.41v5.81c-1.29.58-2.55,1.15-3.81,1.71.06.18.13.35.19.53,1.14-.32,2.28-.64,3.58-1.01v6.17c-3.36,1.45-6.79,2.95-10.22,4.42-4.07,1.74-8.34,2.94-12.49,4.45-.78.29-1.46.85-2.2,1.27-.21.12-.52.28-.71.21-1.47-.51-2.68.36-3.79.96-.64.34-.81,1.55-1.3,2.61-.3-.68-.54-1.21-.86-1.93-2.17.84-4.29,1.66-6.41,2.48-.06-.12-.12-.23-.19-.35,2.12-1.5,4.24-3.01,6.61-4.68-.47-3.04-.95-6.18-1.44-9.33-.67-.18-1.19-.33-1.91-.53.57-.39,1.01-.7,1.66-1.14-.82-4.52-1.69-9.15-2.5-13.78-1.33-7.64-2.99-15.23-3.21-23.02-.07-2.32.05-4.64.07-6.96,0-.61,0-1.21,0-2.29-1.76,1.33-3.18,2.42-4.69,3.56.44,1.31.86,2.51,1.25,3.71,1.7,5.29,2.62,10.71,2.78,16.26.21,7.59.57,15.19.6,22.78.03,6.32-.58,12.62-1.83,18.83-.15.76-.4,1.5-.96,2.21-.28-2.37-.52-4.75-.85-7.11-1.06-7.6-2.27-15.18-3.2-22.8-.72-5.87-1.42-11.76-1.58-17.66-.11-4.12.69-8.26,1.09-12.39.05-.47.12-.93.27-1.97-1.8,1.39-3.22,2.47-4.62,3.57-.83.65-.36,1.51-.21,2.23,1.25,6.15,1.69,12.37,1.57,18.62-.16,7.91-.48,15.83-.96,23.73-.34,5.58-1.03,11.14-1.6,16.71-.11,1.1-.39,2.19-.98,3.31-.27-1.79-.56-3.58-.79-5.37-.91-7.06-1.76-14.12-2.69-21.17-1.53-11.63-1.35-23.13,2.39-34.4.07-.21,0-.46,0-1.14-1.92,1.58-3.68,2.89-5.23,4.41-.42.41-.38,1.51-.25,2.24,1.15,6.75,1.13,13.54.69,20.34-.39,5.98-.89,11.96-1.43,17.94-.59,6.49-.14,12.94.45,19.4.06.63.09,1.27.18,2.52-.54-.87-.85-1.24-1.02-1.67-2.41-5.88-3.78-12.04-4.7-18.3-1.21-8.27-1.59-16.58-.5-24.87.56-4.26,1.76-8.43,2.69-12.63.13-.61.38-1.19.26-2.06-1.52,1.31-3.13,2.53-4.52,3.97-.43.45-.37,1.47-.34,2.23.12,3.43.6,6.88.41,10.29-.35,6.38-1.08,12.74-1.64,19.1-.78,8.92-2.1,17.8-1.68,26.79.08,1.73.19,3.47.11,5.22-3.92-9.71-4.55-19.99-4.87-30.27-.32-10.3,1-20.4,4.36-30.36-1.17,1.01-2.4,1.95-3.47,3.06-.38.39-.48,1.16-.5,1.76-.3,11.95-2.15,23.73-4.12,35.48-1.44,8.57-1.17,17.03.57,25.5.08.39.09.78.13,1.18,0,.05-.07.11-.27.41-.73-1.62-1.41-3.11-2.08-4.6l-.3.1c.58,3.61,1.15,7.21,1.75,10.96-3.01-3.7-8.2-22.79-9.97-35.42-.28,4.27-.67,8.54-.8,12.82-.14,4.39-.17,8.8.01,13.19.18,4.38.68,8.75.89,13.16-3.88-9.44-5.67-19.35-6.36-29.48-.7-10.2,1.06-20.04,4.68-29.6-.14-.09-.28-.17-.41-.26-1.35,1.4-2.73,2.76-4.01,4.22-.32.36-.36,1.03-.38,1.57-.33,9.99-.69,19.98-.93,29.98-.2,8.42.6,16.78,1.82,25.1.27,1.85.43,3.72.27,5.66-.25-.56-.54-1.1-.75-1.67-3.66-9.87-6.07-20.05-6.86-30.55-.6-8.05.45-15.96,2.97-23.65.27-.82.51-1.66.8-2.59-2.35,1.28-3.27,2.84-3.48,5.11-.77,8.28-1.5,16.56-2.46,24.82-1.25,10.72-2.97,21.39-3.14,32.35-.2-.42-.49-.81-.59-1.25-1.78-7.2-2.24-14.53-2.05-21.91.09-3.51.31-7.01.14-10.6-1.45,5.95-2.85,11.92-4.35,17.86-1.5,5.94-3.13,11.85-5.92,17.59-.74-3.86,2.67-25.26,6.13-40.04-2.24,2.98-4.17,6.16-6.09,9.35-2.02,3.36-4.03,6.72-6.02,10.1-1.94,3.3-3.83,6.62-5.89,10.18-.43-4.08,3.04-13.51,8.52-23.76,3.97-7.43,8.72-14.26,14.91-20.07-6.48,4.63-12.59,9.69-18.47,15.01-5.93,5.36-11.16,11.39-16.43,17.5.28-.71.51-1.44.86-2.12,5.47-10.86,12.8-20.25,22.26-27.92,4.58-3.71,9.89-6.17,15.27-8.46,1.62-.69,2.85-1.67,3.98-3.73-16.36,7.76-32.33,15.09-45.7,27.04.28-.43.52-.88.83-1.29,7.35-9.39,16.29-16.87,26.83-22.47,6.07-3.23,12.57-5.12,19.28-6.3,2.01-.35,3.3-1.3,4.43-3.21-.7.19-1.16.28-1.59.42-8.62,2.94-17.25,5.85-25.85,8.83-6.97,2.42-13.52,5.75-19.89,9.46-1.22.71-2.46,1.38-3.97,1.71.38-.42.72-.88,1.14-1.25,8.46-7.67,18.23-13.15,28.82-17.31,6.79-2.66,13.8-4.03,21.04-4.19,2.1-.04,3.68-.63,5-2.2.55-.66,1.21-1.23,1.63-2.17-1.52.44-3.04.86-4.55,1.32-8.51,2.56-17.21,4.26-25.97,5.7-8.3,1.36-16.41,3.49-24.39,6.11-.76.25-1.52.48-2.29.69-.14.04-.31-.03-.8-.09.73-.5,1.25-.9,1.8-1.23,9.5-5.64,19.8-9.24,30.42-12.09,8.64-2.32,17.36-3.64,26.32-2.78,1.71.16,3.12-.23,4.25-1.62.54-.67,1.27-1.18,1.74-2.16-.95.16-1.9.3-2.84.48-10.07,1.89-20.2,3.29-30.47,3.27-9.15-.03-18.21.71-27.13,2.79-.3.07-.62.05-1.1-.21.47-.27.92-.58,1.41-.8,10.31-4.6,21.15-7.2,32.33-8.51,9.59-1.13,19.16-.76,28.69.64,1.22.18,2.13.03,3.02-.86,1.24-1.24,2.61-2.34,3.93-3.51.05-.04.04-.14.15-.53-1.77.19-3.45.35-5.11.55-12.35,1.53-24.71,1.69-37.1.58-7.81-.7-15.62-1.15-23.44.13-1.56.25-2.22.87-2.53,2.29-.38,1.76-.89,3.5-1.52,5.21-.17-4.65.13-9.24,1.09-13.79,2.18-10.34,7.07-19.33,13.71-27.41,4.72-5.74,9.58-11.38,14.38-17.06.25-.3.5-.59,1.04-1.21-.58.21-.8.24-.94.35-5.96,5.09-11.83,10.29-17.88,15.26-6.68,5.49-11.91,12.02-15.37,19.95-1.37,3.15-2.71,6.32-4.08,9.47-.25.57-.53,1.12-.84,1.77-.17-.25-.31-.38-.3-.47,1.12-6.05,2.11-12.13,4.35-17.91,2.64-6.81,6.56-12.78,11.51-18.11,2-2.15,3.96-4.35,5.72-6.79-.49.33-1.02.61-1.46.99-7.09,6.1-14.2,12.19-21.24,18.35-3.81,3.34-6.87,7.35-9.77,11.57.13-.52.17-1.07.41-1.54,1.75-3.5,3.37-7.08,5.36-10.44,4.99-8.42,11.13-16.03,17.38-23.51,2.65-3.17,5.97-5.77,8.99-8.62.45-.42.91-.83,1.68-1.54-2.44.11-4.16.46-5.71,2.08-2.77,2.87-5.86,5.43-8.77,8.17-6.17,5.81-12.4,11.57-18.41,17.53-4.04,4.01-7.48,8.54-9.93,13.74-.1.21-.3.36-.76.92.22-.99.31-1.57.49-2.11,1.4-4.2,3.41-8.1,5.75-11.84,4.34-6.94,9.36-13.36,15.08-19.22.41-.42.76-.89.9-1.59-.32.18-.66.32-.94.55-9.24,7.53-18.4,15.18-26.15,24.3-3.35,3.94-6.1,8.37-9.09,12.55.07-.35.12-.91.28-1.43,1.49-4.94,3.83-9.48,6.62-13.8,3.71-5.74,8.06-10.94,13.08-15.58.52-.49,1.09-.93,1.48-1.62-6.2,2.52-11.91,5.93-17.88,8.83-6.02,2.93-11.95,6.04-18.17,8.77,3.53-2.97,7.07-5.93,10.6-8.9-3.12.67-5.89,2.14-8.84,3.27.19-.22.34-.49.57-.66,8.05-6.11,16.37-11.79,26.01-15.15,2.99-1.04,6.17-1.6,9.3-2.18,2.57-.48,5.18-.77,7.62-2.04-.39,0-.78-.04-1.16,0-6.42.81-12.84,1.69-19.26,2.45-7.15.85-14.19,2.26-21.24,4.11.38-.29.72-.64,1.13-.87,8.91-5.07,18.42-8.15,28.71-8.34,5.67-.1,11.34.18,17.01.23,1.34.01,2.68-.21,4.02-.32.02-.16.03-.32.05-.49-1.14-.23-2.27-.52-3.41-.7-9.17-1.4-18.32-2.87-27.51-4.11-3.87-.52-7.81-.55-11.71-.81-.59-.04-1.17-.09-1.78-.55,2.81-.48,5.62-.95,8.42-1.45C19.32.39,20.08.18,20.86,0c4.48,0,8.96,0,13.44,0,.37.12.74.32,1.12.36,4.79.54,9.41,1.74,13.92,3.42,2.77,1.03,5.54,2.04,8.31,3.05,1.74.64,3.65.4,5.62-.74-.64-.17-1.15-.35-1.68-.44-5.46-.88-10.72-2.49-15.86-4.5C44.92.85,44.18.39,43.41,0,48.37,0,53.32,0,58.28,0c.15.18.26.42.44.52,2.76,1.43,5.53,2.85,8.31,4.26.42.21.9.49,1.33.45,2.36-.22,4.71-.54,7.06-.82-.86-.65-1.77-.78-2.64-1.06C69.38,2.26,65.99,1.12,62.6,0c4,0,8,0,12,0,1.6,1.14,3.19,2.29,4.82,3.39.3.2.77.27,1.15.22,1.94-.23,3.88-.51,6.19-.82C84.52,1.74,82.68.87,80.83,0c2.24,0,4.48,0,6.72,0,1.11.81,2.17,2.18,3.36,2.31,1.97.22,4.02-.36,6.4-.65-.92-.73-1.5-1.2-2.09-1.66,1.44,0,2.88,0,4.32,0,.4,1.01,1.13,1.43,2.21,1.35,1.8-.14,3.61-.28,5.41-.36.7-.03.97-.35,1.01-.99h3.36c.46,1.03,1.36.56,2.07.55,2.93-.03,5.87-.11,8.8-.22,1.18-.04,2.35-.22,3.52-.33,19.67,0,39.35,0,59.02,0ZM70.94,58.12c1.14-.13,1.92-.21,2.69-.31,6.75-.78,13.47-1.78,20.24-2.3,7.5-.58,15.02-.5,22.49.59,6.42.94,12.72,2.36,18.88,4.39.7.23,1.69.44,2.24.12,1.18-.68,2.16-1.7,3.54-2.85-.82-.11-1.12-.19-1.41-.19-7.47-.09-14.82-1.11-22.06-2.87-7.69-1.87-15.37-3.74-23.03-5.71-1.88-.49-3.17-.2-4.22,1.51-.83,1.34-1.9,2.53-2.87,3.79-.14-.1-.28-.2-.42-.3.9-1.92,1.79-3.83,2.78-5.94-3.37-.74-6.55-1.48-9.76-2.11-.51-.1-1.3.16-1.65.54-3.08,3.29-5.57,6.97-7.44,11.62ZM134.86,63.02c-.57-.04-.87-.1-1.16-.07-9.36.97-18.67.03-27.98-.87-10.65-1.03-21.3-2.16-32.01-2.41-1.11-.03-2.21,0-3.44,0-.84,2.06-1.65,4.05-2.47,6.04-.13-.05-.27-.09-.4-.14.44-1.91.88-3.82,1.33-5.77-.66-.18-1.16-.31-1.79-.48,1.08-.81,2.47-.68,3.04-2.25,1.05-2.92,2.51-5.69,3.79-8.53.33-.72.6-1.47.89-2.21-6.3,6.74-10.86,14.4-13.91,23.33.81-.2,1.32-.32,1.83-.45,3.09-.78,6.14-1.85,9.28-2.3,7.9-1.13,15.82-2.23,23.77-2.88,10.3-.84,20.66-.65,30.72,1.9,3.49.89,5.79.22,7.97-2.22.1-.12.19-.25.52-.7ZM174.7,31.31c2.15-1.51,4.25-2.98,6.36-4.46-1.66-.63-3.14-.83-4.63-.94-6.31-.45-12.48-1.52-18.45-3.65-1.05-.37-2.1-.77-3.18-1.01-.46-.1-1.21-.02-1.47.28-.69.8-1.65,1.48-1.84,2.77,8.03,1.47,15.87,3.22,23.22,7.01ZM173.23,35.86c4.96,10.97,6.02,22.53,7.05,34.34,1.24-.5,2.25-.91,3.33-1.35-1.35-6.08-2.65-11.98-3.98-17.88-1.35-5.97-1.79-12.03-1.51-18.6-1.82,1.3-3.23,2.3-4.88,3.48ZM158.27,14.63c4.47,1.38,8.88,2.49,13.09,4.1,4.29,1.64,8.39,3.78,12.74,5.77,1.68-1.13,3.51-2.36,5.6-3.75-5.37-1.1-10.48-1.87-15.43-3.23-4.96-1.36-9.77-3.3-14.76-5.03-.41.71-.8,1.38-1.24,2.14ZM157.86,44.28c-1.22-.09-1.83-.13-2.43-.18-2.69-.25-5.41-.37-8.08-.78-4.17-.64-8.31-1.45-12.45-2.24-1.07-.2-2.03-.4-2.55,1.02,6.19,1.55,12.08,3.72,17.69,6.63.54.28,1.52.35,1.97.04,1.87-1.28,3.61-2.74,5.85-4.48ZM143.15,56.07c2-1.62,3.82-3.1,5.63-4.57-.06-.16-.13-.32-.19-.48-.68,0-1.37.03-2.05,0-2.62-.14-5.27-.12-7.86-.5-4.33-.63-8.62-1.53-12.93-2.29-.86-.15-1.74-.22-2.61-.32-.05.24-.11.48-.16.72,6.99,1.61,13.65,4.05,20.17,7.44ZM109.82,26.68c-1.74-.57-3.04-.95-4.3-1.44-.92-.36-1.65-.23-2.44.35-2.7,1.98-5.44,3.9-8.16,5.87-.33.24-.55.62-.98,1.12,3.4-.28,6.49-.52,9.58-.8.45-.04.98-.17,1.31-.46,1.59-1.42,3.13-2.9,4.98-4.64ZM127.42,12.31c-2.18-1.47-4-1.6-6.09.15-2.99,2.5-6.27,4.66-9.41,6.98-.4.29-.72.69-1.42,1.39,1.52,0,2.55-.09,3.57.02,1.61.18,2.88-.33,4.14-1.34,2.66-2.16,5.45-4.16,8.17-6.24.36-.27.67-.61,1.04-.95ZM163.49,6.19c9.7,3.74,19.7,6.72,28.31,12.84,1.83-1.17,3.47-2.21,5.11-3.25-11.65-1.99-22.49-5.87-33.41-9.59ZM101.15,34.8c-2.27-.29-4.22-.55-6.16-.79-1.57-.19-3.14-.56-4.49.81-1.12,1.14-2.65,1.87-4.02,3.55,3.17,0,5.81-.24,8.39.06,2.96.35,4.47-1.33,6.27-3.63ZM80.88,43.51c.1.16.19.33.29.49,2.92.08,5.87-.03,8.76.31,2.36.27,3.46-.84,4.51-2.86-2.98-.63-5.75-1.26-8.55-1.77-.53-.1-1.29.11-1.69.47-1.17,1.04-2.22,2.23-3.32,3.36ZM108.79,12.85c2.88-1.68,6.08-2.79,8.43-5.23.2-.21.52-.34.81-.44,1.49-.52,2.99-.99,4.47-1.53,2.21-.81,4.41-1.66,6.61-2.49-2.95-.4-5.85-.44-8.75-.37-.47.01-.98.48-1.38.83-2.6,2.24-5.18,4.5-7.74,6.78-.86.77-1.63,1.62-2.44,2.44ZM178.95,95.82c3.37-1.79,6.22-3.3,9.1-4.83-.12-1.05-.22-1.88-.35-2.92-2.79.46-5.34.88-7.9,1.31-.28,2.13-.53,4-.86,6.44ZM126.94,8.34c1.65.26,2.63.44,3.63.55.62.07,1.39.25,1.86-.02,2.36-1.36,4.64-2.86,7.3-4.53-1.5-.61-2.57-1.14-3.69-1.48-.56-.17-1.38-.21-1.81.08-2.32,1.61-4.56,3.35-7.29,5.39ZM85.1,5.18c-.03-.12-.07-.24-.1-.36-2.1.24-4.21.43-6.29.75-.49.08-.97.53-1.37.9-1,.92-1.96,1.88-2.9,2.86-1.97,2.04-3.92,4.11-5.88,6.17l.21.22c5.44-3.51,10.89-7.02,16.33-10.54ZM172.31,33.12c-5.65-.28-10.83-.53-16.02-.79,3.16,1.62,6.35,3.03,9.57,4.37.44.18,1.16.18,1.53-.07,1.57-1.02,3.07-2.17,4.92-3.51ZM147.28,37.13c4.37,1.9,8.38,3.64,12.59,5.47,1.38-1.06,2.84-2.19,4.57-3.52-5.88-.67-11.31-1.28-17.16-1.95ZM192.01,38.25c.08.04.16.08.24.13v-15.65c-1.31.85-2.61,1.69-3.73,2.42,1.21,4.55,2.35,8.83,3.49,13.11ZM127.65,21.54c1.56.19,2.64.39,3.73.42.49.01,1.14-.18,1.46-.52,1.68-1.76,3.28-3.6,5.1-5.61-1.1-.41-1.97-.73-2.91-1.07-2.4,2.21-4.71,4.34-7.38,6.79ZM104.75,38.45c3.37.3,6.46.51,9.54.88,1.57.19,2.62-.29,3.42-1.95-2.36-.36-4.67-.54-6.88-1.11-2.39-.61-4.19.06-6.07,2.18ZM180.22,71.12c.11,2.41.2,4.51.31,7.01,1.84-.71,3.39-1.32,4.99-1.93-.48-1.91-.88-3.51-1.32-5.28-1.29.07-2.45.13-3.97.2ZM106.24,3.68c-.02-.12-.05-.25-.07-.37-1.11.05-2.22.19-3.32.14-1.5-.07-2.55.52-3.46,1.69-1.66,2.14-3.43,4.2-5.14,6.3-.29.36-.5.79-.77,1.22,4.34-3.05,8.55-6.02,12.76-8.98ZM110.55,45.25c-.05-.22-.1-.43-.16-.65-3.19-.65-6.42-1.16-9.57-1.99-2.11-.56-3.25.4-4.61,2.01,4.37.5,8.46,1.01,12.56,1.4.56.05,1.18-.5,1.77-.77ZM184.16,39.14c.1.02.2.03.3.05.28-3.78.56-7.57.86-11.74-1.69,1.13-3.16,2.11-4.66,3.11,1.22,3,2.36,5.79,3.5,8.57ZM180.17,85.61c2.55-.99,4.65-1.81,6.89-2.67-.28-1.06-.49-1.87-.72-2.76-2.06.22-3.91.43-5.93.65-.08,1.56-.15,2.96-.24,4.79ZM173.83,89.89c-.13,1.65-.26,3.06-.36,4.47-.11,1.37-.2,2.75-.3,4.21q3.61-1.37,3.37-4.76c-.08-1.11-.15-2.21-.25-3.32-.02-.22-.18-.42-.3-.7-.62.03-1.24.06-2.15.1ZM170.67,37.73c-1.68,1.37-2.95,2.4-4.2,3.42,1.17,2.9,2.25,5.58,3.53,8.73.23-4.25.44-7.94.67-12.14ZM120.07,87.7c.1,0,.21.02.31.03,1.47-4.22,2.95-8.44,4.42-12.66-1.59,1.03-2.95,2.24-4.23,3.52-.3.3-.48.84-.49,1.28-.04,2.61-.02,5.22-.02,7.83ZM139.79,10.18c3.3,1.23,4.77.66,7.45-2.78-1.39-.59-2.75-1.16-4.17-1.76-1.15,1.6-2.2,3.05-3.27,4.54ZM83.04,12.05c2.43-1.54,4.38-2.79,6.35-4.01,2-1.23,4.02-2.42,6.03-3.63-1.45-.3-2.72-.27-3.97-.08-.59.09-1.26.37-1.67.78-2.15,2.13-4.23,4.33-6.74,6.93ZM197.8,28.05c.41-3.49.75-6.39,1.14-9.76-1.58,1.04-2.78,1.84-3.99,2.63.95,2.38,1.8,4.5,2.85,7.13ZM123.91,31.12c-1.48-.51-2.7-.95-3.95-1.35-2.61-.84-3.14-.65-4.87,1.69,5.02.63,7.32.6,8.81-.34ZM117.17,82.02c-3.19,2.09-4.02,5.24-2.48,9.29.83-3.12,1.64-6.15,2.48-9.29ZM197.73,68.12c-1.17.27-1.99.47-2.87.67v3.75c1.14-.46,2.05-.82,3.09-1.24-.07-1.01-.14-1.92-.23-3.18ZM154.46,10.38c-1.05-.45-1.88-.81-2.87-1.23-.68,1.11-1.3,2.14-1.92,3.16,2.25,1.33,2.52.74,4.79-1.93ZM107.77,6.63c2.41-1.23,4.48-2.28,6.8-3.46-3.38-.87-5.36.36-6.8,3.46ZM146.56,18.9c-.72-.26-1.15-.42-1.68-.61-1.2,1.43-2.38,2.83-3.64,4.32,1.36.56,2.14.41,2.81-.54.72-1.03,1.56-1.98,2.51-3.17ZM174.05,81.39v5.95c1.65.11,2.06-.7,1.8-1.92-.29-1.33.43-3.14-1.8-4.03ZM173.53,70.36c-.14.02-.27.04-.41.06.2,3,.4,5.99.63,8.99.01.19.28.35.5.63.24-.23.65-.46.63-.62-.42-3.02-.89-6.04-1.35-9.05ZM113.31,46.23c2.46,1.21,6.44,1.76,7.8,1.17-2.57-.66-5-2.11-7.8-1.17ZM122.2,40.28c2.15.04,4.05,1.53,6.22-.38-2.22-.59-4.05-2.03-6.22.38ZM194.01,57.5c.72-.61,1.34-.94,1.3-1.14-.37-1.97-.85-3.92-1.29-5.87-.22.04-.43.08-.65.12.2,2.14.39,4.28.63,6.89ZM194.39,61.39c.08.99.16,1.81.25,2.88.93-.41,1.6-.7,2.23-.98q-.54-2.07-2.48-1.9ZM194.8,79.67c3.06-.54,3.44-.8,3.3-2.31-3.38.59-3.39.59-3.3,2.31ZM112.69,23.87c.01-.17.02-.33.03-.5-3.41-1.22-4.3-1.25-5.73,0,2.02.18,3.86.33,5.7.49ZM198.09,85.45c-3.09.14-3.89.6-4,2.4,1.36-.76,3.03-.81,4-2.4ZM58.22,9.55c-1.84,0-3.39.36-4.11,2.59,1.61-1.01,2.86-1.8,4.11-2.59ZM98.01,102.65c-1.58,1.42-1.9,2.65-1.52,4.83.25-.89.44-1.66.68-2.41.26-.81.56-1.61.84-2.42ZM192.02,87.05q-1.93.64-1.51,2.58c1.13-.43,2.32-.78,1.51-2.58ZM159.85,5.29c.05-.23.1-.45.14-.68-1.16-.19-2.32-.39-3.48-.58-.03.14-.06.27-.1.41,1.14.28,2.29.57,3.43.85ZM190.4,81.32q1.02-1.08,0-2.07v2.07Z"/><path d="M164.35,136.61c7.82-9.53,17.33-17.14,26.56-25.1-8.77,4.17-17.45,8.47-25.97,13.96,3.49-5.18,30.17-23.79,37.86-26.51,0,3.25.09,6.41-.07,9.56-.04.7-.83,1.51-1.48,2-3.95,2.98-7.92,5.94-11.97,8.8-8.09,5.72-16.23,11.36-24.35,17.03-.17.12-.39.18-.59.26Z"/><path d="M202.83,110.71c0,1.33-.07,2.37.02,3.39.12,1.32-.42,2.26-1.35,3.14-4.88,4.6-9.73,9.24-14.58,13.88-4.85,4.64-9.68,9.29-14.52,13.93-.21.2-.45.36-.81.64,2.28-7.52,22.36-30.04,31.25-34.98Z"/><path d="M202.82,91.77c0,1.93-.03,3.43,0,4.92.02.86-.46,1.3-1.12,1.67-1.6.89-3.15,1.9-4.8,2.69-9.49,4.56-19.01,9.08-28.52,13.6-.41.19-.85.33-1.38.28,10.95-9.03,22.8-16.63,35.83-23.16Z"/><path d="M180.87,152.51c4.14-13.46,11.83-24.6,21.55-34.52.42,2.99.88,5.75-1.36,8.45-5.6,6.75-10.94,13.72-16.34,20.63-1.37,1.75-2.57,3.62-3.85,5.43Z"/><path d="M195.73,167.52c-1.75-13.92.84-27.11,6.87-39.81.08.48.21.96.22,1.44.02,3.28.06,6.56-.01,9.83-.03,1.34-.18,2.72-.52,4.02-2.15,8.18-4.36,16.34-6.55,24.51Z"/></g></svg>