<?xml version="1.0" encoding="UTF-8"?><svg id="Capa_2" xmlns="http://www.w3.org/2000/svg" viewBox="0 0 546.22 550.41"><g id="Capa_1-2"><path d="M506.99,94.67c13.17-2.91,26.16-6.65,39.23-10.01-57.34-6.98-111.77,2.57-163.52,27.99-.21-.69-.42-1.37-.63-2.06,41.67-25.5,83.34-51,125.01-76.5-.34-.72-.68-1.43-1.03-2.15-17.33,6.56-34.95,12.46-51.93,19.83-39.58,17.18-74.03,41.93-103.85,73.06-6.73,7.03-14.28,12.41-23.9,14.73,46.08-42.26,92.05-84.58,141.73-123.55-1.8.64-3.64,1.2-5.4,1.94-43.21,18.22-81.6,43.74-113.56,78.03-14.24,15.28-26.54,32.42-39.21,49.1-7.32,9.63-17.02,15.55-27.09,21.24,14.28-19.04,28.93-37.55,43.72-55.95,14.81-18.42,29.33-37.09,44.77-54.97,15.17-17.57,31.32-34.27,47.78-52.16-1.76.21-2.12.15-2.37.3-52.33,30.82-95.56,70.92-125.7,124.13-6.55,11.56-12.96,23.37-17.72,35.73-6.29,16.33-19.57,25.19-32.96,34.46C280.58,129.86,317.02,59.46,370.38,0c-3.21,1.02-5.73,2.53-8.13,4.23-32.62,23.17-60.54,51.09-83.3,83.95-22.43,32.38-37.45,68.33-46.37,106.46-3.9,16.68-16.51,24.16-27,34.45-.41-1.73-.2-3.01.26-4.2,16.25-41.85,32.36-83.76,48.84-125.51,12.46-31.57,25.41-62.95,43.92-91.65.39-.6.05-1.68.05-2.97-1.29.94-2.2,1.42-2.87,2.13-33.06,34.95-59.32,74.3-76.81,119.25-13.25,34.07-19.71,69.67-23.74,105.83-.46,4.12-1.57,8.7-3.93,11.95-4.62,6.39-10.33,12-15.59,17.93-.54-3.29.13-6.05.85-8.8,10.03-38.62,20.17-77.22,30.07-115.88,7.91-30.92,15.32-61.97,23.39-92.85,2.73-10.44,6.83-20.52,10.55-31.48-1.52.8-2.27.97-2.63,1.44-1.24,1.56-2.41,3.19-3.48,4.87-25.77,40.77-46.4,83.81-57.18,131.08-8.47,37.14-12.61,74.77-11.86,112.9.07,3.59.53,7.97-1.23,10.64-5.77,8.78-12.48,16.95-19.87,26.73,0-3.06-.09-4.03.01-4.98,4.41-41.34,8.93-82.68,13.23-124.03,3.41-32.76,6.34-65.56,9.93-98.3,1.33-12.15,3.91-24.16,5.92-36.23-2.16,1.12-3.36,2.61-4.08,4.3-23.54,55.29-38.62,112.54-40.07,172.95-.72,30.06,2.54,59.81,6.77,89.49.37,2.58,1.14,5.76.05,7.76-4.02,7.37-8.73,14.35-13.19,21.48-.66-.25-1.31-.5-1.97-.75,1.87-85.33-10.69-170.1-8.88-255.55-1.46,1.65-2.37,3.34-2.76,5.15-4.43,20.47-9.38,40.85-13.02,61.47-6.52,36.97-6.7,74.09-1.45,111.33,3.82,27.1,10.43,53.5,17.77,79.78,3.31,11.84-.71,23.32-10.15,31.42-3.25-20.63-6.05-41.73-9.97-62.62-6.23-33.21-18.46-64.51-31.8-95.41-2.05-4.75-3.97-10.24-3.63-15.23,1.43-21.22,3.74-42.38,5.68-63.56.17-1.9.02-3.82.02-5.74-.6-.12-1.2-.24-1.8-.36-4.95,16.25-9.91,32.5-15.34,50.33-5.28-10.47-9.88-19.57-14.47-28.68-1.35,3.31-1.3,5.96-.78,8.52,3.03,14.99,6.28,29.93,9.21,44.94.75,3.83,1.31,7.91.81,11.73-4.02,30.63-2.96,61.1,2.18,91.48,5.76,34.05,16.12,66.48,33.64,96.51.98,1.68,1.82,3.23,2.53,4.69,4.94,10.18,3.16,15.5-5.37,25.93,0,0,0,0,0,0,0,0,0,0,0,0-.41-.51-1.01-.95-1.19-1.53-11.88-38.88-27.8-76.21-43.24-113.73-10.77-26.17-20.69-52.63-26.26-80.51-.44-2.21-1.35-4.33-2.03-6.5-2.52,38.59,2.68,75.94,13.55,112.58,11.09,37.38,31.77,69.21,57.5,97.43-14.08,36.77-25.92,72.95-35.05,110.62,4.29,1.46,7.52,2.55,11.06,3.75.93-3.19,1.47-5.1,2.04-6.99,9.57-31.14,18.82-62.38,28.86-93.37,4.31-13.3,2.69-11.46,16.6-12.28,27.24-1.61,54.53-2.91,81.65-5.74,28.9-3.02,56.95-10.22,83.63-22.06,2.13-.94,4.07-2.31,6.1-3.47-7.1-.04-13.63,1.39-20.21,1.71-20.28.99-40.57,1.75-60.86,2.23-33.3.79-65.55,6.17-95.87,20.68-.75.36-1.75.2-3.76.39,2.43-5.85,4.8-10.87,6.6-16.09,1.62-4.69,4.6-6.81,9.41-7.57,14.46-2.27,28.81-5.26,43.3-7.25,54.74-7.54,107.09-23.57,158.26-43.9,2.14-.85,4.07-2.2,6.1-3.31-3.23-1.17-5.86-1.08-8.48-.77-26.77,3.15-53.55,6.29-80.31,9.53-40.02,4.85-78.37,15.04-113.4,35.74-2.18,1.29-4.5,2.36-9.04,4.73,3.56-7.68,6.41-13.16,8.66-18.87,1.92-4.87,5.41-7.29,10.21-8.5,9.03-2.27,17.96-5,27.06-6.92,50.83-10.68,99.38-27.94,144.48-53.5,14.67-8.32,27.5-10.61,42.91-5.25,11.39,3.97,23.21,6.7,34.84,9.98.27-.59.54-1.18.8-1.77-14.78-7.67-29.57-15.34-44.64-23.16,6.06-5.01,11.84-9.78,17.61-14.55-7.08,1.38-13.35,3.64-19.14,6.77-7.48,4.04-14.71,4.24-22.96,2.24-39.91-9.67-78.69-5.94-115.85,11.74-13.1,6.24-25.78,13.38-40.4,21.02,5.29-8.02,10.28-14.53,14.11-21.66,6.41-11.93,16.51-17.65,29.37-19.55.66-.1,1.32-.18,1.97-.32,27.77-5.79,55.92-8.43,84.15-10.54,33.63-2.51,67.19-2.74,100.66,2.08,3.62.52,7.28.8,10.92,1.23,3.21.38,6.41.83,9.61,1.25.15-.87.3-1.75.46-2.62-17.08-5.3-34.01-11.15-51.27-15.8-56.44-15.21-110.75-10.67-162.11,18.74-1.01.58-2.12.96-3.19,1.43,4.26-7.95,9.82-14.4,14.99-21.14,3.9-5.09,8.83-7.9,15.11-8.6,18.84-2.11,37.63-4.92,56.52-6.24,53.13-3.71,106.22-8.82,159.59-7.49,1.84.05,3.69-.23,5.53-.36-74.18-20.44-147.82-24.81-220.56,7.86.41-1.79.35-2.58.71-2.95,23.43-23.92,16.13-22.42,49.09-24.56,35.55-2.31,71.16-4.04,106.76-5.18,20.61-.66,41.27.11,61.9.66,11.93.32,23.84,1.47,35.76,2.25-35.31-13.17-71.14-23.82-109.18-23.75-37.53.07-73.84,7.69-109.65,19.02,3.63-4.45,7.77-7.79,11.49-11.53,6.48-6.5,14.18-9.41,23.3-9.67,18.3-.52,36.59-1.65,54.89-2.07,52.93-1.2,105.89-3.37,158.74,2.05,1.6.16,3.26-.24,4.89-.39-34.58-14.73-70.31-21.12-107.23-21.81-36.84-.7-72.81,5.11-108.55,13.73,10.01-9.68,20.74-16.8,35.2-16.43,12.98.33,25.98-.46,38.96-.31,42,.48,83.9-1.5,125.75-4.89,11.98-.97,23.9-2.62,35.85-3.96-30.66-7.99-61.94-9.21-92.85-12.28,36.37-3.71,72.74-7.41,109.11-11.12-.06-1-.11-2-.17-3-58.75-5.69-117.4-6.78-175.91,5.67,7.08-3.05,14.28-5.3,21.63-6.91,42.88-9.4,85.83-18.53,128.69-28.02ZM92.45,389.11c-2.25,3.56-3.82,7.55-6.6,13.16-5.83-31.68-11.29-61.39-16.76-91.09.45-.14.9-.28,1.35-.42.58,1.06,1.29,2.06,1.73,3.17,7.04,17.85,13.86,35.79,21.15,53.54,3.11,7.56,3.65,14.49-.88,21.64ZM146.79,328.59c24.41-6.37,48.82-12.88,73.48-18.15,17.8-3.81,35.99-5.76,54.01-8.54.17.71.35,1.42.52,2.13-3.91,1.41-7.78,2.95-11.74,4.21-25.64,8.14-51.42,15.85-76.91,24.44-23.39,7.88-45.41,18.78-65.77,32.89-1.04.72-2.26,1.19-4.88,2.54,5.25-12.55,11.02-23.28,18.3-32.9,2.65-3.5,8.32-5.39,12.99-6.6ZM392.7,139.56c-18.75,2.58-45.32,6.24-71.98,9.91,6.15-5.19,13.17-9.57,21.5-9.77,19.47-.47,38.96-.15,50.48-.15Z"/></g></svg>