<?xml version="1.0" encoding="UTF-8"?><svg id="Capa_2" xmlns="http://www.w3.org/2000/svg" viewBox="0 0 520.14 601.09"><g id="Capa_1-2"><path d="M340.82,289.43c29.86-12.4,56.78-29.45,84.05-45.81,27.34-16.4,54.32-33.42,81.41-50.15,8.13,18.53,5.3,34.37-10.35,46.82-10.08,8.02-21.22,14.94-32.58,21.09-19.59,10.61-39.74,20.19-59.61,30.3-3.66,1.86-7.1,4.15-10.23,7,44.32-11.16,84.32-31.83,123.88-55.05,3.18,6.2,2.12,12.82,1.9,19.16-.75,21.72-8.28,32.8-29.15,38.8-23.94,6.88-48.38,12.07-72.61,17.94-21.97,5.32-43.99,10.43-65.9,15.94-4.66,1.17-8.98,3.66-13.95,5.75,3.1,4.57,6.56,3.37,9.61,2.94,16.14-2.3,32.23-4.92,48.38-7.1,29.68-4.01,59.39-7.75,89.07-11.72,11.79-1.57,23.54-3.45,35.4-5.2-.81,9.51-9.87,30.02-16.48,34.34-5.11,3.34-11.32,5.9-17.34,6.77-14.14,2.06-28.45,3.04-42.71,4.21-17.22,1.42-34.45,2.59-51.68,4.53,17.64,5.91,36.03,5.28,54.12,6.65,17.88,1.35,35.85,1.7,55.15,2.55-1.62,3.94-2.35,6.82-3.87,9.19-3.06,4.74-6.4,9.32-9.89,13.75-9.8,12.42-21.9,19.04-38.34,15.42-20.45-4.5-41-8.56-61.48-12.91-9.43-2-18.78-4.43-28.23-6.32-4.15-.83-8.46-.81-13.58.37,2,1.91,3.79,4.14,6.06,5.64,3.6,2.37,7.38,4.56,11.33,6.27,28.98,12.57,58.03,24.99,87.04,37.48,2.06.89,4.03,1.98,6.13,3.02-17.01,23.04-47.98,29.61-71.28,14.96-16.05-10.09-31.5-21.15-47.42-31.47-6.62-4.29-13.76-7.78-22.68-12.75,1.02,4.4.96,6.82,2.07,8.41,4.93,7.07,9.61,14.45,15.45,20.72,12.7,13.64,26.05,26.68,39.12,39.98,1.84,1.87,3.58,3.85,5.88,6.34-7.64,5.3-15.92,5.2-23.96,4.95-10.88-.35-20.89-4.11-29.87-10.18-5.5-3.71-11.11-7.52-15.79-12.17-28.96-28.75-52.09-61.3-64.24-100.79-.35-1.14-.81-2.25-1.93-5.33-22.15,80.41-52.34,155.51-93.25,227.32-3.31-.47-6.81-.95-10.31-1.46-3.2-.46-6.41-.94-11.1-1.63,2.73-4.92,4.72-8.97,7.12-12.77,28.54-45.15,53.06-92.33,71.53-142.5,7.12-19.34,13.24-39.05,19.74-58.61.81-2.44,1.18-5.04,2.31-10.03-6.15,5.5-10.77,9.18-14.86,13.37-21.43,21.92-47.62,34.88-77.36,40.93-20.27,4.12-39.8,2.83-57.23-9.92-1.29-.94-2.4-2.14-4.09-3.66,14.29-3.65,28.08-6.52,41.42-10.77,13.5-4.31,27.05-9.01,39.12-18.37-3.69-3.34-7.47-2.49-10.71-2.18-21.52,2.08-43.12,3.79-64.5,6.92-22.2,3.26-38.32-5.13-50.1-23.15-4.13-6.32-7.05-13.43-10.72-20.55,19.73,2.39,38.29,5.68,56.97,6.62,18.46.93,37.13,1.16,57.72-2.18-11.87-5.47-22.57-5.87-32.96-7.51-20.7-3.26-41.41-6.5-62.16-9.41-16.57-2.33-26.88-11.91-33.15-26.84-4.14-9.85-5.63-16.65-5-26.97,22.29,7.8,44.33,15.59,66.42,23.23,21.85,7.56,42.74,18.38,68.81,20.47-3.29-2.95-4.62-4.69-6.38-5.64-7.89-4.29-15.84-8.48-23.87-12.49-23.22-11.57-46.5-23.04-69.75-34.55-.6-.29-1.18-.62-1.76-.93-23.21-12.18-29.98-25.5-25.78-51.32.99-6.09,2.69-12.07,4.38-19.49,39.48,30.27,77.49,60.14,120.46,82.51.5-.63,1.01-1.26,1.51-1.89-5.39-5.29-10.74-10.61-16.17-15.85-22.29-21.49-44.64-42.93-66.9-64.45-6.27-6.07-12.03-12.71-14.14-21.39-1.15-4.72-2.05-10.04-1.05-14.65,2.93-13.45,9.78-25.21,18.03-37.06,33.84,47.89,65.76,96.16,106.52,137.44.74-.45,1.48-.9,2.23-1.34-1.53-2.97-2.91-6.03-4.62-8.89-18.1-30.29-36.55-60.36-54.23-90.89-7.14-12.33-12.75-25.55-18.69-38.54-1.62-3.55-2.25-7.67-2.74-11.6-.64-5.16.76-9.9,4.54-13.74,8.17-8.3,16.32-16.62,24.53-24.88.63-.64,1.71-.84,3.03-1.45,14.43,51.82,30.98,102.51,60.67,147.66.71-.24,1.42-.48,2.14-.73-1.15-3.51-2.28-7.03-3.45-10.54-9.78-29.33-20.36-58.43-29.01-88.09-3.95-13.54-4.37-28.16-5.9-42.34-1.05-9.71,3.1-17.61,10.84-23.36,5.8-4.31,11.97-8.11,19.02-12.83,1.61,12.58,2.82,23.67,4.48,34.69,5.2,34.55,10.43,69.12,19.91,102.81,3.86,13.73,9.25,27.03,14.13,40.46,1.07,2.95,2.96,5.62,4.46,8.41.67-.15,1.33-.31,2-.46-.53-6.09-.8-12.22-1.65-18.27-3.33-23.83-10.38-46.73-17.71-69.54-6.94-21.61-11.77-43.67-14.59-66.17-.41-3.29-.54-6.64-.51-9.96.1-14.82,6.25-25.52,20.76-30.72,8.01-2.87,15.89-6.13,24.71-9.55-2.38,51.56,6.94,99.95,20,148.06.21-2.75.63-5.5.61-8.24-.19-22.97-.8-45.95-.59-68.92.15-15.94,1.28-31.88,2.24-47.81.22-3.6,1.32-7.2,2.4-10.68,2.23-7.16,6.72-11.96,14.34-13.82,8.06-1.97,16.25-3.83,23.94-6.87,12.59-4.99,24.81-10.89,36.76-16.22,7.75,8.09,16.39,16.7,24.45,25.82,1.89,2.14,2.74,6.1,2.46,9.08-.53,5.58-1.9,11.15-3.5,16.55-9.83,33.17-19.83,66.28-29.74,99.43-1.31,4.39-2.39,8.85-2.57,13.77,7.68-8.64,12.97-18.72,18.45-28.62,5.64-10.19,11.13-20.47,16.39-30.86,5.11-10.09,10.01-20.29,14.72-30.58,4.82-10.55,9.29-21.26,13.91-31.9,16.51,7.85,20.96,17.45,16.08,34.49-6.1,21.26-15.83,41-26.77,60.04-12.09,21.06-25.25,41.5-37.97,62.2-2.77,4.5-5.65,8.94-7.87,13.93,22.45-18.55,41.32-40.54,60.54-62.19,19.2-21.63,37.82-43.69,53.08-69.15,2.69,2.9,5.01,5.24,7.14,7.74,7.87,9.25,10.01,19.71,4.47,30.59-4.5,8.85-9.36,17.82-15.68,25.37-14.95,17.85-30.76,34.98-46.44,52.21-10.29,11.31-20.96,22.29-30.82,34.19,10.76-7.14,20.86-15.11,30.65-23.47,10.12-8.66,20.26-17.3,30.27-26.08,10.01-8.79,20.13-17.48,29.71-26.71,9.5-9.15,18.39-18.92,27.96-28.84,5.17,7.22,8.1,14.49,9.7,22.33,1.62,7.92.45,15.5-4.86,21.66-9.76,11.31-18.78,23.68-30.21,33.05-26.24,21.51-53.8,41.41-80.7,62.12-7.9,6.08-15.43,12.65-23.05,19.09-1.36,1.15-2.33,2.78-3.47,4.19Z"/></g></svg>