<?xml version="1.0" encoding="UTF-8"?><svg id="Capa_2" xmlns="http://www.w3.org/2000/svg" viewBox="0 0 189.06 148.47"><g id="Capa_1-2"><path d="M0,10.71c.36.41.84.76,1.07,1.23,4.89,10.25,9.79,20.48,12.47,31.61,1.27,5.25,1.77,10.56,1.75,15.93,0,.76,0,1.51,0,2.59,2.69-2.48,3.31-5.06,2.76-8.23-1.41-8.19-2.85-16.39-3.83-24.64-.9-7.62-1.24-15.3-1.78-22.96-.09-1.32-.01-2.65-.01-3.97.18-.02.35-.05.53-.07.19.38.41.75.55,1.15,3.47,10.18,5.59,20.68,7.44,31.24,1,5.71.64,11.48-.03,17.22-.06.54-.12,1.09-.22,1.96,1.74-1.6,2.43-3.29,2.24-5.31-.98-10.79.58-21.39,2.44-31.95.89-5.05,2.46-9.93,4.4-14.68.26-.64.62-1.24,1.15-1.82.51,3.8-.24,7.53-.4,11.27-.17,3.91-.63,7.81-1,11.71-.36,3.81-.77,7.62-1.02,11.49,4.72-11.53,10.06-22.73,16.82-33.23-.69,6.27-2.5,12.23-4.64,18.08-2.1,5.75-4.56,11.37-7.05,17.52,7.09-8.15,14.12-15.78,21.95-22.78-.09.39-.11.8-.28,1.15-3.31,6.77-7.1,13.25-11.94,19.06-4.33,5.19-9.33,9.63-15.05,13.26-1.8,1.14-3.76,2.15-4.74,4.69.58-.3.9-.44,1.19-.62,4.66-2.94,9.34-5.87,13.97-8.85.89-.58,1.63-1.4,2.39-2.06.53-.05,1.22.05,1.74-.21,2.08-1.01,4.09-2.19,6.17-3.2,4.36-2.12,8.75-4.17,13.13-6.25.1.13.2.25.3.38-.43.5-.8,1.08-1.31,1.47-1.38,1.05-1.87,2.49-2.13,4.11-.53,3.31-1.13,6.62-1.68,9.93-.13.78-.2,1.57-.34,2.69,1.81-.11,3.44-.21,5.1-.31,2.61-7.04,5.19-13.93,9.05-20.23.11-.18.35-.28,1.01-.8-3.72,17.92-5.86,35.68-12.98,52.27,2.52-1.75,4.83-3.46,5.5-6.77,2.76-13.78,8.2-26.54,15.25-38.63,1.89-3.24,4.04-6.33,6.07-9.49.28-.44.58-.87,1.14-1.11-5.3,16.29-9.23,33.01-18.61,47.82,2.5-1.07,3.43-1.84,4.12-3.75,4.44-12.41,12.35-22.49,21.44-31.74,2.4-2.44,5.11-4.59,7.7-6.85.44-.39,1-.64,1.84-.64-6.23,8.94-12.45,17.89-18.68,26.83,9.86-7.94,19.95-15.47,30.64-22.01.26.18.35.22.39.28.03.05.02.15-.02.2-.23.32-.45.66-.71.95-1.08,1.18-2.12,2.4-3.26,3.52-3.71,3.64-7.39,7.31-11.21,10.83-3.29,3.03-6.75,5.87-10.14,8.8-.05.05-.07.14-.27.6,9.67-3.78,18.82-8.11,28.63-10.98-.21.24-.38.54-.64.72-11.32,8.04-23.09,15.24-36.53,19.24-1.76.52-3.54,1-5.33,1.4-2.1.47-3.86,1.45-5.29,3.15,14.68-6.13,30.19-7.35,45.74-8.39.06.17.12.33.17.5-.35.21-.68.48-1.07.61-11.98,3.98-23.94,8.04-36.45,10.09-3.46.57-6.99.91-10.49,1.05-2.52.1-4.43,1.02-6.08,2.83-.52.58-1.28.95-1.71,1.74,8.11-2.96,16.45-4.23,24.81-5.27,8.33-1.03,16.71-1.35,25.22-.84-.42.23-.81.55-1.26.69-11.25,3.42-22.57,6.53-34.25,8.07-2.77.37-5.58.46-8.37.62-1.6.09-3.21.23-4.79.07-4.32-.45-7.36,1.43-9.74,5.2,16.71-5.97,33.64-5.38,50.83-3,.86-1.16,1.8-2.42,2.74-3.68l.3.11c-.21,1.54-.07,3.23-.68,4.58-1.9,4.2-2.49,8.72-3.46,13.13-1.35,6.16-2.32,12.42-3.8,18.55-.98,4.02-2.58,7.89-3.91,11.82-.22.65-.5,1.28-.96,2.44,2.49-1.38,4.49-2.48,6.48-3.59.99-.55.68-1.52.75-2.36.4-4.45.59-8.94,1.25-13.35,1.22-8.15,4.41-15.68,8.17-22.94,1.61-3.11,3.59-6.04,5.51-8.98.68-1.04,1.64-1.9,2.8-3.21,0,.8.09,1.11-.01,1.34-3.69,8.67-5.47,17.86-7.41,27-1.4,6.6-3.4,12.99-6.57,18.97-.15.28-.24.58-.37.9,3.56-.24,5.38-1.65,6.18-5.03,1.73-7.27,4.28-14.22,7.92-20.77,4.82-8.68,11.22-16.12,18.13-23.16.26-.26.6-.45,1.39-1.03-.36.95-.47,1.37-.67,1.75-4.34,8.64-8.7,17.27-13.04,25.92-3.23,6.43-6.56,12.81-10.96,18.77,1.61-.6,3.27-1.11,4.81-1.86.63-.31,1.13-1.1,1.45-1.78.92-1.95,1.71-3.96,2.56-5.94,3.56-8.23,8.68-15.48,14.43-22.27,4.08-4.82,8.52-9.32,12.82-13.95.37-.4.81-.75,1.54-1.4-.11.69-.08,1.05-.23,1.31-5.52,9.73-10.54,19.77-17.07,28.89-3.29,4.6-7.03,8.89-10.68,13.47,2.54-.97,5.39-1.02,7.01-3.77,7.7-13.07,18.47-23.44,29.7-33.37,1.85-1.63,3.81-3.13,5.89-4.55-.44,2.09-1.93,3.52-3.02,5.18-1.14,1.74-2.36,3.42-3.57,5.11-1.21,1.69-2.42,3.38-3.67,5.05-1.25,1.66-2.51,3.31-3.81,4.94-1.25,1.56-2.51,3.11-3.84,4.6-1.38,1.55-2.81,3.06-4.29,4.53-1.47,1.47-2.99,2.89-4.54,4.28-1.54,1.38-3.14,2.68-4.99,4.25,2.38-.26,4-.96,5.45-2.61,2.26-2.57,4.73-5,7.36-7.2,9.27-7.76,19.6-13.77,30.82-18.26.37-.15.75-.29,1.13-.41.13-.04.29-.02.96-.05-2.88,2.7-5.77,4.75-8.56,6.9-2.91,2.25-5.83,4.48-8.78,6.69-2.88,2.15-5.79,4.26-8.62,6.55,11.47-4.47,23.22-7.99,35.25-11.33-1.58,2.04-5.34,4.4-15.35,9.18-5.32,2.54-10.84,4.66-16.23,6.96,9.76-.43,19.61-.87,29.46-1.3.03.16.07.31.1.47-.54.25-1.05.57-1.62.75-10.87,3.47-21.9,6.03-33.4,5.6-3.33-.12-6.66-.71-9.96-1.25-2.03-.33-3.93-.34-5.83.69,14.87.53,28.72,5.35,42.72,9.5-.02.18-.03.37-.05.55-.5.06-1,.15-1.51.17-14.71.5-29.01-1.54-42.77-6.94-.37-.15-.78-.23-1.12-.42-2.96-1.63-5.67-.7-8.41.88,16.39,1.29,30.66,8.77,45.41,14.84-.05.22-.09.45-.14.67-2.66-.2-5.36-.19-7.98-.62-12.42-2.05-24.54-5.16-36-10.53-1.01-.47-2.08-.85-3.03-1.43-2.38-1.45-4.68-1.25-7,.08-.67.38-1.36.73-2.5,1.33,18.44,1.07,32.83,9.71,45.98,20.97-.06.17-.13.35-.19.52-.31-.07-.64-.11-.94-.22-9.61-3.71-19.27-7.32-28.82-11.19-5.92-2.4-11.69-5.17-17.47-7.89-1.37-.64-2.51-.73-3.82,0-1.94,1.07-3.95,2.04-5.91,3.33,8.02.48,15.81,1.79,23.19,4.86,7.33,3.05,14.21,6.93,20.48,11.85h-7.2c-.26-.16-.5-.39-.78-.48-12.7-3.99-25.41-7.96-37.21-14.29-.54-.29-1.47-.31-2.01-.04-1.76.87-3.42,1.94-5.12,2.94.17.23.2.33.25.34.7.11,1.41.25,2.12.3,5.46.43,10.66,1.95,15.66,4.09,4.61,1.98,9.21,4.01,13.2,7.14h-14.39c-.74-.44-1.47-.9-2.23-1.31-5.04-2.73-10.08-5.46-15.15-8.14-.72-.38-1.63-.69-2.42-.62-1.01.09-4.85,3.23-5.57,4.27,1.31.18,2.56.4,3.82.53,5.9.6,11.62,1.91,17.11,4.16.71.29,1.36.73,2.04,1.1h-17.27c-2.27-1.31-4.52-2.66-6.82-3.92-.52-.28-1.39-.54-1.79-.29-1.57.95-3.21,1.88-4.51,3.66,1.35,0,2.39-.07,3.41.02,1.48.12,2.96.35,4.44.54h-12.96c.64-.58,1.21-1.3,1.94-1.71,1.75-.99,2.03-2.28,1.6-4.2-1.35-6.1-2.1-12.29-2.03-18.56,0-.43-.14-.86-.24-1.39-1.01.27-1.84.49-2.96.8,1.51,8.38,2.29,16.7.73,25.05h-2.88c-1.08-3.56-2.16-7.11-3.12-10.26.07,3.13.16,6.7.24,10.26h-5.28c-.79-3.28-1.58-6.56-2.37-9.84-.16-.03-.32-.05-.47-.08-.17.42-.54.86-.48,1.24.42,2.9.92,5.79,1.4,8.68H0C0,135.35,0,122.23,0,109.11c.72.15,1.43.3,2.33.48C1.95,107.98,1.67,106.74,0,106.71,0,100.47,0,94.23,0,87.99c1.18-1.82,2.36-3.64,3.51-5.42-.8-1.4-1.41-2.59-2.14-3.71-.35-.54-.91-.96-1.37-1.43,0-4.8,0-9.6,0-14.4.36.36.86.66,1.05,1.09.81,1.91,1.49,3.87,2.28,5.79.95,2.32,1.96,4.61,2.99,7.03,2.08-1.97,2.41-3.76,1.16-6.15-2.34-4.44-4.35-9.06-6.53-13.59C.77,56.83.32,56.6,0,56.31c0-6.56,0-13.12,0-19.68.38.48.87.91,1.13,1.45.86,1.8,1.7,3.61,2.45,5.46,3.09,7.55,5.77,15.22,6.3,23.46.07,1.14.2,2.27.31,3.41,1.03-.92,1.59-1.96,2.29-2.89.87-1.16.83-2.3.33-3.58-.96-2.45-1.87-4.92-2.73-7.4-2.16-6.19-3.43-12.61-4.78-19.01-1.45-6.86-3.03-13.7-4.58-20.54C.6,16.46.24,16,0,15.51c0-1.6,0-3.2,0-4.8ZM45.81,97.6c1.44.71,1.46.75,2.71.38,10.08-2.96,20.37-3.87,30.83-3.36,1,.05,2.02-.16,3.03-.26.19-.02.44-.16.56-.09,2.22,1.42,4.79.64,7.13,1.43,1.04-2,1.98-3.79,3.09-5.94-4.85.66-9.29,1.18-13.7,1.87-8.16,1.27-16.34,1.96-24.6,1.37-1.19-.09-2.4-.07-3.59-.09-.91-.02-1.75.12-2.22,1.18.3.38.63.78,1.31,1.61-2.61-1.04-3.62.29-4.55,1.9ZM79.35,142.8c.16.08.32.17.48.25.97-.67,1.93-1.37,2.93-2,1.03-.64,1.23-1.49,1.09-2.65-1.34-11-.25-21.8,2.68-32.45.13-.48.17-.99.3-1.75-1.89.39-3.5.73-5.19,1.08v6.51c.75.3,1.4.56,2.19.87-.83.35-1.48.62-2.28.95.07,9.78.89,19.62-2.21,29.18ZM57.12,36.91c-5.04,3.51-9.89,6.88-14.71,10.3-.45.32-.81.98-.9,1.53-.15.91-.04,1.86-.04,3.04,3.41-.51,6.48-.94,9.53-1.48.44-.08.99-.58,1.17-1.02,1.67-4.05,3.27-8.12,4.95-12.37ZM41.9,111.41c-1.64-.41-3.16-.87-4.7-1.13-.62-.11-1.56-.02-1.92.37-1.15,1.26-2.1,2.7-3.13,4.08.1.18.19.35.29.53.81-.05,1.67.07,2.41-.18,5.1-1.69,10.33-2.75,15.69-3.2,2.31-.19,4.62-.34,6.92-.58,1.47-.16,1.46-.22,1.32-1.85-5.79.3-11.58.6-17.38.9.13.27.29.6.51,1.06ZM92.53,102.95c-.3,3.46-.67,6.79-.85,10.12-.42,7.93-1.75,15.68-4.26,23.23-.15.46-.18.96-.33,1.77,1.25-.78,2.15-1.44,3.13-1.94,1.2-.61,1.31-1.45,1.24-2.73-.21-3.81-.53-7.68-.13-11.45.67-6.27,2.16-12.41,4.25-18.38.14-.4.16-.83.28-1.45-1.19.3-2.1.53-3.35.84ZM102.76,88.49c-2.87.39-5.44.74-8.24,1.11-.37,2.21-.73,4.35-1.12,6.61,1.8.34,3.26.62,4.7.9,1.57-2.91,3.04-5.62,4.66-8.62ZM50.62,54.57c-3.26,1.13-5.99,2.08-8.83,3.06.14,1.41.27,2.63.39,3.84h6.61c.58-2.18,1.12-4.23,1.82-6.91ZM61.65,50.6c-1.74.66-3.02,1.07-4.22,1.63-.44.2-.97.73-1.02,1.16-.34,2.73-.56,5.48-.84,8.41,1.1.08,1.85.14,2.66.19,1.12-3.73,2.19-7.28,3.42-11.39ZM44.37,91.42c.47.23.95.52,1.46.71,1.61.61,2.32.23,2.27-1.5-.08-2.93-.37-5.85-.58-8.95-1.2.29-2.11.51-3.15.76v8.98ZM69.21,111.18c2.26-.02,4.27.57,6.35.07.43-1.66.83-3.23,1.34-5.19-2.95.56-5.53,1.05-8.28,1.57.21,1.28.38,2.27.59,3.54ZM29.36,146.64c5.01,1.57,9.54.71,14.24.65-.19-1.33-.33-2.32-.47-3.38-4.51.89-8.85,1.75-13.77,2.72ZM38.06,106.9c5.05-1.54,9.73-2.97,14.4-4.4-3.14-.41-6.24-.47-9.33-.37-.7.02-1.55.43-2.04.94-1.04,1.08-1.88,2.35-3.03,3.83ZM8.78,83.11c2.69-.81,5.12-1.59,7.57-2.27,1.25-.34,1.14-1.02.78-2.1-3.22.23-6.37.05-9.7.91.48,1.22.87,2.24,1.35,3.46ZM48.14,65.41c-2.01.44-3.62.8-5.47,1.21.23,1.38.43,2.59.65,3.92h4.39c.13-1.59.26-3.15.43-5.13ZM70.72,120.24h3.91c.12-1.82.23-3.45.36-5.35-1.84.39-3.4.73-5.09,1.09.31,1.58.56,2.88.83,4.26ZM14.77,143.77c.12.13.25.27.37.4,3.5-1.35,7-2.69,10.51-4.04-.02-.08-.04-.16-.07-.23h-8.8c-.7,1.35-1.36,2.61-2.02,3.87ZM18.62,60.57c1.68-.88,3.07-1.65,4.48-2.34,1.5-.73,3.03-1.42,4.57-2.07.91-.39,1.45-.9,1.05-2.14-1.61.49-3.18,1.05-4.78,1.43-2.64.62-4.32,2.21-5.33,5.13ZM16.76,71.23c-4.85-.19-6.53,1.03-7.22,5.15,2.04-.88,4.05-1.86,6.14-2.61,1.33-.48,1.48-1.24,1.08-2.53ZM51.45,88.03c4.16-2.98,4.58-3.76,4.05-7.84-.73.04-1.48.08-2.3.13-.63,2.43-1.22,4.71-1.8,7.01-.05.21.03.45.04.71ZM42.2,120.29c-1.49-.18-2.97-.42-4.46-.54-1.51-.12-3.03-.21-4.54-.18-1.39.03-2.86-.91-4.42.35,4.57,1.38,8.9,2.55,13.41.37ZM18.61,63.46c.34,1.03.58,1.74.83,2.48,2.55-.74,4.92-1.43,7.29-2.11.92-.26,1.38-.75.82-1.92-2.83.49-5.7.99-8.93,1.55ZM35.92,104.98c.19.06.37.11.56.17,1.31-2,3.41-3.44,4.35-5.92h-4.51c-.14,2.05-.27,3.9-.4,5.75ZM56.43,71.7c.48-2.69.94-5.3,1.47-8.23-1.03.26-1.74.44-2.5.63-.26,2.57-.49,4.96-.74,7.46.75.06,1.2.09,1.78.14ZM24.23,108.83h-3.94c.94,3.41,2.08,4.2,5.63,3.97-.57-1.33-1.12-2.63-1.69-3.97ZM28.41,99.86c.47,4.96.73,5.29,4.07,5.37-.64-1.89-1.27-3.74-1.92-5.66-.81.11-1.42.19-2.16.29ZM22.44,125.34c-1.4-2.03-2.23-2.24-5.31-1.44.25.97.5,1.94.74,2.87,1.23.19,2.24.35,3.33.52.41-.65.79-1.24,1.24-1.94ZM8.39,143.72c1.01.07,1.88.22,2.74.18.88-.04,1.23-.76.86-1.51-.93-1.89-2.61-2.76-5.05-2.45.47,1.21.91,2.37,1.45,3.78ZM47.38,74.22c-1.29.23-2.41.44-3.71.68.15,1.19.28,2.18.42,3.22h3.29v-3.9ZM37.92,49.98c-2.02.98-3.87,1.88-5.71,2.77-.79.38-1.05.91-.4,1.86,1.22-.39,2.46-.92,3.76-1.17,1.83-.35,2.53-1.38,2.36-3.47ZM55.83,79.59c.16-2.38.29-4.31.41-6.21-1.29-.38-1.91-.09-2.07,1.06-.2,1.4-.48,2.78-.75,4.31.74.26,1.38.48,2.41.84ZM96.33,101.55c.42-1.13.8-2.17,1.32-3.57-1.82.22-3.19.38-4.6.55-.08.99-.13,1.76-.21,2.76,1.2.09,2.26.17,3.49.26ZM.88,91.75c1.76-.1,3.16-.96,4.76-1.51-.1-.5-.16-.88-.24-1.26-.1-.45-.22-.9-.32-1.3-2.46-.19-2.7.06-4.2,4.07ZM37.26,83.96c-.8.22-1.45.41-2.1.59.11.73.18,1.12.24,1.5.05.39.08.79.13,1.18q.27,2.15,2.74,2.33c-.32-1.8-.64-3.56-1.01-5.6ZM18.08,88.3c.34-.94.13-1.46-.73-1.45-2.1.04-4.19.15-6.35.24.5,1.83.51,1.9,1.54,1.82,1.87-.15,3.74-.41,5.53-.61ZM36.68,59.32c-1.8.55-3.33,1.01-4.96,1.51.17.75.28,1.25.43,1.93,1.5-.23,2.88-.44,4.33-.66.07-.94.12-1.69.2-2.77ZM22.05,102.84c-.4-1.17-.67-1.94-.98-2.85-1.52.38-2.97-.19-4.49.7,1.28,2.15,3.4,1.42,5.47,2.15ZM20.93,71.92c3.81-.28,5.55-.81,6.51-2.26-2.42.26-4.55.5-6.84.74.15.67.24,1.1.33,1.52ZM61.34,111.03h3.48c.13-.91.25-1.73.4-2.81-1.51.24-2.73.43-4.08.64.07.78.13,1.38.2,2.17ZM81.68,100.79c2,.1,3.59.15,5.17.25,1.34.09,1.79-.58,1.76-1.8-2.9-.12-5.2.32-6.92,1.54ZM12.2,132.3c.21.53.27,1.1.48,1.17,1.36.42,2.75.72,4.14,1.06.06-.14.13-.28.19-.43-.42-.64-.85-1.28-1.2-1.8h-3.62ZM24.87,86.15c.49,2.39.65,2.48,3.47,2-.19-.81-.38-1.6-.59-2.5-1.04.18-1.86.32-2.88.49ZM29.77,113.09c.16.05.33.1.49.16.83-1.17,1.65-2.33,2.73-3.85-1.43-.11-2.31-.18-3.22-.25v3.95ZM51.79,147.53c-.39-2.24-.7-4.02-1.1-6.27-.61.61-1.25.99-1.21,1.27.24,1.56.62,3.1,1.03,4.63.05.17.62.2,1.27.38ZM26.26,131.85c-.72-.15-.87-.21-1.02-.21-.71.01-1.43.04-2.14.07-2.05.11-2.07.13-2.58,2.52,1.79-.74,3.52-1.46,5.75-2.38ZM36.26,67.98c-1.41.33-2.51.58-3.6.84.45,1.84.72,1.92,3.49,1.19.03-.51.06-1.04.11-2.03ZM8.67,101.66c-.32-1.77-.94-1.98-3.74-1.31q.9,1.74,3.74,1.31ZM57.93,118.04c-1.33.18-2.27.27-3.19.46-.21.05-.53.48-.49.68.06.33.34.83.58.86.86.1,1.74.04,2.7.04.11-.58.21-1.1.39-2.04ZM27.32,78.57c-.89-1.13-2.42-1.09-4.54-.06.96,1.06,1.67,1.08,4.54.06ZM45.76,119.94c1.34.85,2.3.49,3.18.33.82-.15,2.12.53,2.51-1.37-1.89.44-3.69-.11-5.69,1.03ZM36.13,93.91c.97,1.47,3.07,2.26,3.67,1.47-.2-.48-.43-1.03-.62-1.47h-3.05ZM36.29,75.93c-1.08.25-2.09-.13-2.38,1.03-.1.39.17.87.3,1.43.76-.07,1.42-.13,2.19-.2-.04-.76-.07-1.36-.11-2.26ZM42.56,136.77l-.04-.63c-2.52.31-5.05.62-8.04.99,3.1.82,5.58.06,8.08-.36ZM62.37,117.38q.05,2.67,1.85,2.55v-2.73c-.36-.02-.59-.06-.81-.03-.31.04-.61.12-1.04.22ZM1.47,94.55c1.55,1.3,2.31,1.25,4.79,0H1.47ZM16.81,63.85c-1.17,1.63-2.26,2.66-2.85,4.54,1.21-.61,2.03-1.03,2.85-1.44v-3.1ZM36.14,128.33c2.14,1.12,4.24.36,6.37,0h-6.37ZM58.21,135.19c-.11-.88-.21-1.65-.3-2.4-1.09.05-1.45.43-1.33,1.23.1.72.12,1.5,1.64,1.17ZM9.89,108.34c.39,1.3,1.01,2.1,2.51,1.57-.34-1.46-1.12-1.98-2.51-1.57ZM8.85,123.26q.26,2.13,2.07,2.28c-.54-.95-.75-2.04-2.07-2.28ZM55.21,126.81c.06.23.13.47.19.7.88.22,1.84.68,2.33-1.23-1.01.21-1.77.37-2.52.52ZM47.97,135.27c.04.17.08.35.12.52q1.94.45,1.93-1.17c-.73.23-1.39.44-2.05.65ZM49.94,128.11v-.68c-.85.14-1.69.27-2.53.41.02.16.05.32.07.48.82-.07,1.64-.14,2.46-.21ZM43.8,96.29c.66-.77,1.08-1.25,1.63-1.9-1.82-.41-1.7.52-1.63,1.9ZM28.11,124.15q-1.82-.4-2.34,1.09c.71-.33,1.34-.62,2.34-1.09ZM63.9,127.33q.83-1.04-.14-2.44c.05.96.09,1.61.14,2.44ZM25.93,119.41c.03-.2.05-.4.08-.61-.66-.04-1.33-.08-1.99-.13l-.03.41c.65.11,1.3.21,1.94.32ZM78.88,100.82c0-.15.02-.3.03-.45-.46.08-.92.16-1.39.24.01.07.02.14.03.21h1.32ZM4.65,115.51c-.13.18-.26.36-.38.53.39.24.79.49,1.18.73.09-.13.17-.25.26-.38-.35-.29-.7-.59-1.06-.88ZM4.36,132.86c.05-.19.11-.38.16-.57-.4-.06-.81-.12-1.21-.19-.03.14-.06.27-.09.41.38.12.76.23,1.14.35Z"/></g></svg>