<?xml version="1.0" encoding="UTF-8"?><svg id="Capa_2" xmlns="http://www.w3.org/2000/svg" viewBox="0 0 650.01 810.05"><g id="Capa_1-2"><path d="M236.11,513.77c2.95-1.21,5.94-2.34,8.86-3.63,41.02-18.19,83.81-30.49,128.27-36.08,29.69-3.73,59.63-5.63,89.48-8,20.91-1.66,41.86-2.74,62.8-4,3.47-.21,6.96-.03,10.89,1.86-2.73,1.6-5.39,3.33-8.19,4.77-49.58,25.51-102.24,41.23-157.27,49.6-42.28,6.43-84.82,8.59-127.48,7.54-11.83-.29-18.43,3.68-22.81,14.36-4.27,10.4-9.91,20.24-15.83,32.1,4.41-1.3,7.18-1.84,9.72-2.91,41.37-17.35,84.43-28.65,128.81-34.44,24.4-3.18,49.05-4.48,73.6-6.43,30.51-2.43,61.03-4.65,91.93-6.99-.93,3.67-4.73,4.57-7.53,6.18-31.97,18.37-66.26,30.97-101.9,39.91-58.28,14.62-117.46,19.34-177.37,15.16-21.68-1.51-22.97-.85-31.35,18.75-2.74,6.4-5.2,12.91-8.48,21.09,3.97-.91,6.66-1.32,9.22-2.15,24.38-7.9,48.89-15.16,74.29-19.29,35.05-5.7,70.24-6.57,105.56-4.33,24.26,1.54,48.49,3.39,72.73,5.2,6.6.5,13.18,1.38,20.28,3.76-3.77,1.65-7.45,3.58-11.33,4.91-32.52,11.14-65.85,18.8-99.92,23.35-38.41,5.13-76.9,7.17-115.58,3.84-15.59-1.34-31.16-2.85-46.75-4.11-4.24-.34-8.54-.05-13.27-.05-6.3,14.55-12.36,28.54-19.03,43.94,3.35-.52,5.51-.48,7.36-1.2,54.56-21.21,111.29-25.12,169.01-21.44,18.27,1.17,36.55,2.1,55.21,3.17-.26,4.4-4.02,4.44-6.3,5.45-19.25,8.55-39.56,13.66-60.06,18.2-38.91,8.61-78.26,12.1-118.06,10.04-10.96-.56-21.87-2.04-32.81-2.97-5.61-.48-11.25-.67-17.58-1.03-1.59,3.53-3.32,6.68-4.48,10.04-11.59,33.64-23.09,67.32-34.6,100.99-.65,1.89-1.03,3.87-1.79,5.71-1.54,3.73-4.08,6.08-8.48,5.23-4.49-.87-7.65-4.63-7.14-9.33.39-3.6,1.39-7.2,2.57-10.64,10.98-31.75,21.93-63.5,33.17-95.16,5.41-15.25,5.82-15.3-6.23-26.42-25-23.07-49.07-47.02-69.71-74.14-21.46-28.2-39.42-58.49-52.64-91.46-1.96-4.88-3.54-9.9-5.9-16.57,2.59,1.21,3.79,1.44,4.49,2.15,28.72,29.17,58.38,57.51,85.78,87.88,22.64,25.09,38.75,54.82,50.71,86.59.7,1.85,1.55,3.65,2.82,6.64,1.62-3.11,2.91-5.26,3.9-7.54,4.13-9.45,7.78-19.13,12.4-28.34,3.04-6.07,2.13-10.66-2.4-15.14-3.79-3.74-7.42-7.65-11.28-11.31-44.29-42.01-82.43-88.74-110.62-143.18-10.58-20.43-19.96-41.34-26.18-63.56-.61-2.19-.95-4.45-1.74-8.29,2.4,1.63,3.77,2.22,4.67,3.22,26.55,29.42,53.3,58.66,79.49,88.39,31.32,35.57,56.16,75.11,71.23,120.36,1.04,3.12,2.54,6.08,4.49,10.69,5.87-12.25,11.42-23.12,16.16-34.33,1.05-2.47,0-6.63-1.48-9.18-2.48-4.26-6.02-7.93-9.27-11.71-33.46-39.02-64.27-79.88-87.7-125.89-17.28-33.93-31.52-68.98-39.57-106.33-1.1-5.1-1.69-10.3-1.08-16.08,1.43,1.63,2.99,3.17,4.27,4.91,19.65,26.87,39.25,53.78,58.87,80.67,22.6,30.97,43.96,62.65,59.65,97.86,8.84,19.84,15.05,40.51,20.62,61.42.76,2.84,1.69,5.64,3.15,10.46,6.68-13.2,12.84-24.53,18.06-36.28,1.2-2.7.04-7.25-1.48-10.21-3.5-6.78-7.83-13.14-11.94-19.6-23.09-36.24-45.13-73.03-61.73-112.84-17.55-42.08-28.84-85.7-33.14-131.08-.68-7.22-.1-14.57-.1-23.4,1.84,2.37,3.14,3.62,3.94,5.13,18.83,35.59,37.46,71.28,56.42,106.79,21.25,39.8,39.09,80.89,48.2,125.31,2.94,14.32,5.05,28.8,9.52,45.12.53-1.49.88-3.07,1.63-4.44,6.06-11.1,12-22.27,18.4-33.17,2.83-4.82,3.19-9.32.7-14.1-4.92-9.44-9.83-18.89-14.98-28.2-20.34-36.81-37.76-74.85-49.36-115.38-12.8-44.7-20.25-90.22-20.43-136.8-.02-5.81.67-11.63,2.86-17.61,1.08,2.33,2.24,4.62,3.23,6.98,15.1,36.23,30.14,72.48,45.28,108.69,15.31,36.62,28.16,74.03,35,113.22,2.51,14.4,3.49,29.06,5.17,43.6.72,6.27,1.43,12.54,2.33,20.5,2.41-2.55,4.08-3.86,5.16-5.55,5.18-8.15,9.51-16.94,15.46-24.45,5.96-7.53,5.18-13.88,1.2-21.84-8.78-17.55-17.14-35.33-24.93-53.33-30.53-70.59-43.15-144.41-39.09-221.13.27-5.16,1.31-10.28,3.41-15.54.68,1.44,1.51,2.82,2.02,4.32,12.06,35.59,23.95,71.24,36.16,106.77,12.77,37.18,24.79,74.56,29.17,113.84,1.84,16.52,2.49,33.17,3.71,49.75.33,4.45.74,8.89,1.11,13.33.68.17,1.36.34,2.05.51,6.87-10.09,13.71-20.21,20.62-30.27,2.65-3.85,1.42-7.63.01-11.43-4.52-12.16-8.94-24.36-13.66-36.44-26.33-67.41-37.14-137.24-32.47-209.4.89-13.81,1.52-27.82,6.71-42.28,1.04,2.6,1.81,4.06,2.21,5.6,10.99,42.5,21.83,85.04,32.92,127.52,11.28,43.17,15.53,87.06,14.09,131.58-.19,5.83-.03,11.67-.03,17.51.69.24,1.38.48,2.07.72,4.93-6.87,11.02-13.22,14.38-20.78,2.2-4.96,1.23-11.79.32-17.57-3.01-19.05-7-37.95-9.96-57.01-6.12-39.37-6.7-78.88-1.89-118.45,3.7-30.44,9.2-60.52,18.9-89.68,1.5-4.51,2.48-9.44,7.24-14.42.37,3.39.63,5.18.75,6.97,2.56,38.19,4.53,76.43,7.8,114.56,4.45,51.9-.28,103.03-10.57,153.85-.38,1.85-.58,3.74.51,6.36,7.46-9.68,15.08-19.23,22.24-29.12,1.6-2.21,2.11-5.6,2.15-8.46.1-6.65-.14-13.32-.69-19.95-4.97-60.78,1.4-120.36,19.72-178.48,5.98-18.98,13.93-37.37,21.3-55.89,1.79-4.5,4.88-8.48,8.55-14.69.65,3.61,1.22,5.02,1.1,6.37-4.8,54.35-4.37,109.22-14.27,163.03-4.86,26.41-13.06,52.21-19.77,78.29-.65,2.52-1.38,5.02-2.67,9.7,15.73-13.96,26.63-27.6,28.72-47.65,6.47-62.11,25.88-120.19,57.72-173.89,9.64-16.26,21.21-31.39,31.96-47,1.09-1.58,2.6-2.88,4.23-4.65.56,10.8-14.91,67.96-29.29,112.28-12.04,37.11-29.26,71.88-47.01,106.46.6.46,1.2.92,1.79,1.37,5.58-6.14,11.41-12.09,16.65-18.5,3.77-4.62,7.19-9.64,10.04-14.87,31.69-58.03,77.4-102.9,131.36-139.99,11.23-7.72,23.04-14.59,34.66-21.74,1.92-1.18,4.19-1.8,7.08-3.01.46,4.63-2.29,7.3-4.31,9.82-19.75,24.69-39.07,49.76-59.68,73.72-30.52,35.48-65.1,66.67-103.61,93.42-10.38,7.21-19.18,16.14-26.05,27.28,64.82-43.11,137.23-64.99,212.51-78.96.42.74.84,1.47,1.26,2.21-4.9,3.75-9.64,7.73-14.72,11.2-50.22,34.35-104.93,58.79-163.89,73.73-14.18,3.59-28.47,6.79-42.75,9.99-8.46,1.89-15.38,5.85-20.63,12.94-4.94,6.66-10.35,12.96-14.57,21.16,2.74-1.23,5.53-2.39,8.22-3.72,27.8-13.74,56.2-26.33,86.48-33.1,28.2-6.3,56.88-10.55,85.44-15.1,18.72-2.98,37.62-4.87,56.44-7.23,1.94-.24,3.89-.33,6.69,1.04-4.2,2.91-8.24,6.1-12.63,8.7-26.76,15.88-55.58,27.17-84.94,37-34.49,11.56-69.95,19.01-106.19,22.54-13.91,1.36-27.83,2.73-41.76,3.83-8.11.64-14.57,3.56-19.43,10.43-6.71,9.48-13.91,18.61-20.01,29.26,2.94-1.15,5.9-2.23,8.81-3.46,41.67-17.56,84.72-29.73,130.04-32.73,30.89-2.05,61.81-3.69,92.72-5.54,7.97-.48,15.94-1.09,23.91-1.57,5.54-.33,11.09-.55,16.63-.82.23.64.47,1.28.7,1.93-2.94,1.78-5.77,3.77-8.83,5.31-32.6,16.39-67.03,27.57-102.63,35.08-49.38,10.42-99.38,14.65-149.84,14.15-22.82-.22-22.84.09-35.96,18.44-5.6,7.83-11.11,15.72-17.93,25.36,3.87-.9,5.9-1.08,7.68-1.83,42.23-17.92,86.22-29.38,131.63-35.36,15.83-2.09,31.79-3.36,47.73-4.42,33.22-2.21,66.47-4.03,99.71-5.98.84-.05,1.7.28,4.35.76-3.98,2.43-6.61,4.22-9.4,5.71-31.87,17.17-66.11,27.96-100.97,36.89-44.09,11.29-89.02,16.06-134.48,16.21-14.32.05-28.65.18-42.97-.07-7.81-.14-13.14,2.81-17.09,9.68-5.63,9.81-12,19.18-17.97,28.8-1.13,1.82-1.86,3.88-3.49,7.36,10.25-3.58,18.87-6.79,27.61-9.6,51.95-16.7,105.11-26.46,159.76-27.71,35.62-.81,71.24-1.8,106.86-2.7,2.12-.05,4.24,0,6.84,1.89-3.37,1.8-6.66,3.76-10.11,5.36-42.27,19.57-86.77,31.48-132.61,39.01-48.63,7.99-97.53,7.25-146.48,4.94-18.87-.89-19.11-1.23-28.42,14.82-7.76,13.38-15.17,26.97-22.73,40.47.41.4.82.8,1.24,1.2Z"/></g></svg>