<?xml version="1.0" encoding="UTF-8"?><svg id="Capa_2" xmlns="http://www.w3.org/2000/svg" viewBox="0 0 536.97 600.33"><g id="Capa_1-2"><path d="M314.22,235.02c38.14-59.93,77.09-119.3,122.24-174.87-1.54,4.39-2.74,8.94-4.68,13.15-11.14,24.16-21.65,48.66-33.89,72.26-19.77,38.13-41.8,75-65.39,110.92-1.74,2.64-3.32,5.38-4.35,8.54,50.22-50.65,99.28-102.32,154.73-147.48-18.77,33.46-41.69,63.89-66.98,92.43-25.16,28.38-51.43,55.78-78.87,85.39,4.49-2.98,7.29-4.81,10.06-6.69,47.37-32.18,95.13-63.75,144.98-92.03,7.8-4.42,15.93-8.25,23.95-12.28.45-.22,1.22.21,3.28.65-53.79,53.15-113.81,96.78-177.07,136.54,63.71-23.2,127.17-46.6,194.76-62.68-2.48,5.89-6.51,6.93-9.65,8.8-35.25,21.06-72.79,37.34-110.82,52.51-18.18,7.26-36.64,13.82-54.88,21.34,27.87-3.73,55.67-8.15,83.64-11,28.33-2.89,56.78-5.16,85.46-3.6-44.66,17.69-91.83,24.92-138.58,34.78,14.06,2.35,28.3,1.95,42.44,2.82,14.62.9,29.22,2.2,43.82,3.43,14.4,1.21,28.83,2.2,42.91,6.56-56.28,11.78-113.24,11.07-170.61,11.38,2.15.77,4.27,1.68,6.46,2.29,36.21,10.03,72.47,19.87,108.61,30.14,8.73,2.48,17.06,6.36,25.21,10.91-46.35-.54-91.33-9.85-136.59-18.35,34.55,18.42,68.93,36.84,100.07,60.73-43.18-11.5-83.33-30.32-123.83-48.58,29.49,22.99,60.89,43.36,88.49,68.57-.27.65-.55,1.3-.82,1.94-3.71-1.35-7.63-2.3-11.09-4.12-22.06-11.63-44.5-22.64-65.9-35.39-34.97-20.83-67.83-44.69-97.12-73.17-1.14-1.11-2.56-1.94-4.68-3.53-30.43,81.25-70.22,156.43-127.11,223-4.32-3.25-8.12-6.12-12.86-9.69,56.11-63.29,97.65-134.42,129.45-213.57-64.07,11.47-126.88,16.66-190.01,4.24,35.5-8.96,71.92-10.23,108.13-13.94-22.98-3.72-46.02-7.04-68.91-11.26-23.17-4.27-46.22-9.28-68.38-18.19,7.76-2.84,15.79-1.64,23.65-1.57,8.31.08,16.62.9,24.92,1.52,8.3.62,16.59,1.37,24.88,2.13,8.29.76,16.58,1.48,24.85,2.44,8.13.95,16.23,2.19,24.59,2.56-45.56-18.05-91.51-35.07-132.72-62.33,49.54,8.71,96.38,26.18,143.72,42.41-47.82-32.84-95.58-65.49-136.18-107.43,14.53,4.4,27.31,12.26,40.3,19.55,13.06,7.33,25.74,15.31,38.53,23.11,12.98,7.92,25.89,15.98,39.94,22.67-11.75-11.75-23.62-23.38-35.21-35.27-11.85-12.16-23.65-24.39-35.07-36.95-11.25-12.37-22.54-24.78-30.92-39.58,51.65,32.94,95.96,74.49,141.43,115.48-1.34-2.18-2.55-4.45-4.03-6.52-31.61-44.22-60.04-90.37-84.52-138.92-5.35-10.61-9.99-21.58-14.96-32.38l1.72-1.36c1.96,1.8,4.21,3.38,5.85,5.44,13.72,17.15,27.87,34,40.85,51.71,18.89,25.77,36.9,52.19,55.29,78.32,1.69,2.39,3.44,4.74,5.99,6.74-26.13-61.54-47.99-124.36-63.13-191.14,5.65,1.99,6.55,5.63,8.11,8.48,21.3,38.85,39.93,78.98,57.13,119.78,6.98,16.55,13.74,33.2,20.62,49.79.72,1.74,1.64,3.4,3.06,4.95-14.79-72.23-25.19-144.86-24.64-218.72,0-.79.73-1.58,2.16-4.47,20.58,70.09,35.42,139.4,47.78,209.41.88-25.26,1.3-50.55,2.76-75.78,1.48-25.58,3.64-51.12,6.14-76.62,2.49-25.38,5.82-50.67,12.31-75.37.76,0,1.53,0,2.29.01.59,6.37,1.39,12.73,1.74,19.11,3.22,58.22,2.69,116.49,1.78,174.76-.06,3.59,0,7.18.7,10.87,15.32-67.96,30.43-135.87,58.47-200.08-4.38,51.94-12.97,103.19-21.86,154.51,16.2-51.32,34.03-101.96,57.94-150.28-6.41,56.33-21.45,110.68-36.23,165.18,22.61-50.06,43.86-100.68,70.25-149-4.61,36.72-15.39,71.82-27.34,106.48-11.99,34.78-25.63,68.99-38.54,103.46Z"/></g></svg>