<?xml version="1.0" encoding="UTF-8"?><svg id="Capa_2" xmlns="http://www.w3.org/2000/svg" viewBox="0 0 551.77 578.86"><g id="Capa_1-2"><path d="M123.13,373.37c22.69,22.23,47.86,41.29,74.57,58.39,3.29,2.11,6.4,4.51,9.69,6.83-6.86,46.68-11.02,92.91-10.69,139.62,2.5.34,3.79.67,5.07.64.93-.02,1.86-.52,3.89-1.15.4-45.87,2.9-91.84,10.93-135.68,34.56-8.13,67.44-16.37,100.56-23.52,33.13-7.16,66.5-13.23,99.76-19.77-30.37-.83-60.68-2.55-90.86,1.21-36.58,4.56-72.16,12.46-103.94,32.46-.79.49-1.83.57-4.36,1.32,1.78-8.17,3.1-15.54,5.17-22.7.46-1.59,3.4-2.86,5.44-3.51,7.61-2.41,15.37-4.33,22.97-6.73,63.43-20.07,128.38-32.08,194.67-37.14,4.86-.37,9.68-1.35,14.52-2.04-28.51-3.09-56.77-5.22-85.03-5.3-52.49-.15-101.23,13.74-145.54,42.31-1.2.77-2.64,1.17-5.22,2.28,2.08-7.44,4.14-13.39,5.33-19.51,1.06-5.4,4.18-7.66,9.15-9.05,38.75-10.83,77.41-22.03,116.2-32.72,36.55-10.07,73.23-19.65,109.84-29.48,2.79-.75,5.5-1.78,8.25-2.69-2.16-1.36-3.82-1.53-5.44-1.33-32.37,3.96-64.73,8.09-97.11,11.94-47.01,5.59-90.65,20.64-130.7,45.97-1.2.76-2.61,1.2-5.59,2.54,3.4-8.85,6.15-15.92,8.83-23.01,1.28-3.38,3.41-5.23,7.16-5.99,7.82-1.58,15.48-3.91,23.27-5.63,59.78-13.23,118.97-28.72,177.7-45.97,12.97-3.81,25.77-8.16,38.66-12.26-1.83-1.53-3.38-1.69-4.89-1.5-31.06,3.77-62.14,7.34-93.16,11.43-48.31,6.38-94.14,20.57-136.8,44.43-1.56.87-3.28,1.46-7.07,3.11,4.47-8.8,8.1-15.44,11.24-22.31,2.17-4.75,5.5-6.74,10.62-7.6,23.3-3.89,46.61-7.76,69.76-12.42,44.67-8.99,89.24-18.51,133.86-27.79,9.24-1.92,18.5-3.76,27.75-5.64-79.75-1.82-158.38,2.68-232.12,38.14,2.8-5.74,6.47-10.38,9.24-15.51,4.4-8.18,11.13-11.19,20.1-12.26,26.76-3.19,53.62-6.08,80.1-10.95,44.15-8.12,88.03-17.67,132.02-26.66,2.06-.42,4.04-1.22,6.06-1.84-75.78-1.5-150.25,4.7-222.5,31.49,4.9-5.38,9.84-10.72,14.67-16.16,3.5-3.94,7.6-5.67,13.03-6.09,23.56-1.8,47.19-3.33,70.6-6.4,46.57-6.11,92.35-16.32,137.56-29.03,2.69-.76,5.28-1.89,7.92-2.85-72.2,2.55-143.91,6.92-214.24,30.82,9.03-12.24,18.81-17.87,32.88-18.76,31.21-1.97,62.28-6.2,92.75-13.53,28.77-6.92,57.38-14.5,86.02-21.92,3.44-.89,6.66-2.64,9.98-3.99-65.23,4.66-129.89,10.72-192.74,32.93,9.83-12.67,22.6-15.12,36.09-16.87,54.01-6.99,106.29-21.05,157.45-39.48,1.82-.65,3.43-1.87,5.14-2.83-55.56,6.09-110.22,15.04-164.76,34.33,5.71-5.89,10.71-8.33,16.69-9.67,50.4-11.29,97.42-31.2,142.34-56.33,2.13-1.19,3.94-2.94,5.9-4.43-40.78,8.77-80.27,20.71-118.36,37.46,29.87-27.54,59.11-55.33,86.42-85.21-2.2.17-3.98.84-5.58,1.8-43.35,25.82-81.25,57.89-111.95,98.09-4.07,5.33-8.33,9.84-14.89,11.84,17.44-21.68,34.89-42.96,51.86-64.6,16.85-21.48,33.08-43.44,47.71-66.58-1.98.43-3.27,1.42-4.47,2.5-43.9,39.41-83.15,82.56-109.76,135.91-3.69,7.4-10.16,11.16-16.65,14.29,16.37-28.2,33.02-56.2,48.99-84.58,15.86-28.17,31.06-56.72,47.1-86.13-1.72,1.07-2.37,1.33-2.83,1.79-1.41,1.41-2.77,2.87-4.11,4.35-43.95,48.77-78.25,103.45-100.16,165.46-4.51,12.78-13.17,20.52-24.42,26.97,34.68-66.36,52.36-139.32,83.02-207.2-2.82,2.25-4.84,4.87-6.8,7.53-17.22,23.43-31.06,48.85-43.72,74.92-19.11,39.34-35.65,79.7-41.5,123.37-2.08,15.54-11.82,24.4-23.48,35.42,13.89-43.13,22.86-85.32,31.09-127.71,8.18-42.15,16.86-84.21,25.32-126.3-3.08,2.78-4.78,5.95-6.11,9.27-6.21,15.43-12.66,30.77-18.39,46.37-23.88,65.02-41.83,131.23-39.78,201.39.09,3.18-.44,6.89-2.07,9.49-3.63,5.79-8.13,11.03-12.57,16.87,7.06-95.4,14.06-189.89,21.06-284.37-1.81,3.44-3.12,7.13-4.3,10.86-13.71,43.26-22.62,87.54-28.5,132.48-6.17,47.14-7.95,94.26,2.84,140.94,2.73,11.81-2.67,19.08-9.32,28.82-5.33-102.35-23.96-200.84-43.79-299.24-.96,3.53-1.08,7.01-.94,10.47,2.03,49.55,3.48,99.13,6.36,148.62,1.99,34.24,7.23,68.18,17.66,101.02,4.43,13.93,10,27.49,14.86,41.29.94,2.66,2.06,5.95,1.3,8.38-1.66,5.27-4.5,10.18-7.51,16.65-1.2-3.86-2.1-5.99-2.52-8.22-7.03-37.02-17.57-73.04-30.44-108.42-20.8-57.19-42.14-114.21-58.02-173.05-.51-1.88-1.58-3.61-2.4-5.41,2.61,25.19,6.16,50.17,10.85,74.93,8.98,47.43,20.08,94.33,37.65,139.47,10.76,27.63,23.03,54.53,37.59,80.39,1.72,3.06,4.06,6.99,3.41,9.92-1.47,6.66-4.62,12.95-7.63,20.79-1.54-4.03-2.45-6.48-3.42-8.91-6.17-15.44-11.86-31.09-18.61-46.27-25.2-56.63-55.66-110.52-87.08-163.85-9.27-15.74-19.93-30.68-30.14-45.86-2.86-4.25-6.43-8.03-9.67-12.03.75,5.35,2.9,9.69,5.14,13.98,19.48,37.21,34.02,76.58,50.44,115.13,18.29,42.95,39.03,84.61,66.78,122.41,6.7,9.12,13.86,17.9,20.43,27.11,1.75,2.45,3.28,6.05,2.87,8.82-.89,6.04-3.08,11.89-5.41,20.18-23.1-45.85-51.5-85.38-83.31-122.57-32-37.42-69.04-68.64-112.33-92.37,1.07,2.4,2.58,4.35,4.42,5.91,34.78,29.51,63.95,63.92,89.96,101.25,27.69,39.74,59.21,76.21,95.07,108.86,1.7,1.55,3.19,3.32,4.97,5.2-1.72,7.81-3.41,15.51-5.37,24.45-2.13-2.5-3.44-3.88-4.56-5.39-18.28-24.75-39.24-46.98-62.5-67.11-19.04-16.48-39.87-30.07-63.52-38.92-24.29-9.1-48.75-17.74-73.15-26.53-.84-.3-1.89-.04-4.94-.04,4.3,2.65,6.88,4.45,9.65,5.9,10.32,5.39,20.59,10.91,31.09,15.93,30.61,14.64,58.15,33.64,82.39,57.38Z"/></g></svg>