<?xml version="1.0" encoding="UTF-8"?><svg id="Capa_2" xmlns="http://www.w3.org/2000/svg" viewBox="0 0 71.8 112.42"><g id="Capa_1-2"><path d="M33.97,27.3c.24-.65.46-1.15.62-1.68,1.42-4.82,2.91-9.62,4.22-14.47.49-1.81,1.48-2.87,3.15-3.57,5.66-2.36,11.31-4.78,16.94-7.21,1.13-.49,2.14-.62,3.09.3,1.16,1.13,1.03,2.81-.32,3.7-.52.35-1.14.56-1.73.81-4.92,2.07-9.84,4.15-14.78,6.18-1.12.46-1.77,1.07-2.1,2.32-1.06,4.01-2.29,7.97-3.44,11.96-.13.45-.17.92-.3,1.6.98.02,1.84.06,2.7.06,6.47,0,12.94,0,19.42.01.56,0,1.12-.03,1.68.02,4.91.47,6.82,3,7.5,6.18.37,1.72.78,3.42,1.11,5.14.38,2.02-.57,3.17-2.66,3.32-.56.04-1.12,0-1.68.01-.47.02-.93.07-1.58.12-.35,3-.7,5.91-1.01,8.83-.57,5.24-1.11,10.48-1.67,15.71-.56,5.24-1.13,10.47-1.7,15.71-.74,6.82-1.49,13.65-2.23,20.47-.22,2.06-.46,4.12-.67,6.19-.26,2.51-1.11,3.32-3.67,3.4-.24,0-.48,0-.72,0-12.14,0-24.29,0-36.43,0-.32,0-.64,0-.96,0-2.35-.1-3.15-.74-3.45-3.07-.47-3.64-.85-7.29-1.25-10.94-.57-5.24-1.13-10.47-1.69-15.71-.57-5.4-1.13-10.8-1.71-16.19-.54-5.08-1.09-10.16-1.64-15.24-.26-2.38-.5-4.76-.77-7.14-.07-.62-.19-1.24-.32-2.06-1.09-.02-2.11,0-3.13-.05-2.1-.1-3.05-1.18-2.73-3.28.27-1.81.67-3.61,1.11-5.39.91-3.65,3.35-5.68,7.13-6.01.63-.05,1.28-.03,1.92-.03,7.03,0,14.06,0,21.09,0,.87,0,1.74,0,2.65,0ZM10.83,42.27c2.47,21.73,4.63,43.38,7.1,65.04.76.08,1.3.18,1.85.18,10.78,0,21.57.01,32.35,0,.53,0,1.06-.15,1.73-.24,2.35-21.72,4.69-43.35,7.02-64.95-2.08-.39-47.22-.43-50.05-.03ZM5.39,36.88c.34.14.49.24.64.25.64.04,1.28.07,1.91.07,19.26-.02,38.51-.04,57.77-.07.07,0,.14-.06.21-.11.06-.04.12-.09.18-.14.03-.08.08-.15.08-.23-.27-3.79-1.15-4.59-4.82-4.58-16.94.05-33.88.03-50.82.04-.64,0-1.28-.04-1.92.04-1.66.2-2.38.84-2.8,2.49-.18.69-.27,1.39-.43,2.23Z"/></g></svg>