<?xml version="1.0" encoding="UTF-8"?><svg id="Capa_2" xmlns="http://www.w3.org/2000/svg" viewBox="0 0 112.13 39.58"><g id="Capa_1-2"><path d="M56.15,19.45c17.26,0,34.51,0,51.77,0,.64,0,1.28-.03,1.91.06,2.19.31,3.02,2.35,1.58,4.05-.71.84-1.63,1.53-2.52,2.19-4.15,3.05-8.73,5.27-13.63,6.83-1.37.44-2.73.9-4.12,1.22-1.09.25-1.85.77-2.43,1.72-1.08,1.77-2.66,3.02-4.64,3.56-1.29.35-2.68.44-4.02.45-5.59.05-11.18.03-16.78.03-10.07,0-20.13,0-30.2-.02-1.2,0-2.4-.06-3.58-.18-2.45-.25-4.48-1.38-5.73-3.47-.84-1.39-1.99-1.94-3.42-2.3-5.23-1.3-10.11-3.41-14.68-6.26-1.35-.84-2.66-1.77-3.92-2.73-.56-.42-1.07-.99-1.41-1.59-.78-1.39-.09-3.01,1.45-3.41.76-.2,1.58-.2,2.37-.2,15.34,0,30.68.02,46.01.03,2,0,3.99,0,5.99,0h0ZM101.33,24.8c-.05-.19-.09-.38-.14-.57-29.88-.04-59.75-.08-89.63.02-.27,0-.55.14-1.15.31.54.32.78.5,1.05.63,3.44,1.69,6.98,3.18,10.72,4.04,2.13.49,3.85,1.25,4.92,3.31.84,1.61,2.37,2.29,4.21,2.24.96-.03,1.92.02,2.88.02,9.19,0,18.38.01,27.57.01,6.15,0,12.31-.04,18.46.02,2.19.02,4-.64,5.04-2.58.98-1.82,2.52-2.52,4.37-2.95,3.67-.84,7.14-2.23,10.53-3.85.4-.19.78-.43,1.17-.65Z"/><path d="M28.28,15.79h-4.81c-1.13-3.01-.91-5.85.53-8.6,1.22-2.34,3.09-4.05,5.45-5.21,4.34-2.13,8.87-2.49,13.53-1.35,3.45.84,6.64,2.27,9.44,4.48,2.52,1.99,4.36,4.44,5.1,7.61.21.91.24,1.87.37,3.01-.87.07-1.55.15-2.24.17-.71.03-1.43,0-2.26,0-.13-.52-.26-.95-.34-1.39-.36-1.96-1.33-3.6-2.81-4.9-4.03-3.53-8.72-5.23-14.09-4.83-2.02.15-3.89.9-5.55,2.05-2.12,1.47-3.8,4.03-2.66,7.54.12.38.2.77.36,1.4Z"/><path d="M88.52,15.8h-4.7c.16-.65.27-1.17.43-1.67,1-3.08-.72-5.86-2.58-7.16-1.87-1.31-3.96-2.03-6.24-2.2-4.06-.31-7.72.88-11.15,2.93-.48.29-.94.61-1.39.94-.67.5-1.4.89-2.19.37-.89-.59-1.53-1.44-1.7-2.5-.05-.33.18-.79.43-1.06.43-.47.93-.88,1.46-1.23C65.21,1.38,69.9-.21,75.11.04c3.15.15,6.12,1.04,8.84,2.67,4.44,2.67,6.55,8.25,4.58,13.08Z"/></g></svg>