<?xml version="1.0" encoding="UTF-8"?><svg id="Capa_2" xmlns="http://www.w3.org/2000/svg" viewBox="0 0 81.68 44.2"><defs><style>.cls-1{fill:#1d1d1b;}</style></defs><g id="Capa_1-2"><path class="cls-1" d="M81.54,17.7c-.52-3.6-2.41-6.79-5.32-8.97-5.96-4.47-14.41-3.29-18.95,2.58-2.69-4.28-7.65-6.91-13.01-6.33-1.46.16-2.87.56-4.19,1.16-1.21-1.85-3.21-4.03-6.3-5.24C30.37-.43,27.14.05,25.76.25c-.74.11-2.27.33-3.88,1.03-3.04,1.32-5.47,3.7-6.88,6.67-3.48-.35-6.91.61-9.69,2.75C-.65,15.29-1.76,23.87,2.83,29.82l6.98,9.06c2.22,2.88,5.43,4.73,9.04,5.2.6.08,1.19.12,1.78.12,2.99,0,5.88-.98,8.29-2.83,2.51-1.94,4.24-4.63,4.95-7.68,1.67,5.77,7,9.85,13.08,9.85.49,0,.98-.03,1.48-.08,2.45-.27,4.67-1.18,6.54-2.54,1.96,1.01,4.09,1.5,6.21,1.5,4.15,0,8.25-1.88,10.92-5.45l6.86-9.15c2.18-2.91,3.1-6.5,2.58-10.11ZM30.15,31.8c-.33,2.55-1.64,4.82-3.67,6.39-2.04,1.57-4.57,2.25-7.11,1.92-2.55-.33-4.82-1.64-6.39-3.67l-6.98-9.06c-3.24-4.21-2.45-10.26,1.75-13.5,1.7-1.31,3.74-2,5.86-2,.42,0,.84.03,1.26.08,2.55.33,4.82,1.64,6.39,3.67l6.98,9.06c1.57,2.04,2.25,4.56,1.92,7.11ZM24.42,13.19c-1.45-1.88-3.32-3.31-5.45-4.22,1.03-1.77,2.59-3.19,4.5-4.01,1.13-.49,2.27-.66,2.88-.75,1.16-.17,3.56-.52,5.97.41,2.13.83,3.53,2.37,4.4,3.69-.19.17-.38.33-.56.51-2.98,2.94-4.43,7.01-3.98,11.17l.45,4.18c-.36-.67-.76-1.31-1.23-1.92l-6.98-9.06ZM47.99,39.47c-5.28.56-10.04-3.26-10.61-8.54l-1.23-11.37c-.32-2.94.71-5.81,2.81-7.89,1.56-1.54,3.54-2.48,5.73-2.72,5.28-.57,10.04,3.26,10.61,8.54l1.23,11.37c.57,5.28-3.26,10.04-8.54,10.61ZM75.75,25.41l-6.86,9.15c-2.58,3.44-7.04,4.66-10.91,3.31,1.91-2.64,2.9-5.95,2.52-9.44l-1.23-11.37c-.05-.5-.14-.98-.24-1.46l1.31-1.74c3.18-4.25,9.23-5.12,13.48-1.93,4.25,3.18,5.11,9.23,1.93,13.48Z"/></g></svg>
