<?xml version="1.0" encoding="UTF-8"?><svg id="Capa_2" xmlns="http://www.w3.org/2000/svg" viewBox="0 0 90.12 57.42"><g id="Capa_1-2"><path d="M69.48,43.11H21.19c-.9,0-1.62.45-1.62,1s.73,1,1.62,1h48.29c.9,0,1.62-.45,1.62-1s-.73-1-1.62-1Z"/><path d="M90.09,19.75c-.14-.88-.32-1.75-.48-2.63-.3-1.63-1.13-2.92-3.27-3.16-.24-.03-.49-.01-.73-.01-2.82,0-5.64,0-8.46,0-.38,0-.75-.02-1.18-.03.05-.35.07-.59.13-.82.5-2.04,1.03-4.06,1.5-6.11.14-.64.43-.95.92-1.18,2.15-1.03,4.3-2.1,6.44-3.16.26-.13.52-.24.75-.41.59-.46.64-1.31.14-1.89-.41-.47-.85-.4-1.35-.15-2.45,1.24-4.91,2.48-7.38,3.68-.73.36-1.16.89-1.37,1.82-.57,2.48-1.22,4.93-1.84,7.39-.07.27-.16.52-.27.86-.4,0-.78,0-1.16,0-3.06,0-6.13,0-9.19,0-.28,0-.56-.01-.83.01-1.65.17-2.71,1.2-3.11,3.07-.19.91-.37,1.83-.48,2.75-.14,1.07.28,1.62,1.19,1.67.44.03.89.02,1.36.03.06.42.11.74.14,1.05.12,1.22.22,2.43.33,3.65.06.69.13,1.39.19,2.08-4.32-2.01-9.23-2.93-14.43-3.21-4.8-.26-9.5.22-14.01,1.42-2.85.75-5.42,1.78-7.61,3.16.1-.36.2-.72.29-1.08.32-1.18.67-2.35.97-3.53.29-1.12-.2-1.99-1.3-2.35-.62-.2-1.24-.39-1.87-.55-1.11-.27-1.99.23-2.35,1.32-.07.21-.12.42-.18.62-.2.7-.4,1.4-.62,2.2-.49-.92-1.24-1.22-2.13-1.29-.46-.04-.91-.16-1.36-.25-.84-.17-1.99.32-2.19,1.47-.04.24-.09.48-.13.72-.18,1.09-.37,2.18-.57,3.36-.28-.35-.22-.69-.24-1-.19-2.63-.36-5.25-.54-7.88-.02-.27-.05-.54-.11-.81-.18-.86-.84-1.46-1.7-1.46-.76,0-1.52.08-2.27.11-.96.04-1.75.87-1.67,2.02.12,1.6.24,3.19.35,4.79.11,1.56.21,3.13.32,4.81-.12-.22-.2-.33-.24-.46-.55-1.7-1.1-3.4-1.65-5.11-.14-.44-.27-.88-.43-1.31-.36-.93-1.19-1.37-2.16-1.12-.73.19-1.46.42-2.17.68-.74.27-1.18.92-1.16,1.7,0,.29.08.59.17.87.54,1.68,1.09,3.35,1.63,5.03.12.38.24.76.39,1.22-.63.09-1.19.04-1.75.05-1.31,0-1.51.26-1.3,1.57.15.91.29,1.82.42,2.73.4,2.74.8,5.47,1.21,8.21.41,2.76.83,5.52,1.26,8.28.14.88.28,1.77.42,2.65.11.7.52,1.12,1.21,1.25.32.06.65.07.97.07,5.7,0,11.41,0,17.11,0,.16,0,.33,0,.49,0,.74-.04,1.2-.26,1.48-.74,1.31.59,2.81.94,4.4.94,10.86.02,21.72.02,32.58-.01.95,0,1.95-.14,2.84-.4.74-.22,1.39-.49,2-.79-.4.36-.86.66-1.41.86.23.23.57.32,1.07.35.14,0,.28,0,.42,0,5.29,0,10.58,0,15.87,0,.1,0,.21,0,.31,0,1.12-.04,1.49-.45,1.6-1.74.09-1.05.19-2.11.29-3.16.32-3.49.65-6.97.97-10.46.25-2.67.5-5.35.74-8.02.24-2.68.48-5.35.73-8.03.14-1.49.29-2.98.44-4.51.28-.03.48-.05.69-.06.24,0,.49.01.73,0,.91-.08,1.33-.67,1.16-1.7ZM37.71,27.48c6.61-1.13,13.11-.91,19.41.99,3.03.91,5.7,2.18,7.73,4,1.44,1.29,2.42,2.73,2.91,4.33.08.27.13.54.14.81.02.6-.27.81-1.16.86-.48.03-.97.02-1.46.02-7.36,0-12.64,0-20,0-7.15,0-13.25,0-20.4,0-.44,0-.89,0-1.32-.04-.5-.05-.79-.28-.79-.62,0-.36.06-.72.16-1.08.73-2.54,2.7-4.57,5.58-6.2,2.7-1.54,5.84-2.49,9.2-3.06ZM20.44,34.32c.94-3.36,1.89-6.72,2.85-10.08.05-.17.14-.33.23-.54.76.21,1.48.41,2.18.61-.02.49-1.12,4.68-1.78,6.9-.16.13-.32.26-.47.4-.3.27-.57.56-.83.84-.52.01-.9.22-1.16.74-.28.57-.69,1.08-1.04,1.61,0-.16-.02-.32.02-.47ZM15.17,37.02c.58-3.47,1.16-6.94,1.74-10.41.01-.07.09-.13.15-.23.73.09,1.47.19,2.18.38.01.83-1.02,7.41-1.57,10.06-.79.39-1.58.68-2.5.72,0-.21-.02-.37,0-.52ZM11.97,20.79c.23.75,1.31,15.23,1.25,16.78-.88.01-1.63-.27-2.45-.61-.36-5.31-.72-10.62-1.08-15.97.8-.18,1.53-.24,2.27-.2ZM2.56,25.17c.74-.34,1.47-.51,2.23-.72.1.19.2.34.26.51,1.02,3.2,2.03,6.4,3.03,9.61.05.16.05.34.07.52-.19-.16-.42-.3-.56-.51-.33-.46-.63-.95-.89-1.45-.24-.46-.57-.71-1.09-.7-.24,0-.48-.02-.77-.03-.79-2.4-1.55-4.79-2.27-7.23ZM61.55,55.34c-.18,0-.35,0-.53,0-10.41,0-20.83,0-31.24,0-.74,0-1.51-.04-2.22-.19-2.67-.58-4.29-1.97-4.81-4.12-.22-.9.21-1.31,1.39-1.32,2.21-.02,4.41,0,6.62,0h14.56c6.88,0,13.77,0,20.65,0,1.92,0,2.34.45,1.78,1.93-.82,2.17-3.31,3.66-6.2,3.72ZM82.3,54.78c-.29.05-.52.12-.75.12-4.37,0-8.74,0-13.12,0,1.15-1.03,1.89-2.33,2.15-3.91.31-1.86-1.27-3.28-3.62-3.38-.53-.02-1.06-.02-1.59-.02-6.67,0-13.33,0-20,0h0c-7.11,0-14.22.04-21.33-.02-2.25-.02-4.39,1.41-3.98,3.64.31,1.68,1.37,3.18,2.89,4.29-.11.02-.22.04-.32.04-3.67.12-16.83.04-17.58-.1-.02-.02-.03-.04-.05-.06-.02-.02-.05-.04-.05-.06-.07-.34-.15-.69-.2-1.04-.99-6.62-1.98-13.24-2.96-19.86-.01-.07.02-.15.03-.22.61-.12,2.52-.15,3.52-.04,1.91,3.42,4.92,5.13,8.79,5.12,2.32,0,4.31-.66,5.94-1.91,0,.02,0,.03-.01.05-.24,1.28,1.05,2.78,3.42,2.88.44.02.88.04,1.32.04,6.84,0,13.68,0,20.52,0h0c6.84,0,13.68,0,20.52-.01.53,0,1.06,0,1.58-.05,1.9-.17,3.17-1.16,3.15-2.48,0-.45-.08-.91-.21-1.35-.84-2.84-2.93-5.16-6.07-7.02-.24-2.61-.48-5.22-.73-7.83,1.23-.21,20.9-.19,21.8.01-1.02,11.04-2.04,22.08-3.06,33.18ZM87.64,18.84s-.05.05-.08.07c-.03.02-.06.05-.09.05-8.39.01-16.78.03-25.17.03-.28,0-.56-.02-.83-.04-.07,0-.13-.06-.28-.13.07-.43.11-.79.19-1.14.18-.84.5-1.17,1.22-1.27.27-.04.56-.02.83-.02,7.38,0,14.76,0,22.14-.02,1.6,0,1.98.4,2.1,2.34,0,.04-.02.08-.03.12Z"/></g></svg>
