<?xml version="1.0" encoding="UTF-8"?><svg id="Capa_2" xmlns="http://www.w3.org/2000/svg" viewBox="0 0 46.43 57.42"><g id="Capa_1-2"><path d="M46.4,19.75c-.14-.88-.32-1.75-.48-2.63-.3-1.63-1.13-2.92-3.27-3.16-.24-.03-.49-.01-.73-.01-2.82,0-5.64,0-8.46,0-.38,0-.75-.02-1.18-.03.05-.35.07-.59.13-.82.5-2.04,1.03-4.06,1.5-6.11.14-.64.43-.95.92-1.18,2.15-1.03,4.3-2.1,6.44-3.16.26-.13.52-.24.75-.41.59-.46.64-1.31.14-1.89-.41-.47-.85-.4-1.35-.15-2.45,1.24-4.91,2.48-7.38,3.68-.73.36-1.16.89-1.37,1.82-.57,2.48-1.22,4.93-1.84,7.39-.07.27-.16.52-.27.86-.4,0-.78,0-1.16,0-3.06,0-6.13,0-9.19,0-.28,0-.56-.01-.83.01-1.65.17-2.71,1.2-3.11,3.07-.19.91-.37,1.83-.48,2.75-.14,1.07.27,1.62,1.19,1.67.44.03.89.02,1.36.03.06.42.11.74.14,1.05.07.74.14,1.48.2,2.23-.2-.04-.39-.09-.59-.12-.84-.17-1.99.32-2.19,1.48-.04.24-.09.48-.13.73-.18,1.1-.37,2.2-.57,3.39-.28-.36-.22-.7-.24-1.01-.19-2.65-.36-5.29-.54-7.94-.02-.27-.05-.55-.11-.81-.17-.87-.84-1.47-1.7-1.47-.76,0-1.52.08-2.28.11-.96.04-1.75.88-1.66,2.03.12,1.61.24,3.22.35,4.83.11,1.58.21,3.15.32,4.85-.12-.22-.2-.33-.24-.46-.55-1.71-1.1-3.43-1.65-5.14-.14-.44-.27-.89-.43-1.32-.36-.93-1.19-1.38-2.16-1.13-.73.19-1.46.42-2.17.68-.74.27-1.17.93-1.16,1.71,0,.29.08.6.17.88.54,1.69,1.09,3.38,1.63,5.06.12.38.24.77.39,1.23-.63.09-1.19.05-1.75.05-1.31,0-1.51.26-1.3,1.58.15.92.29,1.84.42,2.75.4,2.76.8,5.52,1.21,8.27.41,2.78.83,5.57,1.26,8.35.14.89.28,1.78.42,2.67.11.7.52,1.13,1.21,1.26.32.06.65.07.97.07,5.46,0,10.92,0,16.38,0,.15.03.31.06.51.07.14,0,.28,0,.42,0,5.29,0,10.58,0,15.87,0,.1,0,.21,0,.31,0,1.12-.04,1.49-.45,1.6-1.74.09-1.05.19-2.11.29-3.16.32-3.49.65-6.97.97-10.46.25-2.67.5-5.35.74-8.02.24-2.68.48-5.35.73-8.03.14-1.49.29-2.98.44-4.51.28-.03.48-.05.69-.06.24,0,.49.01.73,0,.91-.08,1.33-.67,1.16-1.7ZM20.44,34.29c.94-3.39,1.89-6.78,2.85-10.16.05-.17.14-.34.23-.55.76.21,1.48.42,2.18.61-.03.62-1.74,7.08-2.16,8.17-.24,0-.5.03-.77.02-.6-.03-1.01.18-1.3.76-.28.57-.69,1.08-1.04,1.62,0-.16-.02-.33.02-.47ZM20.41,34.78s0,0,0,0c0,0,0,0,0,0,0,0,0,0,0,0ZM15.17,37.01c.58-3.5,1.16-6.99,1.74-10.48.01-.07.09-.13.15-.23.73.09,1.47.2,2.18.38.01.83-1.02,7.47-1.57,10.13-.79.39-1.58.69-2.5.72,0-.21-.02-.37,0-.52ZM11.97,20.66c.23.75,1.31,15.35,1.25,16.91-.88.01-1.63-.28-2.45-.62-.36-5.35-.72-10.7-1.08-16.09.8-.18,1.53-.24,2.27-.2ZM2.56,25.07c.74-.34,1.47-.52,2.23-.73.1.19.2.34.26.51,1.02,3.23,2.03,6.45,3.03,9.68.05.16.05.35.07.52-.19-.17-.42-.31-.56-.51-.33-.47-.63-.95-.89-1.46-.24-.47-.57-.71-1.09-.7-.24,0-.48-.02-.77-.04-.79-2.42-1.55-4.82-2.27-7.28ZM5.07,55.57s-.03-.04-.05-.06c-.02-.02-.05-.04-.05-.06-.07-.35-.15-.69-.2-1.04-.99-6.67-1.98-13.34-2.96-20.01-.01-.07.02-.15.03-.23.61-.12,2.52-.15,3.52-.04,1.91,3.45,4.92,5.17,8.79,5.16,3.84-.01,6.81-1.75,8.7-5.18h3.48c.06.06.09.07.1.09.01.02.01.05,0,.08,0,.16,0,.33-.03.49-1.03,6.85-2.06,13.71-3.11,20.64-.07.07-.15.14-.23.21-.14.03-.28.05-.4.05-3.67.12-16.83.04-17.58-.1ZM38.61,54.78c-.29.05-.52.12-.75.12-4.28,0-8.55,0-12.83,0,.51-3.41,1.01-6.82,1.52-10.23.47-3.16.95-6.32,1.41-9.48.1-.65.2-1.3.24-1.95.03-.5-.21-.76-.71-.81-.35-.04-.71-.02-1.06-.03-.34-.02-.7.07-1.08-.11.04-.22.08-.43.13-.64.28-1.05.57-2.11.86-3.16.32-1.18.67-2.37.97-3.56.29-1.13-.2-2.01-1.3-2.37-.62-.2-1.24-.39-1.87-.55-1.11-.28-1.98.23-2.35,1.33-.07.21-.12.42-.18.63-.2.7-.4,1.41-.62,2.22-.21-.39-.47-.67-.76-.86-.11-1.24-.23-2.49-.35-3.74,1.23-.21,20.9-.19,21.8.01-1.02,11.04-2.04,22.08-3.06,33.18ZM43.95,18.84s-.05.05-.08.07c-.03.02-.06.05-.09.05-8.39.01-16.78.03-25.17.03-.28,0-.56-.02-.83-.04-.07,0-.13-.06-.28-.13.07-.43.11-.79.19-1.14.18-.84.5-1.17,1.22-1.27.28-.04.56-.02.83-.02,7.38,0,14.76,0,22.14-.02,1.6,0,1.98.4,2.1,2.34,0,.04-.02.08-.03.12Z"/></g></svg>
