<?xml version="1.0" encoding="UTF-8"?><svg id="Capa_2" xmlns="http://www.w3.org/2000/svg" viewBox="0 0 83.05 112.05"><defs><style>.cls-1{fill:#fff;}</style></defs><g id="Capa_1-2"><path d="M25.72,34.55c-.32-4.95-.61-9.56-.93-14.17-.32-4.7-.68-9.4-1.02-14.1-.25-3.38,2.07-5.83,4.9-5.94C30.9.24,33.14,0,35.37,0c2.56,0,4.5,1.74,5.02,4.29.16.78.26,1.58.31,2.37.54,7.73,1.05,15.46,1.6,23.19.06.91-.11,1.9.71,2.94.59-3.47,1.13-6.68,1.67-9.89.12-.71.26-1.41.38-2.12.59-3.39,3.95-4.81,6.44-4.32,1.33.27,2.65.61,4,.73,2.61.23,4.8,1.11,6.26,3.8.67-2.38,1.25-4.44,1.84-6.49.17-.61.33-1.23.54-1.84,1.09-3.21,3.68-4.69,6.93-3.88,1.85.46,3.69,1.01,5.51,1.61,3.24,1.07,4.68,3.63,3.83,6.93-.89,3.48-1.9,6.93-2.85,10.39-.85,3.08-1.7,6.15-2.53,9.23-.16.6-.25,1.21-.38,1.86,1.14.51,2.18.26,3.19.32,1.04.05,2.08-.01,3.11.1,1.49.17,2.2.9,2.11,2.37-.12,1.91-.42,3.81-.7,5.7-1.38,9.24-2.77,18.47-4.16,27.71-1.62,10.82-3.23,21.64-4.86,32.45-.47,3.12-1.97,4.42-5.14,4.58-.48.02-.96,0-1.44,0-16.79,0-33.58,0-50.37,0-.95,0-1.92-.05-2.86-.22-2.03-.37-3.24-1.62-3.56-3.67-.42-2.6-.84-5.2-1.24-7.81-1.24-8.13-2.48-16.26-3.7-24.39-1.2-8.05-2.37-16.11-3.56-24.17-.4-2.69-.8-5.37-1.24-8.05-.63-3.87-.03-4.6,3.82-4.62,1.65-.01,3.3.11,5.14-.14-.43-1.35-.78-2.48-1.15-3.59-1.61-4.93-3.23-9.86-4.81-14.8-.26-.83-.48-1.71-.49-2.57-.05-2.3,1.23-4.21,3.41-5,2.1-.76,4.23-1.43,6.39-1.99,2.84-.73,5.28.56,6.35,3.29.49,1.26.86,2.57,1.28,3.86,1.62,5.01,3.23,10.02,4.85,15.03.12.37.36.69.71,1.34ZM24.04,46.96c.1.06.19.12.29.18-.11-.04-.22-.09-.34-.13-.06-.54-.05-1.11-.21-1.62-2.96-9.43-5.94-18.86-8.93-28.29-.16-.5-.48-.95-.76-1.5-2.24.61-4.38,1.12-6.56,2.12,2.11,7.18,4.36,14.21,6.69,21.28.86.04,1.57.11,2.28.1,1.54-.02,2.5.69,3.2,2.05.76,1.48,1.67,2.9,2.63,4.27.43.61,1.13,1.03,1.7,1.53ZM60.06,46.12c1.05-1.6,2.26-3.11,3.11-4.81.85-1.7,2.06-2.3,3.83-2.21.78.04,1.56-.04,2.26-.06,1.23-3.18,6.29-22.05,6.37-23.87-2.06-.58-4.18-1.16-6.42-1.79-.26.61-.52,1.09-.66,1.6-2.81,9.89-5.61,19.79-8.39,29.69-.12.44-.04.93-.05,1.4-.04.03-.07.07-.11.1-.02-.04-.03-.07-.05-.11.04.02.07.04.11.07ZM68.45,106.88c3.1-20.43,6.17-40.62,9.23-60.81.07-.47.07-.95.1-1.43,0-.08,0-.17-.03-.24-.03-.06-.11-.11-.28-.27h-10.25c-5.54,10-14.29,15.1-25.6,15.13-11.39.03-20.26-5-25.87-15.07-2.94-.31-8.55-.24-10.36.12-.03.21-.11.44-.08.66,2.9,19.49,5.81,38.99,8.72,58.48.15,1.02.38,2.03.59,3.05.01.07.09.12.15.18.05.06.11.12.16.17,2.19.42,40.95.65,51.75.29.54-.02,1.08-.15,1.79-.25ZM38.92,54.25c.17-4.56-3.02-47.21-3.69-49.41-2.16-.13-4.33.06-6.68.58,1.06,15.76,2.12,31.4,3.17,47.02,2.39,1,4.6,1.85,7.2,1.81ZM52.03,52.04c1.61-7.78,4.65-27.17,4.62-29.61-2.09-.54-4.25-.85-6.41-1.11-.2.28-.41.46-.45.67-1.72,10.21-3.43,20.42-5.13,30.63-.07.45,0,.91,0,1.53,2.71-.1,5.04-.98,7.37-2.11Z"/><path class="cls-1" d="M60.06,46.12s-.07-.04-.11-.07c.02.04.03.07.05.11.04-.03.07-.07.11-.1l-.05.06Z"/></g></svg>