<?xml version="1.0" encoding="UTF-8"?><svg id="Capa_2" xmlns="http://www.w3.org/2000/svg" viewBox="0 0 85.79 90.33"><g id="Capa_1-2"><path d="M42.95,42.18c12.71,0,25.42,0,38.13,0,.64,0,1.28-.03,1.92.01,1.71.1,2.63.97,2.75,2.68.07,1.03.05,2.08.01,3.11-.7,18.08-11.86,33.57-28.39,39.67-17.34,6.4-35.78,1.07-47.58-13.54C3.22,65.98.2,56.55,0,46.17c0-.24,0-.48,0-.72.08-2.43.89-3.22,3.38-3.26.72-.01,1.44,0,2.16,0,12.47,0,24.94,0,37.41,0ZM6.34,56.68c.22.82.37,1.51.59,2.18,2.35,6.87,6.13,12.81,11.69,17.52,9.36,7.93,20.19,11.04,32.15,8.24,14.06-3.29,23.3-12.3,28.2-25.82.24-.65.34-1.35.53-2.12H6.34ZM5.27,51.56c2.73.36,73.41.31,75.18-.03.53-2.62.53-2.64.12-4.4-2.71-.32-73.6-.24-75.55.11-.19,1.4.16,2.79.26,4.32Z"/><path d="M55.96,10.77c-.23,3.53-1.83,6.49-5.21,8.35-2.55,1.41-5.34,2.05-8.2,2.42-3.79.49-7.59.91-11.38,1.45-2.06.29-4.02,1-5.86,1.98-2.51,1.33-3.97,3.39-4.22,6.25-.03.32,0,.64-.07.95-.24,1.29-1.04,1.95-2.32,1.94-1.23,0-2.16-.72-2.34-1.95-.1-.7-.06-1.44.06-2.14.66-3.93,2.69-6.93,6.14-8.96,2.43-1.44,5.09-2.32,7.85-2.77,2.91-.47,5.86-.67,8.78-1.06,2.13-.29,4.25-.64,6.36-1.08.92-.19,1.82-.6,2.67-1.03,4.28-2.19,3.18-7.14.63-8.91-1.21-.84-2.54-1.28-4-1.45-1.86-.23-2.74-1.06-2.68-2.41.07-1.45,1.28-2.39,3.03-2.34,5.64.15,10.73,5.12,10.76,10.76Z"/><path d="M48.4,34.74c-2.93-.24-5.88-.41-8.8-.74-1.21-.13-1.82-1.01-1.86-2.13-.04-1.13.54-1.99,1.66-2.34.44-.14.94-.17,1.4-.14,2.46.15,4.92.42,7.38.48,3.74.09,7.49.02,11.13-1.06.61-.18,1.23-.34,1.81-.58,1.74-.71,3.26-1.67,3.88-3.61.29-.89.91-1.48,1.88-1.63,1.65-.26,2.86.79,2.72,2.44-.06.69-.31,1.4-.61,2.04-1.02,2.19-2.74,3.67-4.9,4.69-3.15,1.49-6.52,2.04-9.94,2.28-1.9.13-3.82.02-5.74.02,0,.09,0,.18-.01.28Z"/></g></svg>