<?xml version="1.0" encoding="UTF-8"?><svg id="Capa_2" xmlns="http://www.w3.org/2000/svg" viewBox="0 0 36.2 30.04"><g id="Capa_1-2"><path d="M19.67,16.59c.96-1.48,1.61-2.9,2.64-3.97,1.35-1.41,2.83-2.86,4.54-3.71,3.2-1.59,6.42-.03,7.66,3.33,1.24,3.38.26,6.93-2.54,9.2-.26.21-.51.43-.8.59-2.77,1.6-5.17,3.57-7.24,6.06-1.92,2.3-4.79,2.57-6.83.78-.98-.86-1.68-2.14-2.26-3.35-.65-1.35-1.04-2.84-1.51-4.27-.43-1.3-1.27-1.55-2.43-.98-1.1.55-2.18,1.13-3.27,1.71-2.49,1.31-5.88.62-7.53-1.62-.17-.23-.05-.85.15-1.15.18-.27.65-.34,1-.49,2.75-1.15,5.09-2.83,7.13-5.04,1.2-1.3,2.6-2.53,4.14-3.38,2.61-1.45,4.38-.73,5.58,2.01.58,1.32,1.01,2.71,1.59,4.28ZM11.61,18.25c-.22-.27-.55-.55-.71-.91-.17-.37-.19-.82-.27-1.23.45.08,1.03.02,1.33.28.56.49,1.07,1.11,1.39,1.77.84,1.74,1.56,3.54,2.32,5.31.46,1.08.78,2.25,1.39,3.24,1.24,2.01,3.6,2.3,5.38.77.5-.43.88-.99,1.37-1.43,1.5-1.35,3-2.71,4.56-3.99.8-.66,1.76-1.11,2.58-1.76,2.33-1.83,3.13-4.57,2.22-7.37-.88-2.71-3.25-3.87-5.83-2.68-1.09.5-2.17,1.24-2.97,2.12-2.01,2.24-3.44,4.85-4.24,7.79-.13.47-.66.84-1,1.25-.14-.51-.5-1.09-.38-1.53.31-1.07.27-1.91-.46-2.84-.5-.64-.63-1.56-.94-2.36-.29-.75-.55-1.51-.88-2.24-.56-1.27-1.58-1.7-2.78-1.08-1.16.6-2.35,1.31-3.23,2.25-2.38,2.55-4.9,4.87-8.14,6.29-.04.02-.03.17-.05.27,1.53,1.21,3.08,1.44,4.84.39,1.4-.84,2.91-1.52,4.46-2.31Z"/><path d="M20.76,8.43c1.15-.93,2.01-1.63,2.88-2.34,1.72-1.4,3.62-2.42,5.85-2.74,3.78-.54,6.8,1.97,6.72,5.65,0,.41-.41.82-.63,1.23-.27-.41-.75-.79-.79-1.22-.31-3.11-2.29-4.79-5.33-4.07-1.61.38-3.13,1.26-4.58,2.11-1.09.64-1.97,1.63-3,2.38-1.35.98-2.38.51-2.53-1.17-.11-1.17-.03-2.37-.07-3.55-.09-3.02-1.17-3.82-4.08-2.99-.77.22-1.54.51-2.24.9-3.04,1.69-6.16,3.11-9.75,3.23.92,1.97,2.15,2.56,4.1,2.21,1.34-.23,2.7-.39,4.06-.38.39,0,.77.71,1.16,1.09-.49.11-.97.25-1.47.31-1.02.13-2.07.13-3.07.34-3.01.64-5.88-.85-6.91-3.76-.1-.28.36-1.02.69-1.12.7-.22,1.54-.04,2.25-.26,2.33-.72,4.64-1.55,6.95-2.34,1.86-.64,3.68-1.55,5.6-1.87,2.41-.4,3.62.71,4.03,3.12.14.83.13,1.7.15,2.55.02.78,0,1.56,0,2.68Z"/><path d="M26.81,16.11c-.69.47-1.09.97-1.43.92-.35-.05-.78-.59-.86-.97-.05-.23.53-.81.84-.82.38,0,.76.43,1.46.87Z"/><path d="M30.35,14.97c.46.69.9,1.06.89,1.43,0,.31-.59.9-.82.85-.39-.07-.93-.51-.99-.86-.05-.32.45-.73.92-1.42Z"/><path d="M29.74,19.84c-.72.43-1.16.89-1.49.82-.35-.07-.76-.61-.83-1.01-.04-.21.59-.77.9-.76.38.01.74.46,1.43.94Z"/><path d="M23.52,22.61c-.46-.69-.95-1.11-.9-1.44.05-.34.6-.77.99-.84.23-.04.81.55.8.84,0,.38-.44.75-.89,1.43Z"/><path d="M29.12,12.55c-.53.44-.89.97-1.16.92-.39-.06-.73-.53-1.08-.83.33-.32.62-.82,1-.92.27-.06.68.42,1.24.82Z"/></g></svg>
