<?xml version="1.0" encoding="UTF-8"?><svg id="Capa_2" xmlns="http://www.w3.org/2000/svg" viewBox="0 0 114.37 54.26"><g id="Capa_1-2"><path d="M76.91,19.12h17.67c.3-.69.58-1.42.93-2.12,2.06-4.12,6.49-6.29,11-5.4,4.06.8,7.32,4.45,7.77,8.7.17,1.63-.11,3.18-.79,4.66-.3.65-.66,1.26-1.03,1.95,1.78,2.95,2.57,6.03,1.27,9.37-.97,2.51-2.67,4.32-5.13,5.42-5.67,2.53-11.05.02-13.97-6.61h-17.64c-.25.5-.45.92-.66,1.34-1.34,2.7-3.55,4.25-6.46,4.82-1.56.31-3.14.53-4.72.8-3.43.59-6.56,1.94-9.57,3.64-2.5,1.42-5,2.84-7.55,4.16-6.54,3.38-13.51,4.86-20.83,4.27-7.37-.6-14-3.07-19.37-8.36C-4.47,33.66-1.93,13.15,12.98,4.44,17.9,1.56,23.22.17,28.95.01c7.39-.2,14.21,1.65,20.64,5.16,2.1,1.15,4.18,2.34,6.28,3.49,3.9,2.13,8.05,3.41,12.48,3.88,4.13.45,7.25,2.35,8.56,6.58ZM72.32,27.12h.02c0-1.92,0-3.83,0-5.75,0-1.38-.46-2.56-1.69-3.22-.82-.44-1.77-.76-2.69-.87-4.89-.56-9.53-1.92-13.86-4.25-2.32-1.25-4.61-2.54-6.92-3.81-6.02-3.29-12.39-4.92-19.31-4.49-5.07.32-9.72,1.74-13.89,4.62-11.25,7.79-12.48,23.99-2.49,33.33,4.24,3.97,9.33,6.12,15.04,6.67,6.82.66,13.36-.49,19.45-3.79,2.45-1.33,4.91-2.67,7.35-4.02,2.59-1.43,5.28-2.64,8.16-3.37,2-.51,4.03-.98,6.08-1.22,4.02-.49,4.91-2.44,4.76-5.29-.08-1.51-.01-3.03-.01-4.55ZM77.2,30.21c.66.04,1.06.08,1.45.09,5.44,0,10.87,0,16.31.02.87,0,1.75.1,2.59.3,1.01.25,1.62.92,1.73,2.04.07.71.2,1.44.46,2.1.78,1.96,2.29,3.01,4.39,3.18,2.12.17,3.72-.7,4.75-2.56,1.28-2.31.88-4.43-1.14-6.21-1.98-1.75-1.97-2.45-.03-4.12.58-.51,1.16-1.13,1.47-1.83,1.12-2.51-.09-5.57-2.64-6.61-2.35-.96-5.23-.43-6.67,2.51-.31.63-.43,1.37-.56,2.07-.34,1.8-.8,2.35-2.53,2.66-.7.13-1.43.09-2.15.09-5.12,0-10.23,0-15.35.01-.68,0-1.37.09-2.06.15v6.11Z"/></g></svg>