<?xml version="1.0" encoding="UTF-8"?><svg id="Capa_2" xmlns="http://www.w3.org/2000/svg" viewBox="0 0 50.7 28.28"><g id="Capa_1-2"><path d="M49.2,15.37c-1.28-.78-2.88-.61-3.98.42-.18.17-.35.37-.52.54-1.82-.67-3.6-1.32-5.41-1.98.07-1.44-.67-2.38-1.89-2.98-1.3-.64-2.43-1.5-3.39-2.59-.51-.59-1.02-1.19-1.53-1.77-1.58-1.8-3.46-3.13-5.74-3.9-1.77-.59-3.56-.77-5.39-.44-1.15.21-2.2.64-3.11,1.22-.98-1.25-2.16-2.27-3.59-2.99C9.63-1.61,3.57,1.34,2.45,6.86c-.42,2.08-.1,4.04.74,5.9-3.91,3.14-4.33,9.11-.63,12.75,1.75,1.73,3.92,2.53,6.32,2.73,2.39.19,4.66-.29,6.8-1.39.83-.43,1.65-.89,2.46-1.36.98-.56,2-1,3.12-1.19.51-.09,1.03-.16,1.54-.26.95-.19,1.67-.69,2.11-1.57.07-.14.14-.27.22-.44h5.75c.95,2.16,2.71,2.98,4.56,2.15.8-.36,1.36-.95,1.67-1.77.36-.93.22-1.8-.19-2.63.09-.07.18-.12.26-.2.11-.11.22-.21.35-.34,1.81.66,3.61,1.32,5.4,1.98.15,2.36,1.52,3.73,3.54,3.59.87-.06,1.6-.43,2.18-1.08.77-.88.88-1.91.66-3.01.19-.17.37-.32.54-.48.37-.38.63-.82.76-1.34.34-1.35-.25-2.83-1.4-3.54ZM3.94,7.32C4.72,2.93,9.37.38,13.5,2.07c1.45.59,2.6,1.54,3.56,2.76-1.8,1.68-2.82,4.1-2.72,6.6-1.55-.59-3.18-.89-4.9-.84-1.78.05-3.43.48-4.97,1.32-.61-1.45-.81-2.99-.53-4.59ZM23.6,19.43h0c0,.5-.02.99,0,1.49.05.93-.24,1.57-1.55,1.73-.67.08-1.33.23-1.98.4-.94.24-1.82.63-2.66,1.1-.8.44-1.6.88-2.4,1.31-1.98,1.08-4.12,1.45-6.34,1.24-1.86-.18-3.52-.88-4.91-2.18-3.26-3.05-2.86-8.33.81-10.87,1.36-.94,2.88-1.4,4.53-1.51,2.26-.14,4.34.39,6.3,1.46.75.41,1.5.83,2.26,1.24,1.41.76,2.93,1.21,4.52,1.39.3.03.61.14.88.28.4.22.55.6.55,1.05,0,.63,0,1.25,0,1.88ZM35.51,22.12c-.34.61-.86.89-1.55.84-.68-.05-1.18-.4-1.43-1.04-.09-.21-.13-.45-.15-.68-.03-.36-.23-.58-.56-.66-.27-.07-.56-.1-.84-.1-1.77,0-3.55,0-5.32,0-.13,0-.26-.01-.47-.03v-1.99c.23-.02.45-.05.67-.05,1.67,0,3.34,0,5.01,0,.23,0,.47.01.7-.03.56-.1.71-.28.83-.87.04-.23.08-.47.18-.67.47-.96,1.41-1.13,2.18-.82.83.34,1.23,1.34.86,2.16-.1.23-.29.43-.48.6-.63.55-.64.77.01,1.34.66.58.79,1.27.37,2.03ZM37.65,14.53c-.21.57-.42,1.14-.63,1.72-.42-.94-1.27-1.68-2.27-1.87-1.47-.29-2.92.42-3.59,1.76-.11.23-.2.46-.3.69h-5.77c-.43-1.38-1.45-2-2.79-2.15-1.44-.16-2.8-.57-4.07-1.27-.69-.37-1.36-.76-2.05-1.14-.07-.04-.14-.07-.2-.1-.55-3.44,1.56-6.94,5.15-7.87,1.6-.42,3.18-.33,4.77.14,2.17.64,3.94,1.86,5.41,3.54.57.65,1.12,1.3,1.69,1.94,1.07,1.2,2.33,2.14,3.77,2.86.27.14.52.34.73.57.3.34.31.75.16,1.18ZM48.71,19.22c-.17.18-.42.31-.66.39-.78.3-.86.51-.45,1.27.42.77.3,1.47-.35,2.03-.53.46-1.11.54-1.74.25-.62-.29-.97-.78-.99-1.47,0-.23.04-.47.09-.69.09-.35-.02-.63-.3-.82-.23-.16-.49-.29-.76-.38-1.66-.62-3.33-1.23-4.99-1.84-.12-.04-.24-.1-.43-.19.24-.64.45-1.22.69-1.87.22.06.44.11.65.19,1.57.57,3.14,1.15,4.7,1.72.22.08.44.17.67.21.57.1.77-.02,1.07-.53.12-.2.24-.41.41-.57.77-.74,1.71-.58,2.32-.02.66.6.69,1.68.07,2.32Z"/></g></svg>
