<?xml version="1.0" encoding="UTF-8"?><svg id="Capa_2" xmlns="http://www.w3.org/2000/svg" viewBox="0 0 759.39 184.09"><defs><style>.cls-1{fill:#c87865;}</style></defs><g id="Capa_1-2"><path class="cls-1" d="M9.92,27.92c-.24,5.86-.59,9.67-.53,13.46.65,41.97,1.37,83.94,2.06,125.91.05,3,.12,5.99.06,8.99-.07,3.24-2,4.83-5.07,4.99-3.41.18-5.91-1.1-6.23-4.88-.2-2.32-.22-4.66-.21-6.99C.37,118.77.71,68.13,1.14,17.49,1.28,1.96,4.81-.84,20.38.86c7.24.79,12.46,3.86,15.65,10.6,9.68,20.47,19.6,40.83,29.29,61.29,10.26,21.66,20.36,43.41,30.58,65.09,1.11,2.36,2.57,4.56,4.87,8.58,2.09-3.88,3.73-6.46,4.94-9.24,15.94-36.64,31.81-73.32,47.75-109.97,2.52-5.8,5.15-11.57,8.07-17.18,5-9.59,22.19-13.42,30.28-6.53,1.98,1.69,3.14,5.07,3.47,7.81.66,5.6.64,11.3.65,16.96.05,45.98.06,91.97.02,137.95,0,5.23,1.12,11.41-5.07,13.99-6.94,2.9-14.46,3.11-21.23-.45-2.09-1.1-3.49-4.71-3.98-7.4-.7-3.88-.32-7.96-.32-11.96.04-40.65.1-81.3.13-121.95,0-2.62-.23-5.23-.38-8.28-4.41.39-4.63,3.97-5.66,6.37-12.32,28.77-24.4,57.65-36.73,86.41-6.56,15.3-13.44,30.47-20.25,45.66-1.09,2.42-2.41,4.78-3.94,6.94-5.32,7.5-12.58,7.46-17.7-.35-2.72-4.15-4.83-8.75-6.9-13.29-14.69-32.09-29.24-64.24-43.98-96.31-5.15-11.19-10.69-22.2-16.12-33.26-.5-1.02-1.53-1.79-3.9-4.45Z"/><path class="cls-1" d="M412.87,24.81c.73,25.9,1.48,51.81,2.2,77.71.71,25.52,1.41,51.05,2.11,76.28-11.69,2.71-13.15,1.78-13.04-8.63.39-39.33.99-78.66,1.39-117.99.14-13.33-.15-26.66-.13-39.99.02-9.45,1.6-10.81,10.78-11.77,11.36-1.19,19.34,2.91,26.41,12.19,32.32,42.41,65.24,84.36,98.01,126.43,3.21,4.12,6.87,7.89,11.52,13.19.77-4.08,1.52-6.19,1.51-8.29-.13-19.66-.07-39.33-.69-58.98-.75-23.65-2.13-47.27-3.21-70.91-.11-2.33-.05-4.67-.12-7-.12-4.11,1.86-6.16,5.95-6.3,4.35-.15,7.21,1.49,7.16,6.22-.05,5.66-.47,11.32-.48,16.98-.07,38.34-.05,76.67-.11,115.01-.02,10.67.09,21.34-.38,31.99-.37,8.54-2.77,10.29-11.21,10.39-10.23.12-17.5-4.48-23.54-12.61-16.28-21.93-32.87-43.64-49.6-65.23-13.07-16.85-26.64-33.32-39.78-50.11-5.75-7.34-10.95-15.1-16.47-22.63-1.71-2.33-3.63-4.5-5.45-6.75-.94.26-1.88.52-2.82.78Z"/><path class="cls-1" d="M269.84,7.44v71.65c3.61.37,6.79,1.01,9.97.96,20.31-.33,40.62-.82,60.94-1.25,2.33-.05,4.67-.14,6.99-.08,3.42.09,5.79,1.45,5.85,5.3.06,3.79-2.05,5.5-5.6,5.43-6.33-.11-12.65-.29-18.97-.61-16.3-.83-32.6-1.78-48.91-2.62-2.94-.15-5.89-.02-9.91-.02-.43,4.24-1.09,7.73-1.1,11.23-.05,22.33-.02,44.66.11,66.99.06,10.38,1.86,11.76,12.71,11.02,24.59-1.68,49.19-3.3,73.79-4.9,2.99-.19,5.99-.2,8.99-.11,3.21.09,5.3,1.97,4.56,5.07-.42,1.76-2.41,3.72-4.16,4.43-2.04.82-4.59.46-6.92.46-34.99-.01-69.98.02-104.97-.12-12.8-.05-15.08-2.11-15.04-15.3.15-50.99.53-101.98,1.01-152.97.09-9.87,1.9-11.49,11.96-11.66,11.99-.2,23.99.06,35.99.09,21.98.06,43.96.07,65.94.2,3.3.02,6.88-.11,9.79,1.12,1.77.75,3.29,3.94,3.37,6.09.05,1.26-2.91,3.68-4.61,3.76-5.97.28-11.98-.11-17.96-.45-20.61-1.19-41.22-2.49-61.83-3.67-3.56-.2-7.14-.03-12-.03Z"/><path class="cls-1" d="M759.39,60.92c-.65,20.94-.29,41.98-2.19,62.81-2.47,27.15-16.21,47.17-43.01,55.69-18.4,5.85-37.38,6.19-56.19,1.07-25-6.81-40.62-23.41-48.02-47.71-2.49-8.18-3.96-16.97-4.11-25.51-.53-30.3-.3-60.62-.32-90.94,0-2.33.14-4.66.4-6.98.49-4.5,2.84-7.41,7.51-7.97,2.97-.36,5.97-.78,8.94-.7,9.88.27,13.15,3.35,13.22,13.29.22,29.65-.07,59.3.43,88.94.18,10.59,1.21,21.32,3.26,31.7,4.45,22.43,20.25,38.13,40.84,41.28,23.96,3.67,43.4-4.11,57.09-24.4,8.84-13.1,12.36-28.16,12.11-43.68-.5-30.95-1.87-61.89-2.89-92.83-.09-2.66-.28-5.32-.33-7.98-.07-4.17,2.21-6.04,6.21-6.08,4.04-.05,6.23,1.99,6.38,6.01.11,2.99.01,5.99.01,8.99,0,14.98,0,29.97,0,44.95.23.01.45.02.68.04Z"/></g></svg>