<?xml version="1.0" encoding="UTF-8"?><svg id="Capa_2" xmlns="http://www.w3.org/2000/svg" viewBox="0 0 844.06 185.85"><defs><style>.cls-1{fill:#c87865;}</style></defs><g id="Capa_1-2"><path class="cls-1" d="M456.7,97.75c4.23,1.97,7.57,3.32,10.72,5.04,10.55,5.73,18.59,14.07,23.99,24.7,8.3,16.35,17.11,32.33,28.28,46.94,1.33,1.74,1.9,4.05,3.2,6.92-2.62.96-4.58,2.1-6.65,2.34-3.29.38-6.69-.21-9.97.24-13.25,1.79-21.38-4.64-27.03-15.86-7.18-14.26-15.08-28.17-21.95-42.57-8.11-17-21.16-25.86-39.87-26.93-9.01-.52-10.58.54-10.62,9.62-.1,19.96,0,39.92-.01,59.89,0,2.99.25,6.08-.42,8.94-.48,2.05-1.98,5-3.6,5.45-7.41,2.05-15.17,2.88-22.32-.59-2.22-1.08-3.66-4.48-4.65-7.12-.77-2.07-.36-4.6-.36-6.93,0-49.24.01-98.48.03-147.72,0-2-.03-4,.09-5.99.53-8.62,2.97-11.37,11.63-11.43,21.64-.14,43.3-.55,64.9.36,15.05.63,29.19,4.85,41.76,14.37,17.93,13.57,20.83,55.43-7.19,68.95-9.17,4.43-19.09,7.31-29.96,11.39ZM408.4,9.7c-2.75,12.08-2.13,72.7.59,79.9,13.59,3.19,29.52,3.51,41.5.45,6.86-1.75,13.11-4.84,17.78-10.45,11.52-13.82,12.5-41.05,1.39-55.22-3.39-4.32-7.94-8.4-12.84-10.73-15.65-7.42-32.19-5.72-48.43-3.95Z"/><path class="cls-1" d="M347,182.5c-10.28,2.03-19.62,2.38-28.41.26-3.38-.82-6.3-6.5-8.04-10.56-5.89-13.74-11.77-27.54-16.45-41.71-3.03-9.18-8.39-12.39-17.53-12.7-17.49-.59-34.38.87-50.73,7.97-16.05,6.96-27.79,17.93-35.28,33.56-2.87,5.99-5.2,12.23-7.99,18.26-2.85,6.16-3.89,6.48-12.33,4.61.45-2.12.57-4.38,1.4-6.35,17.18-41.09,34.43-82.14,51.67-123.2,5.53-13.17,11.33-26.25,16.5-39.56,2.84-7.33,7.89-10.08,15.28-10.23,13.61-.27,19.61,3.3,24.7,15.54,21.34,51.23,42.63,102.48,63.88,153.75,1.22,2.95,1.98,6.09,3.34,10.38ZM286.09,111.77c-4.56-11.99-8.63-22.74-12.75-33.48-4.05-10.54-8.11-21.08-12.26-31.58-4.16-10.54-7.27-21.58-13.85-32.67-1.84,3.31-2.99,4.91-3.68,6.68-13.71,34.91-27.37,69.83-41.01,104.77-.08.2.2.6.41.82.2.22.52.33,1.51.92,11.52-7.26,24.34-13,38.37-14.22,13.75-1.19,27.63-.86,43.26-1.24Z"/><path class="cls-1" d="M844.06,183.56c-10.11,0-18.66.46-27.13-.16-5.84-.43-7.58-5.88-9.4-10.55-5.81-14.88-11.8-29.69-17.2-44.72-2.2-6.1-5.82-9.61-12.13-10.01-18.06-1.15-35.75-.43-52.96,6.68-19.73,8.14-32.61,22.43-41.08,41.4-1.9,4.25-3.66,8.57-5.6,12.81-2.18,4.77-5.61,6.17-11.57,3.21,1.07-3.43,1.85-6.86,3.19-10.05,21.98-52.48,44.05-104.92,66.06-157.39,4.15-9.88,7.83-11.9,18.28-11.43,12.33.56,19.69,5.85,24.47,17.86,20.04,50.4,41.02,100.42,61.58,150.61,1.32,3.22,2.01,6.69,3.49,11.74ZM745.36,14.94c-.81.02-1.61.05-2.42.07-1.54,3.51-3.19,6.98-4.61,10.55-4.92,12.34-9.76,24.72-14.62,37.09-7.41,18.86-14.85,37.7-22.18,56.59-.96,2.48-1.31,5.19-2.04,8.22,2.07-.2,2.79-.1,3.35-.36,1.8-.84,3.55-1.8,5.3-2.75,19.16-10.5,39.31-15.82,61.34-12.28,4.06.65,8.32.09,14.31.09-13.24-33.49-25.83-65.35-38.43-97.21Z"/><path class="cls-1" d="M152.15,140.54c11.94,5.89,12.97,9.18,6.08,17.75-12.74,15.87-29.89,25.06-49.63,26.94-37.69,3.59-69.92-8.34-92.42-39.92C-15.33,101.12,1.04,36.54,49.15,11.43c31.95-16.68,63.38-14.23,94.65,1.67,2.36,1.2,4.54,2.78,6.68,4.35.73.54,1.07,1.6,1.75,2.68-.54,1.12-.93,2.42-1.69,3.44-7.52,10.2-9.1,10.3-18.34,1.99-9.23-8.29-18.97-15.65-31.78-17.64-18.5-2.88-33.37,3.14-44.79,17.81-8.09,10.4-13.44,22.18-16.59,34.9-5.45,21.99-5.99,44.09.02,66.07,3.73,13.65,9.93,26.13,19.85,36.42,25.78,26.74,69.61,20.79,87.4-11.76,1.88-3.44,3.72-6.9,5.84-10.82Z"/><path class="cls-1" d="M589.64,92.85c0-23.61.09-47.22-.04-70.83-.06-10.89-1.4-12.27-12.17-11.86-13.95.53-27.88,1.52-41.81,2.32-1.66.1-3.52.75-4.93.22-1.86-.71-4.28-2.02-4.83-3.63-1-2.94,1-5.12,4.03-5.66,2.27-.41,4.64-.37,6.96-.37,46.58-.06,93.16-.09,139.74-.12,1.99,0,4,.03,5.98.18,3.38.26,5.82,1.7,5.7,5.5-.13,4.12-3.05,4.68-6.31,4.48-10.29-.64-20.57-1.37-30.86-1.97-6.97-.41-13.94-.98-20.91-.92-6.31.06-8.34,2.06-9.04,8.23-.45,3.95-.32,7.97-.32,11.96-.03,45.89,0,91.78-.04,137.67-.01,15.11-1.35,16.3-16.73,15.71-9.85-.38-12.55-2.43-13.45-12.14-.8-8.58-.85-17.25-.91-25.89-.13-17.62-.04-35.25-.04-52.87,0,0-.01,0-.02,0Z"/></g></svg>