<?xml version="1.0" encoding="UTF-8"?><svg id="Capa_2" xmlns="http://www.w3.org/2000/svg" viewBox="0 0 757.96 184.39"><defs><style>.cls-1{fill:#c87865;}</style></defs><g id="Capa_1-2"><path class="cls-1" d="M101.69,148.56c1.95-4.06,3.16-6.38,4.19-8.78,17.41-40.73,34.8-81.48,52.2-122.22.39-.92.9-1.79,1.33-2.69,6.77-14,11.79-16.61,26.78-13.93,5.79,1.04,8.09,3.22,8.86,9.1.43,3.29.43,6.65.43,9.98.02,49,.03,98-.04,146.99,0,4.86,1.28,11.47-4.72,12.92-6.16,1.48-13.08.96-19.43-.09-2.08-.34-4.14-4.89-4.93-7.86-.91-3.45-.52-7.28-.52-10.94,0-40.33.04-80.66.04-120.99,0-3.8-.22-7.61-.34-11.41-.86-.2-1.72-.41-2.59-.61-1.32,2.78-2.76,5.51-3.95,8.34-11.93,28.23-23.73,56.51-35.77,84.69-6.8,15.92-13.99,31.69-21.02,47.51-.95,2.13-2.07,4.18-3.03,6.31-1.8,3.96-4.5,6.56-9.17,6.38-4.85-.19-8-2.65-9.98-7.03-6.56-14.58-13.14-29.15-19.86-43.66-12.89-27.8-25.87-55.55-38.82-83.32-2.11-4.53-4.15-9.09-6.35-13.57-.94-1.92-2.22-3.67-4.47-7.34-.71,4.19-1.37,6.28-1.36,8.37.08,33.66.11,67.33.47,100.99.13,12.32,1.15,24.62,1.6,36.94.08,2.24-.08,4.89-1.22,6.62-.82,1.25-3.58,1.96-5.27,1.68-1.61-.26-3.85-1.89-4.23-3.33-.74-2.82-.5-5.93-.46-8.92.35-27.64.84-55.29,1.09-82.93.21-22.31.14-44.62.24-66.93.01-3.33.19-6.66.39-9.99.27-4.27,2.86-6.49,6.79-7.55,13.3-3.59,22.96.29,28.81,12.64,12.27,25.89,24.12,51.97,36.18,77.95,7.86,16.92,15.76,33.82,23.73,50.68.79,1.68,2.21,3.06,4.4,6.01Z"/><path class="cls-1" d="M553.21,149.98c.16-3.27.54-6.54.44-9.81-1.09-37.96-2.26-75.91-3.39-113.86-.19-6.33-.37-12.66-.47-18.99-.07-3.97,1.78-6.33,5.95-6.35,4.22-.02,5.86,2.55,6.06,6.37.11,1.99.15,4,.14,5.99-.16,50.99-.3,101.99-.52,152.98-.06,14.82-3.55,17.7-18.04,14.22-3.64-.87-7.06-3.36-10.14-5.68-2.34-1.77-4.07-4.38-5.91-6.75-32.09-41.3-64.18-82.61-96.21-123.97-3.26-4.21-6.07-8.77-9.25-13.05-1.7-2.28-3.75-4.31-7.08-8.08-.95,4.42-1.93,6.8-1.89,9.15.42,24.66.87,49.31,1.6,73.96.66,22.31,1.78,44.61,2.38,66.93.07,2.53-1.42,5.69-3.26,7.43-1,.95-4.73.2-6.34-.99-1.59-1.17-2.57-3.8-2.88-5.92-.47-3.27-.18-6.65-.15-9.98.5-48.32,1.12-96.63,1.47-144.95.12-16.9,2.91-19.64,19.86-17.92,6.03.61,10.5,3.38,14.2,8.19,31.85,41.5,63.77,82.94,95.77,124.32,4.79,6.2,10.06,12.03,15.11,18.03.84-.44,1.69-.87,2.53-1.31Z"/><path class="cls-1" d="M269.64,7.08v72.51c4.05.32,7.56.84,11.07.83,20.32-.06,40.65-.27,60.97-.38,2.99-.02,6.17-.34,8.9.57,1.63.54,3.21,3.1,3.52,4.97.17,1.01-2.25,3.28-3.75,3.55-2.88.51-5.95.02-8.93-.11-21.62-.97-43.24-1.99-64.86-2.91-1.91-.08-3.85.46-6.51.81-.36,3.16-.97,6.03-.97,8.9-.05,22.66-.09,45.32.08,67.98.08,11.08,2.17,12.75,13.02,11.99,25.24-1.77,50.48-3.47,75.73-5.18,1.66-.11,3.33-.09,5-.06,3.29.06,6.04.98,6.29,4.87.29,4.53-2.84,5.54-6.43,5.86-1.65.14-3.33.09-4.99.07-34.64-.33-69.28-.66-103.92-.99-2-.02-4.01.16-5.99,0-6.31-.52-8.78-2.84-9.6-9.27-.34-2.63-.2-5.32-.2-7.99.05-47.99.11-95.98.17-143.97,0-2-.05-4,.08-6,.64-9.51,3.48-12.52,13-12.53,34.99-.04,69.97.11,104.96.24,1.98,0,4.38-.17,5.81.84,1.61,1.13,3.31,3.59,3.17,5.32-.13,1.6-2.4,3.79-4.16,4.32-2.44.74-5.28.33-7.93.17-23.93-1.44-47.85-2.97-71.79-4.39-3.54-.21-7.1-.03-11.71-.03Z"/><path class="cls-1" d="M757.73,65.01c0,15.33.63,30.69-.22,45.97-.59,10.53-2.23,21.23-5.17,31.34-4.7,16.2-15.79,27.8-31.17,34.47-25.24,10.95-50.92,9.6-75.72-1.02-18.09-7.75-29.47-22.65-35.06-41.4-2.45-8.21-4.3-16.92-4.46-25.44-.59-31.31-.39-62.63-.39-93.95,0-5.28-.54-11.33,6.34-13.08,7.21-1.84,14.9-2.58,20.97,2.41,2.18,1.79,2.5,6.65,2.53,10.12.18,24.99-.1,49.98.12,74.97.1,11.64.8,23.28,1.57,34.9.28,4.28,1.18,8.61,2.45,12.71,6.5,20.93,18.73,36.18,41.8,39.16,25.86,3.34,47.11-7.49,58.69-29.04,6.62-12.32,9.68-25.76,9.47-39.45-.46-29.62-2.01-59.22-3.09-88.83-.15-3.99-.32-7.99-.29-11.98.03-4.26,2.82-5.79,6.58-5.81,3.88-.02,5.03,2.63,5.14,5.98.08,2.33.1,4.66.1,6.99,0,16.99,0,33.99,0,50.98-.07,0-.14,0-.21,0Z"/></g></svg>