<?xml version="1.0" encoding="UTF-8"?><svg id="Capa_2" xmlns="http://www.w3.org/2000/svg" viewBox="0 0 1424.19 186.1"><defs><style>.cls-1{fill:#c87865;}</style></defs><g id="Capa_1-2"><path class="cls-1" d="M842.46,182.02c-11.81,1.66-21.4,2.36-30.62-.19-3.68-1.02-7.06-4.95-9.46-8.35-3.83-5.41-6.85-11.42-10.01-17.28-6.63-12.31-13.15-24.67-19.68-37.03-8.64-16.38-24.1-19.7-40.5-21.06-4.07-.34-6.08,2.23-6.32,6.12-.15,2.32-.02,4.66-.02,6.99,0,20,.12,40.01-.03,60.01-.07,9.99-1.93,11.68-11.68,12.04-16.39.61-18.41-1.38-18.41-17.7.01-48.67-.02-97.35-.03-146.02,0-15.31.52-15.96,15.57-15.97,20.66,0,41.33.12,61.99.35,11.2.12,21.54,3.52,31.64,8.26,17.38,8.15,23.88,23.08,23.81,40.65-.07,17.96-11.16,29.37-27.16,36.03-4.87,2.03-10.21,2.94-15.35,4.31-3.47.92-6.97,1.75-12.88,3.23,4.09,2.35,6.04,3.87,8.25,4.68,11.48,4.21,19.92,11.82,25.92,22.37,4.45,7.82,8.98,15.59,13.6,23.32,4.78,7.99,9.71,15.89,14.55,23.84,1.86,3.05,3.66,6.14,6.81,11.41ZM725.41,49.82c.24,0,.49,0,.73,0,0,10.99-.18,21.99.06,32.98.16,7.45,1.51,8.92,8.75,9.14,9.65.3,19.35.58,28.96-.09,17.07-1.19,31.55-14.12,33.8-30.35.95-6.84.57-13.98-.1-20.9-1.62-16.73-11.51-26.27-27.54-29.95-2.27-.52-4.54-1.14-6.84-1.38-8.28-.87-16.56-1.7-24.86-2.34-9.24-.71-12.89,2.69-12.95,11.91-.07,10.32-.02,20.65-.02,30.98Z"/><path class="cls-1" d="M566.12,186.1c-36.89-1.08-66.02-15.08-82.75-46.98-28.14-53.68-5.66-123.09,64.88-137.16,22.99-4.58,45.39-1.16,65.61,10.68,28.18,16.5,42.99,42,45.3,74.41,3.27,46-26.89,87.28-74.44,97.03-6.47,1.33-13.18,1.46-18.6,2.03ZM626.3,91.63c.66-14.4-2.61-30.29-8.52-45.65-4.11-10.69-9.91-20.34-18.93-27.71-21.71-17.74-61.73-17.39-79.7,15.95-9.36,17.37-13.9,35.79-14.52,55.43-.7,22.42,2.75,43.94,14.59,63.24,17.46,28.47,56.51,39.26,84.07,10.2,5.16-5.44,9.41-12.12,12.7-18.9,7.69-15.82,10.42-32.87,10.3-52.55Z"/><path class="cls-1" d="M295.07,181.87c-9.41,2.55-18.11,2.23-26.4.68-3.36-.63-7.01-5.09-8.64-8.67-5.66-12.41-10.86-25.07-15.56-37.88-5.89-16.05-9.04-18.37-26.21-18.73-16.7-.36-32.24,3.61-47.42,10.31-16.75,7.4-28.19,19.74-35.84,35.99-2.27,4.82-4.41,9.72-6.3,14.69-2.15,5.66-5.85,6.5-12.12,3.99,1.07-3.24,1.87-6.32,3.08-9.24,8.25-20.02,16.49-40.03,24.9-59.98,13.86-32.85,27.93-65.6,41.7-98.48,3.24-7.73,8.08-11.98,16.79-10.8,1.97.27,4.01.33,5.99.17,7.78-.64,12.7,3.26,15.71,9.93,4.8,10.63,9.56,21.27,14.08,32.02,17.68,42.08,35.27,84.19,52.85,126.31,1.24,2.96,2.14,6.06,3.4,9.69ZM150.56,127.54c25.23-15.34,52.72-17.68,81.97-15.59-1.78-13.05-7.9-23.1-11.74-33.87-3.9-10.96-7.94-21.89-12.58-32.54-4.49-10.31-7.6-21.33-14.39-30.99-13.61,38.21-33.09,73.56-43.27,113Z"/><path class="cls-1" d="M1258.83,172.52c-3.91-.52-7.96-.13-11.94.14-23.9,1.61-47.79,3.41-71.7,4.89-10.32.64-11.6-.72-11.67-10.96-.16-22.65-.2-45.31-.27-67.97-.03-10.38.94-11.54,11.53-10.98,14.95.79,29.87,2.12,44.82,3.02,8.3.5,16.63.66,24.95.79,3.13.05,4.92-1.76,4.92-5.01,0-3.3-1.97-4.79-5.03-4.97-2.32-.14-4.66-.14-6.99-.06-19.97.68-39.93,1.34-59.89,2.11-6.77.26-10.35.23-12.24-1.58-3.57-3.43-2.47-9.87-2.05-12.72,1.32-8.81,2.07-22.34-.04-43.98-.07-.7-.21-2.46-.3-4.91-.19-5.66.15-10.26.47-13.24,46.38,2.42,69.35,4.21,76.08,5.58,4.57.94,9.32.38,13.98.4,3.41.02,7.36-.15,7.21-4.77-.15-4.59-4.26-4.26-7.56-4.52-.33-.03-.67-.03-1-.03-35.98.11-71.95.13-107.93.38-8.27.06-11.22,3.3-11.75,11.57-.15,2.32-.09,4.66-.09,7,.01,47.98.02,95.95.04,143.93,0,2-.09,4.01.11,5.99.58,5.82,3.44,9.01,9.19,10.14,1.94.38,3.98.37,5.97.37,34.98.02,69.95.03,104.93,0,2.32,0,5.09.39,6.83-.7,1.87-1.17,3.57-3.79,3.81-5.95.14-1.21-2.69-3.75-4.41-3.98Z"/><path class="cls-1" d="M384.21,164.54c6.04-14.28,12.44-28.41,18.06-42.86,14.23-36.6,28.11-73.33,42.15-110.01,3.18-8.31,3.91-8.66,12.59-6.27-.42,1.85-.59,3.82-1.3,5.57-11.99,29.25-24.07,58.47-36.1,87.7-9.24,22.45-18.43,44.93-27.65,67.39-.76,1.85-1.47,3.71-2.28,5.54-5.08,11.56-11.78,14.78-23.76,11.56-5.8-1.56-8.61-6.1-10.7-11.06-5.05-11.96-9.78-24.04-14.72-36.04-15.45-37.54-30.99-75.05-46.34-112.63-2.33-5.7-5.43-11.32-5.41-18.24,8.57-2.4,16.87-1.7,24.96-.61,2.66.36,5.67,3.47,7.14,6.1,3.07,5.49,5.37,11.43,7.7,17.3,15.12,38.03,30.19,76.08,45.19,114.16,2.9,7.36,5.46,14.87,8.18,22.3.76.03,1.52.06,2.28.09Z"/><path class="cls-1" d="M31.77,10.56v76.11c4.44.43,8.3,1.2,12.14,1.11,17.98-.43,35.96-1.12,53.93-1.68,3.33-.1,6.66-.1,10-.07,3.59.03,5.54,1.82,5.7,5.48.18,3.99-2.23,5.25-5.65,5.32-1.65.03-3.31-.3-4.97-.38-20.29-1.05-40.58-2.12-60.88-3.08-2.93-.14-5.89.3-9.94.54-.33,4.22-.88,8.05-.89,11.88-.07,21.33,0,42.67-.02,64-.02,12.27-1.38,13.55-13.97,13.65-16.15.12-17.17-.77-17.19-16.77C-.02,117.66,0,68.65.01,19.65c0-2.33-.05-4.68.2-6.99C.9,6.47,2.87,4.36,8.98,3.93c4.64-.33,9.33-.06,13.99-.07,30.33-.02,60.66-.06,90.99-.06,2.99,0,6.15-.32,8.92.53,1.73.53,3.96,2.98,3.96,4.57,0,1.44-2.68,4.09-4.23,4.12-7.98.18-15.97-.21-23.96-.58-19.63-.9-39.25-1.95-58.89-2.81-2.55-.11-5.13.56-8,.91Z"/><path class="cls-1" d="M1003.92,94.65c0-23.64,0-47.28,0-70.93,0-1.33.06-2.67,0-4-.43-8.24-2.07-10.03-10.12-10.17-4.98-.09-9.98.24-14.96.54-11.29.69-22.57,1.65-33.86,2.06-2.1.08-5.68-1.53-6.15-3.09-1.15-3.86,2.14-4.98,5.38-5.24,1.99-.16,3.99-.08,5.99-.08,46.28-.09,92.55-.18,138.83-.24,2.66,0,5.44-.19,7.92.53,1.56.45,3.91,2.65,3.73,3.69-.32,1.85-2.01,4.38-3.65,4.86-2.75.81-5.92.42-8.89.2-14.26-1.04-28.5-2.35-42.77-3.27-11.08-.71-12.02.31-11.99,11.46.12,44.62.29,89.24.42,133.86.02,6.33.07,12.66-.28,18.97-.39,6.91-2.3,8.65-9.12,9.34-.99.1-2,.07-2.99.1-15.33.39-17.36-1.45-17.41-16.67-.08-23.97-.02-47.95-.02-71.93h-.05Z"/><path class="cls-1" d="M875.6,92.66c0-23.66,0-47.32,0-70.99,0-3-.13-6.02.17-8.99.63-6.42,2.39-8.48,8.61-8.77,21.19-.99,21.36,1.43,21.3,18.76-.17,48.32-.05,96.65-.15,144.97-.03,14.54-1.63,15.94-16.15,15.63-11.06-.24-13.5-2.5-13.55-13.63-.12-25.66-.04-51.32-.04-76.98h-.2Z"/><path class="cls-1" d="M1400.88,93.31c-9.18-5.28-19.07-9.41-28.86-13.55-2.73-1.15-5.43-2.13-8.17-2.86,0,0,0,0,0,0-.76-3.81-15.98-2.59-32.54-13.32-2.12-1.37-4.71-3.45-7.58-6.44-9.25-9.64-10.73-22.81-3.48-33.87,5.74-8.76,14.09-14.57,24.45-15.76,19.56-2.25,37.02,2.55,50.53,17.92,2.16,2.46,4.36,4.9,7.29,8.18,2.47-1.73,4.26-2.64,5.63-3.99,7.28-7.19,6.7-10.66-2.21-15.84-24.01-13.95-49.32-16.75-76.05-9.64-11.8,3.14-20.9,9.74-28.41,19.14-9.49,11.87-13.19,33.36-2.85,50.79,9.25,15.6,25.33,20.09,29.11,21.04,3.29,1.57,6.63,3.19,10.09,4.49,14.59,5.51,26.74,9.86,30.04,10.86,14.12,4.29,16.55,3.92,21.02,7.65,7.27,6.05,9.56,14.25,10.3,17.02.76,2.87,3.36,13.4-2.12,24.23-3.14,6.21-8.46,11.36-15.77,14.94-9.9,4.85-20.15,7.09-30.4,5.53-1.91-.29-5.89-1.05-11.12-3.24-18.66-7.82-32.14-25.14-38.09-33.65-5.41,5.74-9.55,10.12-14.48,15.35,5.04,4.33,8.81,8.02,13.02,11.11,19.88,14.62,42.72,17.23,66.49,16.29,12.67-.5,24.19-4.27,34.79-10.98,27.8-17.57,32.81-62.17-.63-81.4Z"/></g></svg>