<?xml version="1.0" encoding="UTF-8"?><svg id="Capa_2" xmlns="http://www.w3.org/2000/svg" viewBox="0 0 1438.64 186.6"><defs><style>.cls-1{fill:#c87865;}</style></defs><g id="Capa_1-2"><path class="cls-1" d="M771.84,97.64c3.96,2.09,6.45,3.58,9.09,4.75,9.09,4.04,16.43,10.17,21.65,18.59,11.39,18.38,22.63,36.85,33.81,55.35.93,1.54,1.04,3.58,1.88,6.72-10.68.88-20.48,1.8-30.2-.5-5.48-1.3-8.84-5.59-11.41-10.5-6.93-13.27-13.96-26.5-20.96-39.74-1.87-3.53-3.74-7.05-5.66-10.55-9.89-18.04-26.4-22.84-46.59-23.18-.31,3.94-.81,7.43-.83,10.93-.11,20.64-.02,41.28-.16,61.91-.07,10.92-1.38,12.1-12.07,12.31-16.61.32-19-1.95-19.04-18.78-.11-48.6-.14-97.2-.18-145.79,0-2.33-.1-4.69.23-6.98.81-5.68,3.33-8.13,8.94-9.07.98-.16,1.99-.23,2.99-.21,24.61.6,49.22,1,73.81,2,5.87.24,11.83,2,17.47,3.9,17.73,5.96,29.07,20.93,29.77,38.58.78,19.65-7.86,34.16-26.01,41.92-7.87,3.36-16.38,5.21-26.53,8.34ZM724.27,10.36c-2.54,10.55-2.34,71.92-.09,79.32,9.84,3.03,21.63,2.96,35.41,1.48,20.58-2.2,33.09-14.5,34.39-38.05,1.16-21.11-9.29-39.27-31.82-42.44-12.29-1.73-25.03-.31-37.89-.31Z"/><path class="cls-1" d="M1186.09,185.96c-49.23,1.01-92.93-36.99-93.54-91.26C1091.92,38.11,1138.94.12,1186.53,0c43.4-.11,93.25,34.31,92.84,94.48-.36,52.27-42.86,93.08-93.28,91.48ZM1244.81,94.53c1.02-20.69-3.9-40.56-13.52-59.14-9.08-17.54-23.95-27.88-43.8-28.4-20.29-.53-35.76,9.2-45.6,26.96-20.07,36.22-20.5,73.44-4.69,111.21,3.92,9.37,10.31,17.11,18.2,23.39,11.75,9.35,25.11,13.18,40.13,10.28,17.34-3.35,29.25-13.89,37.06-29.05,8.82-17.12,12.82-35.53,12.22-55.26Z"/><path class="cls-1" d="M563.44,186c-47.92.6-92.63-35.81-93.1-91.44-.49-57.72,46.67-93.8,91.83-94.24,52.59-.51,95.21,38.95,94.45,94.25-.73,53.06-42.56,92.71-93.19,91.43ZM623.74,94.1c-.97-8.57-1.38-17.24-3.03-25.67-3.55-18.21-9.9-35.12-24.05-48.21-20.09-18.59-48.99-18.12-68.06,1.5-9.69,9.97-16.24,21.76-19.95,35.19-4.95,17.91-5.25,36.17-3.49,54.42,1.28,13.29,4.89,26.13,11.45,37.94,5.24,9.43,11.78,17.78,21.21,23.34,24.23,14.31,52.64,7.69,68.3-15.88,12.58-18.94,16.99-40.16,17.62-62.63Z"/><path class="cls-1" d="M1417.3,34.14c-4.21-4.47-7.48-8.24-11.05-11.69-13.75-13.29-30.31-17.61-48.78-14.02-21.07,4.1-32.67,25.9-22.65,43.09,2.99,5.14,8.26,9.87,13.61,12.52,11.59,5.72,23.91,9.95,35.91,14.83,8.93,3.63,17.97,7.04,26.71,11.07,19.73,9.09,28.49,24.49,27.51,46.37-.96,21.16-11.47,35.92-30.2,43.02-34.77,13.19-68.01,8.24-98.28-13.7-6.96-5.04-6.94-7.98-1.31-14.68,1.88-2.24,4.02-4.27,6.98-7.38,2.75,3.18,5.15,5.72,7.28,8.46,6.62,8.5,14.3,15.68,23.93,20.75,12.34,6.49,25.33,7.97,38.73,4.99,4.77-1.06,9.41-3.31,13.72-5.72,16.63-9.28,24.74-38.16.38-52.62-11.05-6.56-23.53-10.77-35.5-15.7-9.83-4.05-20.06-7.17-29.79-11.45-25.35-11.14-30.32-36.49-25.55-54.63,3.43-13.02,11.69-22.2,23.32-28.49,17.18-9.3,35.65-9.69,54.44-7.47,15.93,1.88,29.8,8.52,42.89,17.95-1.86,7.15-5.92,11.37-12.33,14.48Z"/><path class="cls-1" d="M294.89,182.08c-9.48,2.48-17.9,2.37-25.79.71-3.69-.78-7.53-5.46-9.39-9.3-4.63-9.55-8.22-19.62-12.13-29.51-1.47-3.71-3.05-7.43-3.96-11.29-2.6-11.1-10.44-14.3-20.68-14.9-23.09-1.35-44.15,4.71-63.56,16.91-9.21,5.79-16.29,13.67-21.11,23.45-3.23,6.56-6.27,13.22-9.24,19.91-2.05,4.61-4.86,7.02-11.22,4.07.67-2.61,1.03-5.44,2.1-7.98,11.9-28.18,23.96-56.3,35.86-84.48,9.19-21.75,18.23-43.56,27.33-65.35.64-1.53,1.22-3.09,1.88-4.62,6.64-15.35,8.15-15.92,24.8-15.55,9.17.21,14.05,5,17.25,12.59,7.12,16.85,14.17,33.73,21.19,50.62,14.54,35.02,29.04,70.04,43.51,105.09,1.12,2.72,1.85,5.59,3.16,9.63ZM150.44,128.33c2.69-1.19,4.24-1.73,5.65-2.52,21.24-12.03,44-16.41,68.22-13.82,2.71.29,5.54-.47,9.48-.86-12.34-33.17-24.34-64.88-38.22-96.63-4.69,6.28-43.67,104.69-45.13,113.83Z"/><path class="cls-1" d="M287.23,4.44c10.73-2.11,20.13-2.86,28.59,1.28,3.89,1.9,6.84,7.14,8.71,11.5,5.63,13.14,10.47,26.61,15.7,39.92,13.62,34.67,27.28,69.32,40.96,103.97.46,1.16,1.29,2.17,2.16,3.59,1.03-.96,1.99-1.44,2.28-2.18,18.74-47.66,37.43-95.35,56.12-143.03,1.34-3.41,2.47-6.9,3.95-10.24,2.16-4.9,5.58-6.18,11.23-2.7-1.06,3.35-1.89,6.81-3.23,10.06-15.44,37.52-31.01,75-46.44,112.53-5.82,14.15-11.41,28.39-16.97,42.65-2.71,6.95-6.16,12.13-14.93,12.14-9.19.01-16.44-2.24-20.1-11.37-2.97-7.41-5.76-14.89-8.78-22.27-18.15-44.32-36.36-88.63-54.51-132.95-1.49-3.64-2.73-7.38-4.76-12.91Z"/><path class="cls-1" d="M0,91.69C0,69.39,0,47.09,0,24.8c0-2.66-.01-5.33.2-7.98C1.05,6.07,2.77,4.26,13.69,4.22c33.96-.13,67.93-.09,101.89-.06,2.64,0,5.56-.16,7.84.87,1.59.73,3,3.32,3.14,5.18.08,1.09-2.46,3.37-3.87,3.41-6.64.21-13.3-.05-19.94-.37-20.27-.98-40.53-2.22-60.81-3.03-9.95-.4-10.66.54-10.71,10.72-.09,18.63-.08,37.27-.1,55.9-.01,10.56.84,11.74,11.24,11.49,19.62-.48,39.24-1.38,58.86-2.04,2.98-.1,6.16-.42,8.9.44,1.69.53,3.8,3.12,3.78,4.77-.02,1.63-2.18,4.05-3.92,4.66-2.38.84-5.25.44-7.9.32-18.62-.86-37.22-2-55.84-2.64-15.04-.51-14.97-.26-14.95,14.4.03,21.3,0,42.6-.13,63.9-.07,10.35-1.26,11.41-11.48,11.63-17.3.37-19-.67-19.39-18.22-.54-24.61-.14-49.25-.14-73.87-.06,0-.11,0-.17,0Z"/><path class="cls-1" d="M1016.07,96.56c0,24.63.07,49.25-.03,73.88-.05,11.74-1.61,13.15-13.35,13.28-1.33.01-2.66.03-4,0-10.71-.29-13.44-2.86-13.49-13.87-.15-29.29-.09-58.57-.1-87.86,0-19.63.08-39.27-.01-58.9-.06-12.01-2.15-13.7-14.34-12.66-13.25,1.13-26.51,2.18-39.77,3.2-2.31.18-4.86.63-6.92-.12-1.81-.66-4.19-2.73-4.29-4.31-.09-1.5,2.17-3.92,3.9-4.56,2.38-.87,5.25-.56,7.9-.56,17.65,0,35.3.21,52.94.08,28.96-.21,57.91-.65,86.87-.95,2.65-.03,5.65-.46,7.85.6,1.92.93,3.71,3.58,4.04,5.71.17,1.1-2.78,3.23-4.68,3.92-1.72.63-3.93,0-5.91-.14-14.6-1.04-29.19-2.18-43.79-3.13-10.67-.69-12.71,1.27-12.75,12.48-.09,24.63-.03,49.25-.03,73.88h-.06Z"/><path class="cls-1" d="M896.1,94.27c0,24.26.02,48.53-.02,72.79,0,3.31.23,6.78-.63,9.89-.63,2.29-2.75,5.73-4.45,5.88-6.86.58-13.87.58-20.69-.32-1.97-.26-4.13-3.98-4.97-6.52-.9-2.72-.43-5.92-.44-8.91-.11-49.19-.22-98.38-.28-147.57-.02-14.48,1.29-15.66,16.12-15.42,2.32.04,4.65.17,6.97.4,4.24.42,6.6,2.81,6.98,7.06.15,1.65.27,3.32.27,4.97.02,25.91.01,51.83.01,77.74.38,0,.75,0,1.13,0Z"/></g></svg>