<?xml version="1.0" encoding="UTF-8"?><svg id="Capa_2" xmlns="http://www.w3.org/2000/svg" viewBox="0 0 1077.87 186.87"><defs><style>.cls-1{fill:#c87865;}</style></defs><g id="Capa_1-2"><path class="cls-1" d="M847.17,182.94c-10.61,0-18.91.56-27.1-.17-6.85-.61-11-6.04-14.19-11.6-4.81-8.38-9.06-17.07-13.69-25.55-4.94-9.07-10.08-18.02-15.05-27.07-5.48-9.99-13.4-16.3-25.05-17.61-6.19-.69-12.33-1.93-19.81-3.13-.32,4.71-.76,8.19-.76,11.68-.02,18.67.08,37.34.09,56.01,0,3,.13,6.05-.38,8.98-1.4,8.08-5.97,10.05-20.15,9.07-8.46-.59-10.74-2.72-11.31-10.73-.14-1.99-.1-4-.1-6,.1-49.67.21-99.35.32-149.02,0-2,0-4,.15-6,.36-5.07,3.09-7.9,8.18-8.37,1.33-.12,2.66-.21,3.99-.21,21-.06,42-.16,63-.12,14.04.02,26.88,4.34,38.82,11.52,26.37,15.86,28.67,49.26,4.17,67.68-6.48,4.87-14.59,7.68-22.19,10.89-3.87,1.64-8.26,2.06-13.98,3.39,2.59,1.84,3.87,3.18,5.44,3.8,9.98,3.98,17.59,10.76,23.23,19.74,4.96,7.9,9.59,16.01,14.39,24,6,9.97,12.07,19.9,18.01,29.91,1.26,2.13,2.04,4.55,3.97,8.93ZM731.75,8.42c-.5,3.15-.98,4.76-.97,6.36.2,21.97.47,43.94.73,65.91.02,1.66.06,3.33.08,4.99.05,4.07,2.17,6.38,6.18,6.15,12.92-.72,26.02-.59,38.68-2.85,12.16-2.17,21.23-10.38,24.36-22.59,2.1-8.2,2.7-17.14,2.11-25.61-1.07-15.33-10.17-24.86-24.87-28.92-14.96-4.14-30.27-2.62-46.29-3.44Z"/><path class="cls-1" d="M662.4,93.8c.22,51.52-41.63,94.12-93.54,93.04-54.38-1.13-93.9-38.52-94.97-93.87C473.12,53.19,503.09-.02,569.63.26c60.67.25,93.57,49.65,92.78,93.55ZM628.12,94.4c.91-18.53-3-36.38-10.31-53.34-9.32-21.61-26.22-33.35-49.8-33.66-22.94-.3-39.29,10.96-48.61,31.82-15.46,34.57-15.75,69.79-2.06,104.79,8.66,22.16,25.96,34.63,49.74,35.49,23.78.86,40.22-11.6,50.32-32.71,7.9-16.51,11.42-33.98,10.73-52.39Z"/><path class="cls-1" d="M1069.02,20.2c-4.91,5.44-8.54,9.47-13.3,14.76-4.89-5.41-8.62-10.01-12.84-14.1-15.5-15.02-40.3-17.62-59.32-7.89-18.15,9.29-17.82,35.82-5.47,44.96,7.39,5.47,15.63,10.09,24.06,13.81,9.4,4.15,19.64,6.38,29.15,10.33,8.86,3.68,17.88,7.61,25.73,13.01,27.99,19.27,27.68,58.22-.34,77.71-20.08,13.97-42.39,16.35-65.93,11.87-15.69-2.98-29.65-9.74-42.6-18.83-3.23-2.27-7.99-4.96-5.67-9.25,2.36-4.38,6.83-7.81,10.98-10.82.63-.45,5.38,3.17,6.81,5.7,9.16,16.27,24.16,23.15,41.42,26.58,12.98,2.57,25.14.35,36.42-6.66,14.78-9.19,16.63-24.13,13.12-38.62-1.64-6.79-6.92-11.46-13.22-14.2-10.67-4.63-21.66-8.54-32.37-13.09-12.54-5.33-25.24-10.42-37.34-16.66-33.4-17.22-27.95-58.48-3.84-75.34,6.94-4.85,15.08-9,23.27-10.87,26.88-6.12,52.25-1.51,75.42,13.85,1.64,1.09,3.33,2.12,5.86,3.73Z"/><path class="cls-1" d="M119.96,181.85c.55-2.33.82-4.94,1.78-7.25,17.62-42.42,35.3-84.82,53.03-127.19,4.63-11.05,9.55-21.98,14.21-33.03,2.76-6.54,6.5-11.93,14.42-11.8,8.93.15,18.41-.57,23.71,9.12,2.08,3.79,4.21,7.59,5.87,11.56,18.09,43.31,36.07,86.67,54.15,129.98,2.69,6.45,5.8,12.72,8.56,19.14,1.25,2.9,2.12,5.97,3.4,9.66-9.34,2.31-17.59,1.92-25.68.62-5.31-.85-8.3-5.41-10.38-10.06-3.67-8.2-7.1-16.52-10.49-24.84-2.52-6.16-5.31-12.27-7.09-18.66-2.01-7.21-6.82-10.57-13.57-11.25-6.93-.7-14.06-1.48-20.89-.61-34.37,4.37-62.61,17.96-76.01,52.75-1.2,3.11-2.51,6.17-3.9,9.19-2.25,4.89-5.64,6.19-11.1,2.65ZM236.93,111.93c-11-34.76-24.64-66.63-38.39-100.11-1.6,2.91-2.67,4.46-3.36,6.16-8.32,20.33-16.71,40.64-24.82,61.05-4.92,12.37-9.53,24.87-13.99,37.41-1.11,3.12-3.17,6.49-1.12,10.42,24.94-15.21,51.56-19.62,81.69-14.93Z"/><path class="cls-1" d="M392.42,165.78c7.08-17.03,13.83-32.43,19.93-48.08,13.91-35.66,27.5-71.44,41.25-107.16,3.04-7.89,3.11-7.88,13.57-5.88-.6,2.44-.88,4.98-1.82,7.23-14.19,34.12-28.49,68.18-42.7,102.29-8.19,19.66-16.31,39.36-24.39,59.07-2.21,5.4-4.32,10.44-11.63,10.34-8.06-.11-16.33.86-20.67-8.27-2.71-5.71-5.6-11.35-8-17.19-19.74-48.03-39.39-96.09-59.02-144.16-1.1-2.68-1.84-5.51-2.96-8.9,9.11-3.11,17.59-2.73,25.83-.25,5.87,1.77,8.42,7.35,10.61,12.6,5.75,13.83,11.35,27.73,16.89,41.64,13.41,33.71,26.75,67.44,40.14,101.16.56,1.41,1.43,2.69,2.98,5.54Z"/><path class="cls-1" d="M31.46,9.8v76.75c4.68.34,8.53.93,12.36.83,18.97-.49,37.94-1.19,56.91-1.76,3.92-.12,7.85-.02,11.43-.02,2.97,10.08,1.75,12-7.17,11.5-12.96-.73-25.88-2.18-38.85-2.73-11.23-.47-22.5-.1-34.85-.1-.24,3.61-.68,7.46-.71,11.31-.17,22.97-.15,45.95-.41,68.92-.08,6.86-1.47,8.17-8.18,8.69-4.3.33-8.68.36-12.97,0-6.11-.52-8.11-2.7-8.81-8.75-.19-1.65-.14-3.33-.14-4.99C.03,118.47-.02,67.5,0,16.54.01,4.96,1.71,3.13,13.32,3.15c34.64.06,69.28.34,103.92.53,1.33,0,2.67.03,3.99.13,3.23.25,6.14,1.11,5.93,5.13-.18,3.47-2.87,4.18-5.71,4.18-7.66,0-15.33.16-22.97-.26-14.95-.83-29.88-2.17-44.84-3-6.93-.38-13.89-.07-22.19-.07Z"/><path class="cls-1" d="M876.03,92.76c0-22.32,0-44.65,0-66.97,0-4-.06-8.01.2-11.99.15-2.27.23-5.05,1.51-6.66,5.57-7.02,13.46-3.66,20.46-3.77,5.1-.08,7.79,3.41,8.46,8.22.46,3.28.59,6.63.59,9.95.05,48.98.06,97.95.08,146.93,0,1.67.05,3.34-.08,5-.62,8.04-2.28,9.61-10.47,10.06-18.45,1-20.31-.76-20.28-18.8.03-23.99,0-47.98,0-71.96-.16,0-.33,0-.49,0Z"/></g></svg>