<?xml version="1.0" encoding="UTF-8"?><svg id="Capa_2" xmlns="http://www.w3.org/2000/svg" viewBox="0 0 875 186.58"><defs><style>.cls-1{fill:#c87865;}</style></defs><g id="Capa_1-2"><path class="cls-1" d="M255.18.47c50.37-1.93,92.78,42.5,92.51,93.49-.22,41.7-32.29,92.27-93.38,91.62-53.17-.56-93.43-40.15-93.11-94.08C161.49,42.49,202.57-1.18,255.18.47ZM313.34,93.25c0-3.65.16-7.32-.03-10.96-.95-17.9-5.8-34.67-15.26-49.95-13.27-21.42-35.49-30.58-58.12-23.58-16.77,5.19-26.64,18.02-34.12,32.99-6.34,12.68-9.04,26.43-10.09,40.37-2.03,26.84,2.52,52.33,17.9,75.07,16.95,25.07,50.19,27.07,69.69,13.08,7.46-5.35,12.88-12.42,17.24-20.36,9.68-17.65,13.07-36.75,12.79-56.65Z"/><path class="cls-1" d="M707.22,183.56c-2,0-4,.06-5.99-.01-7.41-.24-12.32-3.51-14.95-10.83-5.29-14.71-11.4-29.12-16.57-43.86-2.54-7.23-6.63-10.8-14.39-11.32-19.14-1.29-37.92.12-55.77,7.46-14,5.76-24.57,15.82-31.77,29.14-3.79,7.01-6.9,14.39-10.46,21.53-1.16,2.32-2.42,4.82-4.32,6.45-1.15.99-4.06,1.2-5.33.41-1.25-.78-1.75-3.24-1.94-5.03-.13-1.17.85-2.46,1.37-3.69,22.59-53.65,45.23-107.27,67.71-160.96,2.81-6.7,7.33-9.69,14.52-9.88,15.85-.42,20.73,2.22,26.88,16.84,21.01,49.98,41.89,100.01,62.71,150.06,5.39,12.94,4.6,13.9-9.71,13.88-.67,0-1.33,0-2,0v-.17ZM660.33,112.09c.4-3.2.89-4.3.59-5.1-6.62-17.37-13.13-34.79-20.1-52.02-5.47-13.52-11.53-26.79-17.36-40.16-.09-.21-.57-.31-.88-.36-.29-.05-.61.03-.92.06-8.66,14.93-42.4,103.07-42.43,110.35,12.94-4.23,25.76-10.18,39.18-12.31,13.5-2.14,27.61-.47,41.92-.47Z"/><path class="cls-1" d="M527.78,20.84c-3.9,4.68-7.18,8.6-11.03,13.21-3.52-3.17-6.09-5.67-8.84-7.94-4.87-4.02-9.52-8.41-14.84-11.75-20.92-13.12-46.17-8.96-62.03,10-10.49,12.55-16.69,27.19-19.74,43.1-3.68,19.21-3.09,38.47,1.81,57.38,5.39,20.81,16.68,37.22,35.99,48.09,22.03,12.4,55.7,4.37,70.43-18.99,1.77-2.81,3.28-5.79,4.91-8.68,1.55-2.75,3.36-5.34,7.03-3.66,3.64,1.66,6.27,4.59,4.8,8.7-1.19,3.34-3.31,6.52-5.63,9.24-11.25,13.21-25.67,21.25-42.75,23.64-33.49,4.68-63.42-2.61-87.98-27.36-14.51-14.63-21.9-32.42-24.17-52.44-4.66-41.26,16.52-79.04,54.53-95.26,31.54-13.45,62.44-9.74,91.82,7.53,1.65.97,2.89,2.61,5.67,5.17Z"/><path class="cls-1" d="M172.14,169.95c.31,6.24-3.64,9.34-7.6,11.17-5.33,2.45-11.22,4.43-17.02,4.97-17.46,1.64-34.48-.93-50.94-7.2-12.76-4.86-25.6-8.95-39.58-9.33-15.69-.43-30.44,1.83-44.23,9.62-3.87,2.19-8.19,5.19-12.76-.83,1.67-1.58,2.98-3.54,4.81-4.43,6.27-3.05,12.62-6.03,19.15-8.46,5.48-2.04,8-5.56,7.92-11.24-.04-2.99.06-5.99.06-8.98,0-41.59-.01-83.17,0-124.76,0-2.99-.13-6.01.17-8.98.61-6.26,2.53-8.11,8.62-8.84.66-.08,1.33-.07,1.99-.11,17.07-1.02,19.96,1.65,19.98,18.58.05,41.59.07,83.17.11,124.76,0,2.66.08,5.32.13,7.98.06,3.47,1.78,5.47,5.19,6.29,17.76,4.29,35.37,9.35,53.29,12.79,15.35,2.95,31.05,4.35,45.93-3.2,1.15-.59,2.95.09,4.8.19Z"/><path class="cls-1" d="M750.98,92.82c0-23.61,0-47.22,0-70.83,0-2.99,0-5.99.2-8.97.11-1.63.27-3.47,1.08-4.79,4.7-7.68,12.41-4.88,19.03-4.78,6.45.09,9.44,2.96,10.41,8.67.55,3.25.44,6.63.44,9.94,0,46.22-.03,92.44-.05,138.66,0,1.99-.12,4,.04,5.98.56,6.91,2.93,9.38,10.04,9.74,4.3.22,8.64-.12,12.96-.39,19.57-1.22,39.13-2.53,58.7-3.73,2.64-.16,5.45-.35,7.9.4,1.45.44,3.23,2.67,3.26,4.13.03,1.52-1.55,3.78-3,4.44-2,.9-4.54.79-6.85.79-34.27-.04-68.54-.07-102.81-.25-9.35-.05-11.14-1.76-11.21-11.2-.18-25.94-.06-51.87-.06-77.81h-.09Z"/></g></svg>