<?xml version="1.0" encoding="UTF-8"?><svg id="Capa_2" xmlns="http://www.w3.org/2000/svg" viewBox="0 0 874.71 186.83"><defs><style>.cls-1{fill:#c87865;}</style></defs><g id="Capa_1-2"><path class="cls-1" d="M254.2.33c42.95-1.69,91.75,32.82,93.19,93.45,1.08,45.3-36.76,92.87-92.79,92.31-50.03-.5-93.56-35.36-94.12-92.16C159.91,36.68,205.59-.32,254.2.33ZM313.32,88c-.07-17.41-4.49-35.94-13.74-52.88-11.86-21.73-33.1-31.64-57.07-26.78-16.84,3.42-27.23,14.51-34.74,28.98-11.72,22.6-14.89,46.81-12.28,71.8,1.67,16.02,6.67,31.12,14.75,45.24,16.81,29.39,61.24,34.43,83.86,5.38,4.43-5.69,8.04-12.34,10.59-19.09,5.79-15.35,8.88-31.35,8.63-52.64Z"/><path class="cls-1" d="M721.16,182.53c-9.9,2.06-19.15,2.35-27.74-1.71-3.15-1.49-5.71-5.58-7.15-9.06-5.24-12.61-10-25.42-14.74-38.24-5.51-14.88-5.4-15.2-21.04-16.08-16.76-.95-33.43.4-49.09,6.88-18.91,7.83-30.73,22.84-39.13,40.93-1.54,3.32-3,6.69-4.52,10.02-.83,1.82-1.58,3.69-2.61,5.39-2.06,3.39-5.2,4.14-8.64,2.56-3.93-1.81-2.44-4.83-1.22-7.65,5.78-13.47,11.62-26.92,17.33-40.42,16.6-39.29,33.19-78.59,49.68-117.93,2.76-6.59,5.04-13.45,13.79-13.79,9.52-.37,18.98-.02,25.15,8.81,2.84,4.06,5.34,8.49,7.24,13.07,18.67,44.92,37.2,89.89,55.74,134.87,2.03,4.93,3.98,9.9,5.71,14.94.71,2.06.76,4.35,1.25,7.41ZM579.02,125.22c25.59-14.68,53.09-15.64,82.26-14.51-1.59-5.12-2.48-8.57-3.73-11.88-2.22-5.91-4.64-11.75-7-17.6-7.72-19.1-15.37-38.23-23.25-57.27-1.41-3.4-2.03-7.77-7.81-9.35-11.25,37.68-29.22,72.55-40.48,110.61Z"/><path class="cls-1" d="M528.66,20.84c-4.36,5.38-7.65,9.43-11.75,14.49-3.15-3.2-5.64-5.68-8.07-8.2-7.26-7.55-15.63-13.49-25.5-17.09-19.77-7.2-45.93-1.3-58.72,21.36-7.63,13.5-12.89,27.81-14.56,43.27-2.61,24.2-1.32,47.87,9.6,70.3,11.92,24.49,38.71,39.26,63.1,33.33,17.76-4.32,32.56-13.49,40.71-30.96,1.08-2.32,2.56-4.47,3.94-6.84,5.9.89,9.68,3.46,11.79,9.32-9.66,12.67-19.94,25.16-36.03,29.9-33.02,9.72-64.34,7.03-93.01-14.16-35.41-26.17-41.68-71.59-29.54-105.03,11.84-32.62,35.34-52.11,68.82-58.7,24.27-4.78,47.71.17,69.55,11.85,3.11,1.66,5.74,4.23,9.66,7.18Z"/><path class="cls-1" d="M61.34,83.91c0,21.34-.06,42.68.02,64.01.04,10.96.22,10.71,10.48,13.23,10.02,2.45,19.91,5.44,29.82,8.31,15.14,4.38,30.44,7.66,46.27,5.3,5.52-.83,10.86-2.99,16.23-4.71,2.84-.91,6.35-2.97,7.64.91.64,1.91-1.38,5.54-3.23,7.29-5.8,5.5-13.29,7.42-21.06,8.09-17.16,1.48-33.93-.3-50.17-6.35-14.4-5.37-29-9.63-44.61-10.15-14.46-.48-27.64,3.41-40.43,9.51-2.4,1.15-4.69,2.78-7.22,3.31-1.53.32-4.31-.6-4.89-1.77-.61-1.23.18-4.3,1.34-5.05,4.17-2.7,8.62-5.06,13.19-7.01,16.29-6.94,16.32-6.86,16.31-24.06-.02-42.01-.06-84.02-.05-126.02,0-14.63,2.39-16.87,16.82-16.09,10.6.57,13.32,3.21,13.39,14.24.16,22.34.05,44.67.05,67.01h.08Z"/><path class="cls-1" d="M874.26,181.52c-2.63.25-4.59.6-6.54.61-34.3.12-68.61.21-102.91.28-2,0-3.99-.18-5.99-.23-4.88-.12-7.29-2.62-7.38-7.48-.11-5.99-.4-11.99-.41-17.98-.04-46.3-.03-92.6-.01-138.9,0-2.33.04-4.67.27-6.98.13-1.29.31-2.92,1.12-3.75,6.05-6.14,13.54-4.01,20.7-3.21,5.49.62,8.12,4.17,8.33,9.52.2,5.32.32,10.65.32,15.98.03,43.3-.02,86.61.05,129.91.02,16.9.29,17.46,17.53,16.78,19.28-.76,38.53-2.39,57.8-3.57,3.99-.25,8-.43,11.98-.24,5.95.28,6.11.69,5.14,9.27Z"/></g></svg>