<?xml version="1.0" encoding="UTF-8"?><svg id="Capa_2" xmlns="http://www.w3.org/2000/svg" viewBox="0 0 875.59 186.65"><defs><style>.cls-1{fill:#c87865;}</style></defs><g id="Capa_1-2"><path class="cls-1" d="M255.48.53c38.32-1.91,91.35,29.58,92.26,92.06.72,48.86-37.08,94.95-95.87,93.16-52.31-1.59-90.96-39.26-90.74-92.27C161.38,37.13,204.46-.19,255.48.53ZM195.64,92.62c0,4.52-.27,8.54.04,12.52,1.58,20.31,7.14,39.17,19.9,55.57,14.49,18.61,49.42,29.95,73.99,4.64,5.9-6.07,10.98-13.56,14.39-21.3,8.6-19.48,11.91-40.19,10.03-61.48-1.57-17.8-6.85-34.49-15.61-50.18-12.61-22.59-38.96-29.64-59.3-23.31-13.39,4.16-22.14,13.29-28.75,24.82-10.5,18.29-16.13,37.93-14.7,58.72Z"/><path class="cls-1" d="M722.61,183.12c-9.61,0-17.18.39-24.69-.12-6.53-.44-9.28-5.47-11.4-11.11-5.39-14.33-11.48-28.41-16.47-42.88-2.58-7.48-7.1-10.51-14.55-11.15-24.85-2.12-48.51.55-69.43,15.77-7.14,5.2-13.08,11.3-16.94,19.31-4.05,8.39-8.12,16.77-12.2,25.15-3.09,6.33-3.93,6.54-11.97,2.9.62-2.06,1.08-4.28,1.95-6.33,22.06-52.5,44.19-104.97,66.25-157.47,5.3-12.61,6.45-12.55,20.03-13.23,13.21-.67,19.14,6.32,23.58,17.07,12.09,29.23,24.55,58.3,36.76,87.48,8.74,20.88,17.35,41.81,25.88,62.77,1.31,3.23,1.85,6.77,3.18,11.84ZM579.5,125.4c1.46,0,2.23.24,2.73-.03,22.35-12.08,46.22-15.99,71.34-13.61,2.61.25,5.37-.97,8.91-1.67-1.89-5.07-3.2-8.79-4.65-12.45-3.8-9.57-7.62-19.14-11.5-28.68-6.63-16.32-13.27-32.63-20.04-48.89-.8-1.93-2.47-3.49-3.87-5.41-6.03,7.9-42.6,102.41-42.91,110.75Z"/><path class="cls-1" d="M527.45,140.97c11.62,4.22,13.12,8.58,6.26,16.67-13.84,16.31-31.46,25.4-52.85,26.65-7.63.45-15.34.36-22.96-.19-35.6-2.56-69.98-31.64-77.9-61.4-12.39-46.55,2.74-91.74,48.45-113.6,34.21-16.36,67.27-9.29,100.01,10.28-3.74,5.22-6.87,9.59-10.71,14.96-3.23-2.97-5.54-5.19-7.94-7.29-10.34-9.04-20.86-17.56-35.28-19.43-21.22-2.75-37.26,5.76-48.48,23-10.94,16.8-15.88,35.71-16.36,55.86-.42,17.8.36,35.38,7.47,51.99,9.57,22.38,25.69,37.1,50.38,40.57,21.35,3,44.21-9.02,54.5-27.9,1.86-3.42,3.66-6.88,5.42-10.19Z"/><path class="cls-1" d="M0,178.54c2.34-1.96,3.86-3.76,5.79-4.75,4.14-2.11,8.42-3.99,12.77-5.62,13.49-5.03,13.75-5.26,13.72-19.29-.07-37.64-.16-75.29-.22-112.93-.01-7.66-.11-15.33.15-22.98.28-8.45,1.81-9.97,10-10.17,17.35-.42,19.78.87,19.68,18.72-.22,40.64-.11,81.28-.12,121.93,0,3.33.03,6.66.1,9.99.08,3.8,1.84,6.44,5.66,7.13,20.95,3.8,40.65,12.6,62.1,14.69,12.62,1.23,24.52.55,36.1-4.67,1.71-.77,3.69-.95,5.33-1.35,3.61,4.23.62,6.63-1.7,8.84-5.85,5.54-13.22,7.51-20.99,8.14-18.54,1.51-36.46-1.07-53.88-7.78-12.45-4.79-25.26-8.1-38.8-8.59-15.39-.55-29.75,2.42-43.28,9.74-3.68,1.99-7.62,4.75-12.39-1.06Z"/><path class="cls-1" d="M750.94,95.05c0-22.65,0-45.3,0-67.96,0-.67-.03-1.33-.03-2,.05-23.42,2.8-20.84,22.47-20.45,6.34.13,7.85,2.07,8.38,8.79.34,4.31.29,8.66.29,12.99,0,43-.02,85.99-.03,128.99,0,20.79,1.21,22.18,22.26,21.15,19.62-.96,39.2-2.58,58.81-3.85,2.65-.17,5.48-.51,7.94.21,1.78.53,3.99,2.46,4.41,4.16.79,3.17-1.52,4.8-4.65,4.99-1.99.12-3.99.16-5.99.16-33.32.04-66.65.07-99.97.09-2,0-4-.05-5.99-.13-3.96-.16-6.13-2.34-6.54-6.18-.28-2.64-.34-5.32-.35-7.98-.02-24.33-.01-48.66-.01-72.99-.33,0-.65,0-.98,0Z"/></g></svg>