<?xml version="1.0" encoding="UTF-8"?><svg id="Capa_2" xmlns="http://www.w3.org/2000/svg" viewBox="0 0 1037.06 190.29"><defs><style>.cls-1{fill:#c87865;}</style></defs><g id="Capa_1-2"><path class="cls-1" d="M10.16,28.8c-.51,4.72-1.01,7.19-1,9.65.13,40.65.29,81.29.55,121.94.03,4.98.72,9.96,1.13,14.93.3,3.73-.35,6.83-4.98,6.87-4.26.04-5.79-2.6-5.84-6.47-.02-1.33-.02-2.66-.02-4C.06,121.07.08,70.43.19,19.79.23,4.19,1.85,3.19,17.49,2.72c8.96-.27,14.47,3.67,18.62,10.79,1,1.72,1.96,3.49,2.79,5.3,11.88,26.03,23.65,52.12,35.63,78.11,7.25,15.72,14.78,31.31,22.25,46.93.66,1.39,1.79,2.56,3.78,5.33,2.81-5.88,5.18-10.44,7.22-15.14,16.69-38.49,33.31-77.02,49.96-115.53.93-2.14,1.8-4.31,2.86-6.38,3.13-6.15,7.8-9.23,15.1-9.36,17.39-.3,19.11.69,19.2,18.07.26,49.98.26,99.95.24,149.93,0,9.72-2.04,11.56-11.72,12.06-1,.05-2,.04-3,.04-13.73.09-14.71-.77-14.75-14.56-.12-42.31-.12-84.63-.25-126.94-.01-3.73-.61-7.46-.94-11.19-.75-.08-1.5-.16-2.24-.23-1.53,3.2-3.16,6.36-4.56,9.62-19.18,44.67-38.29,89.36-57.49,134.02-3.37,7.83-5.38,9.07-11.46,8.72-4.97-.29-7.85-3.12-9.79-7.34-7.09-15.43-14.15-30.88-21.28-46.29-14.12-30.52-28.27-61.03-42.46-91.52-1.05-2.25-2.56-4.28-5.04-8.37Z"/><path class="cls-1" d="M223.79,3.27c11.06,0,19.67-.72,28.1.23,6.66.75,10.46,6.66,14.04,11.92,11.79,17.33,23.47,34.75,35.29,52.06,5.94,8.7,12.1,17.24,18.89,26.9,7.43-10.55,14.04-19.65,20.35-28.95,12.51-18.46,24.9-37,37.24-55.58,3.41-5.12,7.08-8.95,14.99-4.94-1.4,2.55-2.5,5.12-4.08,7.36-17.68,25-35.22,50.11-53.27,74.84-6.98,9.56-10.49,19.44-9.95,31.44.79,17.61.39,35.28.36,52.93-.02,9.12-1.95,11.08-10.86,11.88-.66.06-1.33.08-1.99.09-15.49.23-17.11-1.35-17.11-16.78-.01-17.65-.21-35.29.07-52.94.12-7.42-2.33-13.39-6.7-19.27-20.04-26.98-39.82-54.17-59.62-81.33-1.7-2.34-2.94-5.02-5.73-9.86Z"/><path class="cls-1" d="M647.13,168.34c-3.29,8.21-8.58,12.82-15.46,15.97-16.24,7.44-32.97,7.37-49.84,2.9-9.01-2.38-17.85-5.4-26.75-8.18-8.27-2.58-16.58-5.03-24.76-7.86-23.15-8-45.27-4.62-66.92,5.52-3.2,1.5-6.7,5.19-11.53-.44,2.81-2.02,5.09-4.24,7.83-5.51,7.25-3.36,14.66-6.36,22.05-9.38,10.78-4.41,12.19-6.15,12.19-17.8.02-40.67-.08-81.34-.14-122.01,0-.33-.01-.67-.01-1-.13-16.71,5.71-21.28,22.23-17.49,4.07.93,6.6,3.27,7.01,7.37.4,3.97.45,7.98.45,11.98,0,41.67-.03,83.34-.05,125.01,0,12.07-.03,12.23,11.98,15.32,19.33,4.97,38.7,9.79,58.1,14.49,16.02,3.88,31.04.33,45.49-6.76,1.49-.73,2.98-1.49,4.52-2.1.55-.22,1.26-.03,3.59-.03Z"/><path class="cls-1" d="M969.59,95.64c0,25,.07,50-.04,75-.05,10.7-1.37,11.85-12.18,12.11-1.66.04-3.33.03-5-.04-10.99-.45-12.58-1.89-12.61-13.12-.13-47.33-.12-94.66-.15-141.99,0-1,.03-2,.04-3,.1-15.64-.76-16.21-16.4-14.94-13.28,1.08-26.6,1.57-39.91,2.28-1.66.09-3.52.44-4.94-.16-1.58-.66-3.75-2.19-3.86-3.49-.12-1.44,1.48-3.74,2.91-4.41,1.99-.94,4.52-.93,6.82-.94,47.66-.08,95.31-.11,142.97-.11,2.31,0,4.85-.13,6.86.76,1.43.63,3.05,2.93,2.95,4.37-.1,1.39-2.14,3.51-3.6,3.76-3.23.56-6.64.31-9.96.09-14.61-.97-29.22-2.08-43.83-3.07-7.9-.54-10.04,1.66-10.07,10.9-.09,25.33-.03,50.66-.03,76,0,0,.02,0,.03,0Z"/><path class="cls-1" d="M663.89,92.53c0-25-.04-50,.03-75,.01-4.92-.99-11.52,4.92-12.87,6.5-1.48,13.67-.83,20.41.01,1.75.22,3.64,4.46,4.27,7.14.83,3.5.61,7.28.61,10.94.02,46.66.02,93.33-.01,139.99,0,3.66-.06,7.35-.42,10.99-.64,6.45-2.12,7.79-8.74,8.6-17.49,2.15-20.8-.47-20.95-17.82-.2-24-.05-48-.05-71.99h-.08Z"/><path class="cls-1" d="M835.46,90.96c-6.2-3.17-12.95-5.27-19.17-8.42-1.84-.93-3.59-1.55-5.26-1.91-.07-.35-.14-.66-.19-.9-11.75-1.67-31.63-6.28-47.38-20.6-9.15-8.32-10.83-14.4-11.36-17.61-1.16-6.94.64-14.36,5.54-21.06,6.74-9.21,16.07-13.57,27.31-14.32,19.82-1.32,35.44,6.97,48.61,20.99,1.97,2.1,3.9,4.23,6,6.5,5.86-3.63,10.23-7.28,10.89-13.78-.9-1.06-1.46-1.9-2.2-2.53-1-.87-2.1-1.64-3.22-2.34-27.68-17.16-56.85-19.21-87.03-7.99-6.44,2.39-11.74,5.78-16,10-2.08,2.06-12.09,12.27-13.25,27.45-1.8,23.72,19.49,39.83,24.6,43.69,9.99,7.56,20.02,10.56,25.86,11.86.84.39,1.69.73,2.53,1.03,4.12,1.68,8.54,3.48,12.94,5.35,8.27,3.52,16.6,6.91,24.71,10.77,13.05,6.2,18.31,16.91,16.7,31.05-1.53,13.43-8.26,22.79-21.41,27.39-25.93,9.08-55.17-.3-70.77-22.95-2.19-3.19-4.44-6.34-8.05-11.5-2.86,3.87-4.74,6.61-6.82,9.18-5.96,7.4-5.92,9.96,1.86,15.26,13.32,9.07,27.66,15.98,43.69,18.96,21.34,3.96,41.72,1.82,60.99-8.79,35.05-19.3,30.23-69.3-.09-84.78Z"/></g></svg>