<?xml version="1.0" encoding="UTF-8"?><svg id="Capa_2" xmlns="http://www.w3.org/2000/svg" viewBox="0 0 1229.36 190.74"><defs><style>.cls-1{fill:#c87865;}</style></defs><g id="Capa_1-2"><path class="cls-1" d="M9.2,31.59c1,49.53,2,99.07,2.99,148.23C1.74,183.09.02,182.16,0,173.17c-.03-21,.29-41.99.32-62.99.03-22.98-.11-45.96-.15-68.94-.01-8.33,0-16.67.12-25C.48,4.13,1.99,3.12,14.45,2.65c11.39-.43,19.06,4.09,23.83,14.41,11.04,23.89,22.36,47.65,33.45,71.52,8.84,19.03,17.5,38.15,26.3,57.2.52,1.12,1.55,2.01,2.79,3.57,1.37-2.16,2.64-3.66,3.38-5.39,17.49-40.7,34.93-81.43,52.37-122.15.66-1.53,1.26-3.09,1.96-4.6,7.28-15.62,11-15.57,28.84-14.25,4.77.35,7.8,3.7,8.32,8.62.42,3.97.57,7.98.58,11.97.07,46.66.09,93.32.12,139.98,0,1.33.05,2.67-.08,4-.47,4.81,1.04,10.78-4.88,13.09-7.3,2.85-15.03,3.23-22.27-.31-1.67-.82-2.9-3.61-3.29-5.69-.6-3.23-.37-6.63-.37-9.96.07-40.66.16-81.32.24-121.98,0-3.21,0-6.43,0-9.64-.7-.23-1.41-.47-2.11-.7-1.33,2.36-2.89,4.62-3.95,7.1-15.33,35.83-30.59,71.68-45.88,107.53-3.14,7.35-6.19,14.75-9.53,22.01-1.52,3.3-3.23,6.68-5.58,9.39-4.73,5.46-11.85,5.44-16.48-.06-2.54-3.01-4.58-6.59-6.24-10.18-15.64-33.87-31.09-67.83-46.71-101.71-5.51-11.96-11.35-23.77-17.04-35.65l-3.05.85Z"/><path class="cls-1" d="M404.26,180.41c-9.92,2.84-18.23,2.37-26.33,1.01-2.76-.46-5.82-3.42-7.37-6.05-3.7-6.28-6.88-12.92-9.73-19.65-4.02-9.51-7.63-19.19-11.25-28.87-1.63-4.36-4.15-7.16-8.91-8.43-33.09-8.82-85.03,9.33-98.54,46.63-1.36,3.75-3,7.41-4.65,11.05-3.1,6.84-3.52,6.97-12.95,4.83.39-1.84.49-3.8,1.2-5.51,14.04-33.83,28.1-67.66,42.27-101.44,8.12-19.35,16.34-38.66,24.69-57.92,2.93-6.76,5.93-13.5,15.19-13.74,10.18-.26,19.46,1.12,25.07,10.88,2.48,4.32,4.69,8.83,6.62,13.43,18.05,43,36.01,86.04,54.03,129.05,3.31,7.9,6.78,15.73,10.67,24.72ZM257.28,127.48c27.31-14.02,53.9-22.03,84.13-17.56-1.39-4.4-2.14-7.21-3.15-9.91-4.78-12.77-9.53-25.56-14.47-38.27-5.66-14.57-11.47-29.09-17.35-43.57-.75-1.84-2.32-3.34-4.64-6.56-13.55,39.61-32.51,75.16-44.53,115.87Z"/><path class="cls-1" d="M882.87,34.03c-2.46-3.02-4.65-5.87-6.99-8.59-15.27-17.67-42.05-24.45-61.72-15.66-14.14,6.32-20.35,17.34-18.07,32,1.24,8.02,5.16,14.57,11.83,18.94,5.8,3.8,11.99,7.27,18.43,9.8,10.83,4.27,22.16,7.27,32.96,11.6,8.29,3.32,16.82,6.83,23.96,12.04,16.83,12.28,23.17,29.71,20.05,50.09-2.04,13.29-10.28,23.04-21.49,29.94-23.76,14.64-49.31,15.28-75.11,7.36-10.02-3.08-19.33-8.78-28.57-13.98-3.86-2.17-6.71-6.14-11.06-10.29,4.77-5.25,8.81-9.7,13.6-14.98,3.27,4.46,5.56,7.66,7.93,10.8,16.86,22.41,45.3,31.35,70.09,22.07,16.14-6.04,24.47-21.55,20.75-38.44-1.84-8.35-6.47-14.67-14.02-18.45-7.13-3.57-14.5-6.71-21.9-9.68-11.74-4.71-23.65-9.01-35.39-13.72-4.62-1.85-9.12-4.1-13.43-6.6-36.07-20.88-25.28-63.37.9-78.57,26.2-15.21,70.17-12.22,93.95,6.42,4.65,3.64,4.92,5,1.57,9.9-1.31,1.92-2.85,3.7-4.45,5.38-.87.91-2.1,1.46-3.8,2.6Z"/><path class="cls-1" d="M1131.96,9v72.36c3.78.29,7.62.93,11.44.82,19.32-.51,38.63-1.23,57.95-1.84,3.62-.11,7.24-.02,11.57-.02.65,3.54,1.15,6.28,1.74,9.53-2.56.68-4.41,1.65-6.22,1.57-16.31-.72-32.6-1.78-48.92-2.41-8.86-.34-17.74-.06-27.21-.06-.4,2.85-1.07,5.41-1.07,7.96,0,22.34,0,44.67.23,67.01.13,12.01,1.07,12.94,13.59,12.23,23.28-1.33,46.55-3,69.82-4.54,2.33-.15,4.65-.54,6.97-.52,7.61.08,8.51,1.43,6.69,10.54-3.06.2-6.32.58-9.59.58-32.66.07-65.33.07-97.99.08-2.67,0-5.34.01-8-.18-9.16-.65-12.16-3.73-12.83-13.12-.14-1.99-.16-4-.16-6,0-47.34.02-94.68.05-142.01,0-1.67.02-3.34.15-5,.79-10.18,3.39-13.15,13.56-13.23,27.66-.22,55.32-.11,82.98,0,7.99.03,15.99.34,23.96.9,2.07.15,4.76,1.19,5.91,2.75,2.52,3.4-.74,7.1-6.31,6.86-12.98-.56-25.95-1.37-38.92-2.17-13.97-.87-27.92-1.89-41.89-2.75-1.95-.12-3.93.32-7.53.65Z"/><path class="cls-1" d="M688.83,167.14c-1.59,9.09-6.75,13.32-13,16.59-14.57,7.62-30.17,8.54-45.76,5.11-11.98-2.64-23.57-7.06-35.32-10.75-9.21-2.89-18.28-6.26-27.6-8.75-21.27-5.68-41.6-2.82-60.91,7.69-2.33,1.27-4.75,2.53-7.29,3.18-1.28.32-3.89-.41-4.18-1.26-.55-1.59-.5-4.17.49-5.32,1.41-1.65,3.8-2.61,5.92-3.49,7.7-3.17,15.35-6.55,23.25-9.15,7.42-2.44,10.87-7.2,10.98-14.77.07-4.33.21-8.67.2-13-.08-32.34-.2-64.68-.28-97.02-.01-5.67.02-11.34.15-17,.35-15.36,7.76-20.56,22.67-16.06,4.73,1.43,7.24,4.7,7.6,9.45.38,4.98.5,9.99.5,14.98.02,39.67-.01,79.35-.02,119.02,0,11.8.09,11.61,11.12,15.45,20.22,7.05,41.08,11.23,62.15,14.73,14.43,2.4,27.78-.62,40.9-6.1,2.32-.97,4.65-1.95,8.42-3.54Z"/><path class="cls-1" d="M915.39,12.08c-2.21-6.46-.73-9.28,4.77-9.4,2-.04,3.99-.03,5.99-.04,45.58-.14,91.17-.29,136.75-.42,2.99,0,6.14-.43,8.93.35,1.71.48,3.67,2.7,4.1,4.48.73,3.03-1.2,5.22-4.44,5.17-6.65-.1-13.3-.37-19.94-.8-11.29-.73-22.56-1.7-33.85-2.42-2.22-.14-4.48.4-7.62.72-.2,4.29-.53,8.17-.53,12.05,0,47.94.07,95.89.06,143.83,0,15.15-2.59,17.59-17.28,16.9-11.24-.52-13.92-3.16-13.94-14.71-.1-48.94-.08-97.89-.1-146.83,0-3.55,0-7.1,0-11.19-21.79-1.7-42.14,3.05-62.88,2.31Z"/><path class="cls-1" d="M704.21,92.9c0-25.29,0-50.58,0-75.87,0-4.99-.67-10.8,5.11-12.92,6.95-2.55,14.43-3.06,21.16.81,1.95,1.12,3.3,4.18,3.88,6.6.84,3.51.97,7.24.98,10.88.16,46.92.25,93.84.35,140.76,0,1,.06,2-.05,2.99-.55,5.12,1.45,11.59-4.32,14.44-6.76,3.33-14.27,2.58-21.38.25-3.72-1.22-4.45-4.58-4.58-8.09-.27-7.65-.79-15.29-.84-22.94-.12-18.97-.04-37.93-.04-56.9-.09,0-.19,0-.28,0Z"/></g></svg>