<?xml version="1.0" encoding="UTF-8"?><svg id="Capa_2" xmlns="http://www.w3.org/2000/svg" viewBox="0 0 1043.5 189.55"><defs><style>.cls-1{fill:#c87865;}</style></defs><g id="Capa_1-2"><path class="cls-1" d="M162.09,30.04c-1.06,1.89-2.3,3.7-3.14,5.68-17.28,40.73-34.5,81.48-51.77,122.21-2.47,5.82-5.1,11.57-7.79,17.29-1.91,4.08-4.5,7.28-9.62,7.54-5.54.28-8.76-2.78-10.91-7.2-5.95-12.27-11.79-24.6-17.53-36.98-15.25-32.9-30.39-65.85-45.64-98.75-1.36-2.93-3.17-5.66-5.83-10.36-.91,4-1.78,6-1.76,7.99.36,32.27.82,64.54,1.28,96.8.19,13.31.44,26.62.64,39.93.02,1.33.36,2.96-.26,3.92-1.11,1.71-2.79,4.1-4.35,4.19-1.59.09-3.86-1.95-4.8-3.63-.87-1.57-.46-3.89-.47-5.88C.08,121.87-.05,70.95.02,20.04.05,3.76.71,3.78,17.07,3.39c10.08-.24,16.23,3.92,20.26,12.84,12.45,27.59,25.06,55.11,37.75,82.59,6.97,15.1,14.22,30.07,21.41,45.07.68,1.42,1.78,2.64,3.73,5.45,1.99-4.32,3.49-7.44,4.87-10.62,17.69-40.55,35.36-81.11,53.06-121.66,2.11-4.84,3.47-11.25,9.18-12.29,7.06-1.28,14.53-.85,21.75-.3,1.74.13,3.85,3.39,4.68,5.62.88,2.38.57,5.25.57,7.9.03,49.92.02,99.84.02,149.76,0,2,.07,4-.1,5.99-.6,7.22-2.04,8.69-8.96,9.41-18.47,1.92-20.99-.37-20.98-18.76.01-41.27,0-82.53-.01-123.8,0-3.29,0-6.59,0-9.88l-2.22-.67Z"/><path class="cls-1" d="M591.72,142.15c3.79,5.02,6.53,8.69,9.31,12.32,15.81,20.6,36.72,27.72,61.84,22.82,16.93-3.3,26.64-14.54,27.67-30.78.72-11.35-3.66-20.36-12.96-26.43-6.35-4.15-13.39-7.37-20.41-10.35-11.02-4.69-22.31-8.75-33.42-13.22-4.94-1.99-9.78-4.22-14.58-6.52-36.43-17.47-29.73-60.79-6.19-77.27,9.49-6.65,19.81-11.38,31.25-12.26,22.66-1.75,44.57,1.26,64.22,13.79,2.57,1.64,6.46,5.47,5.94,6.87-1.53,4.08-4.7,7.71-7.87,10.88-.79.79-4.48-.21-5.98-1.44-3.85-3.15-7.02-7.12-10.8-10.36-15.06-12.89-32.22-17.07-51.17-10.72-11.57,3.88-19.18,12.3-21.01,24.49-1.84,12.18,4.2,21.45,14.07,27.77,6.66,4.27,14.07,7.55,21.45,10.49,10.51,4.18,21.47,7.23,31.91,11.54,7.32,3.02,14.92,6.33,20.98,11.25,30.91,25.12,23.4,70.93-14.2,85.36-9.74,3.74-20.67,5.48-31.15,5.93-22.26.95-42.61-6.11-61.29-18.08-1.4-.9-2.76-1.88-4.01-2.96-5.97-5.14-6.29-7.07-1.8-13.32,2.1-2.92,4.61-5.54,8.21-9.79Z"/><path class="cls-1" d="M1043.5,181.91c-9.95,1.52-18.5,1.69-26.97.64-5.23-.65-7.31-5.42-9.04-9.78-5.29-13.28-10.42-26.62-15.61-39.93-.85-2.17-1.73-4.32-2.53-6.51-1.65-4.49-4.76-6.72-9.58-7.49-24.72-3.91-47.66,1.2-69.04,13.62-10.25,5.96-18.11,14.56-23.53,25.2-3.47,6.81-6.63,13.79-10.22,20.54-2.77,5.21-3.01,5.12-10.88,2.95.6-2.15.98-4.38,1.83-6.42,19.17-46.03,38.37-92.04,57.61-138.04,3.33-7.97,7.03-15.79,10.22-23.82,2.7-6.79,7.26-10.06,14.62-9.29,1.65.17,3.34.19,4.99.01,11.02-1.17,17.31,4.34,21.32,14.11,21.08,51.35,42.37,102.63,63.53,153.95,1.12,2.71,1.8,5.6,3.28,10.26ZM982.69,110.94c-12.26-32.88-25.57-64.64-38.63-96.51-.7.08-1.4.17-2.09.25-15.11,37.66-30.22,75.31-45.33,112.97.59.55,1.18,1.1,1.77,1.65,12.41-6.95,24.78-14.42,39.09-15.86,14.4-1.45,28.92-1.65,45.2-2.49Z"/><path class="cls-1" d="M366.24,177.44c6.49-6.09,14-8.76,21.28-11.72,11.05-4.49,12.6-6.37,12.63-18.52.08-42.58.02-85.16.04-127.74,0-15.88.91-16.7,17.12-16.3,10.71.27,12.81,2.14,13.7,12.62.28,3.31.26,6.65.25,9.97-.16,41.58-.3,83.15-.56,124.73-.03,4.78.6,8.26,6.2,9.6,22.28,5.34,44.33,11.8,66.79,16.24,14.29,2.82,29.2,3.22,43.22-2.84,4.39-1.9,8.47-4.5,13.05-6.97,2.04,4.71-.75,7.1-2.85,9.39-7.29,8-16.72,11.92-27.28,13.03-16.1,1.69-31.85-.19-47.26-5.22-12.02-3.92-24.24-7.26-36.13-11.51-24.09-8.62-47.06-5.9-69.45,5.59-2.98,1.53-6.08,4.73-10.73-.35Z"/><path class="cls-1" d="M821.02,96.52c0,22.94,0,45.88,0,68.82,0,2.66.11,5.34-.15,7.97-.72,7.1-2.89,9.39-10.05,9.71-22.03.99-20.96-2.49-20.92-19.1.09-45.55.02-91.09,0-136.64,0-2.33.09-4.66-.04-6.98-.48-8.69-3.3-11.06-11.95-10.4-13.58,1.03-27.16,2.01-40.74,2.96-1.99.14-3.99.06-5.98.01-3.07-.07-5.6-1.43-4.96-4.66.33-1.68,2.6-3.44,4.4-4.24,1.69-.75,3.92-.34,5.92-.34,46.9-.04,93.81-.07,140.71-.09,2.32,0,4.87-.36,6.9.46,1.79.73,4.15,2.88,4.15,4.39,0,1.47-2.61,4.07-4.23,4.2-5.6.42-11.29.23-16.92-.18-11.26-.83-22.49-2.1-33.75-2.93-9.11-.67-12.26,2.09-12.33,11.24-.17,25.27-.06,50.53-.06,75.8h.02Z"/><path class="cls-1" d="M267.82,94.11c0,23.92,0,47.83,0,71.75,0,2.66.11,5.33-.17,7.96-.21,1.92-.39,4.34-1.58,5.58-5.97,6.18-13.66,3.29-20.72,3.21-5.32-.06-7.38-3.96-7.96-8.61-.46-3.61-.65-7.28-.66-10.92-.03-43.18-.05-86.37.05-129.55.02-6.63.46-13.28,1.09-19.89.73-7.68,2.93-9.75,10.82-10,16.8-.53,19.36.11,19.15,17.71-.29,24.25-.07,48.5-.07,72.75h.05Z"/><path class="cls-1" d="M541.33,78.03c0,20.25.09,40.5-.04,60.75-.07,10.6-1.53,11.86-12.31,12.08-16.53.34-18.61-1.53-18.63-17.76-.06-37.51,0-75.02.02-112.53,0-2.32-.06-4.66.17-6.97.74-7.53,2.98-9.78,10.79-9.95,17.1-.38,20.67-1.02,20.32,18.62-.33,18.58-.07,37.18-.07,55.77-.08,0-.16,0-.24,0Z"/></g></svg>