<?xml version="1.0" encoding="UTF-8"?><svg id="Capa_2" xmlns="http://www.w3.org/2000/svg" viewBox="0 0 843.89 186.14"><defs><style>.cls-1{fill:#c87865;}</style></defs><g id="Capa_1-2"><path class="cls-1" d="M0,92.31C0,67.67,0,43.03.02,18.38c0-2.66-.01-5.35.4-7.96.58-3.67,2.87-6.27,6.63-6.37,27.88-.75,55.87-5.51,83.59.56,18.25,3.99,36.24,9.52,50.4,22.73,46.06,42.97,36.95,119.81-23.25,146.12-16.1,7.04-32.85,10.48-50.48,10.1-16.97-.36-33.96-.16-50.94-.3-12.52-.1-16.04-3.4-16.13-16.01-.18-24.98-.05-49.95-.05-74.93H0ZM29.86,92.92h-.05c0,23.66-.08,47.32.03,70.98.06,12.33,2.4,14.54,14.89,13.93,9.64-.47,19.3-1.07,28.88-2.18,29.94-3.46,49.58-19.78,58.3-48.55,2.88-9.49,4.96-19.44,5.74-29.31,1.97-24.87-4.5-47.49-20.46-67.07-6.04-7.41-13.56-12.36-22.45-16.04-19.35-8.02-39.43-4.5-59.26-4.66-1.71-.01-4.24,2.94-4.97,5.02-.95,2.71-.61,5.91-.62,8.9-.04,22.99-.02,45.99-.02,68.98Z"/><path class="cls-1" d="M235.82,9.19c-.57,4.14-1.32,7-1.29,9.86.15,16.32.48,32.63.74,48.95.04,2.67-.15,5.34.03,8,.42,6.35,1.58,7.35,8.04,7.17,12.65-.36,25.3-.81,37.95-1.12,9.66-.24,19.32-.36,28.99-.48,1.99-.03,4.36-.49,5.89.4,1.95,1.14,3.86,3.24,4.49,5.33.26.87-2.59,3.25-4.41,4.03-1.71.73-3.94.36-5.93.27-20.62-.98-41.23-1.99-61.85-3-1.99-.1-3.98-.34-5.98-.36-4.89-.06-7.35,2.27-7.25,7.32.12,5.66.04,11.33.04,17,.01,17,0,33.99.03,50.99.02,13.71.92,14.78,14.95,14.19,15.64-.65,31.25-1.74,46.88-2.73,10.3-.65,20.58-1.55,30.88-2.17,5.32-.32,7.75,1.6,7.56,5.55-.23,4.56-3.43,5.12-7.03,5.11-16.66-.05-33.32-.11-49.98-.14-19.66-.03-39.32.06-58.98-.1-11.58-.09-15.18-3.47-15.22-14.78-.14-50.99-.14-101.98-.08-152.97.01-10.24,1.48-11.83,11.45-11.85,35.96-.06,71.92.08,107.89.26,3.74.02,8.6-1.13,9.44,4.71.54,3.73-2.2,5.45-9.9,5.11-18.96-.83-37.89-2.09-56.84-3.1-9.9-.53-19.81-.92-30.5-1.41Z"/><path class="cls-1" d="M835.28,20.21c-4.66,5.34-8.04,9.22-11.38,13.04-8.02-6.38-14.99-12.54-22.57-17.83-11.69-8.17-24.76-11.98-38.78-7.53-6.17,1.95-12.53,5.05-17.3,9.32-13.39,11.99-12.28,31.53,1.8,42.68,1.35,1.07,3.42,3.01,10.95,6.95,11.74,6.14,21.09,9.31,28.11,11.8,18.54,6.58,27.61,10.2,32.39,12.86,32.66,18.19,33.95,61.67,3.03,82.68-8.74,5.94-18.48,9.6-28.74,10.85-29.15,3.54-56.51-.79-79.6-20.84-1.92-1.67-3.58-3.66-5.95-6.11,4.33-4.87,8.21-9.23,13.02-14.63,3.03,3.61,5.6,6.43,7.89,9.45,10.91,14.43,24.64,24.08,43.03,26.33,10.92,1.33,21.18-.67,31.07-5.25,8.83-4.09,13.85-11.17,16.09-20.42,4.4-18.11-.23-28.8-17.3-36.53-18.19-8.24-36.85-15.42-55.21-23.28-4.87-2.08-9.4-4.96-14.09-7.46-25.17-13.42-25.49-53.71-3.25-71.07,11.9-9.28,25.34-14.37,40.5-15.08,19.81-.93,38.41,2.87,55.51,13.19,1.99,1.2,3.94,2.49,5.9,3.74,1.13.72,2.25,1.45,4.87,3.14Z"/><path class="cls-1" d="M535.85,181.96c-9.71,2.39-17.99,2.32-25.95.51-2.89-.66-5.85-4.46-7.28-7.53-4.36-9.35-8.01-19.02-11.89-28.59-2.38-5.87-4.66-11.77-6.99-17.66-2.74-6.91-7.89-10.61-15.23-11.05-17.11-1.04-34,.19-50.24,6.1-14.87,5.41-27.05,14.37-34.8,28.48-4.64,8.46-8.94,17.11-13.21,25.76-2.9,5.87-2.75,5.94-11.59,4.03,1.95-4.67,3.86-9.19,5.73-13.72,20.26-49.31,40.52-98.62,60.78-147.93.13-.31.27-.61.4-.92,6.49-15.66,12.86-18.92,29.49-15.21,6.94,1.55,10.6,6.41,13.12,12.54,11.55,28.03,23.02,56.09,34.7,84.07,8.34,19.98,17.08,39.79,25.41,59.78,2.76,6.61,4.81,13.51,7.56,21.34ZM389.21,127.63c15.59-5.23,28.48-10.99,41.97-13.68,13.72-2.73,28.05-2.43,43.16-3.53-10.21-33.27-23.48-64.4-38.57-95.53-14.88,37.4-32.5,73.29-46.57,112.74Z"/><path class="cls-1" d="M595.76,91.05c0,22.67,0,45.34,0,68.01,0,2.67-.08,5.34.12,8,.6,7.82,1.95,9.33,9.78,9.31,11-.02,22.01-.22,32.98-.84,13.63-.78,27.23-2.09,40.85-3.11,2.32-.17,4.85-.57,6.93.15,1.82.63,4.5,2.79,4.39,4.08-.18,2.18-1.85,4.72-3.66,6.12-1.3,1.01-3.84.51-5.83.51-32.67.05-65.33.07-98,.08-2,0-4.02.07-5.99-.17-7.42-.89-10.84-4.14-11.32-11.49-.67-10.3-1.26-20.63-1.31-30.95-.15-34.67-.1-69.35.02-104.02.03-7.99.48-15.99.98-23.97.44-6.88,2.3-8.77,8.91-9.83,1.31-.21,2.65-.26,3.98-.29,14.35-.3,17.14,2.27,17.18,16.39.08,24,.02,48.01.02,72.01h-.04Z"/></g></svg>