<?xml version="1.0" encoding="UTF-8"?><svg id="Capa_2" xmlns="http://www.w3.org/2000/svg" viewBox="0 0 1160.26 186.49"><defs><style>.cls-1{fill:#c87865;}</style></defs><g id="Capa_1-2"><path class="cls-1" d="M618.78,98.19s.23.79.72.97c17.3,6.44,27.73,19.75,36.52,35.19,7.88,13.84,16.84,27.07,25.24,40.63,1.29,2.08,2.07,4.49,3.8,8.34-11.35,1.15-21.26,1.68-30.87-.49-3.69-.84-7.49-4.59-9.67-8.01-6.07-9.52-11.38-19.52-16.87-29.4-5.33-9.58-9.71-19.79-15.93-28.73-10.36-14.89-25.99-17.95-43.89-17.06-.26,4.33-.66,7.89-.67,11.44-.07,18.97-.04,37.94-.08,56.91,0,2.99.47,6.21-.47,8.9-.88,2.5-3.15,6.05-5.18,6.31-6.2.81-12.66.9-18.85.03-5.5-.78-6.77-5.62-6.79-10.71-.07-14.31-.36-28.62-.36-42.93,0-35.94.12-71.88.2-107.82,0-2.99-.08-6,.15-8.98.55-7.25,2.7-10.01,9.72-9.94,26.6.26,53.27-1.94,79.76,2.1,11.8,1.8,22.29,6.25,30.84,14.99,19.55,19.99,16.35,51.55-7.67,65.98-8.92,5.36-19.4,8.13-29.63,12.27ZM567.55,9.18v81.04c2.46.72,4.33,1.78,6.18,1.74,10.96-.22,22.02.14,32.85-1.25,17.33-2.23,26.63-11.58,30.12-28.64,1.82-8.93,1.58-17.87-1.12-26.65-3.45-11.22-10.76-18.93-21.62-23.29-14.76-5.93-29.93-3.98-46.42-2.95Z"/><path class="cls-1" d="M94.25.24c42.02-2.69,90.5,33.95,91.43,91.13.92,56.73-46.22,95.37-92.23,95.07C50.61,186.15,1.28,155.64.02,95.91-1.21,37.41,45.06-1.42,94.25.24ZM33.45,92c-.45,25.25,5.14,47.15,18.68,66.68,15.1,21.79,46.25,27.56,68.29,12.9,11.91-7.92,19.15-19.33,23.62-32.49,8.08-23.76,9.79-48.03,4.94-72.76-2.86-14.58-7.78-28.2-17.02-39.98C111.69.5,76.15-.43,55.03,24.59c-4.44,5.26-8.09,11.46-10.92,17.75-7.32,16.25-11.25,33.35-10.65,49.66Z"/><path class="cls-1" d="M1150.79,21.21c-2.67,3.99-5.53,8.26-9.14,13.65-4.15-3.69-7.67-6.52-10.84-9.7-8.93-8.97-19.46-14.97-31.81-17.74-10.54-2.37-20.63-.72-30.01,4.24-19.41,10.26-22.3,33.72-5.8,48.12,4.17,3.64,9.27,6.6,14.43,8.65,15.77,6.25,31.86,11.67,47.64,17.89,5.5,2.17,10.71,5.34,15.59,8.72,26.79,18.57,26.43,62.87-4.74,80.69-22.22,12.7-45.7,12.89-69.66,7.04-13.38-3.27-25.65-9.27-36.44-18-5.83-4.71-6.02-6.23-1.3-12.23,2.22-2.82,4.76-5.38,8.05-9.06,3.01,3.18,5.45,5.66,7.77,8.24,3.78,4.2,7.14,8.82,11.27,12.63,16.81,15.52,36.77,17.69,57.84,11.97,13.09-3.55,20.51-14.52,21.93-28.03,1.52-14.4-4.1-24.9-16.79-31.02-10.76-5.19-22.18-9-33.23-13.6-11.05-4.6-22.33-8.78-32.92-14.28-15.65-8.14-24.89-21.47-24.63-39.33.28-18.92,10.39-32.83,26.85-41.49,24.75-13.03,66.83-12.19,93.67,9.25.73.58,1.1,1.61,2.26,3.38Z"/><path class="cls-1" d="M1007.35,183.52c-9.39,0-17.3.55-25.09-.18-5.83-.55-8.79-5.49-10.87-10.63-4.98-12.33-9.95-24.66-14.93-36.99-6.98-17.27-7.14-17.04-25.44-17.7-15.57-.57-30.32,1.9-44.78,7.84-17.22,7.08-29.39,19.09-37.58,35.44-2.83,5.64-5.06,11.58-7.8,17.26-2.55,5.28-2.69,5.21-11.28,3.87.69-2.82,1.02-5.68,2.09-8.24,19.87-47.54,39.83-95.05,59.8-142.55,2.7-6.43,5.73-12.74,8.31-19.22,2.4-6,6.8-9.1,13.02-8.98,5.29.1,10.68.63,15.79,1.92,2.6.65,5.06,3.08,6.87,5.29,1.85,2.26,3.01,5.16,4.16,7.9,16.48,39.24,32.88,78.51,49.36,117.75,5.02,11.95,10.33,23.79,15.29,35.77,1.32,3.18,1.83,6.69,3.09,11.47ZM906.49,14.2c-15.02,38.44-32.88,75.28-45.57,114.9,25.54-16.86,54.13-18.84,84.48-18.53-11.15-33.98-25.21-64.87-38.9-96.36Z"/><path class="cls-1" d="M406.02,9.78v73.01c2.98.14,5.54.43,8.09.35,21.29-.71,42.58-1.5,63.86-2.24,2.32-.08,4.66-.05,6.98.13,3.24.26,4.59,2.32,4.6,5.39.01,3.05-1.24,5.34-4.52,5.42-4.98.12-9.99.03-14.96-.25-17.6-1-35.2-2.13-52.8-3.2-1.66-.1-3.33-.05-4.99-.08-5-.08-7.26,2.42-7.18,7.37.11,6.32.09,12.64.1,18.96.03,16.64-.03,33.27.1,49.91.09,10.96,1.52,12.65,11.92,12.19,21.93-.97,43.84-2.38,65.76-3.54,5.65-.3,11.32-.63,16.95-.28,1.68.11,4.09,2.2,4.64,3.89.97,2.97-.97,5.08-4.13,5.48-2.3.29-4.65.32-6.97.32-34.96-.03-69.92-.03-104.87-.14-12.21-.04-14.47-2.21-14.51-14.73-.13-50.58-.16-101.15-.1-151.73.01-11.24,1.72-12.95,12.65-12.96,34.96-.05,69.92,0,104.87.13,4.04.01,9.32-1.36,9.92,5.25.41,4.6-2.02,6.1-10.37,5.66-25.24-1.33-50.47-2.88-75.71-4.3-2.61-.15-5.23-.02-9.34-.02Z"/><path class="cls-1" d="M251.52,11.11c-.41,25.66-.5,50.7.11,76.53,4.88.34,8.45.86,12,.78,18.64-.42,37.27-1,55.9-1.48,2.99-.08,6-.08,8.98.2,3.26.31,4.88,2.72,4.18,5.58-.45,1.84-2.37,4.2-4.07,4.65-2.78.74-5.92.18-8.9.04-19.28-.92-38.56-1.92-57.84-2.79-2.9-.13-5.82.3-9.6.52-.37,4.42-.95,8.29-.97,12.16-.1,19.64-.04,39.27-.1,58.91,0,3.32-.03,6.68-.49,9.95-.7,4.91-3.58,7.55-8.79,7.71-21.6.65-22.31-1.26-22.24-20.17.18-46.93.06-93.86.07-140.79,0-2.33-.01-4.66.07-6.99.37-10.12,2.5-12.69,12.35-12.73,35.3-.16,70.6-.07,105.9-.02,1.97,0,4.43-.14,5.76.92,1.54,1.22,2.81,3.69,2.82,5.62,0,1.36-2.14,3.73-3.56,3.92-3.57.48-7.27.03-10.92-.14-24.6-1.12-49.2-2.28-73.8-3.36-1.62-.07-3.26.44-6.88.97Z"/><path class="cls-1" d="M749.49,95.61c0-23.28,0-46.57,0-69.85,0-2.33.11-4.67-.1-6.98-.68-7.59-2.34-9.15-10.03-8.76-14.61.75-29.21,1.73-43.82,2.53-2.65.15-5.47.46-7.92-.28-1.81-.54-3.14-2.67-4.68-4.08,1.5-1.55,2.76-3.97,4.54-4.45,3.13-.84,6.59-.63,9.91-.63,43.27-.03,86.53-.02,129.8-.02,3,0,5.99-.01,8.99.02,1.66.02,3.6-.38,4.92.33,2.08,1.11,4.92,2.74,5.31,4.61.73,3.42-2.52,4.27-5.31,4.21-10.31-.21-20.61-.51-30.91-.94-6.64-.28-13.27-1.08-19.92-1.18-6.93-.11-8.96,1.62-10,8.37-.6,3.92-.54,7.95-.54,11.94-.03,45.9-.02,91.8-.03,137.71,0,15.29-1.42,16.62-16.55,15.56-10.36-.73-13.51-3.77-13.58-14.26-.15-24.61-.05-49.23-.05-73.84h-.05Z"/></g></svg>