<?xml version="1.0" encoding="UTF-8"?><svg id="Capa_2" xmlns="http://www.w3.org/2000/svg" viewBox="0 0 1755.05 187.08"><defs><style>.cls-1{fill:#c87865;}</style></defs><g id="Capa_1-2"><path class="cls-1" d="M715.43,30.66c-1.87,4.23-3.82,8.43-5.58,12.7-17.93,43.4-35.83,86.82-53.73,130.23-1.76,4.26-2.69,9.27-8.72,9.59-6.35.33-11.17-2.51-13.76-8.1-5.59-12.08-10.71-24.39-16.11-36.56-15.01-33.79-30.04-67.57-45.13-101.32-1.14-2.56-2.79-4.9-6.01-6.98-.24,2.78-.71,5.57-.67,8.35.62,42.98,1.3,85.96,1.97,128.94.05,3.33.18,6.66.11,9.99-.06,3.38-1.37,5.91-5.23,5.9-3.5,0-5.6-1.96-6.18-5.33-.34-1.95-.37-3.98-.35-5.97.41-30.32.95-60.63,1.25-90.94.1-10.65-.58-21.31-.54-31.96.04-12.65.46-25.29.75-37.94.11-4.79,2.44-7.42,7.45-7.3,4,.1,8,.04,11.99.2,7.29.28,12.64,3.74,16.06,10.16,1.41,2.64,2.81,5.3,4.03,8.04,17.85,40.18,35.66,80.37,53.52,120.54,1.17,2.64,2.65,5.15,4.64,8.99,1.64-3.2,2.77-5.07,3.6-7.07,17.31-41.5,34.58-83.01,51.87-124.51.26-.61.57-1.2.86-1.81,6.46-13.69,16.55-18.46,30.85-14.1,2.14.65,4.57,3.01,5.28,5.11,1.14,3.37,1.28,7.19,1.29,10.82.18,49.99.29,99.98.37,149.97.02,10.52-2.51,13.13-12.69,13.49-1.66.06-3.33.05-5-.01-10.51-.39-12.16-1.95-12.24-12.43-.33-41.98-.59-83.97-.87-125.95-.03-4.83,0-9.66,0-14.49-1.03-.08-2.06-.16-3.08-.24Z"/><path class="cls-1" d="M254.27,98.04c4.07,2.09,8.86,3.42,12.06,6.43,6.23,5.87,12.45,12.1,17.11,19.21,10.95,16.69,20.99,33.97,31.34,51.04,1,1.65,1.67,3.51,2.85,6.03-2.36,1.1-4.24,2.17-6.26,2.84-1.22.4-2.65.07-3.97.24-17.11,2.22-28.26-4.57-35.56-20.56-7.16-15.7-16.61-30.35-24.73-45.62-8.49-15.97-23.63-17.93-39.17-19.23-3.73-.31-5.46,2.08-5.8,5.45-.33,3.31-.46,6.65-.47,9.97-.09,18.99-.07,37.97-.19,56.96-.07,11.03-1.91,12.83-12.71,13-2,.03-4,.05-5.99-.07-8.84-.52-11.11-2.6-11.47-11.56-.54-13.31-.97-26.63-1.03-39.95-.12-30.96-.06-61.91.11-92.87.05-8.65.5-17.31,1.15-25.94.59-7.79,2.02-9.46,9.67-9.89,26.93-1.53,53.94-3.24,80.6,2.51,7.38,1.59,14.62,4.48,21.46,7.75,28.06,13.41,30.1,55.03,3.59,70.65-7.05,4.16-15.1,6.69-22.81,9.64-3.02,1.16-6.39,1.41-9.61,2.07-.06.64-.12,1.28-.18,1.92ZM202.76,10.01c-.44,2.62-1.03,4.54-1.04,6.46-.03,21.62-.08,43.24.11,64.86.08,9.35,1,10.21,10.37,10.61,7.3.31,14.65.52,21.93.06,20.87-1.32,34.57-10.91,38.49-28.66,1.8-8.17.95-17.16,0-25.64-1.36-11.96-8.88-19.72-19.81-24.25-16.27-6.74-32.97-6-50.06-3.44Z"/><path class="cls-1" d="M523.49,94.57c.46,54.01-45.26,92.1-92.33,92.48-49.87.41-95.14-36.73-95.17-93.65-.03-52.26,41.42-93.56,93.45-93.17,54.08.4,95.39,41.42,94.06,94.34ZM489.99,94.22c-.51-19.16-3.44-37.83-11.77-55.3-10.06-21.12-29.84-33.18-52.27-31.42-22.65,1.78-37.35,14.96-46.03,34.97-9.34,21.55-11.56,44.33-9.26,67.62,1.56,15.78,5.4,30.84,13.93,44.43,15.65,24.92,62,40.44,88.28,1.45,3.87-5.74,7.07-12.14,9.44-18.65,5.04-13.85,7.87-28.22,7.67-43.1Z"/><path class="cls-1" d="M783.3,93.72c.35-53.88,40.67-95.3,93.33-93.49,54.95,1.89,92.62,40.18,92.77,94.66.15,56.03-48.68,93.11-94.49,91.83-52.82-1.47-91.96-40.26-91.61-93ZM936.23,92.34c-.92-21.34-5.51-42.55-17.23-61.9-18.74-30.97-70.1-32.54-89.05,5.17-18.51,36.83-19.2,75.07-1.73,112.84,9.41,20.36,26.33,31.11,48.41,31.19,21.47.07,37.14-11.12,46.89-30.28,8.96-17.6,11.96-36.56,12.71-57.01Z"/><path class="cls-1" d="M1310.11,186.46c-54.51-.11-93.96-40.24-93.78-95.38.17-51.19,42.19-91.23,95.48-90.98,51.43.24,91.76,42.05,91.46,94.83-.29,52.27-40.35,91.63-93.16,91.53ZM1369.67,93.27c-.72-7.14-1.22-15.8-2.54-24.33-1.93-12.56-5.5-24.71-12.03-35.74-20.48-34.59-67.94-35.21-89.41-1.28-6.89,10.88-10.82,22.81-13.15,35.33-5.26,28.25-3.22,55.83,9.52,81.84,9.78,19.98,26.47,31.24,48.81,30.23,22.65-1.03,39.54-12.56,48.8-33.92,7-16.15,9.17-33.25,10-52.13Z"/><path class="cls-1" d="M31.44,110.99c0,7.26,0,14.56,0,21.85,0,13,.21,26-.05,38.99-.19,9.42-2.75,11.68-12.04,11.99C2.53,184.37-.02,182.04,0,165.49.06,118.83.16,72.17.37,25.52c.02-4.97.73-9.95,1.45-14.88.6-4.14,3.33-6.36,7.5-6.74,1.33-.12,2.66-.28,3.99-.28,22.32.11,44.65-.03,66.96.47,11.05.25,21.8,2.79,31.74,7.97,20.65,10.77,32.09,35.46,25.37,56.49-4.98,15.61-14.85,27.39-30.61,33.47-20.36,7.87-41.59,8.57-63.02,7.71-2.99-.12-5.98-.22-8.97-.22-.6,0-1.19.5-3.34,1.48ZM32.78,10.56c-.66,1.85-1.27,2.77-1.28,3.69-.11,27.26-.15,54.52-.25,81.77-.02,4.69,2.63,6.25,6.82,6.77,12.31,1.53,24.68,1.83,36.67-1.26,15.09-3.88,26.06-13.2,30.86-28.41,3.05-9.64,3.24-19.7,1.23-29.61-3.51-17.33-14.02-28.53-31.17-32.55-14-3.28-28.28-3.24-42.89-.41Z"/><path class="cls-1" d="M1578.79,154.21c.29-3.48.92-6.96.83-10.43-.85-30.96-1.82-61.92-2.77-92.89-.38-12.32-.82-24.63-1.18-36.95-.06-1.99-.42-4.29.41-5.9.9-1.75,3.09-4.04,4.62-3.97,2.18.1,5.31,1.65,6.15,3.46,1.17,2.52.74,5.85.73,8.83-.04,26.98-.14,53.97-.2,80.95-.06,23.96-.09,47.93-.14,71.89,0,2,.08,4.01-.14,5.99-.73,6.41-2.48,8.04-8.74,8.58-9.84.84-17.38-2.93-23.19-10.9-10.21-13.99-20.59-27.85-31-41.69-17.42-23.15-34.92-46.24-52.37-69.37-7.42-9.84-14.75-19.73-22.16-29.58-1.16-1.53-2.51-2.92-4.77-5.53-.63,3.37-1.41,5.44-1.35,7.49,1.11,42.94,2.32,85.88,3.52,128.82.13,4.66.48,9.31.55,13.97.05,3.79-1.52,6.46-5.71,6.75-4.41.3-6.99-1.9-7.59-6.15-.37-2.62-.34-5.32-.29-7.98.53-27.31,1.31-54.62,1.59-81.93.24-22.65-.16-45.3-.16-67.95,0-15.84,2.76-18.07,18.33-15.33,6.83,1.2,12.28,4.29,16.56,10.07,21.4,28.91,42.97,57.68,64.58,86.43,12,15.97,24.16,31.83,36.28,47.71,1.57,2.06,3.35,3.95,5.03,5.92.86-.11,1.72-.21,2.58-.32Z"/><path class="cls-1" d="M1616.43,160.38c5.35-6.65,9.21-11.46,14.14-17.59,3.11,3.84,5.62,6.7,7.86,9.76,11.25,15.35,26.25,24.32,45.17,26.45,13.54,1.52,25.74-2.19,36.43-10.58,13.45-10.57,17.86-39.95-6.33-50.69-13.38-5.94-27.26-10.73-40.79-16.35-8.91-3.7-17.76-7.6-26.34-12-30.93-15.86-32.7-58.19-2.46-78.05,9.38-6.16,19.76-9.82,30.82-10.84,20.72-1.92,40.5,1.75,58.83,11.89,3.67,2.03,6.89,4.87,11.32,8.06-4.01,5.03-7.39,9.26-11.55,14.48-3.88-3.88-6.93-6.77-9.79-9.84-9.13-9.8-19.8-16.84-33.38-18.44-12.11-1.42-23.3,1.53-32.87,9.01-14.56,11.38-15.72,28.62-2.65,41.61,4.4,4.37,9.82,8.19,15.47,10.71,11.83,5.28,24.16,9.44,36.22,14.24,7.42,2.95,15.02,5.64,22,9.45,34.45,18.78,35.54,63.47,2.2,84.04-12.84,7.93-27.19,10.85-41.97,11.34-25.07.82-46.91-8.22-66.64-23.11-1.33-1.01-2.85-1.78-5.68-3.54Z"/><path class="cls-1" d="M1066.78,10.12c-.28,4.13-.6,6.72-.6,9.31,0,50.3.13,100.6,0,150.9-.03,11.48-2.23,13.27-13.57,13.47-2.33.04-4.68.11-6.99-.1-7.12-.66-9.35-2.88-9.99-9.92-.21-2.32-.15-4.66-.14-6.99.16-48.99.34-97.97.46-146.96,0-2.9-.4-5.8-.65-9.08-4.31,0-7.89-.18-11.45.03-14.96.91-29.91,1.98-44.86,2.9-2.81.17-5.52-.4-5.79-3.97-.27-3.53,1.4-5.7,5.06-6.06,1.32-.13,2.66-.19,3.99-.23,8.99-.26,17.98-.76,26.97-.72,36.64.16,73.29.47,109.93.76,2.31.02,4.83-.09,6.87.77,1.48.63,3.42,2.96,3.2,4.18-.32,1.83-2.17,4.53-3.71,4.78-3.87.64-7.96.33-11.93.02-12.28-.94-24.55-2.11-36.83-3.08-2.92-.23-5.87-.03-9.96-.03Z"/><path class="cls-1" d="M1152.21,92.46c0-24.32-.01-48.63.02-72.95,0-2.99.05-6.01.38-8.97.41-3.67,2.27-6.41,6.27-6.54,5.64-.19,11.31-.29,16.94.07,4.66.3,7.02,3.54,7.47,7.99.33,3.3.33,6.65.33,9.98,0,48.3-.03,96.6-.06,144.9,0,1.67.06,3.34-.06,5-.66,9.26-3.16,11.68-12.25,11.96-1,.03-2,.01-3,0-13.58-.08-16.28-2.73-16.32-16.48-.06-24.98-.02-49.96-.02-74.95h.31Z"/></g></svg>