<?xml version="1.0" encoding="UTF-8"?><svg id="Capa_2" xmlns="http://www.w3.org/2000/svg" viewBox="0 0 1319.21 255.4"><defs><style>.cls-1{fill:#c87865;}.cls-2{fill:#414141;}</style></defs><g id="Capa_1-2"><path class="cls-1" d="M113.03,130.16c2.03,1.14,3.08,1.94,4.28,2.37,16.7,6.02,30.41,16.37,42.33,29.27,16.3,17.66,33.23,34.7,53.02,48.46,40.89,28.43,85.61,38.92,134.72,27.57,10.78-2.49,21.03-6.33,30.65-11.83,2.31-1.32,4.66-2.59,7.03-3.8,1.58-.8,3.21-1.01,4.49.57,1.54,1.9,1.12,3.92-.48,5.35-2.47,2.21-5.12,4.26-7.9,6.07-18.55,12.13-39.19,18.48-61.04,20.27-66.03,5.4-124.48-12.66-174.11-57.35-11.16-10.05-21.65-20.73-31.74-31.83-5.84-6.42-11.98-12.52-19.48-17.05-24.04-14.51-47.47-3.77-52.24,23.92-1.83,10.59-1.07,21.27-1.21,31.92-.13,9.66.16,19.33-.12,28.98-.23,7.83-3.13,10.79-10.99,11.22-6.31.35-12.68.39-18.98-.06-6.95-.5-10.02-3.82-10.78-10.78-.32-2.97-.26-5.99-.26-8.99C.13,157.16.07,89.86,0,22.56c0-1.67-.04-3.34.08-5C.72,8.07,3.55,4.81,13,4.89c32.63.27,65.32-1.68,97.87,1.84,19.28,2.09,37.09,8.18,51.15,22.4,25.39,25.68,20.94,64.73-9.58,84.13-9.04,5.75-18.7,10.2-29.11,12.93-3.19.83-6.58,1.12-10.3,3.97ZM43.2,147.28c13.27-15.64,31.3-19.59,49.04-24.26,3.85-1.01,7.66-2.32,11.35-3.81,18.33-7.39,28.41-21.31,31.61-40.52,1.16-6.95,1-13.92.22-20.92-2.25-20.03-13.05-32.9-32.16-39.07-17.17-5.55-34.87-4.91-52.51-4.5-6.65.15-8.59,2.59-9.29,9.35-.24,2.31-.14,4.66-.14,6.99-.04,35.66-.08,71.31-.08,106.97,0,2.61-.52,5.32,1.97,9.78Z"/><path class="cls-1" d="M1271.96,151.85c19.04,25.29,32.22,53.85,45.89,82.15,1.35,2.8,1.64,5.68,1.13,8.7-.75.48-1.49.96-2.24,1.44-8.21.03-16.42-.04-24.63.13-4.35.09-8.47-.74-12.55-2.09l-.02.04c-4.1-5.25-8.2-10.51-12.3-15.76l.04.03c.24-4.48-1.61-8.38-3.53-12.23-8.37-16.86-16.67-33.76-25.23-50.53-3.29-6.45-6.84-12.88-13.49-16.69-.28-.45-.68-.73-1.19-.85-9.12-7.17-19.02-8.55-29.72-4.01-.45-.03-.82.12-1.11.47-15.35,5.96-23.56,18.95-24.05,38.02-1.37,8.07-1.08,16.16-.19,24.25-1.36,8.27-.33,16.61-.63,24.91-.43,11.85-3.06,14.45-15.08,14.6-3.66.04-7.32.04-10.98-.09-11.28-.4-14.46-3.72-14.83-15.3-.03-1-.03-2-.03-2.99-.08-68.21-.11-136.42-.3-204.63-.02-7.15,1.22-13.23,8.15-16.79,21.52.06,43.04.38,64.55.12,23.67-.28,46.94,1.75,69.39,9.79,12.93,6.88,24.04,15.78,31.65,28.56v-.03c3.05,9.81,5.75,19.71,4.23,30.12-2.3,15.78-9.72,28.59-22.77,37.95-2.95,2.12-5.99,4.1-8.99,6.14-.72.45-1.44.89-2.15,1.34-1.65.16-3.08.76-4.16,2.07l.23-.13c-1.74.08-3.29.58-4.33,2.1l.39-.13c-2.05-.03-3.94.34-5.23,2.15l-.3-.41s-.5.1-.5.1c-6.18,1.64-12.37,3.27-18.55,4.91-.02.64-.04,1.28-.06,1.93,4.82,1.86,9.64,3.71,14.46,5.57,0,0,.07.04.07.04,1.05,1.29,2.38,2.03,4.06,2.08l-.22-.15c.7.6,1.39,1.2,2.09,1.8l.33.2c.94,1.26,2.09,2.16,3.76,2.14l-.44.26c2.65,3.4,5.88,6.17,9.42,8.59l-.07.16ZM1169.33,147.12c1.23-.71,2.21-1.02,2.82-1.68,10.19-10.85,22.99-16.68,37.3-19.77,5.19-1.12,10.35-2.5,15.42-4.06,15.44-4.75,26.9-14.17,33.51-29.14,4.27-9.68,5.23-19.87,4.63-30.28-1.39-24.2-15.1-40.16-38.71-45.53-12.8-2.91-25.76-2.68-38.72-2.59-16.56.12-17.56,1.15-17.6,17.58-.08,35.92-.11,71.83-.15,107.75,0,2.3-.36,4.67,1.49,7.72Z"/><path class="cls-1" d="M734.4,0c49.58,1.06,85.25,18.68,111,54.14,33.91,46.69,28.34,113.05-11.83,154.41-54.74,56.36-148.27,51.87-197.15-9.47-30.96-38.85-34.61-94.59-8.37-136.85,25.7-41.4,64.25-60.12,106.35-62.23ZM656.25,122.83c0,11.31.62,22.61,2.91,33.75,4.27,20.88,12,40.2,26.15,56.48,25.64,29.5,65.33,34.02,97.06,11.23,13.76-9.88,22.57-23.53,28.74-38.84,13.49-33.51,15.4-67.93,6.32-102.88-4.85-18.68-13.36-35.52-26.65-49.66-35.17-37.41-85.71-25.01-108.78,6.51-18.25,24.94-26.28,52.78-25.74,83.42Z"/><path class="cls-1" d="M1088.7,87.24c0,20.33.12,40.66-.04,60.99-.1,13.35-1.29,26.61-5.01,39.53-9.18,31.82-30.22,51.12-62.32,58.11-20.92,4.55-41.7,2.94-62.16-3.54-35.32-11.19-53.66-36.44-59.9-71.78-1.39-7.88-2.06-15.84-2.05-23.87.06-41.32,0-82.65,0-123.97,0-2.66-.09-5.37.32-7.98.91-5.89,3.83-9.15,9.78-9.62,6.62-.52,13.34-.52,19.95.06,6.38.56,9.45,3.83,10.49,10.21.59,3.59.61,7.3.61,10.96.01,36.66-.11,73.32-.02,109.97.03,13.65-.15,27.34,2.67,40.83,3.26,15.61,9.18,29.92,20.45,41.57,2.3,2.38,4.82,4.64,7.55,6.51,26.02,17.87,69.38,11.31,88.95-13.44,10-12.64,15.19-27.24,17.07-43.12,1.17-9.94,1.6-19.91,1.76-29.92.64-38.34-.94-76.63-1.81-114.95-.1-4.32-.05-8.67.31-12.98.28-3.41,2.51-5.33,5.97-5.57,3.79-.26,6.72,1.21,7.42,5.09.59,3.24.56,6.63.56,9.95.04,22.33.02,44.65.02,66.98-.19,0-.38,0-.57,0Z"/><path class="cls-1" d="M491.13,127.67c0-27.31,0-54.62,0-81.93,0-5,0-9.99-.08-14.99-.28-15.55-1.88-17.16-17.76-15.68-17.24,1.6-34.48,3.18-51.79,3.84-3.32.13-6.66.03-9.98-.11-3.63-.15-5.38-2.44-5.65-5.8-.3-3.8,1.4-6.52,5.29-7.28,2.26-.44,4.63-.48,6.95-.48,62.28-.06,124.56-.1,186.84-.12,2.66,0,5.36-.03,7.96.44,3.78.68,5.72,3.23,5.58,7.11-.14,3.9-2.13,6.22-6.17,6.38-2.66.1-5.33.18-7.98,0-15.28-1.04-30.56-2.15-45.83-3.26-3.65-.27-7.29-.74-10.95-.97-13.46-.85-15.17.68-15.18,14.16-.06,63.61-.05,127.23-.08,190.84,0,4.33.15,8.68-.25,12.98-.69,7.43-3.92,10.73-11.4,11.39-4.96.44-9.99.35-14.98.12-10.71-.49-14.28-4.03-14.51-14.72-.25-11.65-.15-23.31-.16-34.97-.02-22.31,0-44.63,0-66.94h.14Z"/><path class="cls-1" d="M224.95,95.9c0-23.98,0-47.96.01-71.93,0-3-.11-6.02.27-8.98.8-6.12,3.55-8.86,9.53-9.77,1.96-.3,3.99-.26,5.98-.26,43.29.12,86.59.25,129.88.42,2.98.01,6.02.11,8.93.7,3.79.77,5.42,3.46,5.25,7.34-.18,4.02-2.37,6.21-6.17,6.5-3.3.25-6.66.1-9.97-.13-28.9-2-57.79-4.07-86.69-6.11-1-.07-1.99-.14-2.99-.15-10.17-.12-12.51,1.98-12.63,12-.14,11.99-.02,23.98-.05,35.97-.03,9.66-.16,19.32-.16,28.97,0,10.64.49,11.09,11.45,10.92,22.98-.36,45.95-.76,68.93-1.1,3.33-.05,6.66.07,9.98.27,3.69.22,5.2,2.63,5.34,6.01.13,3.32-1.04,6.09-4.66,6.6-3.27.45-6.63.52-9.94.43-22.3-.62-44.61-1.34-66.91-2.01-2.33-.07-4.66-.06-6.99-.1-4.44-.09-6.88,1.94-6.95,6.52-.03,2.33-.13,4.66-.13,6.99-.01,16.99-.03,33.97,0,50.96.01,10.44.74,11.67,11.1,14.53,20.54,5.68,41.46,5.8,62.44,3.3,13.98-1.67,27.32-5.81,40.21-11.43,3.74-1.63,7.57-3.32,10.45,1.49,3.1,5.2,1.76,8.93-4.86,11.42-13.15,4.95-26.77,8.08-40.78,9.31-33.65,2.94-66.48-.87-98.35-12.25-2.82-1.01-5.57-2.21-8.41-3.17-9.74-3.33-13.68-9.42-13.29-20.31.87-24.28.27-48.61.27-72.93-.03,0-.06,0-.09,0Z"/><path class="cls-2" d="M1267.06,120.52c-1.45.7-2.89,1.4-4.33,2.1,1.05-1.52,2.59-2.01,4.33-2.1Z"/><path class="cls-2" d="M1270.99,118.58c-1.39.69-2.77,1.38-4.16,2.07,1.07-1.32,2.51-1.92,4.16-2.07Z"/><path class="cls-2" d="M1263.12,122.49c-1.74.72-3.49,1.43-5.23,2.15,1.3-1.81,3.18-2.18,5.23-2.15Z"/></g></svg>