<?xml version="1.0" encoding="UTF-8"?><svg id="Capa_2" xmlns="http://www.w3.org/2000/svg" viewBox="0 0 1266.25 250.75"><defs><style>.cls-1{fill:#3e3e3e;}.cls-2{fill:#c87865;}</style></defs><g id="Capa_1-2"><path class="cls-2" d="M1184.96,131.33c3.24,3.57,6.66,4.18,9.64,5.51,13.79,6.13,24.92,15.33,32.73,28.29,13.4,22.26,25.68,45.14,36.84,68.61.71,1.5,1.43,3.05,1.77,4.65,1.02,4.68-.44,7.25-5.29,7.56-9.29.58-18.65.81-27.91-.44-6.7-.91-10.14-6.03-12.92-11.45-4.7-9.19-9.1-18.52-13.68-27.77-6.65-13.43-13.35-26.83-20.03-40.24-2.23-4.48-4.7-8.82-8-12.62-16.12-18.58-44.9-15.01-55.97,7.02-3.94,7.84-5.99,16.19-5.96,25.03.05,15.32.13,30.64-.05,45.96-.13,11.4-2.9,14.2-14.07,14.68-4.98.21-10.02.32-14.97-.13-8.06-.73-11.21-4.08-12.03-12.01-.21-1.98-.14-3.99-.14-5.99.01-66.6.03-133.21.06-199.81,0-3-.04-6,.16-8.99.66-9.45,3.49-12.18,13.2-12.24,19.98-.13,39.96-.06,59.94-.13,16.69-.05,33.31.66,49.62,4.55,13.76,3.28,26.71,8.24,37.14,18.35,25.74,24.97,22.21,64.44-7.66,84.43-8.36,5.59-17.54,9.52-27.12,12.52-4.74,1.49-9.5,2.89-15.3,4.66ZM1116.66,150.49c7.75-7.77,14.33-13.26,22.32-16.75,8.27-3.61,16.87-6.16,25.57-8.42,6.46-1.68,12.84-3.6,18.75-6.73,20.49-10.86,31.29-36.48,25.85-61.89-4.29-20.05-16.11-33.13-36.43-37.97-15.75-3.75-31.78-2.44-47.72-2.61-5.08-.05-7.99,2.99-8.47,8.02-.31,3.31-.33,6.65-.33,9.97-.08,35.95-.13,71.9-.16,107.85,0,1.96.27,3.92.62,8.53Z"/><path class="cls-2" d="M223.66,144.65C222.66,47.59,293.46-1.85,357.88,2.43c52.53,3.49,92.7,28.22,112.58,77.89,34.44,86.07-29.37,167.73-114.51,170.36-26.09.81-50.29-5.97-72.42-19.22-39.08-23.4-58.86-58.41-59.87-86.81ZM435.86,127.54c.38-8.38-.63-16.67-1.84-24.89-3.71-25.21-12.24-48.39-30.05-67.3-29.13-30.9-72.97-31.76-103.17-1.95-13.1,12.93-21.1,28.96-26.49,46.35-6.61,21.32-7.73,43.23-5.66,65.25,2.61,27.94,12.32,53.04,31.83,73.79,9.86,10.49,21.74,17.44,35.95,20.21,31.61,6.17,59.98-5.77,77.8-32.66,15.85-23.91,20.93-50.76,21.64-78.8Z"/><path class="cls-2" d="M878.59,125.59c0-32.33,0-64.66,0-96.99,0-3.33-.1-6.68.18-9.99.68-8.2,3.8-11.26,11.83-11.84,1.99-.14,4-.09,6-.09,42.66.06,85.32.13,127.98.2,2.33,0,4.68-.08,6.99.19,5.05.58,7.51,3.1,7.63,7.5.13,4.9-2.59,8.16-8.05,7.97-11.65-.41-23.27-1.42-34.9-2.23-20.28-1.4-40.55-2.84-60.82-4.23-1.99-.14-4.01-.16-5.99-.01-7.09.53-8.74,2.06-9.4,9.01-.29,2.98-.23,5.99-.23,8.99-.01,22.33-.05,44.66.02,66.99.04,10.6.63,11.11,11.5,10.96,23.99-.32,47.99-.71,71.98-1.03,2.99-.04,6.01,0,8.98.31,3.43.37,5.35,2.5,5.55,5.98.22,3.95-1.76,6.51-5.58,6.98-3.61.45-7.32.39-10.97.24-21.98-.92-43.95-1.9-65.92-2.92-15.6-.73-15.63-.78-15.63,14.43,0,28.33.02,56.66.03,84.99,0,2-.06,4.01.11,6,.66,7.73,2.87,10.18,10.7,9.88,12.64-.49,25.26-1.66,37.89-2.5,21.94-1.46,43.89-2.94,65.83-4.32,8.37-.53,11.03,2.01,10.4,9.21-.35,3.97-2.3,6.12-6.24,6.38-2.66.17-5.33.25-7.99.25-44.33.08-88.65.15-132.98.19-2.66,0-5.36.02-7.98-.38-6.68-1.02-9.92-4.35-10.77-11.15-.37-2.96-.22-5.99-.22-8.99-.01-33.33,0-66.66,0-99.99h.1Z"/><path class="cls-2" d="M127.53,222.12c.89-1.7,1.8-3.09,2.38-4.6,23.99-62.86,47.95-125.73,71.89-188.61,1.66-4.36,2.99-8.83,4.59-13.22.68-1.87,1.39-3.8,2.5-5.42,2.05-3,8.67-4.42,11.8-2.49,3.98,2.46,2.01,5.9.83,8.86-9.96,25.07-20.06,50.09-30.06,75.15-18.4,46.09-36.89,92.15-55.07,138.33-3.52,8.94-7.37,16.61-18.63,16.18-12.59-.48-24.81-1.2-30.56-15.61-12.47-31.25-25.35-62.33-37.94-93.52C33.67,98.55,18.15,59.92,2.7,21.25-2.32,8.69-1.06,7.01,12.66,6.92c4.33-.03,8.66,0,12.99-.02,10.49-.05,17.48,4.44,21.28,14.65,8.96,24.03,18.34,47.91,27.68,71.79,16.14,41.26,32.36,82.48,48.6,123.7.69,1.76.84,4.02,4.32,5.08Z"/><path class="cls-2" d="M761.51,221.53c3.59-2.16,3.96-5.71,5.13-8.69,25.36-64.47,50.17-129.16,73.92-194.25.8-2.19,1.45-4.46,2.51-6.52,2.24-4.34,7.5-6.34,11.86-4.35,5.08,2.32,2.55,6.12,1.26,9.36-10.93,27.56-21.99,55.06-32.92,82.62-17.57,44.27-35.06,88.57-52.6,132.86-4.39,11.08-9.44,14.38-21.32,13.81-2.65-.13-5.29-.64-7.93-.94-9.49-1.09-15.68-5.92-19.21-15.06-7.81-20.19-16.19-40.16-24.29-60.23-19.83-49.11-39.69-98.21-59.42-147.35-6.2-15.43-5.86-15.75,11.15-15.82,26.73-.11,27.08.32,36.75,25.58,15.84,41.37,31.83,82.68,48.62,123.68,7.57,18.49,14.28,37.33,21.55,55.94,1.26,3.22,1.86,6.99,4.94,9.36Z"/><path class="cls-2" d="M512.79,125.63c0-30.98,0-61.96,0-92.94,0-4.33-.08-8.67.23-12.99.72-9.97,3.58-12.56,13.81-12.73,4.66-.08,9.34-.16,13.99.15,9.06.6,12.53,4.12,13.14,13,.2,2.99.11,5.99.11,8.99-.04,62.96-.08,125.91-.11,188.87,0,17.44,1.83,18.88,18.96,17.78,29.91-1.92,59.85-3.46,89.78-5.13,2.32-.13,4.66-.11,6.99.03,3.95.23,6.02,2.36,6.17,6.38.15,4.1-.92,7.37-5.55,8.02-2.63.37-5.31.43-7.97.45-43.97.31-87.94.59-131.91.88-1.33,0-2.67.03-4-.08-9.46-.73-13.12-4.3-13.55-13.76-.29-6.32-.16-12.66-.17-18.98-.01-29.31,0-58.63,0-87.94h.09Z"/><path class="cls-1" d="M1094.78,0c.56.21,1.36.26,1.63.67.4.58-.05,1.29-.82,1.32-.56.02-1.35-.23-1.63-.63-.4-.58.05-1.16.82-1.35Z"/></g></svg>