<?xml version="1.0" encoding="UTF-8"?><svg id="Capa_2" xmlns="http://www.w3.org/2000/svg" viewBox="0 0 878.01 247.71"><defs><style>.cls-1{fill:#c87865;}</style></defs><g id="Capa_1-2"><path class="cls-1" d="M125.17,112.02c3.31,4.2,6.93,4.02,9.98,4.93,7.05,2.09,13.89,4.63,20.45,7.93,27.52,13.86,40.48,43.8,31.58,73.26-4.51,14.96-15.14,24.87-28.21,32.27-15.09,8.55-31.85,11.91-48.89,12.7-32.27,1.5-64.58.51-96.87.25-10.47-.08-13.13-3.53-13.15-15.48C0,179.94.02,132,0,84.06c0-20.64-.02-41.28,0-61.93,0-2.99,0-6,.31-8.97.48-4.55,3.22-7.23,7.68-7.91,2.62-.4,5.31-.47,7.96-.46,25.97.04,51.94.06,77.91.23,12.7.08,25.24,1.59,37.44,5.34,7.36,2.26,14.3,5.42,20.73,9.7,27.23,18.14,29.83,63.58-2.49,81.08-7.59,4.11-15.55,7.37-24.37,10.89ZM73.15,121.35c0-.25,0-.5,0-.76-4.66,0-9.33.02-13.99,0-22.49-.13-18.36-1.25-18.49,18.61-.19,27.98-.15,55.97.01,83.95.05,9.24,1.33,10.36,10.51,10.42,13.66.09,27.32-.06,40.97-.12,6.03-.02,11.98-.88,17.79-2.4,17.94-4.7,29.6-15.89,34.52-33.91,2.49-9.13,2.84-18.41,1.96-27.75-2.69-28.6-19.74-45.7-48.31-47.94-8.27-.65-16.64-.1-24.96-.1ZM69.15,110.35c8.65-.32,17.33.18,25.93-1.12,12.26-1.85,23.12-6.33,30.23-17.25,20.44-31.43,2.45-71.65-34.35-76.85-13.25-1.87-26.58-1.53-39.88-1.29-8.46.15-10.19,2.16-10.46,11.01-.2,6.65-.08,13.31-.09,19.97-.03,18.64-.1,37.28-.05,55.92.02,8.99.53,9.45,9.7,9.59,6.32.09,12.65.02,18.97.02Z"/><path class="cls-1" d="M719.11,136.2c7.86-5.48,13.19-11.88,18.83-17.88,33.3-35.45,66.54-70.96,99.64-106.6,4.41-4.75,8.99-7.74,15.65-6.5,4.25.79,5.28,2.68,2.78,6.06-1.97,2.66-4.42,4.97-6.73,7.37-22.94,23.7-45.93,47.35-68.81,71.1-6.59,6.85-6.43,7.48-.8,15.1,28.31,38.32,56.58,76.66,84.89,114.97,3.96,5.36,8.32,10.42,12.07,15.92,2.77,4.06,1.27,7.29-3.65,7.5-10.63.46-21.31.88-31.9-.85-7.77-1.27-13.07-5.99-17.52-12.19-15.94-22.18-31.99-44.29-48.07-66.38-8.04-11.04-16.14-22.04-24.4-32.92-4.33-5.71-4.6-5.67-9.78-.44-6.1,6.15-11.8,12.71-18.09,18.65-4.26,4.03-5.64,8.55-5.59,14.22.2,20.65.14,41.31.08,61.97-.05,16.59-1.83,18.33-18.34,18.36-3.66,0-7.35.1-10.99-.25-7.6-.74-10.71-3.79-11.71-11.18-.27-1.97-.23-3.99-.23-5.99.02-67.3.02-134.6.12-201.9.03-18.12,2.02-19.95,20.18-19.94,18.18.02,20.93,2.67,20.93,20.76,0,32.65-.12,65.3-.12,97.95,0,3.91-.47,7.93,1.55,13.07Z"/><path class="cls-1" d="M407.42,243.62q-22.08-.1-30.16-20.99c-6.73-17.39-14.67-34.31-20.22-52.13-2.37-7.61-7.22-11.64-15.07-12.39-25.95-2.48-51.43-.28-75.37,10.39-20.18,8.99-34.38,24.84-44.17,44.49-3.41,6.84-5.93,14.12-8.91,21.17-1.03,2.44-1.86,5.04-3.91,6.9-3.35,3.04-7.49,3.54-11.1,1.45-3.48-2.02-2.4-5.7-1.09-8.92,8.65-21.28,17.17-42.61,25.96-63.84,20.74-50.15,41.61-100.24,62.43-150.36.77-1.84,1.57-3.67,2.35-5.51,2.45-5.79,6.6-8.99,13.09-8.92,4.66.05,9.32-.07,13.98-.15,12.05-.2,20.1,5.18,24.61,16.53,7.5,18.87,15.44,37.57,23.15,56.36,20.6,50.21,41.53,100.28,61.09,150.91.36.93.77,1.84,1.12,2.78,3.84,10.33,2.6,12.07-8.8,12.25-3,.05-5.99,0-8.99,0ZM238.87,168.28c16.84-8.11,33.24-15.72,51.33-19.11,18.39-3.45,37.01-1.28,57.09-2.42-15.66-43.22-32.43-84.69-49.96-126.19-21.36,48.68-40.63,97.68-58.46,147.73Z"/><path class="cls-1" d="M476.29,122.79c-.7,22.24,3.75,42.91,12.47,62.73,5.58,12.69,13.81,23.39,23.53,33.24,32.84,33.28,91.41,20.12,111.12-16.46,1.9-3.52,3.43-7.23,5.37-10.72,2.75-4.96,4.5-5.36,9.69-2.67,8.68,4.5,10.4,9.61,5.1,17.79-11.16,17.24-27.48,27.96-46.5,34.48-66.78,22.87-142.1-16.75-160.28-81.19-13.52-47.92-3.62-91.37,33.79-126.11C508.45-1.29,552.42-7.97,600.6,8.72c9.13,3.17,18.18,6.62,26.4,11.83,6.45,4.08,6.87,6.74,2.3,12.84-.8,1.06-1.71,2.04-2.58,3.05q-8.22,9.5-17.53.53c-13.64-13.22-28.55-23.92-48.19-26.33-16.48-2.02-30.96,2.11-43.85,12.47-20.48,16.46-31.09,38.69-37.1,63.53-2.91,12.02-4.31,24.27-3.75,36.15Z"/></g></svg>